<svg xmlns="http://www.w3.org/2000/svg" xmlns:xlink="http://www.w3.org/1999/xlink" width="85.878" height="67.922" viewBox="0 0 85.878 67.922"><defs><clipPath id="a"><rect width="85.878" height="67.922" fill="none"/></clipPath></defs><g clip-path="url(#a)"><path d="M28.169,17.963a1.036,1.036,0,0,1-.736-.3l-2.549-2.55a1.042,1.042,0,0,1,1.473-1.473l1.812,1.812,4.361-4.361A1.042,1.042,0,0,1,34,12.563l-5.1,5.1a1.036,1.036,0,0,1-.736.3" fill="#e20613"/><path d="M28.169,17.963a1.036,1.036,0,0,1-.736-.3l-2.549-2.55a1.042,1.042,0,0,1,1.473-1.473l1.812,1.812,4.361-4.361A1.042,1.042,0,0,1,34,12.563l-5.1,5.1a1.036,1.036,0,0,1-.736.3" fill="none" stroke="#e20613" stroke-width="1"/><path d="M60.257,15.968H39.006a1.042,1.042,0,1,1,0-2.084H60.257a1.042,1.042,0,1,1,0,2.084Z" fill="#e20613"/><path d="M60.257,15.968H39.006a1.042,1.042,0,1,1,0-2.084H60.257a1.042,1.042,0,1,1,0,2.084h0" fill="none" stroke="#e20613" stroke-width="1"/><path d="M28.169,29.022a1.036,1.036,0,0,1-.736-.3l-2.549-2.549A1.042,1.042,0,0,1,26.357,24.7l1.812,1.812,4.361-4.361A1.042,1.042,0,0,1,34,23.624l-5.1,5.1a1.036,1.036,0,0,1-.736.3" fill="#e20613"/><path d="M28.169,29.022a1.036,1.036,0,0,1-.736-.3l-2.549-2.549A1.042,1.042,0,0,1,26.357,24.7l1.812,1.812,4.361-4.361A1.042,1.042,0,0,1,34,23.624l-5.1,5.1a1.036,1.036,0,0,1-.736.3" fill="none" stroke="#e20613" stroke-width="1"/><path d="M60.257,27.022H39.006a1.042,1.042,0,1,1,0-2.084H60.257a1.042,1.042,0,1,1,0,2.084Z" fill="#e20613"/><path d="M60.257,27.022H39.006a1.042,1.042,0,1,1,0-2.084H60.257a1.042,1.042,0,1,1,0,2.084h0" fill="none" stroke="#e20613" stroke-width="1"/><path d="M28.169,40.075a1.036,1.036,0,0,1-.736-.3l-2.549-2.549a1.042,1.042,0,0,1,1.473-1.473l1.812,1.809L32.53,33.2A1.042,1.042,0,0,1,34,34.674l-5.1,5.1a1.036,1.036,0,0,1-.736.3" fill="#e20613"/><path d="M28.169,40.075a1.036,1.036,0,0,1-.736-.3l-2.549-2.549a1.042,1.042,0,0,1,1.473-1.473l1.812,1.809L32.53,33.2A1.042,1.042,0,0,1,34,34.674l-5.1,5.1a1.036,1.036,0,0,1-.736.3" fill="none" stroke="#e20613" stroke-width="1"/><path d="M60.257,38.076H39.006a1.042,1.042,0,1,1,0-2.084H60.257a1.042,1.042,0,1,1,0,2.084Z" fill="#e20613"/><path d="M60.257,38.076H39.006a1.042,1.042,0,1,1,0-2.084H60.257a1.042,1.042,0,1,1,0,2.084h0" fill="none" stroke="#e20613" stroke-width="1"/><path d="M77.886,57.857H7.993A7.5,7.5,0,0,1,.5,50.365V7.992A7.5,7.5,0,0,1,7.993.5H77.886a7.5,7.5,0,0,1,7.492,7.492V50.365a7.5,7.5,0,0,1-7.492,7.492M7.993,2.584A5.414,5.414,0,0,0,2.584,7.992V50.365a5.414,5.414,0,0,0,5.409,5.408H77.886a5.415,5.415,0,0,0,5.408-5.408V7.992a5.415,5.415,0,0,0-5.408-5.408Z" fill="#e20613"/><path d="M77.886,57.857H7.993A7.5,7.5,0,0,1,.5,50.365V7.992A7.5,7.5,0,0,1,7.993.5H77.886a7.5,7.5,0,0,1,7.492,7.492V50.365a7.5,7.5,0,0,1-7.492,7.492M7.993,2.584A5.414,5.414,0,0,0,2.584,7.992V50.365a5.414,5.414,0,0,0,5.409,5.408H77.886a5.415,5.415,0,0,0,5.408-5.408V7.992a5.415,5.415,0,0,0-5.408-5.408Z" fill="none" stroke="#e20613" stroke-width="1"/><path d="M77.872,57.856H8.006A7.516,7.516,0,0,1,.5,50.35V48.835a1.043,1.043,0,0,1,1.042-1.042H84.336a1.043,1.043,0,0,1,1.042,1.042v1.518a7.516,7.516,0,0,1-7.506,7.506M2.584,49.874v.476a5.429,5.429,0,0,0,5.422,5.423H77.872a5.429,5.429,0,0,0,5.422-5.423v-.476Z" fill="#e20613"/><path d="M77.872,57.856H8.006A7.516,7.516,0,0,1,.5,50.35V48.835a1.043,1.043,0,0,1,1.042-1.042H84.336a1.043,1.043,0,0,1,1.042,1.042v1.518a7.516,7.516,0,0,1-7.506,7.506M2.584,49.874v.476a5.429,5.429,0,0,0,5.422,5.423H77.872a5.429,5.429,0,0,0,5.422-5.423v-.476Z" fill="none" stroke="#e20613" stroke-width="1"/><path d="M47.417,67.422H38.462A1.043,1.043,0,0,1,37.42,66.38V56.815a1.043,1.043,0,0,1,1.042-1.042h8.955a1.043,1.043,0,0,1,1.042,1.042V66.38a1.043,1.043,0,0,1-1.042,1.042M39.5,65.343h6.872V57.861H39.5Z" fill="#e20613"/><path d="M47.417,67.422H38.462A1.043,1.043,0,0,1,37.42,66.38V56.815a1.043,1.043,0,0,1,1.042-1.042h8.955a1.043,1.043,0,0,1,1.042,1.042V66.38a1.043,1.043,0,0,1-1.042,1.042M39.5,65.343h6.872V57.861H39.5Z" fill="none" stroke="#e20613" stroke-width="1"/><path d="M55.931,67.422H29.948a1.042,1.042,0,1,1,0-2.084H55.931a1.042,1.042,0,0,1,0,2.084" fill="#e20613"/><path d="M55.931,67.422H29.948a1.042,1.042,0,1,1,0-2.084H55.931a1.042,1.042,0,0,1,0,2.084" fill="none" stroke="#e20613" stroke-width="1"/></g></svg>