<svg xmlns="http://www.w3.org/2000/svg" xmlns:xlink="http://www.w3.org/1999/xlink" width="172.042" height="59.681" viewBox="0 0 172.042 59.681"><defs><clipPath id="a"><rect width="172.042" height="59.681" fill="none"/></clipPath><clipPath id="c"><rect width="26.815" height="47.785" fill="none"/></clipPath></defs><g clip-path="url(#a)"><g clip-path="url(#a)"><g transform="translate(29.045 11.896)" opacity="0.8"><g clip-path="url(#c)"><path d="M113.557,32.769,104.619,56.66H122.5Z" transform="translate(-95.681 -32.767)" fill="#fff"/><path d="M88.938,56.655,80,32.764H97.877Z" transform="translate(-80 -32.764)" fill="#fff"/><path d="M113.557,122.462l-8.938-23.891H122.5Z" transform="translate(-95.681 -74.679)" fill="#fff"/><path d="M88.938,98.576,80,122.467H97.877Z" transform="translate(-80 -74.682)" fill="#fff"/></g></g><g transform="translate(58.091 11.896)" opacity="0.8"><g clip-path="url(#c)"><path d="M193.557,32.769,184.619,56.66H202.5Z" transform="translate(-175.681 -32.767)" fill="#fff"/><path d="M168.938,56.655,160,32.764h17.877Z" transform="translate(-160 -32.764)" fill="#fff"/><path d="M193.557,122.462l-8.938-23.891H202.5Z" transform="translate(-175.681 -74.679)" fill="#fff"/><path d="M168.938,98.576,160,122.467h17.877Z" transform="translate(-160 -74.682)" fill="#fff"/></g></g><g transform="translate(87.136 11.896)" opacity="0.8"><g clip-path="url(#c)"><path d="M273.557,32.769,264.619,56.66H282.5Z" transform="translate(-255.681 -32.767)" fill="#fff"/><path d="M248.938,56.655,240,32.764h17.877Z" transform="translate(-240 -32.764)" fill="#fff"/><path d="M273.557,122.462l-8.938-23.891H282.5Z" transform="translate(-255.681 -74.679)" fill="#fff"/><path d="M248.938,98.576,240,122.467h17.877Z" transform="translate(-240 -74.682)" fill="#fff"/></g></g><g transform="translate(116.182 11.896)" opacity="0.8"><g clip-path="url(#c)"><path d="M353.557,32.769,344.619,56.66H362.5Z" transform="translate(-335.681 -32.767)" fill="#fff"/><path d="M328.938,56.655,320,32.764h17.877Z" transform="translate(-320 -32.764)" fill="#fff"/><path d="M353.557,122.462l-8.938-23.891H362.5Z" transform="translate(-335.681 -74.679)" fill="#fff"/><path d="M328.938,98.576,320,122.467h17.877Z" transform="translate(-320 -74.682)" fill="#fff"/></g></g><g transform="translate(145.227 11.896)" opacity="0.8"><g clip-path="url(#c)"><path d="M433.557,32.769,424.619,56.66H442.5Z" transform="translate(-415.681 -32.767)" fill="#fff"/><path d="M408.938,56.655,400,32.764h17.877Z" transform="translate(-400 -32.764)" fill="#fff"/><path d="M433.557,122.462l-8.938-23.891H442.5Z" transform="translate(-415.681 -74.679)" fill="#fff"/><path d="M408.938,98.576,400,122.467h17.877Z" transform="translate(-400 -74.682)" fill="#fff"/></g></g><g transform="translate(0 11.896)" opacity="0.8"><g clip-path="url(#c)"><path d="M33.557,32.769,24.619,56.66H42.5Z" transform="translate(-15.681 -32.767)" fill="#fff"/><path d="M8.938,56.655,0,32.764H17.877Z" transform="translate(0 -32.764)" fill="#fff"/><path d="M33.557,122.462,24.619,98.572H42.5Z" transform="translate(-15.681 -74.679)" fill="#fff"/><path d="M8.938,98.576,0,122.467H17.877Z" transform="translate(0 -74.682)" fill="#fff"/></g></g><path d="M49.5,40.4c-.044.261-7.276,27.49-7.929,29.887a2.985,2.985,0,0,1-2.745,2.309,2.768,2.768,0,0,1-2.658-2.353c-.74-2.875-6.709-25.312-7.755-29.233H21.8l9.541,40.43h6.448a.784.784,0,1,1,0,1.568H30.727c-.087,0-.174-.044-.261-.044h-.044c-.044,0-.131-.087-.174-.131H30.2l-.174-.174v-.044a.332.332,0,0,1-.087-.218l-9.933-42a.883.883,0,0,1,.174-.654.832.832,0,0,1,.61-.3h8.234a.747.747,0,0,1,.741.566c.044.261,7.1,26.706,7.929,29.843.174.741.61,1.176,1.133,1.176a1.346,1.346,0,0,0,1.22-1.133c.566-2.091,6.361-23.961,7.668-28.885H41.749L37.784,56.255a.787.787,0,0,1-1.525-.392l4.1-15.814a.837.837,0,0,1,.784-.61h7.624a.832.832,0,0,1,.61.3.859.859,0,0,1,.131.654" transform="translate(-12.737 -25.119)" fill="#e20613"/><path d="M121.821,98.1a.781.781,0,0,1-.784-.784V93.085H110.755v3.442H115.9a.781.781,0,0,1,.784.784.745.745,0,0,1-.784.741h-5.925a.745.745,0,0,1-.784-.741V92.3a.78.78,0,0,1,.784-.784h11.85a.781.781,0,0,1,.784.784v5.01a.781.781,0,0,1-.784.784" transform="translate(-69.545 -58.29)" fill="#e20613"/><path d="M167.06,83.005a.781.781,0,0,1-.784-.784V62.485c0-2.745,1.176-3.921,3.921-3.921h6.709c2.047,0,3.4-.349,3.4-5.664,0-3.746-.958-5.271-3.4-5.271H175.73v6.622a.745.745,0,0,1-.741.784.781.781,0,0,1-.784-.784V46.845a.781.781,0,0,1,.784-.784h1.917c4.966,0,4.966,5.141,4.966,6.84,0,5.315-1.351,7.232-4.966,7.232H170.2c-1.874,0-2.353.479-2.353,2.353V81.437h6.361V66.712a.781.781,0,0,1,.784-.784h2.353c1.96,0,5.184,0,7.581-1.83,2.309-1.873,3.79-5.925,3.79-10.543a15.986,15.986,0,0,0-2.309-8.931c-2.309-3.616-5.794-3.616-9.5-3.616h-9.062V55.253a.784.784,0,1,1-1.568,0V40.223a.781.781,0,0,1,.784-.784h9.846c3.747,0,8.06,0,10.8,4.313a17.539,17.539,0,0,1,2.571,9.8c0,5.141-1.656,9.541-4.356,11.763-2.832,2.178-6.579,2.222-8.583,2.222H175.73V82.221a.745.745,0,0,1-.741.784Z" transform="translate(-105.907 -25.12)" fill="#e20613"/><path d="M311.357,83.005a.781.781,0,0,1-.784-.784V62.485c0-2.745,1.176-3.921,3.921-3.921H321.2c2.048,0,3.4-.349,3.4-5.664,0-3.746-.959-5.271-3.4-5.271h-1.176v6.622a.745.745,0,0,1-.741.784.781.781,0,0,1-.784-.784V46.845a.781.781,0,0,1,.784-.784H321.2c4.966,0,4.966,5.141,4.966,6.84,0,5.315-1.351,7.232-4.966,7.232h-6.709c-1.874,0-2.353.479-2.353,2.353V81.437H318.5V66.712a.781.781,0,0,1,.784-.784h2.352c1.961,0,5.185,0,7.581-1.83,2.309-1.873,3.79-5.925,3.79-10.543a15.986,15.986,0,0,0-2.309-8.931c-2.309-3.616-5.794-3.616-9.5-3.616h-9.062V55.253a.784.784,0,1,1-1.568,0V40.223a.781.781,0,0,1,.784-.784H321.2c3.746,0,8.059,0,10.8,4.313a17.536,17.536,0,0,1,2.57,9.8c0,5.141-1.656,9.541-4.356,11.763-2.832,2.178-6.579,2.222-8.583,2.222h-1.612V82.221a.745.745,0,0,1-.741.784Z" transform="translate(-197.814 -25.12)" fill="#e20613"/><path d="M403.606,83.005a.781.781,0,0,1-.784-.784v-13.9a4.808,4.808,0,0,1,4.705-4.749h12.9V58.129H411.71a.781.781,0,0,1-.784-.784V47.586a.781.781,0,0,1,.784-.784H423.3V41.007H404.39v20.04a.785.785,0,0,1-1.568,0V40.223a.781.781,0,0,1,.784-.784h20.476a.781.781,0,0,1,.785.784v7.363a.781.781,0,0,1-.785.784H412.494v8.19h8.669a.781.781,0,0,1,.785.784v7.014a.745.745,0,0,1-.785.741H407.7a3.3,3.3,0,0,0-3.311,3.268v13.07H423.3V75.643H411.71a.781.781,0,0,1-.784-.784v-5.4a.784.784,0,1,1,1.568,0v4.618h11.588a.781.781,0,0,1,.785.784v7.363a.781.781,0,0,1-.785.784Z" transform="translate(-256.57 -25.12)" fill="#e20613"/><path d="M253.379,82.458a8.36,8.36,0,0,1-8.351-8.351V38.165a.726.726,0,1,1,1.452,0V74.107a6.9,6.9,0,1,0,13.8,0V38.165a.726.726,0,0,1,1.452,0V74.107a8.36,8.36,0,0,1-8.351,8.351" transform="translate(-156.066 -23.846)" fill="#e20613"/><path d="M259.443,56.411a2.569,2.569,0,0,1-1.529-.477,1.249,1.249,0,0,0-1.5,0,2.687,2.687,0,0,1-3.057,0,1.246,1.246,0,0,0-1.495,0,2.687,2.687,0,0,1-3.057,0,1.149,1.149,0,0,0-.748-.249.726.726,0,1,1,0-1.452,2.564,2.564,0,0,1,1.529.477,1.246,1.246,0,0,0,1.495,0,2.687,2.687,0,0,1,3.057,0,1.246,1.246,0,0,0,1.495,0,2.69,2.69,0,0,1,3.059,0,1.249,1.249,0,0,0,1.5,0,2.571,2.571,0,0,1,1.53-.477.726.726,0,1,1,0,1.452,1.15,1.15,0,0,0-.749.249,2.571,2.571,0,0,1-1.53.477" transform="translate(-157.535 -34.543)" fill="#e20613"/><path d="M262.976,12.815,248.108,9.6a.018.018,0,0,1-.014-.021l1.288-5.95a2.06,2.06,0,0,1,2.449-1.578l1.728.374L262.708,4.4a2.06,2.06,0,0,1,1.578,2.45L263,12.8a.018.018,0,0,1-.021.014" transform="translate(-158.019 -1.273)" fill="#fff"/><path d="M262.062,12.389l-.732-.138L245.752,8.878l.141-.732L247.181,2.2A2.789,2.789,0,0,1,250.494.063L261.37,2.418A2.786,2.786,0,0,1,263.5,5.731Zm-14.6-4.627,13.484,2.92,1.138-5.258a1.336,1.336,0,0,0-1.022-1.586L250.187,1.483A1.336,1.336,0,0,0,248.6,2.5Z" transform="translate(-156.527 0)" fill="#e20613"/><path d="M260.072,8.47h0l1.111-5.131" transform="translate(-165.648 -2.127)" fill="#e20613"/><path d="M258.8,7.922a.727.727,0,0,1-.711-.88L259.2,1.912a.726.726,0,0,1,1.419.308L259.508,7.35a.727.727,0,0,1-.709.573" transform="translate(-164.374 -0.853)" fill="#e20613"/><path d="M269.846,10.586h0l1.111-5.131" transform="translate(-171.874 -3.475)" fill="#e20613"/><path d="M268.573,10.038a.727.727,0,0,1-.711-.88l1.111-5.131a.726.726,0,1,1,1.419.308l-1.111,5.131a.726.726,0,0,1-.709.573" transform="translate(-170.599 -2.2)" fill="#e20613"/><path d="M279.62,12.7h0l1.111-5.131" transform="translate(-178.099 -4.823)" fill="#e20613"/><path d="M278.347,12.154a.727.727,0,0,1-.711-.88l1.111-5.131a.726.726,0,0,1,1.419.308l-1.111,5.131a.727.727,0,0,1-.709.573" transform="translate(-176.825 -3.548)" fill="#e20613"/><path d="M263.34,68.844a.625.625,0,0,0-.5.309.32.32,0,0,1-.253.157l-.643.047a2.671,2.671,0,0,0-.656-1.55l.366-.419a.328.328,0,0,1,.275-.109.623.623,0,1,0-.527-.466.318.318,0,0,1-.074.288l-.352.4a2.676,2.676,0,0,0-1.491-.6v-.281a.314.314,0,0,1,.135-.261.631.631,0,0,0,.275-.519.627.627,0,1,0-1.254,0,.634.634,0,0,0,.27.519.314.314,0,0,1,.135.261V66.9a2.67,2.67,0,0,0-1.323.48l-.4-.513a.307.307,0,0,1-.053-.292.642.642,0,0,0-.1-.58A.626.626,0,1,0,256.708,67a.328.328,0,0,1,.27.126l.409.531a2.692,2.692,0,0,0-.69,1.138l-.172-.031a.312.312,0,0,1-.235-.179.628.628,0,1,0-.13.7.321.321,0,0,1,.283-.087l.164.03a2.644,2.644,0,0,0-.025.349,2.674,2.674,0,0,0,.169.931l-.457.245a.322.322,0,0,1-.3.009.608.608,0,0,0-.58,0,.626.626,0,1,0,.593,1.1.62.62,0,0,0,.327-.484.316.316,0,0,1,.166-.244l.431-.235a2.7,2.7,0,0,0,.826.9l-.172.337-.358.7a.313.313,0,0,1-.24.174.628.628,0,0,0-.545.7.617.617,0,0,0,.405.505.626.626,0,0,0,.806-.366.617.617,0,0,0-.035-.518.323.323,0,0,1,0-.3l.357-.7.165-.323a2.677,2.677,0,0,0,1.124.249c.073,0,.144-.005.215-.011l.02.085a.316.316,0,0,1-.07.288.6.6,0,0,0-.148.566.628.628,0,1,0,.836-.736.317.317,0,0,1-.191-.222l-.012-.052a2.681,2.681,0,0,0,1.315-.775l.358.212a.321.321,0,0,1,.157.253.626.626,0,1,0,.362-.61.325.325,0,0,1-.3-.017l-.306-.181a2.673,2.673,0,0,0,.438-1.269l.678-.053a.317.317,0,0,1,.27.113.626.626,0,1,0,.445-1.011" transform="translate(-162.473 -41.534)" fill="#e20613"/><path d="M262.333,76.575a.667.667,0,1,1-.667.667.667.667,0,0,1,.667-.667" transform="translate(-166.664 -48.773)" fill="#e20613"/><path d="M265.386,71.835a.492.492,0,1,1-.492.492.492.492,0,0,1,.492-.492" transform="translate(-168.72 -45.754)" fill="#e20613"/><path d="M267.412,78.039a.8.8,0,1,1-.8.8.8.8,0,0,1,.8-.8" transform="translate(-169.813 -49.706)" fill="#e20613"/><path d="M268.828,100.784a.524.524,0,0,0-.476-.11.266.266,0,0,1-.242-.057l-.407-.353a2.234,2.234,0,0,0,.528-1.3l.464-.031a.274.274,0,0,1,.227.1.52.52,0,1,0-.036-.587.264.264,0,0,1-.213.126l-.444.028a2.23,2.23,0,0,0-.525-1.236l.166-.166a.262.262,0,0,1,.234-.074.523.523,0,1,0-.42-.42.264.264,0,0,1-.075.234l-.166.166a2.231,2.231,0,0,0-1.066-.5l.069-.537a.258.258,0,0,1,.141-.2.532.532,0,0,0,.281-.4.523.523,0,1,0-.867.322.274.274,0,0,1,.085.234l-.073.556a2.245,2.245,0,0,0-1.08.265l-.083-.121a.259.259,0,0,1-.034-.244.525.525,0,1,0-.489.334.269.269,0,0,1,.219.116l.079.114a2.377,2.377,0,0,0-.221.191,2.247,2.247,0,0,0-.45.65l-.415-.125a.271.271,0,0,1-.18-.17.507.507,0,0,0-.345-.339.523.523,0,1,0-.3,1,.519.519,0,0,0,.479-.093.264.264,0,0,1,.242-.046l.394.116a2.257,2.257,0,0,0-.041,1.017l-.3.1-.623.2a.263.263,0,0,1-.245-.038.524.524,0,0,0-.736.093.515.515,0,0,0-.059.538.523.523,0,0,0,.692.26.515.515,0,0,0,.286-.326.27.27,0,0,1,.175-.175l.623-.2.288-.093a2.232,2.232,0,0,0,.517.811c.043.043.088.082.133.121l-.038.062a.262.262,0,0,1-.211.129.506.506,0,0,0-.422.247.524.524,0,1,0,.929.059.266.266,0,0,1,.018-.244l.024-.038a2.243,2.243,0,0,0,1.234.319l.086.337a.267.267,0,0,1-.057.242.523.523,0,1,0,.574-.147.27.27,0,0,1-.165-.185l-.073-.288a2.238,2.238,0,0,0,1.009-.491l.432.369a.266.266,0,0,1,.093.227.523.523,0,1,0,.86-.335" transform="translate(-166.73 -60.422)" fill="#e20613"/><path d="M270.28,103.225a.557.557,0,1,1-.788,0,.557.557,0,0,1,.788,0" transform="translate(-171.544 -65.643)" fill="#e20613"/><path d="M275.14,102.123a.411.411,0,1,1-.582,0,.411.411,0,0,1,.582,0" transform="translate(-174.798 -64.969)" fill="#e20613"/><path d="M272.218,107.173a.67.67,0,1,1-.947,0,.669.669,0,0,1,.947,0" transform="translate(-172.656 -68.137)" fill="#e20613"/><path d="M264.378,125.913a.585.585,0,0,0-.464.289.3.3,0,0,1-.236.146l-.6.044a2.5,2.5,0,0,0-.612-1.446l.342-.391a.306.306,0,0,1,.256-.1.581.581,0,1,0-.492-.435.3.3,0,0,1-.069.268l-.329.373a2.5,2.5,0,0,0-1.392-.562v-.263a.294.294,0,0,1,.126-.244.586.586,0,0,0-.33-1.07.583.583,0,0,0-.585.586.59.59,0,0,0,.252.484.293.293,0,0,1,.126.244v.263a2.492,2.492,0,0,0-1.235.448l-.371-.479a.286.286,0,0,1-.049-.272.6.6,0,0,0-.1-.541.584.584,0,1,0-.431.94.3.3,0,0,1,.252.118l.382.5a2.51,2.51,0,0,0-.644,1.062l-.16-.029a.289.289,0,0,1-.22-.167.587.587,0,1,0-.643.813.587.587,0,0,0,.521-.163.3.3,0,0,1,.264-.081l.154.028a2.533,2.533,0,0,0-.024.326,2.489,2.489,0,0,0,.158.868l-.426.229a.3.3,0,0,1-.277.008.566.566,0,0,0-.541,0,.584.584,0,1,0,.553,1.029.58.58,0,0,0,.3-.452.3.3,0,0,1,.155-.228l.4-.219a2.514,2.514,0,0,0,.771.836l-.162.315-.333.651a.293.293,0,0,1-.224.163.586.586,0,0,0-.508.655.575.575,0,0,0,.378.472.584.584,0,0,0,.752-.342.576.576,0,0,0-.033-.484.3.3,0,0,1,0-.277l.333-.651.155-.3a2.49,2.49,0,0,0,1.049.232c.068,0,.134-.005.2-.01l.019.079a.294.294,0,0,1-.065.268.564.564,0,0,0-.138.529.586.586,0,1,0,.781-.687.3.3,0,0,1-.179-.208l-.012-.048a2.5,2.5,0,0,0,1.227-.723l.334.2a.3.3,0,0,1,.146.236.584.584,0,1,0,.338-.569.3.3,0,0,1-.277-.016l-.285-.169a2.494,2.494,0,0,0,.409-1.184l.632-.049a.3.3,0,0,1,.252.106.584.584,0,1,0,.415-.943" transform="translate(-163.485 -78.038)" fill="#e20613"/><path d="M263.437,133.129a.622.622,0,1,1-.622.622.622.622,0,0,1,.622-.622" transform="translate(-167.395 -84.794)" fill="#e20613"/><path d="M266.288,128.705a.459.459,0,1,1-.46.46.46.46,0,0,1,.46-.46" transform="translate(-169.314 -81.976)" fill="#e20613"/><path d="M268.178,134.495a.748.748,0,1,1-.748.748.748.748,0,0,1,.748-.748" transform="translate(-170.335 -85.664)" fill="#e20613"/></g></g></svg>