<?xml version="1.0" encoding="UTF-8"?>
<svg id="Layer_2" data-name="Layer 2" xmlns="http://www.w3.org/2000/svg" viewBox="0 0 1079.41 1406.24">
  <defs>
    <style>
      .cls-1 {
        fill: #c6c6c6;
      }

      .cls-1, .cls-2 {
        stroke-width: 0px;
      }

      .cls-2 {
        fill: #919191;
      }
    </style>
  </defs>
  <g id="Layer_1-2" data-name="Layer 1">
    <g>
      <g>
        <path class="cls-1" d="M488.96.81l92.94,140.87c15.46,23.5,30.84,47.06,45.83,70.87,7.49,11.91,14.86,23.89,22.06,35.98,7.22,12.08,14.19,24.32,20.81,36.75,6.59,12.44,12.88,25.07,18.32,38.09,5.44,13,10.17,26.38,13.22,40.21,3.07,13.79,4.47,28.12,2.79,42.28-.82,7.06-2.3,14.05-4.48,20.83-1.08,3.39-2.34,6.73-3.78,9.98-1.4,3.27-2.99,6.45-4.66,9.58-6.76,12.51-15.43,23.85-24.92,34.32-9.52,10.46-19.83,20.16-30.53,29.35-21.43,18.37-44.18,35.04-67.17,51.28-46.11,32.33-93.4,62.84-140.3,93.89l-140.89,92.92L6.43,933.86l-3.84-5.85,282.72-184.41,141.37-92.19c47.07-30.81,94.5-61.07,140.69-93.1,23.03-16.08,45.8-32.59,67.19-50.74,10.68-9.08,20.95-18.64,30.42-28.94,9.44-10.3,18.03-21.43,24.72-33.66,1.65-3.06,3.23-6.17,4.61-9.36,1.43-3.17,2.67-6.42,3.74-9.72,2.16-6.6,3.64-13.43,4.48-20.33,1.71-13.82.42-27.9-2.54-41.53-2.94-13.67-7.55-26.96-12.9-39.92-5.34-12.97-11.53-25.58-18.05-38.03-6.54-12.43-13.44-24.68-20.58-36.78-7.13-12.11-14.43-24.13-21.86-36.07-14.86-23.87-30.11-47.51-45.45-71.08L488.96.81Z"/>
        <path class="cls-1" d="M513.92.81l98.36,149.12c16.42,24.84,32.75,49.74,48.77,74.84,8,12.56,15.9,25.18,23.63,37.91,3.87,6.36,7.67,12.76,11.45,19.18,3.74,6.44,7.44,12.91,11.03,19.44,7.19,13.05,14.01,26.33,20.12,39.94,6.1,13.62,11.41,27.64,15.14,42.15,3.74,14.48,5.57,29.6,4.34,44.62-1.17,15.05-5.87,29.68-12.91,42.96-7.11,13.28-16.39,25.21-26.51,36.22-10.15,11-21.16,21.16-32.58,30.78-5.71,4.8-11.49,9.52-17.36,14.13-5.87,4.61-11.81,9.11-17.78,13.57-11.96,8.91-24.11,17.54-36.34,26.05-48.96,33.99-99.07,66.18-148.69,99.08l-149.12,98.35L7.24,985.86l-3.84-5.85,299.21-195.24,149.61-97.62c49.79-32.67,100.06-64.61,149.09-98.3,12.25-8.44,24.41-16.99,36.37-25.81,5.97-4.42,11.93-8.88,17.78-13.44,5.86-4.56,11.64-9.23,17.34-13.98,11.39-9.5,22.36-19.53,32.46-30.36,5.04-5.42,9.85-11.05,14.27-16.97,4.43-5.91,8.52-12.08,12.01-18.56,6.95-12.96,11.62-27.25,12.83-41.92,1.27-14.69-.45-29.56-4.07-43.88-3.62-14.36-8.82-28.31-14.82-41.88-6.02-13.58-12.75-26.85-19.86-39.9-3.55-6.53-7.21-13.01-10.92-19.45-3.74-6.43-7.51-12.84-11.35-19.22-7.66-12.76-15.49-25.41-23.43-38-15.9-25.17-32.1-50.14-48.39-75.06L513.92.81Z"/>
        <path class="cls-1" d="M538.34,0l104.01,157.71,26,39.43c8.62,13.18,17.23,26.35,25.76,39.59,17.04,26.48,33.8,53.16,49.42,80.54,7.77,13.7,15.23,27.61,21.94,41.89,6.68,14.29,12.71,28.94,17.05,44.17,2.17,7.61,3.85,15.37,4.96,23.23,1.12,7.84,1.53,15.85,1.03,23.78-.49,7.93-1.74,15.85-3.98,23.5-2.23,7.65-5.31,15.03-9,22.07-3.7,7.05-8.08,13.71-12.85,20.04-4.77,6.33-9.93,12.36-15.34,18.13-10.84,11.54-22.59,22.15-34.74,32.22-12.15,10.07-24.68,19.67-37.39,28.99-12.71,9.34-25.61,18.39-38.58,27.33-25.96,17.87-52.22,35.26-78.52,52.58l-78.88,51.96-157.72,104L6.07,1039.17l-3.84-5.85,316.39-206.54,158.2-103.27,79.13-51.59c26.37-17.19,52.7-34.45,78.7-52.17,13-8.86,25.91-17.84,38.62-27.09,12.73-9.24,25.23-18.74,37.38-28.71,12.13-9.95,23.84-20.44,34.62-31.81,5.38-5.69,10.5-11.61,15.23-17.84,4.73-6.22,9.06-12.74,12.71-19.61,3.65-6.89,6.7-14.09,8.91-21.55,2.22-7.45,3.47-15.18,3.99-22.95.52-7.78.17-15.58-.9-23.32-1.06-7.74-2.68-15.41-4.79-22.95-4.22-15.09-10.15-29.68-16.73-43.93-6.61-14.25-13.98-28.15-21.68-41.87-15.46-27.4-32.09-54.14-49-80.69-8.47-13.27-17.02-26.49-25.57-39.7l-25.81-39.55L538.34,0Z"/>
        <path class="cls-1" d="M563.82.81l109.42,165.95c18.22,27.67,36.54,55.27,54.57,83.07,18.04,27.79,35.83,55.77,52.52,84.41,8.35,14.32,16.3,28.89,23.63,43.78,3.66,7.45,7.12,15,10.28,22.69,3.17,7.68,6.07,15.48,8.53,23.43,4.91,15.89,7.94,32.52,7.39,49.3-.34,8.37-1.63,16.69-3.86,24.78-2.26,8.08-5.51,15.85-9.42,23.24-3.87,7.42-8.62,14.36-13.64,21-5.08,6.62-10.56,12.91-16.32,18.92-11.55,11.99-24,23.05-36.88,33.53-3.23,2.61-6.46,5.22-9.75,7.75l-9.93,7.5-9.93,7.5c-3.31,2.5-6.6,5.03-9.97,7.44-13.43,9.73-27.05,19.2-40.74,28.54l-10.29,6.99c-3.44,2.33-6.91,4.57-10.36,6.86l-20.74,13.68-41.48,27.36-82.97,54.73-165.93,109.45L6.07,1091.63l-3.84-5.85,332.82-217.44,166.41-108.72,83.21-54.36,41.6-27.18,20.8-13.59c3.46-2.27,6.95-4.51,10.38-6.81l10.3-6.93c13.72-9.27,27.35-18.65,40.79-28.3,3.38-2.39,6.66-4.9,9.98-7.37l9.93-7.43,9.93-7.43c3.29-2.5,6.52-5.08,9.74-7.67,12.85-10.37,25.27-21.3,36.76-33.13,5.73-5.92,11.17-12.11,16.21-18.61,4.99-6.54,9.67-13.31,13.49-20.57,3.87-7.23,7.08-14.82,9.32-22.68,2.2-7.87,3.51-16.02,3.88-24.2.18-4.09.13-8.18-.17-12.28-.23-4.11-.74-8.18-1.34-12.25-.62-4.06-1.44-8.09-2.35-12.11-.95-4-2.03-7.98-3.21-11.93-2.41-7.88-5.24-15.64-8.37-23.28-3.1-7.65-6.52-15.18-10.12-22.61-7.24-14.87-15.1-29.44-23.37-43.77-16.54-28.68-34.19-56.72-52.11-84.58-17.9-27.87-36.1-55.56-54.2-83.31L563.82.81Z"/>
        <path class="cls-1" d="M588.78.81l114.91,174.3,28.73,43.58,14.36,21.79,14.29,21.84c19.02,29.14,37.87,58.41,55.63,88.36,8.89,14.97,17.46,30.14,25.35,45.68,7.84,15.55,15.14,31.45,20.66,48.05,2.75,8.29,5.05,16.76,6.66,25.37,1.59,8.61,2.57,17.38,2.38,26.18-.15,8.78-1.23,17.58-3.52,26.1-.28,1.07-.59,2.12-.91,3.17-.31,1.04-.62,2.1-.97,3.15-.69,2.1-1.45,4.17-2.28,6.2-.82,2.04-1.7,4.05-2.61,6.04l-.7,1.52-.75,1.46-1.48,2.92c-8.32,15.53-19.46,29.29-31.66,41.77-12.19,12.54-25.45,23.95-39.03,34.87-13.6,10.92-27.6,21.3-41.76,31.44-14.17,10.13-28.5,20.02-42.91,29.78l-10.83,7.3-10.89,7.2-21.79,14.37-43.57,28.73-87.15,57.46-174.29,114.92L6.07,1144.2l-3.84-5.85,349.54-228.38,174.77-114.19,87.39-57.1,43.69-28.55,21.85-14.27,10.91-7.15,10.84-7.24c14.44-9.69,28.78-19.51,42.96-29.56,14.17-10.06,28.17-20.35,41.75-31.16,13.57-10.82,26.79-22.09,38.91-34.46,12.14-12.31,23.16-25.85,31.36-41l1.48-2.89.74-1.44.67-1.44c.9-1.96,1.77-3.94,2.59-5.93.81-1.99,1.57-4,2.24-6.03.34-1.01.65-2.04.96-3.08.32-1.03.63-2.07.9-3.1,2.27-8.28,3.36-16.87,3.54-25.48.22-8.6-.7-17.22-2.23-25.72-1.55-8.5-3.78-16.87-6.48-25.1-5.4-16.46-12.59-32.31-20.34-47.84-7.8-15.52-16.29-30.7-25.1-45.68-17.61-29.99-36.33-59.32-55.22-88.53l-14.19-21.9-14.27-21.85-28.54-43.69L588.78.81Z"/>
        <path class="cls-1" d="M613.73.81l120.4,182.64,60.16,91.35c19.97,30.51,39.87,61.07,58.71,92.32,9.42,15.62,18.56,31.42,27.05,47.59,4.24,8.09,8.3,16.27,12.09,24.58,3.8,8.31,7.33,16.76,10.39,25.38,6.09,17.23,10.57,35.3,10.75,53.77,0,1.15.04,2.29.02,3.43l-.16,3.44c-.06,1.14-.09,2.31-.19,3.46l-.38,3.44c-.14,1.14-.24,2.28-.41,3.43-.18,1.16-.38,2.27-.59,3.41-.42,2.26-.9,4.52-1.45,6.75-2.2,8.98-5.67,17.59-9.97,25.73-4.29,8.14-9.44,15.82-15.13,23.02-2.82,3.62-5.78,7.13-8.83,10.55-3.04,3.43-6.19,6.76-9.41,10.02-12.9,13.01-26.85,24.88-41.16,36.23-14.33,11.34-29.08,22.11-43.95,32.67-14.89,10.55-29.96,20.84-45.09,31.02l-365.23,240.9L6.07,1196.76l-3.84-5.85,366.24-239.33,366.17-239.42c15.16-10.12,30.24-20.33,45.14-30.8,14.89-10.48,29.64-21.16,43.95-32.4,14.29-11.25,28.21-23,41.04-35.83,3.2-3.21,6.33-6.49,9.35-9.87,3.03-3.37,5.96-6.82,8.76-10.38,2.8-3.56,5.52-7.18,8.01-10.94,2.5-3.77,4.83-7.64,6.95-11.62,4.24-7.96,7.66-16.37,9.84-25.1.55-2.18,1.02-4.39,1.44-6.61.21-1.1.41-2.23.59-3.33.16-1.11.27-2.24.41-3.36l.39-3.35c.09-1.12.13-2.23.2-3.36l.17-3.39c.02-1.13,0-2.27,0-3.4,0-1.14-.04-2.26-.08-3.37-.05-1.12-.06-2.23-.15-3.36l-.22-3.39-.38-3.38c-.12-1.13-.24-2.25-.39-3.36-.14-1.11-.35-2.19-.54-3.33l-.56-3.38-.69-3.32c-.46-2.22-1.04-4.4-1.56-6.6l-.8-3.3-.91-3.27c-1.24-4.36-2.63-8.68-4.13-12.96-3-8.57-6.48-16.97-10.22-25.25-3.75-8.29-7.76-16.45-11.95-24.53-8.4-16.15-17.46-31.96-26.81-47.6-18.69-31.28-38.46-61.92-58.3-92.5l-59.79-91.59L613.73.81Z"/>
        <path class="cls-1" d="M638.67.81l181.91,275.98,45.1,69.25c14.83,23.22,29.44,46.59,43.1,70.55,6.81,11.98,13.41,24.1,19.48,36.5,6.05,12.4,11.69,25.03,16.25,38.1,2.29,6.53,4.28,13.16,5.97,19.88.84,3.37,1.53,6.77,2.15,10.18.31,1.71.59,3.38.87,5.14l.62,5.16c.24,1.73.32,3.48.44,5.21.09,1.73.27,3.46.25,5.2.07,3.47,0,6.97-.22,10.43-.22,3.47-.61,6.95-1.21,10.39-.29,1.65-.57,3.45-.97,5.14l-1.2,5.03v.05s-.03.04-.03.04c-.89,2.85-1.65,5.86-2.81,8.76-1.03,2.85-2.2,5.73-3.48,8.52-2.55,5.6-5.54,10.98-8.84,16.15-6.6,10.34-14.37,19.9-22.76,28.78-16.81,17.79-35.68,33.39-54.98,48.25-9.66,7.42-19.49,14.64-29.39,21.72-9.87,7.14-20.02,13.85-30.06,20.74-20.15,13.66-40.16,27.54-60.56,40.79l-243.77,160.66L6.99,1248.72l-3.84-5.85,488.76-319.45,244.38-159.73c20.46-13.18,40.48-26.96,60.66-40.52,10.05-6.83,20.23-13.5,30.1-20.59,9.91-7.03,19.73-14.18,29.39-21.54,19.29-14.73,38.11-30.18,54.81-47.72,8.34-8.76,16.02-18.14,22.56-28.29,3.26-5.07,6.21-10.34,8.73-15.8,1.26-2.74,2.39-5.49,3.45-8.36,1.11-2.75,1.85-5.65,2.79-8.6l-.03.1,1.21-5.02c.41-1.66.66-3.27.97-5,.6-3.35.98-6.72,1.22-10.12.23-3.4.3-6.8.25-10.21.03-1.71-.14-3.41-.22-5.12-.11-1.71-.18-3.4-.41-5.08l-.59-5.1c-.26-1.65-.54-3.37-.84-5.05-.6-3.37-1.27-6.73-2.08-10.04-1.64-6.65-3.59-13.22-5.84-19.7-4.47-12.97-10.02-25.56-16.01-37.92-5.99-12.37-12.53-24.48-19.28-36.47-13.54-23.96-28.04-47.38-42.78-70.63l-44.82-69.41L638.67.81Z"/>
        <path class="cls-1" d="M663.61.81l131.37,199.34c43.69,66.51,87.99,132.62,130.42,199.98,10.48,16.92,20.73,34,30.36,51.43,9.63,17.43,18.66,35.24,26.1,53.78,7.36,18.52,13.16,37.92,14.32,58.06.22,5.02.26,10.02-.12,15.07-.4,5.03-1.16,9.98-2.18,14.92-1.09,4.93-2.56,9.75-4.28,14.46-.84,2.35-1.81,4.72-2.86,6.99-1.04,2.28-2.14,4.55-3.31,6.77-4.65,8.9-10.3,17.27-16.61,25.04-6.26,7.82-13.06,15.17-20.17,22.19-7.13,7-14.57,13.67-22.19,20.11-7.61,6.44-15.4,12.68-23.29,18.76-15.79,12.17-31.98,23.78-48.33,35.14l-49.47,33.44-12.37,8.36-12.46,8.21-24.92,16.42-49.84,32.84-99.67,65.68-199.34,131.36L6.07,1301.87l-3.84-5.85,399.65-261.25,199.82-130.63,99.91-65.31,49.96-32.66,24.98-16.33,12.49-8.16,12.39-8.3,49.54-33.23c16.36-11.28,32.56-22.81,48.33-34.87,7.89-6.03,15.66-12.21,23.25-18.59,7.6-6.37,15.01-12.97,22.1-19.88,7.07-6.93,13.83-14.18,20.03-21.88,6.26-7.65,11.82-15.83,16.42-24.55,1.16-2.17,2.24-4.39,3.27-6.62,1.05-2.24,1.97-4.47,2.81-6.8,1.71-4.62,3.17-9.33,4.24-14.11,1.01-4.79,1.78-9.69,2.18-14.58.39-4.88.37-9.84.17-14.76-.11-2.46-.31-4.91-.59-7.35l-.44-3.68c-.16-1.21-.36-2.42-.57-3.65l-.62-3.66-.79-3.62c-.55-2.41-.99-4.83-1.64-7.22-2.47-9.58-5.66-18.97-9.3-28.19-7.32-18.43-16.25-36.22-25.79-53.64-9.54-17.43-19.72-34.52-30.12-51.46-42.15-67.47-86.22-133.75-129.66-200.42L663.61.81Z"/>
        <path class="cls-1" d="M688.56.81l136.86,207.68c45.54,69.28,91.56,138.24,136.12,208.19,11,17.57,21.8,35.29,32,53.36,10.2,18.06,19.82,36.51,27.87,55.68,4.03,9.58,7.62,19.37,10.44,29.41,1.41,5.04,2.61,10.07,3.61,15.22.96,5.15,1.63,10.3,2.08,15.53.39,5.22.43,10.46.18,15.68-.24,5.27-1.01,10.44-2.02,15.59-.53,2.57-1.1,5.11-1.83,7.66-.74,2.52-1.55,5-2.45,7.46-1.79,4.91-3.87,9.75-6.34,14.37-4.88,9.25-10.76,17.96-17.34,26.06-6.6,8.08-13.74,15.69-21.2,22.94-7.47,7.25-15.27,14.14-23.25,20.8-7.98,6.65-16.12,13.11-24.38,19.39-16.51,12.59-33.45,24.59-50.51,36.38l-51.63,34.7-12.91,8.67-12.97,8.57-25.96,17.11-51.92,34.21-103.85,68.42-207.69,136.84L6.07,1354.43l-3.84-5.85,416.34-272.22,208.17-136.11,104.09-68.06,52.04-34.03,26.02-17.01,13-8.52,12.93-8.61,51.71-34.49c17.08-11.72,34.02-23.63,50.52-36.11,8.26-6.23,16.38-12.64,24.35-19.22,7.96-6.59,15.73-13.4,23.16-20.57,7.42-7.17,14.51-14.68,21.06-22.63,6.51-7.95,12.32-16.49,17.14-25.56,2.43-4.51,4.47-9.21,6.25-14.03.89-2.4,1.69-4.84,2.42-7.3.71-2.42,1.29-4.95,1.81-7.45,1.01-5.01,1.79-10.12,2.03-15.21.27-5.13.25-10.27-.12-15.38-.43-5.09-1.08-10.24-2-15.28-.96-5.03-2.15-10.09-3.51-15.03-2.76-9.93-6.28-19.65-10.25-29.18-7.93-19.09-17.45-37.5-27.56-55.56-10.11-18.07-20.83-35.8-31.77-53.4-44.29-70.06-90.07-139.2-135.37-208.63L688.56.81Z"/>
        <path class="cls-1" d="M713.47.81l142.26,215.9,71.12,107.96c23.7,35.99,47.48,71.94,70.55,108.34,11.52,18.22,22.86,36.55,33.62,55.25,5.38,9.34,10.6,18.79,15.59,28.36,4.98,9.57,9.76,19.26,14.07,29.17,4.33,9.9,8.2,20.01,11.39,30.36,3.15,10.37,5.58,20.97,6.66,31.78,1.19,10.85.78,21.84-1.16,32.55-.96,5.38-2.44,10.65-4.23,15.79-1.78,5.14-3.97,10.16-6.46,15-2.51,4.83-5.3,9.5-8.33,14.01-1.51,2.26-3.06,4.47-4.68,6.67-1.63,2.18-3.31,4.31-5.02,6.41-6.86,8.4-14.32,16.27-22.14,23.76-15.64,14.95-32.5,28.52-49.73,41.5-17.22,13.01-34.88,25.41-52.65,37.62-8.9,6.07-17.79,12.19-26.8,18.1l-26.99,17.78L6.99,1406.24l-3.84-5.85,865.48-566.18,27.05-17.69c9.02-5.88,17.91-11.95,26.83-17.98,17.79-12.13,35.45-24.44,52.66-37.35,17.22-12.89,34.03-26.33,49.61-41.11,15.48-14.78,29.88-31.04,39.79-50,2.45-4.73,4.61-9.6,6.36-14.64,1.77-5.03,3.23-10.16,4.18-15.38.94-5.25,1.59-10.55,1.77-15.87.12-2.65.02-5.32.02-7.99-.16-2.64-.31-5.32-.55-7.96-.32-2.69-.57-5.35-1.01-7.96-.45-2.67-.87-5.28-1.45-7.9-.55-2.61-1.18-5.22-1.85-7.82l-1.02-3.89c-.36-1.28-.76-2.56-1.14-3.84-3.12-10.25-6.93-20.31-11.2-30.16-4.25-9.87-8.98-19.53-13.91-29.09-4.94-9.56-10.12-18.99-15.46-28.33-10.68-18.69-21.94-37.05-33.39-55.29-22.94-36.47-46.59-72.49-70.17-108.56l-70.76-108.2L713.47.81Z"/>
      </g>
      <path class="cls-2" d="M39.49.74c-.43,6.66-1.48,13.32-3.17,19.84-1.68,6.52-3.98,12.9-6.79,19.06-2.8,6.17-6.13,12.11-9.78,17.82-3.66,5.71-7.67,11.2-11.91,16.5l-5.27-4.61c9.06-9.5,17.36-19.82,23.84-31.29,3.24-5.73,6.03-11.74,8.23-17.99,2.21-6.24,3.83-12.72,4.84-19.33Z"/>
      <path class="cls-2" d="M80.86.89c.88,6.77,1.25,13.62,1.01,20.48-.28,6.85-1.26,13.69-2.87,20.38-3.13,13.42-9.09,26.14-16.59,37.71-7.49,11.6-16.38,22.24-25.92,32.18-4.78,4.96-9.65,9.82-14.74,14.45l-15.39,13.73-4.44-5.41,15.74-12.89c5.2-4.34,10.21-8.93,15.11-13.59,9.78-9.36,18.91-19.39,26.73-30.42,7.81-11,14.14-23.13,17.79-36.2,1.86-6.51,3.12-13.21,3.69-19.99.54-6.78.46-13.62-.13-20.42Z"/>
      <path class="cls-2" d="M117.44.8c2.82,9.6,4.89,19.47,5.77,29.48.22,2.5.37,5.01.45,7.52.08,2.51.11,5.03,0,7.55-.1,2.52-.29,5.03-.55,7.53-.14,1.25-.26,2.5-.46,3.77l-.59,3.71c-.21,1.24-.44,2.5-.75,3.74l-.86,3.68c-.62,2.44-1.35,4.83-2.12,7.26-1.56,4.82-3.51,9.5-5.72,14.05-4.43,9.1-9.92,17.65-16.02,25.7-6.09,8.07-12.84,15.61-19.9,22.81-7.08,7.19-14.46,14.04-22.04,20.67-15.15,13.26-31.04,25.61-47.13,37.62l-4.1-5.67c16.35-11.47,32.46-23.26,47.83-35.94,7.68-6.33,15.19-12.9,22.36-19.78,7.17-6.89,14.01-14.11,20.22-21.85,3.11-3.87,6.06-7.86,8.83-11.96,2.74-4.13,5.32-8.38,7.61-12.77,2.29-4.39,4.34-8.91,6-13.58.8-2.32,1.61-4.71,2.29-7.1.62-2.42,1.33-4.77,1.78-7.2l.7-3.69c.23-1.19.38-2.43.56-3.66.33-2.47.59-4.94.76-7.42.33-4.96.26-9.96-.01-14.94-.58-9.97-2.36-19.86-4.9-29.54Z"/>
      <path class="cls-2" d="M150.4.8c5.02,12.31,9.29,24.97,12.03,38.04.65,3.27,1.31,6.53,1.72,9.86.42,3.3.8,6.62,1.02,9.96.38,6.69.32,13.38-.49,20.06-.79,6.66-2.21,13.25-4.19,19.66-2.04,6.43-4.67,12.61-7.72,18.6-3.07,5.97-6.6,11.73-10.52,17.17-3.87,5.47-8.04,10.73-12.42,15.8-8.78,10.13-18.39,19.49-28.34,28.41-9.95,8.92-20.28,17.4-30.78,25.63-10.51,8.23-21.22,16.18-31.99,24.01l-32.62,23.1-3.93-5.79,33-22.3c10.91-7.57,21.73-15.24,32.35-23.18,10.61-7.95,21.04-16.13,31.08-24.75,10.04-8.62,19.74-17.64,28.6-27.43,4.42-4.9,8.63-9.98,12.57-15.28,3.97-5.27,7.53-10.8,10.67-16.6,3.11-5.79,5.84-11.84,7.96-18.04,2.08-6.25,3.61-12.69,4.53-19.22.94-6.51,1.14-13.18.91-19.76-.14-3.3-.45-6.6-.8-9.9-.34-3.28-.92-6.56-1.5-9.82-2.43-13.04-6.42-25.79-11.17-38.2Z"/>
      <path class="cls-2" d="M180.79.81l5.24,11.22,2.62,5.61c.84,1.89,1.65,3.79,2.44,5.69,3.18,7.62,6.05,15.38,8.49,23.28.6,1.98,1.19,3.96,1.74,5.95.56,1.99,1.11,3.99,1.58,6.01.96,4.03,1.74,8.1,2.45,12.17.64,4.13,1.09,8.21,1.41,12.37.32,4.15.31,8.32.16,12.46-.26,8.31-1.62,16.62-3.85,24.65-.58,1.98-1.17,3.97-1.85,5.96-.34,1-.73,1.97-1.08,2.94-.35.97-.72,1.94-1.12,2.91-1.55,3.88-3.35,7.65-5.31,11.33-3.95,7.35-8.52,14.31-13.55,20.97-5.04,6.62-10.51,12.9-16.23,18.92-11.44,12.04-23.86,23.08-36.64,33.62-12.78,10.54-25.96,20.57-39.3,30.35-6.68,4.88-13.38,9.72-20.14,14.48l-20.42,14.04-40.86,28.08-3.86-5.84,41.26-27.29,20.63-13.65c6.82-4.63,13.59-9.33,20.32-14.07,13.46-9.5,26.74-19.24,39.61-29.48,12.87-10.24,25.36-20.96,36.87-32.66,5.75-5.85,11.25-11.94,16.33-18.36,5.04-6.42,9.67-13.23,13.66-20.35,1.98-3.57,3.81-7.23,5.39-10.99.4-.93.78-1.89,1.15-2.85.37-.96.77-1.9,1.11-2.85.69-1.9,1.3-3.86,1.92-5.83,2.32-7.83,3.79-15.9,4.19-24.09.98-16.37-1.81-32.85-6.43-48.63-2.29-7.91-5.02-15.7-8.06-23.37-.76-1.92-1.54-3.83-2.34-5.73l-2.52-5.65-5.04-11.31Z"/>
      <path class="cls-2" d="M209.31.81c9.54,17.32,18.52,35.01,25.76,53.46,1.8,4.61,3.49,9.27,5.03,13.99,1.59,4.7,2.8,9.51,4.13,14.3,2.41,9.61,3.95,19.52,4.3,29.46.37,9.97-.58,19.99-2.93,29.71-2.36,9.72-6.11,19.08-10.91,27.84-4.81,8.75-10.47,17.03-16.82,24.71-6.29,7.72-13.08,15.02-20.19,21.98-7.1,6.97-14.52,13.59-22.09,20.01-7.56,6.43-15.32,12.63-23.16,18.7-15.68,12.15-31.75,23.76-47.97,35.13l-49.09,33.44-12.28,8.36-6.14,4.18-6.18,4.11-24.71,16.44-3.83-5.86,24.95-16.07,6.24-4.02,6.19-4.08,12.38-8.16,49.5-32.66c16.34-11.11,32.52-22.43,48.3-34.29,7.89-5.93,15.68-11.97,23.29-18.25,7.61-6.26,15.06-12.72,22.18-19.5,7.13-6.78,13.94-13.89,20.26-21.41,6.36-7.48,12.03-15.52,16.88-24.04,4.82-8.51,8.63-17.62,11.08-27.1,2.44-9.48,3.52-19.32,3.31-29.12-.21-9.84-1.57-19.61-3.83-29.22-1.26-4.76-2.39-9.56-3.9-14.27-1.47-4.71-3.08-9.38-4.81-14.01-6.95-18.5-15.66-36.31-24.94-53.78Z"/>
      <path class="cls-2" d="M236.54.8c11.71,19.76,22.92,39.86,32.53,60.76,4.78,10.46,9.14,21.12,12.72,32.08,1.73,5.48,3.38,11.01,4.65,16.65,1.25,5.62,2.33,11.31,2.96,17.06.62,5.75.93,11.53.75,17.33-.18,5.79-.82,11.57-1.92,17.27-1.1,5.69-2.6,11.32-4.66,16.77-2.03,5.44-4.47,10.71-7.2,15.82-2.76,5.12-5.9,10-9.21,14.74l-2.52,3.54-2.66,3.44c-1.8,2.27-3.6,4.52-5.49,6.71-7.47,8.83-15.61,17.05-24.06,24.91-16.99,15.63-35.11,29.9-53.58,43.64-9.24,6.86-18.59,13.57-27.99,20.19l-14.14,9.88-14.29,9.65-57.17,38.57-57.43,38.11-3.83-5.86,57.9-37.38,57.58-37.79,14.39-9.45,14.23-9.68c9.46-6.49,18.86-13.06,28.16-19.77,18.56-13.44,36.77-27.41,53.8-42.69,8.47-7.68,16.62-15.71,24.1-24.33,1.89-2.13,3.7-4.35,5.5-6.55l2.65-3.34,2.52-3.45c3.33-4.63,6.48-9.39,9.23-14.35,2.75-4.98,5.2-10.13,7.26-15.43,2.07-5.28,3.61-10.77,4.76-16.34,1.15-5.57,1.84-11.23,2.09-16.92.25-5.67.01-11.41-.52-17.08-.55-5.68-1.55-11.31-2.72-16.91-1.18-5.59-2.75-11.1-4.41-16.59-3.41-10.92-7.63-21.62-12.26-32.11-9.33-20.97-20.27-41.21-31.73-61.12Z"/>
      <path class="cls-2" d="M262.82.8c6.81,11.23,13.77,22.38,20.33,33.77,6.59,11.37,12.96,22.87,18.93,34.59,5.97,11.71,11.56,23.64,16.3,35.93,4.75,12.27,8.76,24.9,11.09,37.91,1.18,6.5,1.92,13.08,2.17,19.7.25,6.62-.13,13.28-1.11,19.84-1.93,13.15-6.48,25.85-12.81,37.5-6.42,11.63-14.43,22.27-23.22,32.14-8.8,9.88-18.36,19-28.23,27.75-19.83,17.41-40.92,33.22-62.28,48.59-21.4,15.32-43.13,30.12-64.96,44.77-10.91,7.33-21.87,14.6-32.82,21.85l-32.85,21.78L7.66,460.47l-3.84-5.86,66.18-42.82,33.09-21.41c11.04-7.13,22.06-14.27,33.04-21.47,21.97-14.39,43.83-28.93,65.33-43.96,21.46-15.08,42.64-30.6,62.51-47.65,9.88-8.57,19.47-17.51,28.25-27.16,8.78-9.64,16.78-20.05,23.2-31.36,6.33-11.34,10.92-23.71,12.95-36.57,2.14-12.85,1.54-26.03-.62-38.91-2.16-12.89-6-25.47-10.59-37.74-4.58-12.28-10.03-24.24-15.86-36-5.82-11.77-12.07-23.32-18.52-34.76-6.43-11.46-13.26-22.68-19.95-33.99Z"/>
      <path class="cls-2" d="M288.8,1.08c7.98,12.49,15.87,25.05,23.56,37.73,7.69,12.68,15.21,25.46,22.32,38.48,7.1,13.02,13.87,26.24,19.86,39.84,5.95,13.6,11.15,27.59,14.63,42.09,3.45,14.47,5.06,29.54,3.46,44.46-1.52,14.93-6.59,29.39-13.88,42.43-7.27,13.11-16.66,24.89-26.82,35.77-10.18,10.89-21.22,20.94-32.6,30.5-22.77,19.14-46.88,36.56-71.2,53.56l-4.57,3.18-4.61,3.11-9.23,6.21-18.45,12.43-36.91,24.86c-12.28,8.34-24.69,16.43-37.04,24.64l-37.09,24.55-74.17,49.1-3.84-5.86,74.65-48.37,37.33-24.18c12.42-8.08,24.93-16.07,37.26-24.27l37.11-24.47,18.56-12.23,9.28-6.12,4.64-3.06,4.59-3.13c24.44-16.73,48.63-33.84,71.44-52.65,11.41-9.39,22.44-19.24,32.62-29.91,10.16-10.67,19.5-22.17,26.76-34.95,7.28-12.73,12.36-26.79,13.99-41.39,1.71-14.6.28-29.46-2.99-43.82-3.3-14.38-8.33-28.36-14.13-41.96-5.83-13.6-12.46-26.87-19.42-39.94-6.98-13.07-14.37-25.92-21.93-38.67-7.56-12.75-15.32-25.38-23.18-37.95Z"/>
      <path class="cls-2" d="M314.03.8c18,27.73,35.83,55.6,52.42,84.22,8.26,14.33,16.24,28.84,23.39,43.77l2.69,5.6c.91,1.86,1.69,3.78,2.54,5.67,1.66,3.8,3.37,7.56,4.92,11.41,3.1,7.7,5.86,15.51,8.23,23.47,4.68,15.9,7.41,32.58,6.37,49.28-.53,8.33-2.05,16.61-4.52,24.6-2.47,7.99-5.9,15.66-10.01,22.93-8.21,14.56-18.9,27.53-30.49,39.4-11.6,11.91-24.14,22.82-37.02,33.26-25.78,20.85-52.91,39.91-80.21,58.59l-82.51,55.15L4.36,567.62l-3.84-5.86,166.44-107.99,82.93-54.37c27.43-18.42,54.64-37.18,80.47-57.7,12.9-10.27,25.44-20.99,37.02-32.67,11.59-11.66,22.21-24.34,30.4-38.56,4.09-7.09,7.51-14.57,9.99-22.35,2.48-7.79,4.03-15.87,4.63-24.03,1.17-16.36-1.37-32.85-5.87-48.65-2.27-7.91-4.96-15.72-7.97-23.39-1.5-3.83-3.18-7.62-4.8-11.41-.83-1.89-1.59-3.81-2.48-5.67l-2.63-5.6c-7.01-14.96-14.84-29.52-22.97-43.9-16.33-28.74-33.9-56.77-51.66-84.66Z"/>
      <path class="cls-2" d="M339.2.81c19.89,30.37,39.75,60.77,58.49,91.89,9.36,15.56,18.43,31.31,26.81,47.43,4.2,8.06,8.19,16.23,11.91,24.53,3.72,8.3,7.17,16.73,10.13,25.34,2.96,8.61,5.45,17.41,7.21,26.37,1.75,8.96,2.76,18.1,2.64,27.27-.11,9.16-1.37,18.33-3.82,27.18-2.43,8.86-6.05,17.37-10.49,25.38-8.97,16.02-20.85,30.15-33.75,43.01-12.91,12.89-26.85,24.67-41.13,35.94-28.62,22.49-58.56,43.15-88.68,63.43l-90.75,60.28L6.07,619l-3.84-5.85,182.67-118.68,91.18-59.52c30.26-20.02,60.29-40.4,88.96-62.55,14.3-11.1,28.24-22.69,41.13-35.36,12.88-12.62,24.69-26.48,33.62-42.12,4.42-7.82,8.02-16.11,10.47-24.74,2.46-8.63,3.77-17.58,3.95-26.57.35-18.02-3.61-35.92-9.32-53.04-2.87-8.58-6.23-16.99-9.87-25.29-3.64-8.3-7.55-16.47-11.68-24.55-8.23-16.16-17.16-31.96-26.39-47.59-18.47-31.24-38.09-61.81-57.74-92.33Z"/>
      <path class="cls-2" d="M364.24.8c21.74,33.14,43.66,66.16,64.53,99.87,10.42,16.86,20.6,33.88,30.15,51.26,9.53,17.39,18.43,35.17,25.68,53.69,3.57,9.27,6.69,18.73,9.07,28.41,2.38,9.67,3.92,19.59,4.22,29.59.32,9.99-.63,20.06-3.09,29.78-2.41,9.73-6.26,19.08-11.08,27.84-4.82,8.77-10.62,16.98-16.96,24.67-6.34,7.69-13.16,14.98-20.32,21.9-14.31,13.84-29.72,26.46-45.45,38.56-15.75,12.09-31.87,23.67-48.15,35.01-16.3,11.31-32.7,22.45-49.22,33.39l-99.16,65.63L6.07,671.51l-3.84-5.85,199.35-129.64,99.61-64.88c16.6-10.82,33.06-21.83,49.41-32.99,16.33-11.19,32.49-22.62,48.26-34.55,15.77-11.94,31.16-24.37,45.45-37.99,7.14-6.8,13.93-13.96,20.25-21.51,6.32-7.55,12.06-15.55,16.85-24.12,4.79-8.56,8.61-17.66,11.04-27.16,2.47-9.48,3.47-19.32,3.23-29.13-.22-9.82-1.67-19.61-3.95-29.19-2.28-9.59-5.31-19.01-8.79-28.25-7.06-18.46-15.81-36.26-25.19-53.68-9.4-17.42-19.44-34.51-29.74-51.43-20.61-33.84-42.29-67.03-63.78-100.33Z"/>
      <path class="cls-2" d="M389.07.81c23.63,35.88,47.57,71.56,70.53,107.88,11.48,18.16,22.73,36.48,33.41,55.13,10.68,18.65,20.77,37.68,29.25,57.49,4.19,9.92,7.97,20.02,10.98,30.4,2.93,10.38,5.12,21.03,5.89,31.84.79,10.79.24,21.75-2.14,32.37-2.31,10.63-6.41,20.81-11.61,30.32-5.2,9.53-11.54,18.36-18.49,26.66-6.99,8.26-14.5,16.02-22.34,23.43-15.72,14.77-32.59,28.24-49.78,41.16-17.22,12.91-34.79,25.31-52.52,37.48-8.86,6.08-17.77,12.1-26.69,18.09-8.92,6-17.87,11.95-26.84,17.86l-107.55,71.05L6.07,724.02l-3.84-5.85,216.05-140.61,108.02-70.31c9.01-5.85,17.99-11.73,26.94-17.66,8.95-5.92,17.89-11.87,26.78-17.88,17.78-12.02,35.4-24.28,52.64-37.02,17.23-12.77,34.08-26.04,49.78-40.59,7.81-7.29,15.32-14.94,22.26-23.04,6.9-8.12,13.2-16.78,18.36-26.09,5.16-9.29,9.23-19.22,11.56-29.58,2.4-10.35,3.01-21.07,2.31-31.69-.68-10.64-2.77-21.16-5.6-31.46-2.9-10.28-6.6-20.36-10.69-30.26-8.3-19.76-18.24-38.82-28.78-57.52-10.54-18.7-21.66-37.08-33.01-55.31-22.71-36.47-46.41-72.31-69.79-108.35Z"/>
      <path class="cls-2" d="M413.75.35l38.28,57.97,19.13,29,18.89,29.15c12.52,19.48,24.85,39.1,36.65,59.03,11.76,19.95,23.11,40.2,32.8,61.3,4.86,10.54,9.25,21.31,12.86,32.36,3.57,11.05,6.46,22.4,7.78,34.01,1.36,11.59,1.16,23.42-1.04,34.93-2.17,11.52-6.3,22.63-11.9,32.9-5.6,10.26-12.47,19.79-20.09,28.61-7.58,8.85-15.78,17.13-24.34,25-17.14,15.71-35.46,30.02-54.13,43.77-37.4,27.44-76.09,52.98-114.72,78.52l-115.96,76.53L6.07,776.53l-3.84-5.85,232.85-151.64,116.44-75.8c38.79-25.29,77.6-50.56,115.06-77.68,18.7-13.59,37.02-27.72,54.13-43.21,8.53-7.76,16.71-15.9,24.25-24.6,7.57-8.66,14.38-17.98,19.94-28.01,5.54-10.02,9.65-20.85,11.84-32.09,2.22-11.24,2.49-22.82,1.22-34.23-1.23-11.43-4.01-22.66-7.48-33.65-3.51-10.98-7.81-21.72-12.58-32.24-9.52-21.07-20.72-41.35-32.34-61.36-11.67-19.99-23.86-39.67-36.26-59.23l-18.71-29.26-18.94-29.11L413.75.35Z"/>
      <path class="cls-2" d="M439.02.81l41.09,62.26,20.55,31.13,10.26,15.57,10.17,15.63c13.54,20.86,26.94,41.81,39.83,63.09,12.86,21.29,25.34,42.85,36.22,65.27,5.41,11.22,10.43,22.64,14.64,34.39,4.2,11.75,7.55,23.85,9.38,36.25,1.86,12.38,1.96,25.11-.26,37.5-2.17,12.39-6.62,24.35-12.73,35.31-6.08,11-13.66,21.07-21.95,30.43-8.3,9.35-17.25,18.09-26.56,26.4-18.66,16.58-38.51,31.69-58.69,46.26-40.43,29.08-82.09,56.3-123.58,83.7l-124.54,82.15L3.84,830.52l-3.84-5.85,249.99-162.9,125.01-81.42c41.65-27.17,83.44-54.12,123.94-82.89,20.21-14.42,40.07-29.36,58.7-45.71,9.29-8.19,18.21-16.8,26.47-26,8.24-9.19,15.75-19.07,21.78-29.82,6.05-10.71,10.46-22.36,12.65-34.46,2.24-12.1,2.22-24.55.46-36.76-1.73-12.23-4.97-24.22-9.07-35.9-4.11-11.68-9.04-23.09-14.37-34.29-10.7-22.4-23.04-44-35.76-65.35-12.75-21.33-26.03-42.36-39.44-63.29l-10.08-15.69-10.17-15.63-20.36-31.25L439.02.81Z"/>
      <path class="cls-2" d="M463.99.81l87.47,132.59c14.47,22.17,28.89,44.38,42.82,66.9,6.95,11.27,13.82,22.59,20.44,34.06l9.7,17.35,4.84,8.68c1.55,2.93,3.07,5.87,4.58,8.83,3.01,5.91,5.92,11.86,8.71,17.88,2.74,6.05,5.37,12.14,7.79,18.32,4.83,12.36,8.9,25.09,11.34,38.2,2.47,13.09,3.22,26.6,1.38,39.89-1.87,13.28-6.39,26.1-12.75,37.85-6.37,11.77-14.45,22.5-23.33,32.42-8.89,9.92-18.52,19.11-28.48,27.89-9.99,8.76-20.33,17.08-30.84,25.17-10.51,8.09-21.21,15.92-32,23.61-43.22,30.69-87.67,59.52-131.83,88.72l-132.6,87.46L6.07,881.58l-3.84-5.85,266.12-173.5,133.08-86.72c44.33-28.96,88.9-57.53,132.2-87.91,10.81-7.61,21.52-15.36,32.03-23.36,10.52-8,20.85-16.22,30.82-24.87,9.94-8.66,19.55-17.73,28.38-27.48,8.82-9.75,16.83-20.27,23.14-31.77,6.29-11.48,10.78-23.99,12.68-36.94,1.87-12.95,1.22-26.23-1.15-39.14-2.34-12.95-6.29-25.58-11.03-37.88-2.37-6.15-4.96-12.24-7.65-18.26-2.74-6-5.61-11.96-8.58-17.86-1.48-2.95-2.99-5.9-4.52-8.82l-4.78-8.69-9.58-17.37c-6.55-11.49-13.35-22.84-20.24-34.14-13.8-22.58-28.1-44.86-42.44-67.11L463.99.81Z"/>
    </g>
  </g>
</svg>