<svg xmlns="http://www.w3.org/2000/svg" width="78.521" height="78.521" viewBox="0 0 78.521 78.521"><g transform="translate(-154 -2085)"><circle cx="10.5" cy="10.5" r="10.5" transform="translate(154 2086.521)" fill="#e20613"/><rect width="17" height="17" transform="translate(220.5 2085) rotate(45)" fill="#e20613"/><circle cx="10.5" cy="10.5" r="10.5" transform="translate(210 2142.521)" fill="#e20613"/><rect width="17" height="17" transform="translate(156 2144.521)" fill="#e20613"/><line x2="24" transform="translate(179.5 2097.021)" fill="none" stroke="#e20613" stroke-linecap="round" stroke-width="3"/><line x2="24" transform="translate(179.5 2153.021)" fill="none" stroke="#e20613" stroke-linecap="round" stroke-width="3"/><line y2="24" transform="translate(220.5 2114.021)" fill="none" stroke="#e20613" stroke-linecap="round" stroke-width="3"/><path d="M4.624,1.593a1,1,0,0,1,1.752,0l3.809,6.925A1,1,0,0,1,9.309,10H1.691A1,1,0,0,1,.815,8.518Z" transform="translate(207.5 2091.521) rotate(90)" fill="#e20613"/><path d="M4.624,1.593a1,1,0,0,1,1.752,0l3.809,6.925A1,1,0,0,1,9.309,10H1.691A1,1,0,0,1,.815,8.518Z" transform="translate(173.5 2158.521) rotate(-90)" fill="#e20613"/><path d="M4.624,1.593a1,1,0,0,1,1.752,0l3.809,6.925A1,1,0,0,1,9.309,10H1.691A1,1,0,0,1,.815,8.518Z" transform="translate(226 2142.021) rotate(180)" fill="#e20613"/></g></svg>