<?xml version="1.0" encoding="utf-8"?>
<!-- Generator: Adobe Illustrator 28.2.0, SVG Export Plug-In . SVG Version: 6.00 Build 0)  -->
<svg version="1.1" id="Layer_1" xmlns="http://www.w3.org/2000/svg" xmlns:xlink="http://www.w3.org/1999/xlink" x="0px" y="0px"
	 viewBox="0 0 44.2 44.1" style="enable-background:new 0 0 44.2 44.1;" xml:space="preserve">
<style type="text/css">
	.st0{clip-path:url(#SVGID_00000153696524780418464400000007254126411774769838_);}
	.st1{fill:#D6001B;}
</style>
<g>
	<defs>
		<rect id="SVGID_1_" y="0" width="44.2" height="40.8"/>
	</defs>
	<clipPath id="SVGID_00000060015889566888668920000003107195592443816600_">
		<use xlink:href="#SVGID_1_"  style="overflow:visible;"/>
	</clipPath>
	<g style="clip-path:url(#SVGID_00000060015889566888668920000003107195592443816600_);">
		<path class="st1" d="M22.1,0c-0.5,0-1,0.4-1,1v25.2l-6.6-6.6c-0.4-0.4-1-0.3-1.3,0.1c-0.3,0.4-0.3,0.9,0,1.3l8.2,8.2l0,0
			c0,0,0,0,0.1,0.1l0,0l0,0l0,0l0,0l0,0l0,0h0l0,0l0,0l0,0l0,0l0.1,0l0,0c0,0,0.1,0,0.1,0s0.1,0,0.1,0l0,0l0.1,0l0,0l0,0l0,0l0,0
			l0,0l0,0h0l0,0l0,0l0,0l0,0l0,0c0,0,0,0,0.1-0.1l0,0l8.2-8.2c0.4-0.4,0.4-1,0.1-1.3c-0.4-0.4-1-0.4-1.3-0.1c0,0,0,0-0.1,0.1
			l-6.6,6.6V1C23.1,0.4,22.6,0,22.1,0"/>
	</g>
</g>
<path class="st1" d="M44.2,38.3V20.1c0-0.5-0.5-0.9-1-0.9c-0.5,0-0.9,0.4-0.9,0.9v18.3c0,2-1.6,3.6-3.6,3.6h0H5.5
	c-2,0-3.6-1.6-3.6-3.6l0,0V20.1c0-0.5-0.5-0.9-1-0.9c-0.5,0-0.9,0.4-0.9,0.9v18.3c0,3,2.5,5.5,5.5,5.5h33.2
	C41.8,43.8,44.2,41.4,44.2,38.3"/>
</svg>
