<?xml version="1.0" encoding="utf-8"?>
<!-- Generator: Adobe Illustrator 28.2.0, SVG Export Plug-In . SVG Version: 6.00 Build 0)  -->
<svg version="1.1" id="Layer_1" xmlns="http://www.w3.org/2000/svg" xmlns:xlink="http://www.w3.org/1999/xlink" x="0px" y="0px"
	 viewBox="0 0 44.2 44.1" style="enable-background:new 0 0 44.2 44.1;" xml:space="preserve">
<style type="text/css">
	.st0{fill:#D6001B;}
</style>
<g>
	<defs>
		<rect id="SVGID_1_" y="0" width="44.2" height="40.8"/>
	</defs>
	<clipPath id="SVGID_00000002368806881697784870000011004742043188850053_">
		<use xlink:href="#SVGID_1_"  style="overflow:visible;"/>
	</clipPath>
</g>
<g>
	<path class="st0" d="M42.9,35.8V17.5c0-0.5-0.4-0.9-0.9-0.9c-0.5,0-0.9,0.4-0.9,0.9v18.3c0,2-1.5,3.6-3.4,3.6h0H6.5
		c-1.9,0-3.4-1.6-3.4-3.6l0,0V17.5c0-0.5-0.4-0.9-0.9-0.9c-0.5,0-0.9,0.4-0.9,0.9v18.3c0,3,2.3,5.5,5.2,5.5h31.3
		C40.6,41.3,42.9,38.8,42.9,35.8"/>
	<g>
		<path class="st0" d="M22.1,2.8c-0.5,0-1,0.4-1,0.9v24l-6.6-6.3c-0.4-0.3-1-0.3-1.3,0.1c-0.3,0.3-0.3,0.9,0,1.2l8.2,7.8l0,0
			c0,0,0,0,0.1,0.1l0,0l0,0l0,0l0,0l0,0l0,0h0l0,0l0,0l0,0l0,0l0.1,0l0,0c0,0,0.1,0,0.1,0s0.1,0,0.1,0l0,0l0.1,0l0,0l0,0l0,0l0,0
			l0,0l0,0h0l0,0l0,0l0,0l0,0l0,0c0,0,0,0,0.1-0.1l0,0l8.2-7.8c0.4-0.3,0.4-0.9,0.1-1.3c-0.4-0.4-1-0.4-1.3-0.1c0,0,0,0-0.1,0.1
			l-6.6,6.3v-24C23.1,3.2,22.6,2.8,22.1,2.8"/>
	</g>
</g>
</svg>
