<svg xmlns="http://www.w3.org/2000/svg" xmlns:xlink="http://www.w3.org/1999/xlink" width="76" height="76" viewBox="0 0 76 76"><defs><clipPath id="a"><rect width="76" height="76" fill="none"/></clipPath></defs><g clip-path="url(#a)"><path d="M1.407,39.407A1.407,1.407,0,0,1,0,38V15.481A15.5,15.5,0,0,1,15.481,0H38a1.407,1.407,0,0,1,0,2.815H15.481A12.681,12.681,0,0,0,2.815,15.481V38a1.407,1.407,0,0,1-1.407,1.407" fill="#e20613"/><path d="M49.926,65.407H27.407a1.407,1.407,0,1,1,0-2.815H49.926A12.68,12.68,0,0,0,62.593,49.926V27.407a1.407,1.407,0,1,1,2.815,0V49.926A15.5,15.5,0,0,1,49.926,65.407" transform="translate(10.593 10.593)" fill="#e20613"/><path d="M38,65.407H15.481A15.5,15.5,0,0,1,0,49.926V27.407a1.407,1.407,0,0,1,2.815,0V49.926A12.68,12.68,0,0,0,15.481,62.593H38a1.407,1.407,0,1,1,0,2.815" transform="translate(0 10.593)" fill="#e20613"/><path d="M27.407,39.807A1.406,1.406,0,0,1,26,38.4V27.407a1.407,1.407,0,1,1,2.815,0V38.4a1.406,1.406,0,0,1-1.407,1.407" transform="translate(10.593 10.593)" fill="#e20613"/><path d="M27.407,32A1.407,1.407,0,0,1,26,30.589V19.6a1.407,1.407,0,1,1,2.815,0v10.99A1.407,1.407,0,0,1,27.407,32" transform="translate(10.593 7.411)" fill="#e20613"/><path d="M27.407,58A1.406,1.406,0,0,1,26,56.589V45.6a1.407,1.407,0,0,1,2.815,0V56.589A1.406,1.406,0,0,1,27.407,58" transform="translate(10.593 18.003)" fill="#e20613"/><path d="M27.407,13.805A1.407,1.407,0,0,1,26,12.4V1.407a1.407,1.407,0,1,1,2.815,0V12.4a1.407,1.407,0,0,1-1.407,1.407" transform="translate(10.593)" fill="#e20613"/><path d="M30.589,28.815H19.6A1.407,1.407,0,0,1,19.6,26H30.589a1.407,1.407,0,0,1,0,2.815" transform="translate(7.411 10.593)" fill="#e20613"/><path d="M12.4,28.815H1.407a1.407,1.407,0,1,1,0-2.815H12.4a1.407,1.407,0,1,1,0,2.815" transform="translate(0 10.593)" fill="#e20613"/><path d="M56.589,28.815H45.6A1.407,1.407,0,0,1,45.6,26H56.589a1.407,1.407,0,1,1,0,2.815" transform="translate(18.003 10.593)" fill="#e20613"/><path d="M38.4,28.815H27.407a1.407,1.407,0,0,1,0-2.815H38.4a1.407,1.407,0,1,1,0,2.815" transform="translate(10.593 10.593)" fill="#e20613"/><path d="M26.852,52.7a9.852,9.852,0,1,1,4.929-18.375,1.408,1.408,0,0,1-1.413,2.436,7.037,7.037,0,1,0,0,12.174,1.408,1.408,0,0,1,1.413,2.436A9.84,9.84,0,0,1,26.852,52.7" transform="translate(6.926 13.444)" fill="#e20613"/><path d="M42.852,41.481A9.841,9.841,0,0,1,34.329,26.7a1.407,1.407,0,0,1,2.436,1.41,7.037,7.037,0,1,0,12.174,0,1.407,1.407,0,0,1,2.436-1.41,9.841,9.841,0,0,1-8.523,14.779" transform="translate(13.444 10.593)" fill="#e20613"/><path d="M31.63,26.7A9.856,9.856,0,0,1,26.7,25.377a1.408,1.408,0,0,1,1.41-2.438,7.037,7.037,0,1,0,0-12.174A1.408,1.408,0,0,1,26.7,8.327,9.849,9.849,0,1,1,31.63,26.7" transform="translate(10.592 2.852)" fill="#e20613"/><path d="M24.156,32.481a1.389,1.389,0,0,1-.7-.19,1.4,1.4,0,0,1-.512-1.923,7.036,7.036,0,1,0-12.175,0,1.407,1.407,0,1,1-2.435,1.41,9.851,9.851,0,1,1,17.045,0,1.406,1.406,0,0,1-1.219.7" transform="translate(2.852 6.926)" fill="#e20613"/><path d="M31.63,2.815H27.407a1.407,1.407,0,0,1,0-2.815H31.63a1.407,1.407,0,1,1,0,2.815" transform="translate(10.593)" fill="#e20613"/><path d="M60.35,26.786a1.407,1.407,0,0,1-1.407-1.407V16.993a1.407,1.407,0,1,1,2.815,0v8.385a1.407,1.407,0,0,1-1.407,1.407m-1.64-16.5a1.41,1.41,0,0,1-1.244-.747,12.679,12.679,0,0,0-5.261-5.257A1.407,1.407,0,0,1,53.525,1.8a15.465,15.465,0,0,1,6.428,6.421,1.409,1.409,0,0,1-1.241,2.069M44.751,2.815H36.365a1.407,1.407,0,0,1,0-2.815h8.385a1.407,1.407,0,0,1,0,2.815" transform="translate(14.242)" fill="#e20613"/><path d="M53.407,30.037A1.407,1.407,0,0,1,52,28.63V24.407a1.407,1.407,0,1,1,2.815,0V28.63a1.407,1.407,0,0,1-1.407,1.407" transform="translate(21.185 9.37)" fill="#e20613"/></g></svg>