<svg xmlns="http://www.w3.org/2000/svg" xmlns:xlink="http://www.w3.org/1999/xlink" width="48.361" height="51.479" viewBox="0 0 48.361 51.479"><defs><clipPath id="a"><rect width="48.361" height="51.479" fill="none"/></clipPath></defs><g clip-path="url(#a)"><path d="M38.346,49.656a7.393,7.393,0,0,1-.816-.046,7.646,7.646,0,0,1-3.755-1.7,7.062,7.062,0,0,0-2.584-1.358,4.038,4.038,0,0,0-3.293.5.78.78,0,0,1-.789-1.347,5.549,5.549,0,0,1,4.423-.671,8.379,8.379,0,0,1,3.153,1.613A6.126,6.126,0,0,0,37.7,48.059a4.946,4.946,0,0,0,4-1.392,11.508,11.508,0,0,1,2.251-1.425,6.691,6.691,0,0,1,4.1-.52.78.78,0,0,1-.3,1.531,5.116,5.116,0,0,0-3.159.412,10.128,10.128,0,0,0-1.951,1.247,6.6,6.6,0,0,1-4.3,1.744" transform="translate(-10.048 -16.771)" fill="#e20613"/><path d="M45.681,66.016a2.989,2.989,0,1,1,2.99-2.99,2.993,2.993,0,0,1-2.99,2.99m0-4.418a1.429,1.429,0,1,0,1.43,1.429,1.43,1.43,0,0,0-1.43-1.429" transform="translate(-16.052 -22.575)" fill="#e20613"/><path d="M34.4,58.015a2.377,2.377,0,1,1,2.377-2.377A2.38,2.38,0,0,1,34.4,58.015m0-3.194a.817.817,0,1,0,.817.817.818.818,0,0,0-.817-.817" transform="translate(-12.041 -20.027)" fill="#e20613"/><path d="M30.655,72.057a3.167,3.167,0,1,1,3.167-3.167,3.171,3.171,0,0,1-3.167,3.167m0-4.775a1.607,1.607,0,1,0,1.607,1.607,1.609,1.609,0,0,0-1.607-1.607" transform="translate(-10.335 -24.712)" fill="#e20613"/><path d="M68.177,31.9a.778.778,0,0,1-.552-.228l-1.64-1.64a.78.78,0,0,1,1.1-1.1l1.64,1.64a.78.78,0,0,1-.552,1.332" transform="translate(-24.725 -10.793)" fill="#e20613"/><path d="M66.948,28.044a2.842,2.842,0,0,1-2.019-.835l-.588-.587a.78.78,0,0,1,1.1-1.1l.587.588a1.3,1.3,0,0,0,1.833-1.833L60.792,17.2a1.327,1.327,0,0,0-1.833,0,1.3,1.3,0,0,0,0,1.833l.588.586a.781.781,0,0,1-1.1,1.1l-.587-.587A2.856,2.856,0,0,1,61.9,16.1l7.072,7.072a2.854,2.854,0,0,1-2.019,4.874" transform="translate(-21.441 -5.739)" fill="#e20613"/><path d="M41.169,29.892a.77.77,0,0,1-.532-.206,15.14,15.14,0,0,0-12.78-.942.78.78,0,0,1-.551-1.459,16.692,16.692,0,0,1,13.747.851l6.028-6.028a.78.78,0,0,1,1.1,1.1l-6.39,6.39a.729.729,0,0,1-.089.092.817.817,0,0,1-.536.2" transform="translate(-10.078 -8.227)" fill="#e20613"/><path d="M32.473,65.861a16.7,16.7,0,0,1-7.2-1.629.78.78,0,0,1,.673-1.408,15.194,15.194,0,0,0,18.333-23.3.78.78,0,1,1,1.209-.986A16.749,16.749,0,0,1,32.473,65.861" transform="translate(-9.336 -14.383)" fill="#e20613"/><path d="M58.98,39.562a.78.78,0,0,1-.552-1.332L64.9,31.754a.78.78,0,1,1,1.1,1.1l-6.476,6.476a.778.778,0,0,1-.552.228" transform="translate(-21.884 -11.854)" fill="#e20613"/><path d="M8.738,59.266q-.229,0-.461-.015a6.977,6.977,0,0,1-6.4-7.047V25.446A2.522,2.522,0,0,1,0,23.138a2.433,2.433,0,0,1,2.43-2.43h12.6a2.43,2.43,0,0,1,.552,4.8V52.412a6.879,6.879,0,0,1-2.168,5,6.788,6.788,0,0,1-4.68,1.853m-6.309-37a.871.871,0,0,0-.87.87c0,.422.565.869,1.1.869a.78.78,0,0,1,.78.78V52.2a5.414,5.414,0,0,0,4.94,5.49,5.295,5.295,0,0,0,5.648-5.282V24.787a.78.78,0,0,1,.78-.78h.228a.87.87,0,1,0,0-1.739Z" transform="translate(0 -7.786)" fill="#e20613"/><path d="M21.561,27.555H18.745a.78.78,0,0,1,0-1.56h2.816a.78.78,0,1,1,0,1.56" transform="translate(-6.755 -9.774)" fill="#e20613"/><path d="M8.142,52.116H3.819a.78.78,0,1,1,0-1.56H8.142a.78.78,0,1,1,0,1.56" transform="translate(-1.143 -19.01)" fill="#e20613"/><path d="M8.142,59.773H3.819a.78.78,0,0,1,0-1.56H8.142a.78.78,0,1,1,0,1.56" transform="translate(-1.143 -21.889)" fill="#e20613"/><path d="M8.142,67.43H3.819a.78.78,0,1,1,0-1.56H8.142a.78.78,0,1,1,0,1.56" transform="translate(-1.143 -24.768)" fill="#e20613"/><path d="M15.9,44.365H3.819a.78.78,0,1,1,0-1.56H15.9a.78.78,0,1,1,0,1.56" transform="translate(-1.143 -16.095)" fill="#e20613"/><path d="M10.184,13.339a.78.78,0,0,1-.78-.78v-.336a.78.78,0,1,1,1.56,0v.336a.78.78,0,0,1-.78.78m0-4.362A.78.78,0,0,1,9.4,8.2V7.862a.78.78,0,0,1,1.56,0V8.2a.78.78,0,0,1-.78.78" transform="translate(-3.536 -2.663)" fill="#e20613"/><path d="M16.254,10.619a.78.78,0,0,1-.78-.78V9.5a.78.78,0,1,1,1.56,0v.336a.78.78,0,0,1-.78.78m0-4.362a.78.78,0,0,1-.78-.78V5.142a.78.78,0,1,1,1.56,0v.336a.78.78,0,0,1-.78.78m0-4.362a.78.78,0,0,1-.78-.78V.78a.78.78,0,0,1,1.56,0v.336a.78.78,0,0,1-.78.78" transform="translate(-5.818)" fill="#e20613"/></g></svg>