<svg xmlns="http://www.w3.org/2000/svg" xmlns:xlink="http://www.w3.org/1999/xlink" width="29.345" height="20.633" viewBox="0 0 29.345 20.633"><defs><clipPath id="a"><rect width="29.345" height="20.633" fill="none"/></clipPath></defs><g clip-path="url(#a)"><path d="M28.732,3.228A3.687,3.687,0,0,0,26.137.617C23.849,0,14.672,0,14.672,0S5.5,0,3.208.617A3.687,3.687,0,0,0,.613,3.228,38.68,38.68,0,0,0,0,10.337a38.68,38.68,0,0,0,.613,7.109,3.632,3.632,0,0,0,2.594,2.57c2.288.617,11.465.617,11.465.617s9.176,0,11.465-.617a3.632,3.632,0,0,0,2.594-2.57,38.68,38.68,0,0,0,.613-7.109,38.68,38.68,0,0,0-.613-7.109M11.671,14.7V5.974l7.67,4.363Z"/></g></svg>