<?xml version="1.0" encoding="UTF-8"?>
<svg id="Layer_2" data-name="Layer 2" xmlns="http://www.w3.org/2000/svg" viewBox="0 0 427.8 132.82">
  <defs>
    <style>
      .cls-1 {
        fill: none;
      }

      .cls-1, .cls-2 {
        stroke: #000;
        stroke-linecap: round;
        stroke-miterlimit: 10;
        stroke-width: 3px;
      }

      .cls-2 {
        fill: #3279ce;
      }

      .cls-3, .cls-4 {
        stroke-width: 0px;
      }

      .cls-4 {
        fill: #fff;
      }
    </style>
  </defs>
  <g id="Layer_1-2" data-name="Layer 1">
    <g>
      <path class="cls-3" d="M272.25,45.47v70.4c0,8.25-7.85,14.93-17.54,14.93h0c-9.68,0-17.54-6.69-17.54-14.93V45.47"/>
      <path class="cls-1" d="M272.25,35.66v78.5c0,9.2-7.85,16.65-17.54,16.65h0c-9.68,0-17.54-7.46-17.54-16.65V35.66"/>
      <path class="cls-1" d="M239.1,44.47c2.62,0,2.62,2,5.23,2s2.62-2,5.24-2,2.62,2,5.23,2,2.62-2,5.24-2,2.62,2,5.24,2,2.62-2,5.24-2"/>
      <g>
        <path class="cls-3" d="M272.28,26.37l-34.19-7.4s-.04-.03-.03-.05l2.96-13.68c.55-2.56,3.08-4.18,5.63-3.63l3.97.86,21.04,4.56c2.56.55,4.18,3.08,3.63,5.63l-2.96,13.68s-.03.04-.05.03Z"/>
        <path class="cls-3" d="M272.6,27.97l-.64-.13-35.66-7.72.29-1.52,2.96-13.68c.73-3.36,4.05-5.51,7.42-4.78l25.01,5.42c1.63.35,3.02,1.32,3.92,2.72s1.21,3.07.85,4.7l-3.09,14.29-1.06.7ZM239.83,17.81l31.34,6.79,2.65-12.26c.18-.85.03-1.71-.44-2.44-.47-.73-1.19-1.23-2.04-1.41l-25.01-5.42c-.85-.18-1.71-.03-2.44.44-.73.47-1.23,1.19-1.41,2.04l-2.65,12.26Z"/>
      </g>
      <polyline class="cls-2" points="248.07 14.27 248.07 14.27 250.62 2.47"/>
      <polyline class="cls-2" points="256.23 16.04 256.23 16.04 258.79 4.24"/>
      <polyline class="cls-2" points="264.39 17.8 264.39 17.8 266.95 6"/>
      <g id="Group_267" data-name="Group 267">
        <path class="cls-4" d="M262.89,60.49c-.47.03-.9.3-1.14.71-.12.21-.34.34-.58.36l-1.48.11c-.11-1.36-.66-2.59-1.51-3.56l.84-.96c.16-.18.39-.27.63-.25.47.07.95-.11,1.26-.46.53-.59.48-1.5-.12-2.03-.6-.53-1.5-.48-2.03.12-.31.35-.44.84-.32,1.3.06.23-.01.48-.17.66l-.81.92c-.95-.78-2.13-1.28-3.43-1.38v-.65c0-.24.11-.46.31-.6.39-.27.63-.71.63-1.19,0-.8-.64-1.44-1.44-1.44s-1.44.64-1.44,1.44c0,.47.23.92.62,1.19.2.14.31.36.31.6v.65c-1.13.09-2.17.49-3.04,1.1l-.91-1.18c-.15-.19-.2-.44-.12-.67.14-.46.05-.96-.24-1.33-.48-.63-1.39-.75-2.02-.26-.63.49-.75,1.38-.26,2.01.29.38.74.58,1.22.56.24-.01.47.1.62.29l.94,1.22c-.73.72-1.28,1.61-1.59,2.62l-.4-.07c-.24-.04-.44-.19-.54-.41-.2-.44-.59-.75-1.06-.84-.78-.14-1.53.38-1.68,1.16-.14.78.38,1.53,1.16,1.68.47.08.94-.06,1.28-.4.17-.17.41-.24.65-.2l.38.07c-.03.26-.06.53-.06.8,0,.75.14,1.47.39,2.14l-1.05.56c-.21.12-.46.12-.68.02-.41-.22-.91-.22-1.33.01-.7.37-.96,1.25-.59,1.95.38.7,1.25.96,1.95.58.42-.22.7-.64.75-1.11.03-.24.17-.45.38-.56l.99-.54c.47.82,1.12,1.53,1.9,2.06l-.4.78-.82,1.6c-.1.22-.31.36-.55.4-.79.1-1.35.82-1.25,1.61.07.53.42.98.93,1.16.75.28,1.57-.1,1.85-.84.15-.39.12-.82-.08-1.19-.11-.21-.11-.47,0-.68l.82-1.6.38-.74c.79.36,1.66.57,2.59.57.17,0,.33-.01.49-.02l.05.2c.06.23,0,.48-.16.66-.33.35-.46.84-.34,1.3.19.77.96,1.25,1.74,1.06.78-.19,1.25-.96,1.06-1.74-.11-.46-.44-.84-.88-1.01-.22-.09-.39-.28-.44-.51,0-.04-.02-.08-.03-.12,1.18-.29,2.22-.92,3.02-1.78l.82.49c.21.12.34.34.36.58.03.47.29.89.7,1.14.68.41,1.57.18,1.97-.5s.18-1.57-.5-1.97c-.41-.24-.91-.27-1.34-.07-.22.1-.47.08-.68-.04l-.7-.42c.56-.85.92-1.85,1.01-2.92l1.56-.12c.24-.02.47.08.62.26.3.38.76.58,1.23.55.79-.06,1.39-.75,1.33-1.54-.06-.79-.75-1.39-1.54-1.33Z"/>
        <circle id="Ellipse_57" data-name="Ellipse 57" class="cls-4" cx="250.93" cy="63.15" r="1.53"/>
        <circle id="Ellipse_58" data-name="Ellipse 58" class="cls-4" cx="253.23" cy="58.8" r="1.13"/>
        <circle id="Ellipse_59" data-name="Ellipse 59" class="cls-4" cx="255.37" cy="64.69" r="1.84"/>
      </g>
      <g id="Group_267-2" data-name="Group 267">
        <path class="cls-4" d="M265.72,90.51c-.3-.26-.71-.36-1.1-.25-.2.05-.4,0-.56-.13l-.94-.81c.74-.87,1.14-1.92,1.21-3l1.07-.07c.2-.01.39.07.52.22.24.32.63.5,1.02.47.66-.04,1.17-.6,1.13-1.27-.04-.67-.6-1.17-1.27-1.13-.39.02-.76.24-.96.58-.1.17-.29.28-.49.29l-1.02.06c-.1-1.02-.5-2.02-1.21-2.84l.38-.38c.14-.14.34-.21.54-.17.39.07.79-.05,1.08-.33.47-.47.47-1.23,0-1.71s-1.23-.47-1.71,0c-.28.28-.41.68-.34,1.07.04.2-.03.4-.17.54l-.38.38c-.72-.61-1.57-.99-2.45-1.15l.16-1.24c.02-.2.14-.38.33-.47.36-.19.6-.54.65-.93.09-.66-.38-1.27-1.04-1.35-.66-.08-1.26.37-1.34,1.04-.05.4.09.78.39,1.05.15.14.22.34.2.54l-.17,1.28c-.85,0-1.71.2-2.48.61l-.19-.28c-.12-.17-.15-.37-.08-.56.14-.38.09-.79-.13-1.12-.38-.54-1.13-.68-1.68-.31-.54.38-.68,1.13-.31,1.68.23.33.59.52.99.52.2,0,.38.1.5.27l.18.26c-.18.14-.35.28-.51.44-.45.45-.79.95-1.04,1.49l-.95-.29c-.2-.05-.34-.2-.41-.39-.11-.37-.41-.67-.79-.78-.63-.2-1.31.17-1.5.81-.19.64.17,1.31.81,1.5.38.12.79.04,1.1-.21.16-.12.37-.17.56-.11l.91.27c-.21.76-.24,1.56-.09,2.34l-.69.22-1.43.46c-.19.07-.4.03-.56-.09-.53-.41-1.28-.31-1.69.21-.27.36-.33.83-.14,1.24.28.61.99.87,1.59.6.32-.14.56-.41.66-.75.06-.19.21-.34.4-.4l1.43-.46.66-.21c.25.68.64,1.32,1.19,1.87.1.1.2.19.31.28l-.09.14c-.1.17-.28.28-.49.3-.4.01-.77.22-.97.57-.34.57-.17,1.31.4,1.66.57.35,1.31.17,1.66-.4.21-.34.24-.76.08-1.12-.08-.18-.07-.4.04-.56.02-.03.04-.06.05-.09.87.52,1.86.77,2.84.73l.2.77c.05.2,0,.4-.13.56-.26.3-.36.7-.26,1.09.16.65.82,1.04,1.46.87s1.04-.82.87-1.46c-.1-.38-.38-.7-.75-.83-.19-.07-.33-.23-.38-.43l-.17-.66c.84-.17,1.63-.55,2.32-1.13l.99.85c.15.13.23.33.21.52-.05.4.11.79.4,1.05.5.43,1.27.38,1.7-.12.43-.5.38-1.27-.12-1.7Z"/>
        <circle id="Ellipse_57-2" data-name="Ellipse 57" class="cls-4" cx="257.08" cy="85.02" r="1.28"/>
        <circle id="Ellipse_58-2" data-name="Ellipse 58" class="cls-4" cx="261.01" cy="83.8" r=".95"/>
        <circle id="Ellipse_59-2" data-name="Ellipse 59" class="cls-4" cx="258.8" cy="88.55" r="1.54"/>
      </g>
      <g id="Group_267-3" data-name="Group 267">
        <path class="cls-4" d="M262.95,107.79c-.44.03-.84.28-1.07.66-.11.2-.32.32-.54.34l-1.38.1c-.1-1.27-.62-2.42-1.41-3.33l.79-.9c.15-.17.36-.25.59-.23.44.07.89-.1,1.18-.43.5-.55.45-1.4-.11-1.9-.56-.5-1.4-.45-1.9.11-.29.33-.41.79-.3,1.22.06.22,0,.45-.16.62l-.76.86c-.88-.73-1.99-1.19-3.2-1.29v-.6c0-.22.1-.43.29-.56.36-.25.59-.66.59-1.11,0-.75-.6-1.35-1.35-1.35s-1.35.6-1.35,1.35c0,.44.22.86.58,1.11.19.13.29.34.29.56v.6c-1.05.09-2.02.45-2.84,1.03l-.85-1.1c-.14-.18-.19-.41-.11-.63.13-.43.05-.9-.22-1.24-.45-.59-1.3-.7-1.89-.24-.59.46-.7,1.29-.24,1.88.27.36.69.54,1.14.52.22,0,.44.09.58.27l.88,1.14c-.68.67-1.2,1.51-1.48,2.44l-.37-.07c-.22-.04-.41-.18-.5-.38-.19-.41-.55-.7-.99-.79-.73-.13-1.43.36-1.57,1.08-.13.73.36,1.43,1.08,1.57.44.07.88-.06,1.2-.37.16-.16.38-.22.61-.19l.35.06c-.03.25-.05.5-.05.75,0,.7.13,1.37.36,2l-.98.53c-.2.11-.43.11-.64.02-.38-.21-.85-.21-1.24,0-.65.35-.9,1.17-.55,1.82.36.65,1.17.9,1.82.54.39-.21.65-.6.7-1.04.03-.22.16-.42.36-.52l.93-.5c.44.77,1.04,1.43,1.77,1.92l-.37.72-.77,1.5c-.09.21-.29.34-.51.37-.74.09-1.26.77-1.17,1.51.07.5.39.92.87,1.08.7.26,1.47-.09,1.73-.79.14-.36.11-.77-.07-1.11-.1-.2-.1-.44,0-.64l.77-1.5.36-.69c.73.34,1.55.53,2.41.53.16,0,.31-.01.46-.02l.04.18c.06.22,0,.45-.15.62-.31.33-.43.79-.32,1.22.18.72.9,1.17,1.63.99.73-.18,1.17-.9.99-1.63-.1-.43-.41-.79-.82-.94-.21-.08-.36-.26-.41-.48,0-.03-.02-.07-.03-.11,1.1-.27,2.07-.86,2.82-1.66l.77.46c.2.11.32.32.34.54.03.44.27.83.65,1.07.64.38,1.47.17,1.84-.47s.17-1.47-.47-1.84c-.38-.22-.85-.25-1.25-.07-.21.09-.44.07-.64-.04l-.66-.39c.53-.79.86-1.72.94-2.72l1.45-.11c.22-.02.44.07.58.24.28.36.71.54,1.15.51.74-.06,1.3-.7,1.24-1.44-.06-.74-.7-1.3-1.44-1.24Z"/>
        <circle id="Ellipse_57-3" data-name="Ellipse 57" class="cls-4" cx="251.79" cy="110.27" r="1.43"/>
        <circle id="Ellipse_58-3" data-name="Ellipse 58" class="cls-4" cx="253.93" cy="106.21" r="1.06"/>
        <circle id="Ellipse_59-3" data-name="Ellipse 59" class="cls-4" cx="255.93" cy="111.71" r="1.72"/>
      </g>
      <polygon class="cls-3" points="57.3 33.67 41.55 96.22 25.65 33.67 0 33.67 25.05 132.82 57.9 132.82 82.95 33.67 57.3 33.67"/>
      <path class="cls-3" d="M207.15,33.67h-48.6v99.15h25.5v-33.45h23.1l18.9-14.7v-36.3l-18.9-14.7ZM200.7,55.42v22.35h-16.65v-22.35h16.65Z"/>
      <path class="cls-3" d="M332.4,33.67h-48.6v99.15h25.5v-33.45h23.1l18.9-14.7v-36.3l-18.9-14.7ZM309.3,77.77v-22.35h16.65v22.35h-16.65Z"/>
      <polygon class="cls-3" points="392.55 111.22 392.55 94.87 414 94.87 414 73.87 392.55 73.87 392.55 55.42 427.65 55.42 422.1 33.67 367.05 33.67 367.05 132.82 421.5 132.82 427.8 111.22 392.55 111.22"/>
    </g>
    <g>
      <polygon class="cls-3" points="96.83 59.93 88.21 79.73 96.83 99.53 105.46 79.73 96.83 59.93"/>
      <polygon class="cls-3" points="96.83 59.93 79.58 59.93 88.21 79.73 96.83 59.93"/>
      <polygon class="cls-3" points="79.58 99.53 96.83 99.53 88.21 79.73 79.58 99.53"/>
    </g>
    <g>
      <polygon class="cls-3" points="118.34 59.93 109.72 79.73 118.34 99.53 126.97 79.73 118.34 59.93"/>
      <polygon class="cls-3" points="118.34 59.93 101.09 59.93 109.72 79.73 118.34 59.93"/>
      <polygon class="cls-3" points="101.09 99.53 118.34 99.53 109.72 79.73 101.09 99.53"/>
    </g>
    <g>
      <polygon class="cls-3" points="139.86 59.93 131.23 79.73 139.86 99.53 148.48 79.73 139.86 59.93"/>
      <polygon class="cls-3" points="139.86 59.93 122.6 59.93 131.23 79.73 139.86 59.93"/>
      <polygon class="cls-3" points="122.6 99.53 139.86 99.53 131.23 79.73 122.6 99.53"/>
    </g>
  </g>
</svg>