<?xml version="1.0" encoding="UTF-8"?>
<svg id="Layer_2" data-name="Layer 2" xmlns="http://www.w3.org/2000/svg" viewBox="0 0 619.63 242.85">
  <defs>
    <style>
      .cls-1 {
        opacity: .2;
      }

      .cls-2 {
        fill: #e20613;
      }

      .cls-2, .cls-3, .cls-4 {
        stroke-width: 0px;
      }

      .cls-3 {
        fill: #e30613;
      }

      .cls-4 {
        fill: #fff;
      }
    </style>
  </defs>
  <g id="Layer_1-2" data-name="Layer 1">
    <rect class="cls-3" width="619.63" height="242.85" rx="12" ry="12"/>
    <g>
      <g class="cls-1">
        <polygon class="cls-4" points="202.13 59.47 177.51 125.28 226.74 125.28 202.13 59.47"/>
        <polygon class="cls-4" points="177.51 125.27 152.89 59.47 202.13 59.47 177.51 125.27"/>
        <polygon class="cls-4" points="202.13 191.08 177.51 125.28 226.74 125.28 202.13 191.08"/>
        <polygon class="cls-4" points="177.51 125.28 152.89 191.08 202.13 191.08 177.51 125.28"/>
      </g>
      <g class="cls-1">
        <polygon class="cls-4" points="282.13 59.47 257.51 125.28 306.74 125.28 282.13 59.47"/>
        <polygon class="cls-4" points="257.51 125.27 232.89 59.47 282.13 59.47 257.51 125.27"/>
        <polygon class="cls-4" points="282.13 191.08 257.51 125.28 306.74 125.28 282.13 191.08"/>
        <polygon class="cls-4" points="257.51 125.28 232.89 191.08 282.13 191.08 257.51 125.28"/>
      </g>
      <g class="cls-1">
        <polygon class="cls-4" points="362.13 59.47 337.51 125.28 386.74 125.28 362.13 59.47"/>
        <polygon class="cls-4" points="337.51 125.27 312.89 59.47 362.13 59.47 337.51 125.27"/>
        <polygon class="cls-4" points="362.13 191.08 337.51 125.28 386.74 125.28 362.13 191.08"/>
        <polygon class="cls-4" points="337.51 125.28 312.89 191.08 362.13 191.08 337.51 125.28"/>
      </g>
      <g class="cls-1">
        <polygon class="cls-4" points="442.13 59.47 417.51 125.28 466.74 125.28 442.13 59.47"/>
        <polygon class="cls-4" points="417.51 125.27 392.89 59.47 442.13 59.47 417.51 125.27"/>
        <polygon class="cls-4" points="442.13 191.08 417.51 125.28 466.74 125.28 442.13 191.08"/>
        <polygon class="cls-4" points="417.51 125.28 392.89 191.08 442.13 191.08 417.51 125.28"/>
      </g>
      <g class="cls-1">
        <polygon class="cls-4" points="522.13 59.47 497.51 125.28 546.74 125.28 522.13 59.47"/>
        <polygon class="cls-4" points="497.51 125.27 472.89 59.47 522.13 59.47 497.51 125.27"/>
        <polygon class="cls-4" points="522.13 191.08 497.51 125.28 546.74 125.28 522.13 191.08"/>
        <polygon class="cls-4" points="497.51 125.28 472.89 191.08 522.13 191.08 497.51 125.28"/>
      </g>
      <g class="cls-1">
        <polygon class="cls-4" points="122.13 59.47 97.51 125.28 146.74 125.28 122.13 59.47"/>
        <polygon class="cls-4" points="97.51 125.27 72.89 59.47 122.13 59.47 97.51 125.27"/>
        <polygon class="cls-4" points="122.13 191.08 97.51 125.28 146.74 125.28 122.13 191.08"/>
        <polygon class="cls-4" points="97.51 125.28 72.89 191.08 122.13 191.08 97.51 125.28"/>
      </g>
      <path class="cls-4" d="M174.15,68.78c-.12.72-20.04,75.72-21.84,82.32-1.08,3.72-4.08,6.36-7.56,6.36-2.76,0-6.12-1.68-7.32-6.48-2.04-7.92-18.48-69.72-21.36-80.52h-18.24l26.28,111.36h17.76c1.2,0,2.16.96,2.16,2.16s-.96,2.16-2.16,2.16h-19.44c-.24,0-.48-.12-.72-.12h-.12c-.12,0-.36-.24-.48-.36h-.12c-.12-.12-.36-.36-.48-.48v-.12c-.12-.12-.24-.36-.24-.6l-27.36-115.68c-.12-.6.12-1.32.48-1.8s1.08-.84,1.68-.84h22.68c.96,0,1.8.6,2.04,1.56.12.72,19.56,73.56,21.84,82.2.48,2.04,1.68,3.24,3.12,3.24,1.32,0,2.76-.96,3.36-3.12,1.56-5.76,17.52-66,21.12-79.56h-16.44l-10.92,42c-.24,1.2-1.44,1.8-2.64,1.56-1.2-.24-1.8-1.44-1.56-2.64l11.28-43.56c.24-.96,1.2-1.68,2.16-1.68h21c.6,0,1.32.36,1.68.84.36.48.48,1.2.36,1.8Z"/>
      <path class="cls-4" d="M216.87,136.34c-1.2,0-2.16-.96-2.16-2.16v-11.64h-28.32v9.48h14.16c1.2,0,2.16.96,2.16,2.16s-.96,2.04-2.16,2.04h-16.32c-1.2,0-2.16-.84-2.16-2.04v-13.8c0-1.2.96-2.16,2.16-2.16h32.64c1.2,0,2.16.96,2.16,2.16v13.8c0,1.2-.96,2.16-2.16,2.16Z"/>
      <path class="cls-4" d="M241.32,186.14c-1.2,0-2.16-.96-2.16-2.16v-54.36c0-7.56,3.24-10.8,10.8-10.8h18.48c5.64,0,9.36-.96,9.36-15.6,0-10.32-2.64-14.52-9.36-14.52h-3.24v18.24c0,1.2-.84,2.16-2.04,2.16s-2.16-.96-2.16-2.16v-20.4c0-1.2.96-2.16,2.16-2.16h5.28c13.68,0,13.68,14.16,13.68,18.84,0,14.64-3.72,19.92-13.68,19.92h-18.48c-5.16,0-6.48,1.32-6.48,6.48v52.2h17.52v-40.56c0-1.2.96-2.16,2.16-2.16h6.48c5.4,0,14.28,0,20.88-5.04,6.36-5.16,10.44-16.32,10.44-29.04,0-9.96-2.16-18.24-6.36-24.6-6.36-9.96-15.96-9.96-26.16-9.96h-24.96v39.24c0,1.2-.96,2.16-2.16,2.16s-2.16-.96-2.16-2.16v-41.4c0-1.2.96-2.16,2.16-2.16h27.12c10.32,0,22.2,0,29.76,11.88,4.68,7.08,7.08,16.2,7.08,27,0,14.16-4.56,26.28-12,32.4-7.8,6-18.12,6.12-23.64,6.12h-4.44v40.44c0,1.2-.84,2.16-2.04,2.16h-21.84Z"/>
      <path class="cls-4" d="M385.62,186.14c-1.2,0-2.16-.96-2.16-2.16v-54.36c0-7.56,3.24-10.8,10.8-10.8h18.48c5.64,0,9.36-.96,9.36-15.6,0-10.32-2.64-14.52-9.36-14.52h-3.24v18.24c0,1.2-.84,2.16-2.04,2.16s-2.16-.96-2.16-2.16v-20.4c0-1.2.96-2.16,2.16-2.16h5.28c13.68,0,13.68,14.16,13.68,18.84,0,14.64-3.72,19.92-13.68,19.92h-18.48c-5.16,0-6.48,1.32-6.48,6.48v52.2h17.52v-40.56c0-1.2.96-2.16,2.16-2.16h6.48c5.4,0,14.28,0,20.88-5.04,6.36-5.16,10.44-16.32,10.44-29.04,0-9.96-2.16-18.24-6.36-24.6-6.36-9.96-15.96-9.96-26.16-9.96h-24.96v39.24c0,1.2-.96,2.16-2.16,2.16s-2.16-.96-2.16-2.16v-41.4c0-1.2.96-2.16,2.16-2.16h27.12c10.32,0,22.2,0,29.76,11.88,4.68,7.08,7.08,16.2,7.08,27,0,14.16-4.56,26.28-12,32.4-7.8,6-18.12,6.12-23.64,6.12h-4.44v40.44c0,1.2-.84,2.16-2.04,2.16h-21.84Z"/>
      <path class="cls-4" d="M477.87,186.14c-1.2,0-2.16-.96-2.16-2.16v-38.28c0-7.08,5.76-12.84,12.96-13.08h35.52v-15h-24c-1.2,0-2.16-.96-2.16-2.16v-26.88c0-1.2.96-2.16,2.16-2.16h31.92v-15.96h-52.08v55.2c0,1.2-.96,2.04-2.16,2.04s-2.16-.84-2.16-2.04v-57.36c0-1.2.96-2.16,2.16-2.16h56.4c1.2,0,2.16.96,2.16,2.16v20.28c0,1.2-.96,2.16-2.16,2.16h-31.92v22.56h23.88c1.2,0,2.16.96,2.16,2.16v19.32c0,1.2-.96,2.04-2.16,2.04h-37.08c-5.04,0-9.12,4.08-9.12,9v36h52.08v-15.96h-31.92c-1.2,0-2.16-.96-2.16-2.16v-14.88c0-1.2.96-2.16,2.16-2.16s2.16.96,2.16,2.16v12.72h31.92c1.2,0,2.16.96,2.16,2.16v20.28c0,1.2-.96,2.16-2.16,2.16h-56.4Z"/>
      <path class="cls-4" d="M340.92,188.14c-12.68,0-23-10.32-23-23v-99c0-1.1.9-2,2-2s2,.9,2,2v99c0,10.48,8.52,19,19,19s19-8.52,19-19v-99c0-1.1.9-2,2-2s2,.9,2,2v99c0,12.68-10.32,23-23,23Z"/>
      <path class="cls-4" d="M353.57,86.94c-2.15,0-3.34-.76-4.21-1.31-.69-.44-1.08-.69-2.06-.69s-1.37.24-2.06.69c-.87.55-2.06,1.31-4.21,1.31s-3.34-.76-4.21-1.31c-.69-.44-1.07-.69-2.06-.69s-1.37.24-2.06.69c-.87.55-2.06,1.31-4.21,1.31s-3.34-.76-4.21-1.31c-.69-.44-1.08-.69-2.06-.69-1.1,0-2-.9-2-2s.9-2,2-2c2.15,0,3.34.76,4.21,1.31.69.44,1.07.69,2.06.69s1.37-.24,2.06-.69c.87-.55,2.06-1.31,4.21-1.31s3.34.76,4.21,1.31c.69.44,1.07.69,2.06.69s1.37-.24,2.06-.69c.87-.55,2.06-1.31,4.21-1.31s3.34.76,4.21,1.31c.69.44,1.08.69,2.06.69s1.37-.24,2.06-.69c.87-.55,2.06-1.31,4.21-1.31,1.1,0,2,.9,2,2s-.9,2-2,2c-.99,0-1.37.24-2.06.69-.87.55-2.06,1.31-4.21,1.31Z"/>
      <g>
        <path class="cls-4" d="M361.97,58.49l-40.95-8.87s-.04-.03-.04-.06l3.55-16.39c.66-3.06,3.68-5.01,6.75-4.35l4.76,1.03,25.2,5.46c3.06.66,5.01,3.68,4.35,6.75l-3.55,16.39s-.03.04-.06.04Z"/>
        <path class="cls-4" d="M363.56,60.83l-2.02-.38-42.91-9.29.39-2.02,3.55-16.39c.9-4.14,4.98-6.77,9.12-5.88l29.96,6.49c2,.43,3.72,1.62,4.83,3.35,1.11,1.72,1.48,3.78,1.05,5.78l-3.97,18.34ZM323.35,48.08l37.14,8.04,3.14-14.48c.43-1.98-.83-3.94-2.81-4.37l-29.96-6.49c-1.98-.43-3.94.83-4.37,2.81l-3.14,14.48Z"/>
      </g>
      <g>
        <polyline class="cls-2" points="332.96 44.17 332.96 44.17 336.02 30.04"/>
        <path class="cls-2" d="M332.96,46.17c-.14,0-.28-.01-.43-.05-1.08-.23-1.77-1.3-1.53-2.38l3.06-14.13c.23-1.08,1.3-1.77,2.38-1.53,1.08.23,1.77,1.3,1.53,2.38l-3.06,14.13c-.2.94-1.03,1.58-1.95,1.58Z"/>
      </g>
      <g>
        <polyline class="cls-2" points="342.73 46.29 342.73 46.29 345.79 32.16"/>
        <path class="cls-2" d="M342.74,48.29c-.14,0-.28-.01-.43-.05-1.08-.23-1.77-1.3-1.53-2.38l3.06-14.13c.23-1.08,1.3-1.77,2.38-1.53,1.08.23,1.77,1.3,1.53,2.38l-3.06,14.13c-.2.94-1.03,1.58-1.95,1.58Z"/>
      </g>
      <g>
        <polyline class="cls-2" points="352.51 48.41 352.51 48.41 355.57 34.28"/>
        <path class="cls-2" d="M352.51,50.41c-.14,0-.28-.01-.43-.05-1.08-.23-1.77-1.3-1.53-2.38l3.06-14.13c.23-1.08,1.3-1.77,2.38-1.53,1.08.23,1.77,1.3,1.53,2.38l-3.06,14.13c-.2.94-1.03,1.58-1.95,1.58Z"/>
      </g>
      <g id="Group_267" data-name="Group 267">
        <path class="cls-4" d="M350.71,101.92c-.56.04-1.08.36-1.37.85-.14.25-.41.41-.7.43l-1.77.13c-.13-1.63-.79-3.11-1.81-4.27l1.01-1.15c.19-.22.47-.32.76-.3.56.08,1.14-.13,1.51-.55.64-.71.58-1.8-.14-2.44-.72-.64-1.8-.58-2.44.14-.37.42-.53,1.01-.38,1.56.07.28-.01.58-.2.79l-.97,1.1c-1.13-.94-2.55-1.53-4.11-1.66v-.77c0-.29.13-.55.37-.72.47-.32.76-.85.76-1.43,0-.96-.77-1.73-1.73-1.73s-1.73.77-1.73,1.73c0,.56.28,1.1.74,1.43.24.17.37.43.37.72v.77c-1.35.11-2.6.58-3.65,1.32l-1.09-1.41c-.18-.23-.24-.53-.14-.8.17-.55.06-1.15-.29-1.6-.58-.76-1.67-.9-2.42-.31-.76.59-.9,1.66-.31,2.41.35.46.89.7,1.46.67.29-.01.56.12.74.35l1.13,1.46c-.87.86-1.54,1.93-1.9,3.13l-.47-.09c-.29-.05-.53-.23-.65-.49-.24-.53-.71-.9-1.27-1.01-.94-.17-1.84.46-2.02,1.39-.17.94.46,1.84,1.39,2.02.56.1,1.13-.07,1.54-.48.2-.2.49-.29.78-.24l.45.08c-.04.32-.07.64-.07.96,0,.9.17,1.76.47,2.56l-1.26.68c-.25.14-.55.14-.82.02-.49-.26-1.09-.26-1.6.01-.84.44-1.15,1.5-.71,2.34.46.84,1.5,1.15,2.34.7.5-.26.84-.77.9-1.33.04-.29.2-.54.46-.67l1.19-.65c.56.99,1.34,1.83,2.27,2.47l-.48.93-.98,1.92c-.12.26-.37.43-.66.48-.95.12-1.62.98-1.5,1.93.08.64.5,1.18,1.12,1.39.9.34,1.88-.12,2.22-1.01.18-.47.14-.98-.1-1.43-.13-.25-.13-.56,0-.82l.98-1.92.46-.89c.94.44,1.99.69,3.1.69.2,0,.4-.01.59-.03l.06.23c.07.28,0,.58-.19.79-.4.42-.55,1.01-.41,1.56.23.92,1.15,1.5,2.09,1.27.94-.23,1.5-1.15,1.27-2.09-.13-.55-.53-1.01-1.06-1.21-.26-.11-.47-.34-.53-.61-.01-.04-.02-.1-.03-.14,1.41-.35,2.66-1.1,3.62-2.13l.99.59c.25.14.41.41.43.7.04.56.35,1.07.84,1.37.82.49,1.88.22,2.36-.6s.22-1.88-.6-2.36c-.49-.29-1.09-.32-1.61-.08-.26.12-.56.1-.82-.05l-.84-.5c.68-1.02,1.1-2.21,1.21-3.5l1.87-.15c.29-.02.56.1.74.31.36.46.91.7,1.48.66.95-.07,1.67-.9,1.6-1.85-.07-.95-.9-1.67-1.85-1.6Z"/>
        <circle id="Ellipse_57" data-name="Ellipse 57" class="cls-4" cx="336.39" cy="105.12" r="1.84"/>
        <circle id="Ellipse_58" data-name="Ellipse 58" class="cls-4" cx="339.14" cy="99.89" r="1.36"/>
        <circle id="Ellipse_59" data-name="Ellipse 59" class="cls-4" cx="341.71" cy="106.95" r="2.21"/>
      </g>
      <g id="Group_267-2" data-name="Group 267">
        <path class="cls-4" d="M354.1,137.87c-.35-.31-.85-.43-1.31-.3-.23.06-.48,0-.67-.16l-1.12-.97c.89-1.04,1.37-2.3,1.45-3.59l1.28-.09c.24-.01.47.09.62.27.28.38.75.6,1.22.57.79-.04,1.4-.72,1.35-1.52-.05-.8-.72-1.4-1.52-1.35-.47.03-.91.28-1.15.69-.12.21-.35.33-.59.35l-1.22.08c-.12-1.22-.6-2.41-1.45-3.41l.46-.46c.17-.17.4-.25.65-.21.47.09.95-.06,1.29-.4.57-.57.57-1.47,0-2.04s-1.47-.57-2.04,0c-.33.33-.49.82-.4,1.28.04.24-.04.48-.21.65l-.46.46c-.86-.73-1.88-1.19-2.94-1.37l.19-1.48c.03-.24.17-.45.39-.56.43-.23.72-.65.77-1.11.11-.79-.45-1.52-1.25-1.62-.79-.1-1.51.45-1.61,1.24-.06.48.11.94.47,1.26.18.16.26.4.23.65l-.2,1.53c-1.02,0-2.05.23-2.97.73l-.23-.33c-.14-.2-.18-.45-.09-.67.17-.45.11-.95-.16-1.35-.45-.65-1.35-.82-2.01-.37-.65.45-.82,1.35-.37,2.01.28.39.71.62,1.19.62.24,0,.46.12.6.32l.22.32c-.21.16-.42.33-.61.53-.53.53-.94,1.14-1.24,1.79l-1.14-.34c-.23-.06-.41-.24-.5-.47-.13-.45-.49-.8-.95-.94-.76-.23-1.57.21-1.8.96-.23.77.21,1.57.97,1.79.45.14.95.04,1.32-.26.19-.15.44-.2.67-.13l1.09.32c-.25.91-.29,1.87-.11,2.8l-.83.27-1.72.55c-.23.09-.48.04-.67-.11-.63-.49-1.54-.38-2.03.26-.33.43-.4.99-.16,1.48.33.73,1.18,1.04,1.91.72.38-.17.67-.5.79-.9.07-.23.26-.41.48-.48l1.72-.55.79-.26c.3.81.77,1.58,1.42,2.23.12.12.24.23.37.33l-.11.17c-.12.21-.34.34-.58.35-.48.01-.92.27-1.16.68-.41.68-.21,1.57.48,1.99.69.42,1.57.21,1.99-.48.25-.4.28-.91.09-1.34-.09-.22-.08-.48.05-.67.02-.03.04-.07.06-.1,1.04.63,2.22.92,3.4.88l.24.93c.06.23,0,.48-.16.67-.31.35-.43.84-.31,1.3.19.77.99,1.24,1.75,1.04s1.24-.99,1.04-1.75c-.12-.46-.45-.84-.9-1-.23-.09-.39-.28-.45-.51l-.2-.79c1-.2,1.96-.65,2.78-1.35l1.19,1.02c.18.16.28.39.26.62-.06.48.13.95.48,1.26.6.52,1.52.45,2.03-.15.52-.6.45-1.52-.15-2.03Z"/>
        <circle id="Ellipse_57-2" data-name="Ellipse 57" class="cls-4" cx="343.75" cy="131.3" r="1.53"/>
        <circle id="Ellipse_58-2" data-name="Ellipse 58" class="cls-4" cx="348.46" cy="129.84" r="1.13"/>
        <circle id="Ellipse_59-2" data-name="Ellipse 59" class="cls-4" cx="345.81" cy="135.53" r="1.84"/>
      </g>
      <g id="Group_267-3" data-name="Group 267">
        <path class="cls-4" d="M350.78,158.57c-.53.03-1.01.34-1.28.8-.13.24-.38.38-.65.4l-1.65.12c-.12-1.52-.74-2.9-1.69-3.98l.94-1.08c.18-.2.44-.3.71-.28.53.08,1.06-.12,1.41-.52.59-.66.54-1.68-.13-2.27-.67-.59-1.68-.54-2.27.13-.35.39-.49.94-.36,1.46.07.26-.01.54-.19.74l-.91,1.03c-1.06-.87-2.38-1.43-3.83-1.55v-.72c0-.27.12-.52.35-.67.44-.3.71-.8.71-1.33,0-.9-.72-1.61-1.61-1.61s-1.61.72-1.61,1.61c0,.53.26,1.03.69,1.33.22.16.35.4.35.67v.72c-1.26.1-2.42.54-3.4,1.23l-1.02-1.32c-.17-.21-.22-.49-.13-.75.16-.52.06-1.08-.27-1.49-.54-.71-1.56-.84-2.26-.29-.71.55-.84,1.55-.29,2.25.32.43.83.65,1.37.63.27-.01.53.11.69.32l1.05,1.37c-.82.8-1.43,1.8-1.77,2.93l-.44-.08c-.27-.04-.49-.21-.6-.46-.22-.49-.66-.84-1.19-.94-.87-.16-1.71.43-1.88,1.3-.16.87.43,1.71,1.3,1.88.53.09,1.05-.07,1.43-.45.19-.19.46-.27.73-.22l.42.08c-.04.29-.06.59-.06.9,0,.84.16,1.65.43,2.39l-1.17.63c-.24.13-.52.13-.76.02-.46-.25-1.02-.25-1.49.01-.78.41-1.08,1.4-.66,2.18.43.78,1.4,1.08,2.18.65.47-.25.78-.72.84-1.24.03-.27.19-.5.43-.63l1.11-.6c.52.92,1.25,1.71,2.12,2.3l-.44.87-.92,1.79c-.11.25-.35.4-.62.45-.88.11-1.51.92-1.4,1.8.08.59.47,1.1,1.04,1.3.84.31,1.76-.11,2.07-.94.17-.44.13-.92-.09-1.33-.12-.24-.12-.53,0-.76l.92-1.79.43-.83c.88.41,1.86.64,2.89.64.19,0,.37-.01.55-.03l.05.22c.07.26,0,.54-.18.74-.37.39-.52.94-.38,1.46.21.86,1.08,1.4,1.95,1.19.87-.21,1.4-1.08,1.19-1.95-.12-.52-.49-.94-.99-1.13-.25-.1-.44-.31-.49-.57,0-.04-.02-.09-.03-.13,1.32-.33,2.48-1.03,3.38-1.99l.92.55c.24.13.38.38.4.65.03.53.32,1,.78,1.28.76.46,1.76.2,2.21-.56s.2-1.76-.56-2.21c-.46-.27-1.02-.3-1.5-.08-.25.11-.53.09-.76-.04l-.79-.47c.63-.95,1.03-2.06,1.13-3.26l1.74-.14c.27-.02.53.09.69.29.34.43.85.65,1.38.62.88-.07,1.56-.84,1.49-1.72-.07-.88-.84-1.56-1.72-1.49Z"/>
        <circle id="Ellipse_57-3" data-name="Ellipse 57" class="cls-4" cx="337.42" cy="161.55" r="1.71"/>
        <circle id="Ellipse_58-3" data-name="Ellipse 58" class="cls-4" cx="339.98" cy="156.67" r="1.27"/>
        <circle id="Ellipse_59-3" data-name="Ellipse 59" class="cls-4" cx="342.38" cy="163.26" r="2.06"/>
      </g>
    </g>
  </g>
</svg>