<?xml version="1.0" encoding="utf-8"?>
<!-- Generator: Adobe Illustrator 28.2.0, SVG Export Plug-In . SVG Version: 6.00 Build 0)  -->
<svg version="1.1" id="chosen_finb" xmlns="http://www.w3.org/2000/svg" xmlns:xlink="http://www.w3.org/1999/xlink" x="0px"
	 y="0px" viewBox="0 0 424.8 226.7" style="enable-background:new 0 0 424.8 226.7;" xml:space="preserve">
<style type="text/css">
	.st0{fill:#FFFFFF;}
	.st1{fill:#E30613;}
</style>
<path id="path4" class="st0" d="M13.2,0C5.9,0,0,5.8,0,12.9v112.7c0,7.1,5.9,12.9,13.2,12.9h157.3c7.3,0,13.2-5.8,13.2-12.9V12.9
	c0-7.1-5.9-12.9-13.2-12.9H13.2z"/>
<path id="path6" class="st1" d="M55.5,44.5c0.2-4.3,3.1-7.8,7.1-8.8L68.3,0H7.2C3.3,0,0.1,3.2,0.1,7.1v59.5L55.5,44.5z M20.9,21.7
	h7.9v-7.9h7.1v7.9h7.9v7.1h-7.9v7.9h-7.1v-7.9h-7.9L20.9,21.7z M157.3,106.5c1.1-0.4,1.9-1.1,2.4-2.1c0.4-0.7,0.7-1.6,0.7-2.5
	c0-1.9-0.7-3.2-2.1-3.9c-1.4-0.6-3.5-1-6.3-1h-6.3v10h7.1C154.8,107,156.3,106.8,157.3,106.5L157.3,106.5z M159.9,113.9
	c-1.4-0.9-3.4-1.3-6.1-1.3h-8.1v11.2h8.4c5.3,0,7.9-1.9,7.9-5.7C162,116.2,161.3,114.7,159.9,113.9L159.9,113.9z"/>
<path id="path8" class="st1" d="M177.6,0H76.2l-5.9,36.9c2.6,1.7,4.3,4.6,4.3,8v0.5l44.9,23.2c1.6-1.3,3.7-2.1,5.9-2.1
	c5.3,0,9.6,4.3,9.6,9.6s-4.3,9.6-9.6,9.6s-9.6-4.3-9.6-9.6v-0.6L71,52.3c-1.6,1.3-3.7,2.1-6,2.1c-2.6,0-4.9-1-6.7-2.7L0.1,74.9v56.4
	c0,3.9,3.2,7.1,7.1,7.1h170.4c3.9,0,7.1-3.2,7.1-7.1V7.1C184.7,3.2,181.5,0,177.6,0L177.6,0z M112.8,124.4c-1.2,1.8-3,3.3-5.3,4.3
	c-2.3,1-5,1.6-8.2,1.6c-3.8,0-6.9-0.7-9.4-2.1c-1.7-1-3.2-2.4-4.3-4.1c-1.1-1.7-1.6-3.4-1.6-5c0-0.9,0.3-1.7,1-2.4s1.5-1,2.5-1
	c0.8,0,1.5,0.3,2.1,0.8s1.1,1.3,1.5,2.3c0.5,1.2,1,2.2,1.6,3.1c0.6,0.8,1.4,1.5,2.4,2s2.4,0.8,4.1,0.8c2.3,0,4.2-0.5,5.6-1.6
	s2.2-2.4,2.2-4c0-1.3-0.4-2.3-1.2-3.1c-0.8-0.8-1.8-1.4-3-1.8s-2.9-0.9-4.9-1.3c-2.8-0.6-5.1-1.4-6.9-2.3c-1.9-0.9-3.3-2-4.4-3.5
	s-1.6-3.4-1.6-5.6c0-2.1,0.6-4,1.7-5.6c1.2-1.6,2.8-2.9,5-3.8s4.8-1.3,7.7-1.3c2.4,0,4.4,0.3,6.1,0.9s3.2,1.4,4.3,2.3
	c1.1,1,2,2,2.5,3.1s0.8,2.1,0.8,3.1c0,0.9-0.3,1.8-1,2.5s-1.5,1.1-2.5,1.1c-0.9,0-1.6-0.2-2-0.7c-0.5-0.4-1-1.2-1.5-2.2
	c-0.7-1.5-1.5-2.6-2.5-3.4s-2.6-1.2-4.7-1.2c-2,0-3.6,0.4-4.9,1.3c-1.2,0.9-1.8,1.9-1.8,3.2c0,0.8,0.2,1.4,0.6,2s1,1,1.7,1.4
	s1.5,0.7,2.2,0.9c0.7,0.2,2,0.6,3.7,1c2.2,0.5,4.1,1.1,5.9,1.7s3.3,1.4,4.5,2.2c1.2,0.9,2.2,2,2.9,3.3c0.7,1.3,1,3,1,4.9
	C114.6,120.4,114,122.5,112.8,124.4L112.8,124.4z M129.3,125.5c0,1.6-0.4,2.8-1.1,3.6c-0.7,0.8-1.7,1.2-2.9,1.2
	c-1.1,0-2.1-0.4-2.8-1.2c-0.7-0.8-1.1-2-1.1-3.5V94.8c0-1.6,0.4-2.8,1.1-3.5c0.7-0.8,1.6-1.2,2.8-1.2c1.2,0,2.1,0.4,2.9,1.2
	c0.7,0.8,1.1,2,1.1,3.6V125.5z M168.2,124.5c-1.1,1.7-2.6,3-4.5,3.8c-1.2,0.5-2.5,0.8-4,1s-3.3,0.3-5.3,0.3h-11.8
	c-1.7,0-2.9-0.4-3.6-1.1c-0.7-0.8-1.1-2-1.1-3.6V96c0-1.7,0.4-2.9,1.1-3.7c0.7-0.7,1.9-1.1,3.6-1.1h12.5c1.8,0,3.4,0.1,4.8,0.3
	c1.3,0.2,2.6,0.7,3.6,1.3c0.9,0.5,1.7,1.2,2.4,2.1c0.7,0.8,1.2,1.7,1.6,2.8c0.4,1,0.5,2.1,0.5,3.2c0,3.9-1.9,6.7-5.8,8.5
	c5.1,1.6,7.6,4.7,7.6,9.4C169.9,120.8,169.3,122.8,168.2,124.5z"/>
<path id="path10" d="M101.2,157.5c-1.4-1-3.2-1.6-5.5-1.6c-0.9,0-1.8,0.1-2.7,0.3c-0.9,0.2-1.6,0.5-2.3,0.9c-0.7,0.4-1.2,1-1.6,1.7
	s-0.6,1.6-0.6,2.6s0.3,1.8,0.9,2.4c0.6,0.6,1.4,1.1,2.3,1.5c1,0.4,2.1,0.7,3.3,1c1.2,0.3,2.5,0.5,3.8,0.8s2.5,0.7,3.8,1.1
	c1.2,0.4,2.3,1,3.3,1.6c1,0.7,1.8,1.6,2.3,2.6c0.6,1.1,0.9,2.4,0.9,4c0,1.7-0.4,3.2-1.1,4.4c-0.8,1.2-1.7,2.2-2.9,3
	c-1.2,0.8-2.5,1.3-4,1.7c-1.5,0.3-3,0.5-4.4,0.5c-1.8,0-3.5-0.2-5.1-0.7s-3-1.1-4.2-2.1c-1.2-0.9-2.2-2.1-2.9-3.5
	c-0.7-1.4-1.1-3.1-1.1-5.1h4.1c0,1.4,0.3,2.5,0.8,3.5s1.2,1.8,2.1,2.4c0.9,0.6,1.9,1.1,3,1.4c1.1,0.3,2.3,0.5,3.5,0.5
	c1,0,1.9-0.1,2.9-0.3s1.9-0.5,2.6-0.9c0.8-0.4,1.4-1,1.9-1.8s0.7-1.7,0.7-2.9c0-1.1-0.3-2-0.9-2.7s-1.4-1.3-2.3-1.7
	c-1-0.4-2.1-0.8-3.3-1.1c-1.2-0.3-2.5-0.5-3.8-0.8s-2.5-0.6-3.8-1c-1.2-0.4-2.3-0.9-3.3-1.5s-1.8-1.4-2.3-2.4
	c-0.6-1-0.9-2.2-0.9-3.7c0-1.6,0.3-3,1-4.2s1.5-2.2,2.6-2.9c1.1-0.8,2.3-1.3,3.7-1.7c1.4-0.4,2.8-0.6,4.3-0.6c1.7,0,3.2,0.2,4.6,0.6
	c1.4,0.4,2.6,1,3.7,1.9c1.1,0.8,1.9,1.9,2.5,3.2s1,2.8,1,4.6h-4C103.4,160.2,102.6,158.5,101.2,157.5z M132.6,185.3l-4.7-18.5h-0.1
	l-4.7,18.5H119l-7.5-23.2h4.2l5.3,19h0.1l4.7-19h4.2l4.9,19h0.1l5.2-19h4l-7.4,23.2H132.6z M148,157.8v-4.7h3.8v4.7H148z M151.8,162
	v23.3H148V162H151.8z M160.6,180.1c0.4,0.6,0.8,1,1.4,1.4c0.6,0.3,1.3,0.6,2,0.7c0.7,0.2,1.5,0.2,2.3,0.2c0.6,0,1.2,0,1.9-0.1
	s1.3-0.3,1.8-0.5c0.6-0.2,1-0.6,1.4-1.1s0.5-1.1,0.5-1.8c0-1-0.4-1.7-1.1-2.3c-0.8-0.5-1.7-0.9-2.8-1.2s-2.4-0.6-3.7-0.9
	c-1.3-0.3-2.5-0.6-3.7-1.1c-1.1-0.5-2.1-1.1-2.8-2c-0.8-0.8-1.1-2-1.1-3.5c0-1.2,0.3-2.2,0.8-3s1.2-1.5,2-2.1
	c0.8-0.5,1.8-0.9,2.8-1.2s2.1-0.4,3.1-0.4c1.3,0,2.5,0.1,3.6,0.3s2.1,0.6,3,1.2c0.9,0.6,1.5,1.3,2,2.3c0.5,0.9,0.8,2.1,0.9,3.5h-3.8
	c-0.1-0.8-0.3-1.4-0.6-1.9s-0.8-0.9-1.3-1.2s-1.1-0.5-1.7-0.7c-0.6-0.1-1.2-0.2-1.9-0.2c-0.6,0-1.2,0-1.7,0.1
	c-0.6,0.1-1.1,0.2-1.6,0.5c-0.5,0.2-0.9,0.5-1.2,0.9s-0.5,0.9-0.5,1.5c0,0.7,0.2,1.2,0.7,1.6c0.5,0.4,1.1,0.8,1.8,1.1
	s1.5,0.5,2.4,0.7l2.7,0.6c1,0.2,1.9,0.5,2.8,0.8c0.9,0.3,1.7,0.7,2.4,1.2s1.3,1.1,1.7,1.9c0.4,0.8,0.7,1.7,0.7,2.8
	c0,1.4-0.3,2.6-0.9,3.5c-0.6,0.9-1.4,1.7-2.3,2.3c-0.9,0.6-2,1-3.2,1.2s-2.4,0.3-3.5,0.3c-1.3,0-2.5-0.1-3.7-0.4
	c-1.2-0.3-2.2-0.7-3.1-1.3c-0.9-0.6-1.6-1.4-2.2-2.4c-0.5-1-0.8-2.2-0.9-3.7h3.8C160,178.8,160.2,179.5,160.6,180.1L160.6,180.1z
	 M183.1,180.1c0.4,0.6,0.8,1,1.4,1.4c0.6,0.3,1.3,0.6,2,0.7c0.7,0.2,1.5,0.2,2.3,0.2c0.6,0,1.2,0,1.9-0.1s1.3-0.3,1.8-0.5
	c0.6-0.2,1-0.6,1.4-1.1s0.5-1.1,0.5-1.8c0-1-0.4-1.7-1.1-2.3c-0.8-0.5-1.7-0.9-2.8-1.2s-2.4-0.6-3.7-0.9c-1.3-0.3-2.5-0.6-3.7-1.1
	c-1.1-0.5-2.1-1.1-2.8-2c-0.8-0.8-1.1-2-1.1-3.5c0-1.2,0.3-2.2,0.8-3s1.2-1.5,2-2.1c0.8-0.5,1.8-0.9,2.8-1.2s2.1-0.4,3.1-0.4
	c1.3,0,2.5,0.1,3.6,0.3s2.1,0.6,3,1.2c0.9,0.6,1.5,1.3,2,2.3c0.5,0.9,0.8,2.1,0.9,3.5h-3.8c-0.1-0.8-0.3-1.4-0.6-1.9
	s-0.8-0.9-1.3-1.2s-1.1-0.5-1.7-0.7c-0.6-0.1-1.2-0.2-1.9-0.2c-0.6,0-1.2,0-1.7,0.1c-0.6,0.1-1.1,0.2-1.6,0.5
	c-0.5,0.2-0.9,0.5-1.2,0.9s-0.5,0.9-0.5,1.5c0,0.7,0.2,1.2,0.7,1.6c0.5,0.4,1.1,0.8,1.8,1.1s1.5,0.5,2.4,0.7l2.7,0.6
	c1,0.2,1.9,0.5,2.8,0.8c0.9,0.3,1.7,0.7,2.4,1.2s1.3,1.1,1.7,1.9c0.4,0.8,0.7,1.7,0.7,2.8c0,1.4-0.3,2.6-0.9,3.5
	c-0.6,0.9-1.4,1.7-2.3,2.3c-0.9,0.6-2,1-3.2,1.2s-2.4,0.3-3.5,0.3c-1.3,0-2.5-0.1-3.7-0.4c-1.2-0.3-2.2-0.7-3.1-1.3
	c-0.9-0.6-1.6-1.4-2.2-2.4c-0.5-1-0.8-2.2-0.9-3.7h3.8C182.5,178.8,182.7,179.5,183.1,180.1L183.1,180.1z M220.3,153.1v32.2h-4.2
	v-32.1h4.2V153.1z M230.4,162v3.7h0.1c1.6-2.8,4.1-4.2,7.6-4.2c1.5,0,2.8,0.2,3.8,0.6c1,0.4,1.8,1,2.5,1.8c0.6,0.8,1.1,1.6,1.3,2.7
	c0.3,1,0.4,2.2,0.4,3.4v15.3h-3.8v-15.8c0-1.4-0.4-2.6-1.3-3.4c-0.8-0.8-2-1.3-3.5-1.3c-1.2,0-2.2,0.2-3,0.5
	c-0.9,0.4-1.6,0.9-2.1,1.5c-0.6,0.7-1,1.4-1.3,2.3c-0.3,0.9-0.4,1.9-0.4,2.9v13.3h-3.8V162H230.4z M254.8,180.1
	c0.4,0.6,0.8,1,1.4,1.4c0.6,0.3,1.3,0.6,2,0.7c0.7,0.2,1.5,0.2,2.3,0.2c0.6,0,1.2,0,1.9-0.1s1.3-0.3,1.8-0.5c0.6-0.2,1-0.6,1.4-1.1
	s0.5-1.1,0.5-1.8c0-1-0.4-1.7-1.1-2.3c-0.8-0.5-1.7-0.9-2.8-1.2c-1.1-0.3-2.4-0.6-3.7-0.9c-1.3-0.3-2.5-0.6-3.7-1.1
	c-1.1-0.5-2.1-1.1-2.8-2c-0.8-0.8-1.1-2-1.1-3.5c0-1.2,0.3-2.2,0.8-3s1.2-1.5,2-2.1c0.8-0.5,1.8-0.9,2.8-1.2s2.1-0.4,3.1-0.4
	c1.3,0,2.5,0.1,3.7,0.3c1.1,0.2,2.1,0.6,3,1.2c0.9,0.6,1.5,1.3,2.1,2.3c0.5,0.9,0.8,2.1,0.9,3.5h-3.8c-0.1-0.8-0.3-1.4-0.6-1.9
	s-0.8-0.9-1.3-1.2s-1.1-0.5-1.7-0.7c-0.6-0.1-1.2-0.2-1.9-0.2c-0.6,0-1.2,0-1.7,0.1c-0.6,0.1-1.1,0.2-1.6,0.5
	c-0.5,0.2-0.9,0.5-1.2,0.9s-0.5,0.9-0.5,1.5c0,0.7,0.2,1.2,0.7,1.6c0.5,0.4,1.1,0.8,1.8,1.1c0.7,0.3,1.5,0.5,2.4,0.7l2.7,0.6
	c1,0.2,1.9,0.5,2.8,0.8s1.7,0.7,2.4,1.2s1.3,1.1,1.7,1.9c0.4,0.8,0.7,1.7,0.7,2.8c0,1.4-0.3,2.6-0.9,3.5s-1.4,1.7-2.3,2.3
	s-2,1-3.2,1.2s-2.4,0.3-3.5,0.3c-1.3,0-2.5-0.1-3.7-0.4c-1.2-0.3-2.2-0.7-3.1-1.3c-0.9-0.6-1.6-1.4-2.2-2.4c-0.5-1-0.8-2.2-0.9-3.7
	h3.8C254.2,178.8,254.4,179.5,254.8,180.1L254.8,180.1z M284.3,162v3.4h-4.6v14.4c0,0.5,0,0.8,0.1,1.1s0.2,0.5,0.4,0.6
	c0.2,0.2,0.5,0.2,0.9,0.3c0.4,0,0.9,0.1,1.5,0.1h1.8v3.4h-2.9c-1,0-1.8-0.1-2.5-0.2s-1.3-0.4-1.7-0.7c-0.4-0.4-0.8-0.9-1-1.5
	c-0.2-0.7-0.3-1.5-0.3-2.6v-14.8h-4v-3.4h4v-7h3.8v7h4.5L284.3,162z M288.8,157.8v-4.7h3.8v4.7H288.8z M292.6,162v23.3h-3.8V162
	H292.6z M308.5,162v3.4h-4.6v14.4c0,0.5,0,0.8,0.1,1.1s0.2,0.5,0.4,0.6c0.2,0.2,0.5,0.2,0.9,0.3c0.4,0,0.9,0.1,1.5,0.1h1.8v3.4h-2.9
	c-1,0-1.8-0.1-2.5-0.2s-1.3-0.4-1.7-0.7c-0.4-0.4-0.8-0.9-1-1.5c-0.2-0.7-0.3-1.5-0.3-2.6v-14.8h-4v-3.4h4v-7h3.8v7h4.5L308.5,162z
	 M328.4,185.3v-3.7h-0.1c-0.8,1.4-1.8,2.5-3.1,3.2c-1.3,0.7-2.7,1-4.5,1c-1.5,0-2.8-0.2-3.8-0.6c-1-0.4-1.8-1-2.5-1.7
	s-1.1-1.6-1.3-2.7c-0.3-1-0.4-2.2-0.4-3.4v-15.3h3.8v15.8c0,1.4,0.4,2.6,1.3,3.4c0.8,0.8,2,1.3,3.5,1.3c1.2,0,2.2-0.2,3-0.5
	c0.9-0.4,1.6-0.9,2.1-1.5c0.6-0.7,1-1.4,1.3-2.3c0.3-0.9,0.4-1.9,0.4-2.9v-13.1h3.8v23H328.4z M347.7,162v3.4h-4.6v14.4
	c0,0.5,0,0.8,0.1,1.1s0.2,0.5,0.4,0.6c0.2,0.2,0.5,0.2,0.9,0.3c0.4,0,0.9,0.1,1.5,0.1h1.8v3.4h-2.9c-1,0-1.8-0.1-2.5-0.2
	s-1.3-0.4-1.7-0.7c-0.4-0.4-0.8-0.9-1-1.5c-0.2-0.7-0.3-1.5-0.3-2.6v-14.8h-4v-3.4h4v-7h3.8v7h4.5L347.7,162z M368.4,183.8
	c-1.7,1.3-3.9,2-6.6,2c-1.9,0-3.5-0.3-4.8-0.9c-1.4-0.6-2.5-1.4-3.4-2.5s-1.6-2.4-2.1-3.9s-0.7-3.1-0.8-4.9c0-1.8,0.3-3.4,0.8-4.9
	s1.3-2.7,2.3-3.8s2.1-1.9,3.5-2.5c1.3-0.6,2.8-0.9,4.4-0.9c2.1,0,3.8,0.4,5.1,1.3c1.4,0.9,2.5,1.9,3.3,3.3c0.8,1.3,1.4,2.8,1.7,4.3
	c0.3,1.6,0.4,3,0.4,4.5h-17.4c0,1,0.1,2,0.4,2.9s0.7,1.7,1.3,2.4c0.6,0.7,1.4,1.3,2.3,1.7s2,0.6,3.3,0.6c1.6,0,2.9-0.4,4-1.1
	c1-0.8,1.7-1.9,2-3.4h3.8C371.2,180.5,370.1,182.5,368.4,183.8L368.4,183.8z M367.4,168.8c-0.3-0.8-0.8-1.5-1.4-2.1s-1.3-1-2.1-1.4
	c-0.8-0.3-1.7-0.5-2.6-0.5c-1,0-1.9,0.2-2.7,0.5c-0.8,0.3-1.5,0.8-2,1.4c-0.6,0.6-1,1.3-1.3,2.1s-0.5,1.6-0.6,2.5H368
	C368,170.5,367.8,169.6,367.4,168.8L367.4,168.8z M388,168.8c0.5-1.5,1.2-2.8,2.2-3.9c1-1.1,2.1-2,3.6-2.6c1.4-0.6,3-0.9,4.9-0.9
	s3.5,0.3,4.9,0.9c1.4,0.6,2.6,1.5,3.5,2.6c1,1.1,1.7,2.4,2.2,3.9s0.7,3.1,0.7,4.8s-0.2,3.3-0.7,4.8s-1.2,2.8-2.2,3.8
	c-1,1.1-2.1,2-3.5,2.6s-3,0.9-4.9,0.9c-1.8,0-3.4-0.3-4.9-0.9c-1.4-0.6-2.6-1.5-3.6-2.6s-1.7-2.4-2.2-3.8c-0.5-1.5-0.7-3.1-0.7-4.8
	S387.6,170.3,388,168.8z M392,177.4c0.4,1.1,0.9,2,1.5,2.7c0.7,0.7,1.4,1.3,2.3,1.7s1.8,0.6,2.8,0.6s1.9-0.2,2.8-0.6
	c0.9-0.4,1.7-1,2.3-1.7c0.7-0.7,1.2-1.7,1.5-2.7c0.4-1.1,0.6-2.4,0.6-3.8s-0.2-2.7-0.6-3.8s-0.9-2-1.5-2.8c-0.7-0.8-1.4-1.3-2.3-1.7
	s-1.8-0.6-2.8-0.6s-1.9,0.2-2.8,0.6c-0.9,0.4-1.7,1-2.3,1.7c-0.7,0.8-1.2,1.7-1.5,2.8c-0.4,1.1-0.6,2.4-0.6,3.8
	C391.4,175.1,391.6,176.3,392,177.4z M412.1,165.4V162h3.9v-3.5c0-1.9,0.5-3.3,1.6-4.3s2.7-1.5,4.8-1.5c0.4,0,0.8,0,1.2,0.1
	c0.5,0.1,0.9,0.2,1.2,0.3v3.3c-0.3-0.1-0.7-0.2-1.1-0.2s-0.8-0.1-1.1-0.1c-0.9,0-1.7,0.2-2.2,0.5c-0.5,0.4-0.8,1.1-0.8,2.1v3.3h4.5
	v3.4h-4.3v19.9H416v-19.9H412.1z M96.7,194.1h2.2c0.8,0,1.6,0.1,2.4,0.1c0.8,0.1,1.5,0.2,2.2,0.3c0.7,0.2,1.3,0.4,1.7,0.7
	c1,0.6,1.9,1.5,2.7,2.6c0.7,1.1,1.1,2.5,1.1,4.1c0,1.7-0.4,3.2-1.2,4.4c-0.8,1.2-2,2.2-3.6,2.8v0.1c2,0.4,3.5,1.3,4.5,2.7
	s1.6,3.1,1.6,5c0,1.2-0.2,2.3-0.6,3.4c-0.4,1.1-1,2.1-1.9,2.9c-0.8,0.9-1.8,1.5-3.1,2.1c-1.2,0.5-2.6,0.8-4.2,0.8H85V194h11.7V194.1
	z M97.9,207.9c2.4,0,4.2-0.4,5.3-1.3c1.1-0.9,1.6-2.1,1.6-3.8c0-1.1-0.2-2-0.5-2.7c-0.4-0.7-0.9-1.2-1.5-1.5
	c-0.6-0.4-1.4-0.6-2.2-0.7c-0.8-0.1-1.7-0.2-2.6-0.2h-8.6v10.2H97.9z M100,222.6c1.9,0,3.4-0.5,4.4-1.5c1.1-1,1.6-2.4,1.6-4.2
	c0-1-0.2-1.9-0.6-2.6c-0.4-0.7-0.9-1.2-1.6-1.6c-0.6-0.4-1.4-0.7-2.2-0.9c-0.8-0.2-1.7-0.2-2.6-0.2h-9.8v11.1H100L100,222.6z
	 M115.5,198.8v-4.7h3.8v4.7H115.5z M119.3,203v23.3h-3.8V203H119.3z M124.7,209.8c0.5-1.5,1.2-2.8,2.2-3.9c1-1.1,2.1-2,3.6-2.6
	c1.4-0.6,3-0.9,4.9-0.9s3.5,0.3,4.9,0.9c1.4,0.6,2.6,1.5,3.5,2.6c1,1.1,1.7,2.4,2.2,3.9s0.7,3.1,0.7,4.8s-0.2,3.3-0.7,4.8
	s-1.2,2.8-2.2,3.8c-1,1.1-2.1,2-3.5,2.6s-3,0.9-4.9,0.9c-1.8,0-3.4-0.3-4.9-0.9c-1.4-0.6-2.6-1.5-3.6-2.6s-1.7-2.4-2.2-3.8
	c-0.5-1.5-0.7-3.1-0.7-4.8S124.2,211.3,124.7,209.8z M128.6,218.4c0.4,1.1,0.9,2,1.5,2.7c0.7,0.7,1.4,1.3,2.3,1.7
	c0.9,0.4,1.8,0.6,2.8,0.6s1.9-0.2,2.8-0.6c0.9-0.4,1.7-1,2.3-1.7c0.7-0.7,1.2-1.7,1.5-2.7c0.4-1.1,0.6-2.4,0.6-3.8s-0.2-2.7-0.6-3.8
	c-0.4-1.1-0.9-2-1.5-2.8c-0.7-0.8-1.4-1.3-2.3-1.7c-0.9-0.4-1.8-0.6-2.8-0.6s-1.9,0.2-2.8,0.6c-0.9,0.4-1.7,1-2.3,1.7
	c-0.7,0.8-1.2,1.7-1.5,2.8c-0.4,1.1-0.6,2.4-0.6,3.8C128.1,216,128.2,217.3,128.6,218.4z M151.3,198.8v-4.7h3.8v4.7H151.3z
	 M155.1,203v23.3h-3.8V203H155.1z M164.7,203v3.7h0.1c1.6-2.8,4.1-4.2,7.6-4.2c1.5,0,2.8,0.2,3.8,0.6c1,0.4,1.8,1,2.5,1.8
	c0.6,0.8,1.1,1.6,1.3,2.7c0.3,1,0.4,2.2,0.4,3.4v15.3h-3.8v-15.8c0-1.4-0.4-2.6-1.3-3.4c-0.8-0.8-2-1.3-3.5-1.3
	c-1.2,0-2.2,0.2-3,0.5c-0.9,0.4-1.6,0.9-2.1,1.5c-0.6,0.7-1,1.4-1.3,2.3c-0.3,0.9-0.4,1.9-0.4,2.9v13.1h-3.8v-23.3h3.5V203z
	 M183.7,206.4V203h3.9v-3.5c0-1.9,0.5-3.3,1.6-4.3s2.7-1.5,4.8-1.5c0.4,0,0.8,0,1.2,0.1c0.5,0.1,0.9,0.2,1.2,0.3v3.3
	c-0.3-0.1-0.7-0.2-1.1-0.2c-0.4,0-0.8-0.1-1.1-0.1c-0.9,0-1.7,0.2-2.2,0.5c-0.5,0.4-0.8,1.1-0.8,2.1v3.3h4.5v3.4h-4.5v19.9h-3.8
	v-19.9L183.7,206.4z M198.9,209.8c0.5-1.5,1.2-2.8,2.2-3.9c1-1.1,2.1-2,3.6-2.6c1.4-0.6,3-0.9,4.9-0.9s3.5,0.3,4.9,0.9
	c1.4,0.6,2.6,1.5,3.5,2.6c1,1.1,1.7,2.4,2.2,3.9s0.7,3.1,0.7,4.8s-0.2,3.3-0.7,4.8s-1.2,2.8-2.2,3.8c-1,1.1-2.1,2-3.5,2.6
	s-3,0.9-4.9,0.9c-1.8,0-3.4-0.3-4.9-0.9c-1.4-0.6-2.6-1.5-3.6-2.6s-1.7-2.4-2.2-3.8c-0.5-1.5-0.7-3.1-0.7-4.8
	S198.4,211.3,198.9,209.8z M202.8,218.4c0.4,1.1,0.9,2,1.5,2.7c0.7,0.7,1.4,1.3,2.3,1.7c0.9,0.4,1.8,0.6,2.8,0.6s1.9-0.2,2.8-0.6
	c0.9-0.4,1.7-1,2.3-1.7c0.7-0.7,1.2-1.7,1.5-2.7c0.4-1.1,0.6-2.4,0.6-3.8s-0.2-2.7-0.6-3.8c-0.4-1.1-0.9-2-1.5-2.8
	c-0.7-0.8-1.4-1.3-2.3-1.7c-0.9-0.4-1.8-0.6-2.8-0.6s-1.9,0.2-2.8,0.6c-0.9,0.4-1.7,1-2.3,1.7c-0.7,0.8-1.2,1.7-1.5,2.8
	c-0.4,1.1-0.6,2.4-0.6,3.8S202.4,217.3,202.8,218.4z M228.7,203v4.9h0.1c0.9-1.9,2.1-3.3,3.4-4.2c1.3-0.9,3.1-1.3,5.1-1.3v4.1
	c-1.5,0-2.8,0.2-3.9,0.6c-1.1,0.4-2,1-2.6,1.8c-0.7,0.8-1.1,1.8-1.4,2.9c-0.3,1.2-0.4,2.5-0.4,4v10.3h-3.8v-23.3h3.5L228.7,203z
	 M243.8,203v3.4h0.1c1.7-2.6,4.2-4,7.5-4c1.4,0,2.7,0.3,3.9,0.9c1.2,0.6,2,1.6,2.5,3.1c0.8-1.3,1.8-2.2,3.1-2.9c1.3-0.7,2.7-1,4.2-1
	c1.2,0,2.2,0.1,3.2,0.4c0.9,0.3,1.8,0.7,2.4,1.2c0.7,0.5,1.2,1.2,1.6,2.1c0.4,0.9,0.6,1.9,0.6,3.1v17.1h-3.8v-15.3
	c0-0.7-0.1-1.4-0.2-2s-0.3-1.2-0.7-1.6c-0.3-0.5-0.8-0.8-1.4-1.1s-1.3-0.4-2.3-0.4c-1.9,0-3.4,0.5-4.4,1.6c-1.1,1.1-1.6,2.5-1.6,4.3
	v14.5h-3.8v-15.3c0-0.8-0.1-1.4-0.2-2.1c-0.1-0.6-0.4-1.2-0.7-1.6c-0.3-0.5-0.8-0.8-1.3-1.1c-0.6-0.3-1.3-0.4-2.1-0.4
	c-1.1,0-2.1,0.2-2.9,0.7c-0.8,0.5-1.4,1-1.9,1.6s-0.9,1.3-1.1,2c-0.2,0.7-0.3,1.2-0.3,1.7v14.5h-3.8v-23.3L243.8,203L243.8,203z
	 M296.4,226.7c-1,0-1.8-0.3-2.3-0.8c-0.6-0.6-0.9-1.5-0.9-2.7c-1,1.3-2.3,2.2-3.7,2.7c-1.4,0.6-2.9,0.8-4.5,0.8c-1.1,0-2-0.1-3-0.3
	c-0.9-0.2-1.7-0.6-2.5-1.1s-1.3-1.2-1.7-2c-0.4-0.8-0.6-1.8-0.6-3c0-1.3,0.2-2.4,0.7-3.2c0.4-0.8,1-1.5,1.8-2
	c0.7-0.5,1.6-0.9,2.5-1.2s1.9-0.5,2.9-0.7s2-0.4,3-0.5c0.9-0.1,1.8-0.3,2.5-0.5s1.3-0.5,1.7-0.9c0.4-0.4,0.6-0.9,0.6-1.6
	c0-0.8-0.2-1.5-0.5-2s-0.7-0.9-1.2-1.2s-1.1-0.5-1.7-0.5c-0.6-0.1-1.2-0.1-1.8-0.1c-1.6,0-3,0.3-4.1,0.9c-1.1,0.6-1.7,1.8-1.8,3.5
	H278c0.1-1.4,0.4-2.7,0.9-3.7s1.3-1.8,2.2-2.4c0.9-0.6,1.9-1.1,3.1-1.3c1.2-0.3,2.4-0.4,3.7-0.4c1,0,2.1,0.1,3.1,0.2
	c1,0.2,2,0.5,2.8,0.9c0.8,0.5,1.5,1.1,2,2c0.5,0.8,0.8,1.9,0.8,3.3v12c0,0.9,0.1,1.6,0.2,2s0.5,0.6,1.1,0.6c0.3,0,0.7-0.1,1.2-0.2v3
	C298.5,226.5,297.6,226.7,296.4,226.7L296.4,226.7z M291.1,215c-0.8,0.2-1.6,0.3-2.4,0.4c-0.9,0.1-1.7,0.2-2.6,0.4
	c-0.9,0.1-1.6,0.4-2.3,0.7c-0.7,0.3-1.2,0.7-1.7,1.3c-0.4,0.6-0.7,1.3-0.7,2.3c0,0.6,0.1,1.2,0.4,1.6c0.3,0.4,0.6,0.8,1,1.1
	s0.9,0.5,1.4,0.6c0.6,0.1,1.1,0.2,1.7,0.2c1.3,0,2.3-0.2,3.2-0.5c0.9-0.3,1.6-0.8,2.2-1.3s1-1.1,1.3-1.7c0.3-0.6,0.4-1.2,0.4-1.7
	v-3.9C292.5,214.6,291.9,214.9,291.1,215L291.1,215z M312.7,203v3.4h-4.6v14.4c0,0.5,0,0.8,0.1,1.1s0.2,0.5,0.4,0.6
	c0.2,0.2,0.5,0.2,0.9,0.3c0.4,0,0.9,0.1,1.5,0.1h1.8v3.4h-3c-1,0-1.8-0.1-2.5-0.2s-1.3-0.4-1.7-0.7c-0.4-0.4-0.8-0.9-1-1.5
	c-0.2-0.7-0.3-1.5-0.3-2.6v-14.8h-4v-3.4h4v-7h3.8v7h4.6L312.7,203z M317.2,198.8v-4.7h3.8v4.7H317.2z M321,203v23.3h-3.8V203H321z
	 M340.9,207c-1-0.8-2.2-1.2-3.9-1.2c-1.4,0-2.5,0.3-3.5,0.8c-0.9,0.5-1.7,1.2-2.2,2c-0.6,0.8-1,1.8-1.2,2.9
	c-0.2,1.1-0.4,2.2-0.4,3.4c0,1.1,0.1,2.1,0.4,3.2c0.3,1,0.7,1.9,1.2,2.7s1.2,1.4,2.1,1.9s1.9,0.7,3.1,0.7c1.9,0,3.4-0.5,4.4-1.5
	c1.1-1,1.7-2.4,2-4.2h3.9c-0.4,2.9-1.5,5.1-3.2,6.7c-1.7,1.6-4.1,2.3-7,2.3c-1.8,0-3.3-0.3-4.7-0.9c-1.4-0.6-2.5-1.4-3.4-2.4
	c-0.9-1.1-1.6-2.3-2.1-3.8s-0.7-3.1-0.7-4.8s0.2-3.4,0.7-4.9s1.1-2.8,2.1-4c0.9-1.1,2.1-2,3.4-2.7c1.4-0.6,3-1,4.8-1
	c1.3,0,2.6,0.2,3.7,0.5c1.2,0.3,2.2,0.8,3.1,1.5s1.6,1.5,2.2,2.5s0.9,2.2,1.1,3.6h-4C342.4,209,341.8,207.8,340.9,207z M354,221.1
	c0.4,0.6,0.8,1,1.4,1.4c0.6,0.3,1.3,0.6,2,0.7c0.7,0.2,1.5,0.2,2.3,0.2c0.6,0,1.2,0,1.9-0.1s1.3-0.3,1.8-0.5c0.6-0.2,1-0.6,1.4-1.1
	s0.5-1.1,0.5-1.8c0-1-0.4-1.7-1.1-2.3c-0.8-0.5-1.7-0.9-2.8-1.2c-1.1-0.3-2.4-0.6-3.7-0.9c-1.3-0.3-2.5-0.6-3.7-1.1
	c-1.1-0.5-2.1-1.1-2.8-2c-0.8-0.8-1.1-2-1.1-3.5c0-1.2,0.3-2.2,0.8-3s1.2-1.5,2-2.1c0.8-0.5,1.8-0.9,2.8-1.2s2.1-0.4,3.1-0.4
	c1.3,0,2.5,0.1,3.7,0.3s2.1,0.6,3,1.2c0.9,0.6,1.5,1.3,2.1,2.3c0.5,0.9,0.8,2.1,0.9,3.5h-3.8c-0.1-0.8-0.3-1.4-0.6-1.9
	s-0.8-0.9-1.3-1.2s-1.1-0.5-1.7-0.7c-0.6-0.1-1.2-0.2-1.9-0.2c-0.6,0-1.2,0-1.7,0.1c-0.6,0.1-1.1,0.2-1.6,0.5
	c-0.5,0.2-0.9,0.5-1.2,0.9c-0.3,0.4-0.5,0.9-0.5,1.5c0,0.7,0.2,1.2,0.7,1.6c0.5,0.4,1.1,0.8,1.8,1.1c0.7,0.3,1.5,0.5,2.4,0.7
	l2.7,0.6c1,0.2,1.9,0.5,2.8,0.8s1.7,0.7,2.4,1.2s1.3,1.1,1.7,1.9c0.4,0.8,0.7,1.7,0.7,2.8c0,1.4-0.3,2.6-0.9,3.5s-1.4,1.7-2.3,2.3
	s-2,1-3.2,1.2s-2.4,0.3-3.5,0.3c-1.3,0-2.5-0.1-3.7-0.4c-1.2-0.3-2.2-0.7-3.1-1.3s-1.6-1.4-2.2-2.4c-0.5-1-0.8-2.2-0.9-3.7h3.8
	C353.4,219.8,353.6,220.5,354,221.1L354,221.1z"/>
</svg>
