<?xml version="1.0" encoding="UTF-8"?>
<svg id="Layer_2" data-name="Layer 2" xmlns="http://www.w3.org/2000/svg" viewBox="0 0 251.52 251.52">
  <defs>
    <style>
      .cls-1 {
        fill: #2b547e;
        stroke-width: 0px;
      }
    </style>
  </defs>
  <g id="Layer_1-2" data-name="Layer 1">
    <path class="cls-1" d="M17.57,102.43c10.62,10.62,24.22,16.41,38.11,17.4l-.02.02c53.61,3.88,72.13,22.4,76.01,76.01l.02-.02c1,13.89,6.78,27.49,17.4,38.11,23.43,23.43,61.42,23.43,84.85,0s23.43-61.42,0-84.85c-10.62-10.62-24.22-16.41-38.11-17.4l.02-.02c-53.61-3.88-72.13-22.4-76.01-76.01l-.02.02c-1-13.89-6.78-27.49-17.4-38.11-23.43-23.43-61.42-23.43-84.85,0-23.43,23.43-23.43,61.42,0,84.85Z"/>
  </g>
</svg>