<?xml version="1.0" encoding="UTF-8"?>
<svg id="Layer_2" data-name="Layer 2" xmlns="http://www.w3.org/2000/svg" viewBox="0 0 251.52 251.52">
  <defs>
    <style>
      .cls-1 {
        fill: #78e0c2;
        stroke-width: 0px;
      }
    </style>
  </defs>
  <g id="Layer_1-2" data-name="Layer 1">
    <path class="cls-1" d="M149.1,17.57c-10.62,10.62-16.41,24.22-17.4,38.11l-.02-.02c-3.88,53.61-22.4,72.13-76.01,76.01l.02.02c-13.89,1-27.49,6.78-38.11,17.4-23.43,23.43-23.43,61.42,0,84.85s61.42,23.43,84.85,0c10.62-10.62,16.41-24.22,17.4-38.11l.02.02c3.88-53.61,22.4-72.13,76.01-76.01l-.02-.02c13.89-1,27.49-6.78,38.11-17.4,23.43-23.43,23.43-61.42,0-84.85-23.43-23.43-61.42-23.43-84.85,0Z"/>
  </g>
</svg>