<svg xmlns="http://www.w3.org/2000/svg" xmlns:xlink="http://www.w3.org/1999/xlink" width="85.588" height="81" viewBox="0 0 85.588 81"><defs><clipPath id="a"><rect width="85.588" height="81" fill="none"/></clipPath></defs><g transform="translate(0 0)"><g transform="translate(0 0)" clip-path="url(#a)"><path d="M11.174,90.2H3.546A3.549,3.549,0,0,1,0,86.657V58.17a3.55,3.55,0,0,1,3.546-3.546h7.628A3.55,3.55,0,0,1,14.72,58.17V86.657A3.549,3.549,0,0,1,11.174,90.2M3.546,57.744a.427.427,0,0,0-.426.426V86.657a.427.427,0,0,0,.426.426h7.628a.426.426,0,0,0,.426-.426V58.17a.426.426,0,0,0-.426-.426Z" transform="translate(0 -9.202)" fill="#e20613"/><path d="M36.77,71.706a1.56,1.56,0,0,1-.463-3.05l9.341-2.9a1.556,1.556,0,0,1,.68-.055L63.8,68.16a1.9,1.9,0,0,0,2.106-1.453l.149-.657a1.894,1.894,0,0,0-1.409-2.258L53.256,61.1a39.577,39.577,0,0,0-16.385-.4L15.794,64.593a1.56,1.56,0,0,1-.567-3.068L36.3,57.631a42.668,42.668,0,0,1,17.668.434l11.394,2.69A5.022,5.022,0,0,1,69.1,66.741l-.149.657a5.039,5.039,0,0,1-5.582,3.851L46.24,68.84l-9.008,2.8a1.546,1.546,0,0,1-.462.071" transform="translate(-2.35 -9.588)" fill="#e20613"/><path d="M35.56,87.724a173.1,173.1,0,0,1-20.232-1.191,1.56,1.56,0,0,1,.363-3.1A168.44,168.44,0,0,0,79.877,78.66l3.548-.965a1.89,1.89,0,0,0,.4-3.487,1.889,1.889,0,0,0-.9-.226L63.549,73.54a1.56,1.56,0,1,1,.072-3.119l19.343.442h0a5.009,5.009,0,0,1,1.278,9.843L80.7,81.67A171.561,171.561,0,0,1,35.56,87.724" transform="translate(-2.35 -11.864)" fill="#e20613"/><path d="M52.006,39.452a3.52,3.52,0,0,1-3.255-2.182l-.592-1.448a16.051,16.051,0,0,1-3.247-.012l-.6,1.441a3.512,3.512,0,0,1-4.6,1.882L37.6,38.248a3.517,3.517,0,0,1-1.882-4.6l.6-1.441A16.107,16.107,0,0,1,34.035,29.9l-1.447.592a3.519,3.519,0,0,1-4.582-1.92l-.867-2.119a3.513,3.513,0,0,1,1.921-4.582l1.447-.593a16.042,16.042,0,0,1,.012-3.246l-1.441-.6a3.511,3.511,0,0,1-1.882-4.6l.884-2.11a3.519,3.519,0,0,1,4.6-1.883l1.442.6a16.064,16.064,0,0,1,2.306-2.286l-.593-1.447A3.514,3.514,0,0,1,37.754,1.13L39.872.264a3.512,3.512,0,0,1,4.583,1.921l.592,1.446a16.112,16.112,0,0,1,3.247.013L48.9,2.2A3.513,3.513,0,0,1,53.5.32l2.11.885a3.513,3.513,0,0,1,1.882,4.6l-.6,1.441A15.973,15.973,0,0,1,59.169,9.55l1.448-.593A3.513,3.513,0,0,1,65.2,10.878L66.066,13a3.518,3.518,0,0,1-1.92,4.583L62.7,18.17a16.112,16.112,0,0,1-.013,3.247l1.441.6a3.518,3.518,0,0,1,1.883,4.6l-.886,2.111a3.512,3.512,0,0,1-4.6,1.882l-1.442-.6a15.967,15.967,0,0,1-2.3,2.285l.593,1.448a3.519,3.519,0,0,1-1.921,4.582l-2.119.867a3.49,3.49,0,0,1-1.326.262m-3.1-6.1a1.185,1.185,0,0,1,1.1.735l.935,2.287a1.148,1.148,0,0,0,1.5.627l2.119-.867a1.148,1.148,0,0,0,.626-1.5l-.936-2.287a1.185,1.185,0,0,1,.406-1.41,13.665,13.665,0,0,0,3.1-3.072,1.183,1.183,0,0,1,1.414-.394l2.278.955a1.145,1.145,0,0,0,1.5-.614l.885-2.111a1.147,1.147,0,0,0-.614-1.5l-2.278-.955a1.182,1.182,0,0,1-.709-1.285,13.714,13.714,0,0,0,.017-4.363,1.185,1.185,0,0,1,.721-1.278l2.287-.935a1.148,1.148,0,0,0,.626-1.5l-.866-2.118a1.145,1.145,0,0,0-1.494-.626l-2.288.935a1.182,1.182,0,0,1-1.41-.406,13.679,13.679,0,0,0-3.072-3.1,1.185,1.185,0,0,1-.394-1.414l.955-2.278a1.145,1.145,0,0,0-.614-1.5L52.58,2.5a1.147,1.147,0,0,0-1.5.614l-.956,2.278a1.176,1.176,0,0,1-1.284.71,13.709,13.709,0,0,0-4.362-.017A1.184,1.184,0,0,1,43.2,5.367L42.263,3.08a1.145,1.145,0,0,0-1.494-.626l-2.118.867a1.145,1.145,0,0,0-.627,1.494L38.961,7.1a1.184,1.184,0,0,1-.407,1.41,13.665,13.665,0,0,0-3.1,3.072,1.183,1.183,0,0,1-1.414.392l-2.277-.955a1.149,1.149,0,0,0-1.5.614l-.884,2.11a1.145,1.145,0,0,0,.614,1.5l2.278.955a1.181,1.181,0,0,1,.711,1.282,13.675,13.675,0,0,0-.017,4.365,1.183,1.183,0,0,1-.721,1.278l-2.287.936a1.147,1.147,0,0,0-.627,1.5l.867,2.119a1.148,1.148,0,0,0,1.5.626l2.286-.936a1.185,1.185,0,0,1,1.411.406,13.707,13.707,0,0,0,3.072,3.1,1.18,1.18,0,0,1,.392,1.413L37.9,34.565a1.148,1.148,0,0,0,.615,1.5l2.111.885a1.144,1.144,0,0,0,1.5-.614l.955-2.278a1.181,1.181,0,0,1,1.283-.711,13.7,13.7,0,0,0,4.365.017,1.252,1.252,0,0,1,.184-.014" transform="translate(-4.528 0)" fill="#e20613"/><path d="M48.664,31.344a9.564,9.564,0,1,1,3.619-.718,9.54,9.54,0,0,1-3.619.718m3.171-1.813h0ZM48.665,14.6a7.2,7.2,0,1,0,2.776.562,7.164,7.164,0,0,0-2.776-.562" transform="translate(-6.589 -2.06)" fill="#e20613"/></g></g></svg>