<?xml version="1.0" encoding="utf-8"?>
<!-- Generator: Adobe Illustrator 28.2.0, SVG Export Plug-In . SVG Version: 6.00 Build 0)  -->
<svg version="1.1" id="Layer_1" xmlns="http://www.w3.org/2000/svg" xmlns:xlink="http://www.w3.org/1999/xlink" x="0px" y="0px"
	 viewBox="0 0 47 50" style="enable-background:new 0 0 47 50;" xml:space="preserve">
<style type="text/css">
	.st0{clip-path:url(#SVGID_00000013173286544710712160000007030222961050675108_);}
	.st1{fill:#D8001A;}
</style>
<g>
	<defs>
		<rect id="SVGID_1_" width="47" height="50"/>
	</defs>
	<clipPath id="SVGID_00000053504319582267356520000006044598047475780254_">
		<use xlink:href="#SVGID_1_"  style="overflow:visible;"/>
	</clipPath>
	<g style="clip-path:url(#SVGID_00000053504319582267356520000006044598047475780254_);">
		<path class="st1" d="M20.6,18.6c-0.4,0-0.7-0.3-0.8-0.6c-0.1-0.7-0.4-1.3-0.9-1.7c-0.3-0.3-0.5-0.6-0.7-0.8
			c-1.1-1.3-1.8-3-1.8-4.7C16.5,7,19.6,4,23.3,4.1c0,0,0,0,0.1,0c0.4,0,0.8,0.4,0.8,0.8c0,0,0,0,0,0c0,0.4-0.4,0.8-0.8,0.8
			C20.5,5.6,18,7.8,18,10.7c0,0,0,0,0,0c0,1.4,0.5,2.7,1.5,3.7c0.2,0.3,0.4,0.5,0.6,0.7c0.7,0.7,1.1,1.5,1.3,2.5
			c0.1,0.4-0.2,0.8-0.6,0.9C20.7,18.6,20.6,18.6,20.6,18.6"/>
		<path class="st1" d="M26,18.6c-0.1,0-0.1,0-0.2,0c-0.4-0.1-0.7-0.5-0.6-0.9c0,0,0,0,0,0c0.2-0.9,0.6-1.8,1.4-2.4
			c0.2-0.2,0.5-0.5,0.7-0.7c0.9-1,1.4-2.3,1.5-3.7c-0.1-2.9-2.5-5.2-5.4-5.1c0,0,0,0,0,0c-0.4,0-0.8-0.3-0.8-0.8
			c0-0.4,0.3-0.8,0.8-0.8h0.1c3.7-0.1,6.8,2.9,6.9,6.6c0,1.7-0.6,3.4-1.8,4.7c-0.3,0.3-0.5,0.6-0.8,0.9c-0.5,0.4-0.8,1-0.9,1.7
			C26.7,18.3,26.4,18.6,26,18.6"/>
		<path class="st1" d="M20.6,18.6c-0.4,0-0.8-0.3-0.8-0.8s0.3-0.8,0.8-0.8H26c0.4,0,0.8,0.3,0.8,0.8c0,0.4-0.3,0.8-0.8,0.8
			c0,0,0,0,0,0H20.6z"/>
		<path class="st1" d="M24.8,22.7h-1.4c-0.4,0-0.8-0.3-0.8-0.8s0.3-0.8,0.8-0.8h1l0.9-1.5v-1.8c0-0.4,0.3-0.8,0.8-0.8
			s0.8,0.3,0.8,0.8v2c0,0.1,0,0.3-0.1,0.4l-1.2,2C25.3,22.5,25.1,22.7,24.8,22.7"/>
		<path class="st1" d="M26.9,11c-0.4,0-0.7-0.3-0.8-0.6c-0.2-0.7-0.6-1.3-1.2-1.6c-0.4-0.2-0.5-0.7-0.3-1.1c0.2-0.4,0.7-0.5,1.1-0.3
			c1,0.6,1.8,1.6,2,2.7c0.1,0.4-0.2,0.8-0.6,0.9c0,0,0,0,0,0C27,11,26.9,11,26.9,11"/>
		<path class="st1" d="M23.3,22.7h-1.4c-0.3,0-0.5-0.1-0.7-0.3l-1.4-2c-0.1-0.1-0.1-0.3-0.1-0.4v-2c0-0.4,0.3-0.8,0.8-0.8
			s0.8,0.3,0.8,0.8v1.8l1,1.5h1c0.4,0,0.8,0.3,0.8,0.8S23.7,22.7,23.3,22.7"/>
		<path class="st1" d="M23.3,2.9c-0.4,0-0.8-0.3-0.8-0.8V0.8c0-0.4,0.3-0.8,0.8-0.8s0.8,0.3,0.8,0.8v1.4C24.1,2.6,23.7,2.9,23.3,2.9
			"/>
		<path class="st1" d="M17,5.5c-0.2,0-0.4-0.1-0.6-0.2l-1-1c-0.3-0.3-0.3-0.8,0.1-1.1c0.3-0.3,0.7-0.3,1,0l1,1
			c0.3,0.3,0.3,0.8,0,1.1C17.4,5.4,17.2,5.5,17,5.5"/>
		<path class="st1" d="M14.4,11.8h-1.4c-0.4,0-0.8-0.3-0.8-0.8s0.3-0.8,0.8-0.8h1.4c0.4,0,0.8,0.3,0.8,0.8S14.8,11.8,14.4,11.8
			L14.4,11.8"/>
		<path class="st1" d="M16.1,19c-0.4,0-0.8-0.3-0.8-0.8c0-0.2,0.1-0.4,0.2-0.6l1-1c0.3-0.3,0.8-0.3,1.1,0.1c0.3,0.3,0.3,0.7,0,1
			l-1,1C16.5,18.9,16.3,19,16.1,19"/>
		<path class="st1" d="M30.5,19c-0.2,0-0.4-0.1-0.6-0.2l-1-1c-0.3-0.3-0.3-0.8,0.1-1.1c0.3-0.3,0.7-0.3,1,0l1,1
			c0.3,0.3,0.3,0.8,0,1.1C30.9,18.9,30.7,19,30.5,19"/>
		<path class="st1" d="M33.5,11.8h-1.4c-0.4,0-0.8-0.3-0.8-0.8s0.3-0.8,0.8-0.8h1.4c0.4,0,0.8,0.3,0.8,0.8S33.9,11.8,33.5,11.8
			L33.5,11.8"/>
		<path class="st1" d="M29.6,5.5c-0.4,0-0.8-0.3-0.8-0.8c0-0.2,0.1-0.4,0.2-0.6l1-1c0.3-0.3,0.8-0.3,1.1-0.1
			c0.3,0.3,0.3,0.8,0.1,1.1c0,0,0,0-0.1,0.1l-1,1C30,5.4,29.8,5.5,29.6,5.5"/>
		<path class="st1" d="M10.2,35.2c-2.6,0-4.7-2.1-4.7-4.7c0-2.6,2.1-4.7,4.7-4.7s4.7,2.1,4.7,4.7c0,0,0,0,0,0
			C14.8,33.1,12.7,35.2,10.2,35.2 M10.2,27.3c-1.7,0-3.1,1.4-3.1,3.1c0,1.7,1.4,3.1,3.1,3.1s3.1-1.4,3.1-3.1l0,0
			C13.3,28.7,11.9,27.3,10.2,27.3"/>
		<path class="st1" d="M0.8,50c-0.1,0-0.1,0-0.2,0C0.2,49.9-0.1,49.4,0,49l2.3-9.4C3,37,3.9,33.6,8.2,33.6c3.2,0,4.2,2,5,3.6
			c0.6,1.4,1.1,2.8,1.5,4.3L19,42c1.3,0.2,2.3,1.4,2.1,2.7c-0.2,1.2-1.2,2.1-2.4,2.1h-5.5c-1.6,0-3.1-1-3.7-2.6l-1.6-4.2
			c-0.2-0.4,0-0.9,0.4-1c0.4-0.2,0.9,0,1,0.4c0,0,0,0,0,0.1l1.6,4.2c0.3,0.9,1.2,1.5,2.2,1.5h5.5c0.5,0,0.9-0.4,0.9-0.9
			c0-0.4-0.3-0.8-0.8-0.9L14.5,43c-0.6-0.1-1.2-0.5-1.3-1.1c-0.3-1.4-0.8-2.7-1.4-4c-0.8-1.5-1.3-2.7-3.6-2.7
			c-2.8,0-3.5,1.6-4.3,4.9l-2.3,9.4C1.5,49.8,1.1,50,0.8,50"/>
		<path class="st1" d="M9.4,50c0,0-0.1,0-0.1,0c-0.4-0.1-0.7-0.5-0.6-0.9c0,0,0,0,0,0l0.8-4.7c0.1-0.4,0.5-0.7,0.9-0.6
			c0.4,0.1,0.7,0.5,0.6,0.9l0,0l-0.8,4.7C10.1,49.7,9.8,50,9.4,50"/>
		<path class="st1" d="M37.5,50c-0.4,0-0.7-0.3-0.8-0.6l-1-4.7c-0.1-0.4,0.2-0.8,0.6-0.9c0.4-0.1,0.8,0.2,0.9,0.6l1,4.7
			c0.1,0.4-0.2,0.8-0.6,0.9c0,0,0,0,0,0C37.6,50,37.6,50,37.5,50"/>
		<path class="st1" d="M23.4,46.9h-7.8c-0.4,0-0.8-0.3-0.8-0.8c0-0.4,0.3-0.8,0.8-0.8h7.8c0.4,0,0.8,0.3,0.8,0.8
			C24.2,46.5,23.9,46.9,23.4,46.9L23.4,46.9"/>
		<path class="st1" d="M36.7,35.2c-2.6,0-4.7-2.1-4.7-4.7s2.1-4.7,4.7-4.7s4.7,2.1,4.7,4.7c0,0,0,0,0,0
			C41.4,33.1,39.3,35.2,36.7,35.2 M36.7,27.3c-1.7,0-3.1,1.4-3.1,3.1c0,1.7,1.4,3.1,3.1,3.1s3.1-1.4,3.1-3.1l0,0
			C39.8,28.7,38.4,27.3,36.7,27.3"/>
		<path class="st1" d="M23.4,35.2c-2.6,0-4.7-2.1-4.7-4.7c0-2.6,2.1-4.7,4.7-4.7s4.7,2.1,4.7,4.7c0,0,0,0,0,0
			C28.1,33.1,26,35.2,23.4,35.2 M23.4,27.3c-1.7,0-3.1,1.4-3.1,3.1c0,1.7,1.4,3.1,3.1,3.1s3.1-1.4,3.1-3.1l0,0
			C26.6,28.7,25.2,27.3,23.4,27.3"/>
		<path class="st1" d="M46.1,50c-0.4,0-0.7-0.2-0.8-0.6L43,40c-0.8-3.3-1.5-4.9-4.3-4.9c-2.3,0-2.8,1.2-3.6,2.7
			c-0.6,1.3-1,2.7-1.4,4C33.5,42.5,33,43,32.4,43l-4.3,0.5c-0.5,0.1-0.8,0.5-0.8,1c0.1,0.4,0.4,0.8,0.9,0.8h5.5c1,0,1.9-0.6,2.2-1.5
			l1.6-4.2c0.1-0.4,0.6-0.6,1-0.5s0.6,0.6,0.5,1c0,0,0,0,0,0.1l-1.6,4.2c-0.6,1.5-2,2.5-3.7,2.6h-5.5c-1.3,0-2.4-1.1-2.4-2.4
			c0-1.2,0.9-2.3,2.1-2.4l4.3-0.5c0.4-1.5,0.9-2.9,1.5-4.3c0.8-1.6,1.8-3.6,5-3.6c4.3,0,5.2,3.4,5.8,6.1l2.3,9.4
			c0.1,0.4-0.2,0.8-0.6,0.9c0,0,0,0,0,0C46.2,50,46.2,50,46.1,50"/>
		<path class="st1" d="M31.3,46.9h-7.8c-0.4,0-0.8-0.3-0.8-0.8c0-0.4,0.3-0.8,0.8-0.8h7.8c0.4,0,0.8,0.3,0.8,0.8
			C32,46.5,31.7,46.9,31.3,46.9L31.3,46.9"/>
		<path class="st1" d="M29.7,43c-0.4,0-0.8-0.3-0.8-0.8v-2.3c0-2.6-2.5-4.7-5.5-4.7S18,37.3,18,39.8v2.3c0,0.4-0.3,0.8-0.8,0.8
			s-0.8-0.3-0.8-0.8v-2.3c0-3.5,3.2-6.2,7-6.2s7,2.8,7,6.2v2.3C30.5,42.6,30.1,43,29.7,43"/>
	</g>
</g>
</svg>
