<?xml version="1.0" encoding="UTF-8"?>
<svg id="Layer_2" data-name="Layer 2" xmlns="http://www.w3.org/2000/svg" viewBox="0 0 22.03 22.66">
  <defs>
    <style>
      .cls-1 {
        fill: #fff;
        stroke-width: 0px;
      }
    </style>
  </defs>
  <g id="Layer_1-2" data-name="Layer 1">
    <g>
      <path class="cls-1" d="M14.74,11.01s0,0,0,0c-.05,0-.1.01-.15.01h0c-.37,0-.7-.27-.77-.63-.15-.7-.6-1.3-1.23-1.64-.38-.21-.51-.69-.29-1.07s.69-.51,1.07-.29c1.03.57,1.76,1.55,1.99,2.7.08.42-.19.83-.62.92Z"/>
      <path class="cls-1" d="M11.17,4.08h-.11s0,0,0,0c-.02,0-.03,0-.05,0-3.73-.08-6.81,2.89-6.89,6.62,0,1.72.63,3.38,1.76,4.68.22.3.47.58.72.85.48.43.79,1.02.9,1.66v1.95c0,.15.04.3.13.43l1.36,2.04c.15.22.39.35.65.35h1.38s.02,0,.04,0c0,0,.01,0,.02,0h1.43,0c.27,0,.53-.14.67-.38l1.24-2.04c.07-.12.11-.26.11-.4v-1.95c.11-.62.43-1.19.92-1.59.3-.29.57-.59.82-.92,1.13-1.3,1.76-2.96,1.76-4.68-.08-3.72-3.14-6.67-6.85-6.62ZM12.07,21.09h-.99s-.02,0-.04,0c0,0-.01,0-.02,0h-.95l-1-1.5v-1.02h3.89v1.04l-.89,1.48ZM15.01,14.44c-.2.27-.43.52-.67.75-.56.49-.97,1.12-1.2,1.82h-4.24c-.22-.7-.61-1.34-1.15-1.85-.22-.23-.42-.47-.61-.72-.91-1.02-1.43-2.34-1.45-3.71,0-.01,0-.02,0-.04.09-2.88,2.5-5.14,5.38-5.05,0,0,0,0,.01,0,0,0,0,0,.01,0,0,0,.01,0,.02,0,2.89-.07,5.28,2.2,5.36,5.09-.02,1.37-.54,2.69-1.45,3.71Z"/>
      <path class="cls-1" d="M13.36,7.4c-.38-.21-.85-.08-1.07.29s-.08.85.29,1.07c.63.34,1.08.94,1.23,1.64.07.37.39.63.77.63h0s.1,0,.15-.01c0,0,0,0,0,0,.42-.08.7-.49.62-.92-.24-1.15-.97-2.13-1.99-2.7Z"/>
      <path class="cls-1" d="M11.01,2.92h0c.43,0,.78-.35.78-.78V.78c0-.43-.35-.78-.78-.78s-.78.35-.78.78v1.36c0,.43.35.78.78.78Z"/>
      <path class="cls-1" d="M4.19,5.29c.15.15.34.23.55.23.21,0,.41-.08.55-.23.3-.31.3-.8,0-1.1l-.97-.96c-.3-.27-.75-.27-1.05,0-.32.29-.34.78-.05,1.1l.96.96Z"/>
      <polygon class="cls-1" points="4.74 5.52 4.74 5.52 4.74 5.52 4.74 5.52"/>
      <path class="cls-1" d="M2.15,10.21H.78c-.43,0-.78.35-.78.78s.35.78.78.78h1.36c.43,0,.78-.35.78-.78s-.35-.78-.78-.78Z"/>
      <path class="cls-1" d="M4.19,16.7l-.97.96c-.15.15-.23.35-.23.55,0,.43.35.78.78.78.21,0,.4-.08.55-.23l.96-.96c.27-.3.27-.75,0-1.05-.29-.32-.78-.35-1.1-.06Z"/>
      <polygon class="cls-1" points="3.78 18.99 3.78 18.99 3.78 18.99 3.78 18.99"/>
      <polygon class="cls-1" points="18.25 18.99 18.25 18.99 18.25 18.99 18.25 18.99"/>
      <path class="cls-1" d="M17.83,16.7c-.3-.27-.75-.27-1.05,0-.32.29-.34.78-.05,1.1l.96.96c.15.15.34.23.55.23.21,0,.41-.08.55-.23.3-.31.3-.8,0-1.1l-.96-.96Z"/>
      <path class="cls-1" d="M21.24,10.21h-1.36c-.43,0-.78.35-.78.78s.35.78.78.78h1.36c.43,0,.78-.35.78-.78s-.35-.78-.78-.78Z"/>
      <path class="cls-1" d="M17.7,3.22l-.97.96c-.15.15-.23.35-.23.55,0,.43.35.78.78.78h0c.21,0,.41-.08.55-.23l.96-.96s.04-.04.06-.06c.29-.32.27-.81-.05-1.1-.32-.29-.81-.27-1.1.05Z"/>
    </g>
  </g>
</svg>