<svg xmlns="http://www.w3.org/2000/svg" xmlns:xlink="http://www.w3.org/1999/xlink" width="32" height="22" viewBox="0 0 32 22">
  <defs>
    <style>
      .cls-1 {
        fill: none;
      }

      .cls-2 {
        clip-path: url(#clip-path);
      }
    </style>
    <clipPath id="clip-path">
      <rect id="Rectangle_22" data-name="Rectangle 22" class="cls-1" width="32" height="22" transform="translate(-0.046 -0.364)"/>
    </clipPath>
  </defs>
  <g id="Group_13" data-name="Group 13" transform="translate(0.323 -0.074)">
    <g id="Group_12" data-name="Group 12" class="cls-2" transform="translate(-0.278 0.438)">
      <path id="Path_84" data-name="Path 84" d="M30.42,0H4.85A1.324,1.324,0,0,0,3.527,1.323v.441h-2.2A1.323,1.323,0,0,0,0,3.086v15.43a2.645,2.645,0,0,0,2.645,2.645H30.42a1.324,1.324,0,0,0,1.323-1.323V1.323A1.324,1.324,0,0,0,30.42,0M1.763,18.517V3.527H3.527v14.99a.882.882,0,1,1-1.763,0m28.216.882H5.139a2.639,2.639,0,0,0,.151-.882V1.763H29.979ZM7.715,14.108h9.258a.661.661,0,0,0,.661-.661V4.188a.661.661,0,0,0-.661-.661H7.715a.661.661,0,0,0-.661.661v9.258a.661.661,0,0,0,.661.661m1.1-8.817h7.054v7.054H8.817ZM7.054,16.974v-.441a.661.661,0,0,1,.661-.661h9.258a.661.661,0,0,1,.661.661v.441a.661.661,0,0,1-.661.661H7.715a.661.661,0,0,1-.661-.661m12.344,0v-.441a.661.661,0,0,1,.661-.661h7.495a.661.661,0,0,1,.661.661v.441a.661.661,0,0,1-.661.661H20.06a.661.661,0,0,1-.661-.661m0-3.527v-.441a.661.661,0,0,1,.661-.661h7.495a.661.661,0,0,1,.661.661v.441a.661.661,0,0,1-.661.661H20.06a.661.661,0,0,1-.661-.661m0-7.054V5.952a.661.661,0,0,1,.661-.661h7.495a.661.661,0,0,1,.661.661v.441a.661.661,0,0,1-.661.661H20.06a.661.661,0,0,1-.661-.661m0,3.527V9.479a.661.661,0,0,1,.661-.661h7.495a.661.661,0,0,1,.661.661V9.92a.661.661,0,0,1-.661.661H20.06A.661.661,0,0,1,19.4,9.92" transform="translate(0.169 -0.22)"/>
    </g>
  </g>
</svg>
