<svg xmlns="http://www.w3.org/2000/svg" width="56.8" height="21.835"><g transform="translate(-14.2 -10.333)"><linearGradient id="A" gradientUnits="userSpaceOnUse" x1="22.734" y1="21.26" x2="57.716" y2="21.26"><stop offset="0" stop-color="#fff4f4"/><stop offset="1" stop-color="#ebeff5"/></linearGradient><path fill="url(#A)" d="M47.3 10.8c-1-1-2.9-.3-2.9 1.2v6.9l-8.1-8.1c-1-1-2.9-.3-2.9 1.2v6.7l-7.9-7.9c-1-1-2.9-.3-2.9 1.2v18.5c0 1.5 1.8 2.2 2.9 1.2l7.9-7.9v6.7c0 1.5 1.8 2.2 2.9 1.2l8.1-8.1v6.9c0 1.5 1.8 2.2 2.9 1.2l10.5-10.5z"/><path fill="#fff" d="M66.8 13.3a1.11 1.11 0 0 0-1.1 1.1v3a1.11 1.11 0 0 0 1.1 1.1h3a1.11 1.11 0 0 0 1.1-1.1v-3a1.11 1.11 0 0 0-1.1-1.1"/><path d="M67.3 15l.3-1.7h-.8a1.11 1.11 0 0 0-1.1 1.1V16l1.2-.5c0-.3.1-.4.4-.5zm2.5-1.7H68l-.3 1.8c.2.1.2.2.2.4s0 0 0 0l1.5.8c.1-.1.2-.1.3-.1a.47.47 0 0 1 .5.5.5.5 0 1 1-1 0c0-.3 0 0 0 0l-1.5-.8c-.1.1-.2.1-.3.1s-.3 0-.3-.2l-1.3.5v1a1.11 1.11 0 0 0 1.1 1.1h3a1.11 1.11 0 0 0 1.1-1.1v-3c-.1-.5-.6-1-1.2-1z" fill="#e20513"/><path d="M24.9 20.8h3.4v1.1h-3.4zm16.3-3.1v1.1h2V24h-2.6v1.1H47V24h-2.6v-5.1l-1.2-1.2zm-27-2.5l3.1 9.9h1.5l3.1-9.9h-1.4l-2.4 8.4-2.6-8.4zm21.5 2c-.5 0-.9.1-1.3.3s-.7.6-1 1.1v-1.2h-1.3V28h1.3v-4c.3.5.6.9 1 1.1.3.2.8.3 1.2.3.9 0 1.6-.4 2.2-1.1.5-.7.8-1.7.8-3s-.3-2.2-.8-3c-.6-.7-1.3-1.1-2.1-1.1zm1.2 6.3c-.3.5-.8.8-1.4.8s-1.2-.3-1.5-.8-.5-1.2-.5-2.2.2-1.7.5-2.2.8-.8 1.5-.8 1.1.3 1.4.8.5 1.2.5 2.2-.2 1.6-.5 2.2zm15.7-6.3c-.5 0-.9.1-1.3.3s-.7.6-1 1.1v-1.2H49V28h1.3v-4c.3.5.6.9 1 1.1.3.2.8.3 1.2.3.9 0 1.6-.4 2.2-1.1.5-.7.8-1.7.8-3s-.3-2.2-.8-3a2.61 2.61 0 0 0-2.1-1.1zm1.2 6.3c-.3.5-.8.8-1.4.8s-1.1-.3-1.5-.8-.5-1.2-.5-2.2.2-1.7.5-2.2.8-.8 1.5-.8 1.1.3 1.4.8.5 1.2.5 2.2-.2 1.6-.5 2.2zm9.3-5.3c-.6-.7-1.3-1-2.4-1-1 0-1.7.4-2.3 1.1s-.8 1.7-.8 3 .3 2.3.8 3 1.3 1.1 2.3 1.1 1.5-.2 2-.7c.6-.4.9-1 1-1.8h-1.2c-.1.4-.3.7-.6 1s-.7.3-1.1.3c-.6 0-1.1-.2-1.4-.7s-.5-1.1-.5-1.9h0 5v-.2-.3c0-1.3-.3-2.2-.8-2.9zm-4.2 2.4c0-.7.2-1.3.5-1.7s.8-.6 1.3-.6 1 .2 1.3.6.5 1 .5 1.7zm-15.8-5.7h1.4v1.4h-1.4z"/></g></svg>
