<svg version="1.1" id="chosen_finb" x="0" y="0" xml:space="preserve" xmlns="http://www.w3.org/2000/svg" viewBox="0 0 424.8 226.7"><style id="style2">.st1{fill:#e30613}</style><path d="M13.2 0C5.9 0 0 5.8 0 12.9v112.7c0 7.1 5.9 12.9 13.2 12.9h157.3c7.3 0 13.2-5.8 13.2-12.9V12.9c0-7.1-5.9-12.9-13.2-12.9Z" fill="#fff" id="path4"/><path class="st1" d="M55.5 44.5c.2-4.3 3.1-7.8 7.1-8.8L68.3 0H7.2C3.3 0 .1 3.2.1 7.1v59.5ZM20.9 21.7h7.9v-7.9h7.1v7.9h7.9v7.1h-7.9v7.9h-7.1v-7.9h-7.9zm136.4 84.8c1.1-.4 1.9-1.1 2.4-2.1.4-.7.7-1.6.7-2.5 0-1.9-.7-3.2-2.1-3.9-1.4-.6-3.5-1-6.3-1h-6.3v10h7.1c2 0 3.5-.2 4.5-.5zm2.6 7.4c-1.4-.9-3.4-1.3-6.1-1.3h-8.1v11.2h8.4c5.3 0 7.9-1.9 7.9-5.7 0-1.9-.7-3.4-2.1-4.2z" id="path6"/><path class="st1" d="M177.6 0H76.2l-5.9 36.9c2.6 1.7 4.3 4.6 4.3 8v.5l44.9 23.2c1.6-1.3 3.7-2.1 5.9-2.1 5.3 0 9.6 4.3 9.6 9.6s-4.3 9.6-9.6 9.6-9.6-4.3-9.6-9.6v-.6L71 52.3c-1.6 1.3-3.7 2.1-6 2.1-2.6 0-4.9-1-6.7-2.7L.1 74.9v56.4c0 3.9 3.2 7.1 7.1 7.1h170.4c3.9 0 7.1-3.2 7.1-7.1V7.1c0-3.9-3.2-7.1-7.1-7.1Zm-64.8 124.4c-1.2 1.8-3 3.3-5.3 4.3s-5 1.6-8.2 1.6c-3.8 0-6.9-.7-9.4-2.1-1.7-1-3.2-2.4-4.3-4.1-1.1-1.7-1.6-3.4-1.6-5 0-.9.3-1.7 1-2.4s1.5-1 2.5-1c.8 0 1.5.3 2.1.8.6.5 1.1 1.3 1.5 2.3.5 1.2 1 2.2 1.6 3.1.6.8 1.4 1.5 2.4 2s2.4.8 4.1.8c2.3 0 4.2-.5 5.6-1.6 1.4-1.1 2.2-2.4 2.2-4 0-1.3-.4-2.3-1.2-3.1-.8-.8-1.8-1.4-3-1.8-1.2-.4-2.9-.9-4.9-1.3-2.8-.6-5.1-1.4-6.9-2.3-1.9-.9-3.3-2-4.4-3.5-1.1-1.5-1.6-3.4-1.6-5.6 0-2.1.6-4 1.7-5.6 1.2-1.6 2.8-2.9 5-3.8 2.2-.9 4.8-1.3 7.7-1.3 2.4 0 4.4.3 6.1.9 1.7.6 3.2 1.4 4.3 2.3 1.1 1 2 2 2.5 3.1s.8 2.1.8 3.1c0 .9-.3 1.8-1 2.5s-1.5 1.1-2.5 1.1c-.9 0-1.6-.2-2-.7-.5-.4-1-1.2-1.5-2.2-.7-1.5-1.5-2.6-2.5-3.4-1-.8-2.6-1.2-4.7-1.2-2 0-3.6.4-4.9 1.3-1.2.9-1.8 1.9-1.8 3.2 0 .8.2 1.4.6 2 .4.6 1 1 1.7 1.4.7.4 1.5.7 2.2.9.7.2 2 .6 3.7 1 2.2.5 4.1 1.1 5.9 1.7 1.8.6 3.3 1.4 4.5 2.2 1.2.9 2.2 2 2.9 3.3.7 1.3 1 3 1 4.9-.1 2.2-.7 4.3-1.9 6.2zm16.5 1.1c0 1.6-.4 2.8-1.1 3.6-.7.8-1.7 1.2-2.9 1.2-1.1 0-2.1-.4-2.8-1.2-.7-.8-1.1-2-1.1-3.5V94.8c0-1.6.4-2.8 1.1-3.5.7-.8 1.6-1.2 2.8-1.2 1.2 0 2.1.4 2.9 1.2.7.8 1.1 2 1.1 3.6zm38.9-1c-1.1 1.7-2.6 3-4.5 3.8-1.2.5-2.5.8-4 1-1.5.2-3.3.3-5.3.3h-11.8c-1.7 0-2.9-.4-3.6-1.1-.7-.8-1.1-2-1.1-3.6V96c0-1.7.4-2.9 1.1-3.7.7-.7 1.9-1.1 3.6-1.1h12.5c1.8 0 3.4.1 4.8.3 1.3.2 2.6.7 3.6 1.3.9.5 1.7 1.2 2.4 2.1.7.8 1.2 1.7 1.6 2.8.4 1 .5 2.1.5 3.2 0 3.9-1.9 6.7-5.8 8.5 5.1 1.6 7.6 4.7 7.6 9.4.1 2-.5 4-1.6 5.7z" id="path8"/><path d="M101.2 157.5c-1.4-1-3.2-1.6-5.5-1.6-.9 0-1.8.1-2.7.3-.9.2-1.6.5-2.3.9-.7.4-1.2 1-1.6 1.7-.4.7-.6 1.6-.6 2.6s.3 1.8.9 2.4c.6.6 1.4 1.1 2.3 1.5 1 .4 2.1.7 3.3 1 1.2.3 2.5.5 3.8.8 1.3.3 2.5.7 3.8 1.1 1.2.4 2.3 1 3.3 1.6 1 .7 1.8 1.6 2.3 2.6.6 1.1.9 2.4.9 4 0 1.7-.4 3.2-1.1 4.4-.8 1.2-1.7 2.2-2.9 3-1.2.8-2.5 1.3-4 1.7-1.5.3-3 .5-4.4.5-1.8 0-3.5-.2-5.1-.7-1.6-.5-3-1.1-4.2-2.1-1.2-.9-2.2-2.1-2.9-3.5-.7-1.4-1.1-3.1-1.1-5.1h4.1c0 1.4.3 2.5.8 3.5s1.2 1.8 2.1 2.4c.9.6 1.9 1.1 3 1.4 1.1.3 2.3.5 3.5.5 1 0 1.9-.1 2.9-.3 1-.2 1.9-.5 2.6-.9.8-.4 1.4-1 1.9-1.8s.7-1.7.7-2.9c0-1.1-.3-2-.9-2.7-.6-.7-1.4-1.3-2.3-1.7-1-.4-2.1-.8-3.3-1.1-1.2-.3-2.5-.5-3.8-.8-1.3-.3-2.5-.6-3.8-1-1.2-.4-2.3-.9-3.3-1.5s-1.8-1.4-2.3-2.4c-.6-1-.9-2.2-.9-3.7 0-1.6.3-3 1-4.2.7-1.2 1.5-2.2 2.6-2.9 1.1-.8 2.3-1.3 3.7-1.7 1.4-.4 2.8-.6 4.3-.6 1.7 0 3.2.2 4.6.6 1.4.4 2.6 1 3.7 1.9 1.1.8 1.9 1.9 2.5 3.2.6 1.3 1 2.8 1 4.6h-4c-.4-2.3-1.2-4-2.6-5zm31.4 27.8-4.7-18.5h-.1l-4.7 18.5H119l-7.5-23.2h4.2l5.3 19h.1l4.7-19h4.2l4.9 19h.1l5.2-19h4l-7.4 23.2zm15.4-27.5v-4.7h3.8v4.7zm3.8 4.2v23.3H148V162Zm8.8 18.1c.4.6.8 1 1.4 1.4.6.3 1.3.6 2 .7.7.2 1.5.2 2.3.2.6 0 1.2 0 1.9-.1s1.3-.3 1.8-.5c.6-.2 1-.6 1.4-1.1.4-.5.5-1.1.5-1.8 0-1-.4-1.7-1.1-2.3-.8-.5-1.7-.9-2.8-1.2-1.1-.3-2.4-.6-3.7-.9-1.3-.3-2.5-.6-3.7-1.1-1.1-.5-2.1-1.1-2.8-2-.8-.8-1.1-2-1.1-3.5 0-1.2.3-2.2.8-3 .5-.8 1.2-1.5 2-2.1.8-.5 1.8-.9 2.8-1.2 1-.3 2.1-.4 3.1-.4 1.3 0 2.5.1 3.6.3 1.1.2 2.1.6 3 1.2.9.6 1.5 1.3 2 2.3.5.9.8 2.1.9 3.5h-3.8c-.1-.8-.3-1.4-.6-1.9s-.8-.9-1.3-1.2c-.5-.3-1.1-.5-1.7-.7-.6-.1-1.2-.2-1.9-.2-.6 0-1.2 0-1.7.1-.6.1-1.1.2-1.6.5-.5.2-.9.5-1.2.9-.3.4-.5.9-.5 1.5 0 .7.2 1.2.7 1.6.5.4 1.1.8 1.8 1.1.7.3 1.5.5 2.4.7l2.7.6c1 .2 1.9.5 2.8.8.9.3 1.7.7 2.4 1.2s1.3 1.1 1.7 1.9c.4.8.7 1.7.7 2.8 0 1.4-.3 2.6-.9 3.5-.6.9-1.4 1.7-2.3 2.3-.9.6-2 1-3.2 1.2-1.2.2-2.4.3-3.5.3-1.3 0-2.5-.1-3.7-.4-1.2-.3-2.2-.7-3.1-1.3-.9-.6-1.6-1.4-2.2-2.4-.5-1-.8-2.2-.9-3.7h3.8c.2 1.1.4 1.8.8 2.4zm22.5 0c.4.6.8 1 1.4 1.4.6.3 1.3.6 2 .7.7.2 1.5.2 2.3.2.6 0 1.2 0 1.9-.1s1.3-.3 1.8-.5c.6-.2 1-.6 1.4-1.1.4-.5.5-1.1.5-1.8 0-1-.4-1.7-1.1-2.3-.8-.5-1.7-.9-2.8-1.2-1.1-.3-2.4-.6-3.7-.9-1.3-.3-2.5-.6-3.7-1.1-1.1-.5-2.1-1.1-2.8-2-.8-.8-1.1-2-1.1-3.5 0-1.2.3-2.2.8-3 .5-.8 1.2-1.5 2-2.1.8-.5 1.8-.9 2.8-1.2 1-.3 2.1-.4 3.1-.4 1.3 0 2.5.1 3.6.3 1.1.2 2.1.6 3 1.2.9.6 1.5 1.3 2 2.3.5.9.8 2.1.9 3.5h-3.8c-.1-.8-.3-1.4-.6-1.9s-.8-.9-1.3-1.2c-.5-.3-1.1-.5-1.7-.7-.6-.1-1.2-.2-1.9-.2-.6 0-1.2 0-1.7.1-.6.1-1.1.2-1.6.5-.5.2-.9.5-1.2.9-.3.4-.5.9-.5 1.5 0 .7.2 1.2.7 1.6.5.4 1.1.8 1.8 1.1.7.3 1.5.5 2.4.7l2.7.6c1 .2 1.9.5 2.8.8.9.3 1.7.7 2.4 1.2s1.3 1.1 1.7 1.9c.4.8.7 1.7.7 2.8 0 1.4-.3 2.6-.9 3.5-.6.9-1.4 1.7-2.3 2.3-.9.6-2 1-3.2 1.2-1.2.2-2.4.3-3.5.3-1.3 0-2.5-.1-3.7-.4-1.2-.3-2.2-.7-3.1-1.3-.9-.6-1.6-1.4-2.2-2.4-.5-1-.8-2.2-.9-3.7h3.8c.2 1.1.4 1.8.8 2.4zm37.2-27v32.2h-4.2v-32.1h4.2zm10.1 8.9v3.7h.1c1.6-2.8 4.1-4.2 7.6-4.2 1.5 0 2.8.2 3.8.6 1 .4 1.8 1 2.5 1.8.6.8 1.1 1.6 1.3 2.7.3 1 .4 2.2.4 3.4v15.3h-3.8v-15.8c0-1.4-.4-2.6-1.3-3.4-.8-.8-2-1.3-3.5-1.3-1.2 0-2.2.2-3 .5-.9.4-1.6.9-2.1 1.5-.6.7-1 1.4-1.3 2.3-.3.9-.4 1.9-.4 2.9v13.3h-3.8V162Zm24.4 18.1c.4.6.8 1 1.4 1.4.6.3 1.3.6 2 .7.7.2 1.5.2 2.3.2.6 0 1.2 0 1.9-.1s1.3-.3 1.8-.5c.6-.2 1-.6 1.4-1.1.4-.5.5-1.1.5-1.8 0-1-.4-1.7-1.1-2.3-.8-.5-1.7-.9-2.8-1.2-1.1-.3-2.4-.6-3.7-.9-1.3-.3-2.5-.6-3.7-1.1-1.1-.5-2.1-1.1-2.8-2-.8-.8-1.1-2-1.1-3.5 0-1.2.3-2.2.8-3 .5-.8 1.2-1.5 2-2.1.8-.5 1.8-.9 2.8-1.2 1-.3 2.1-.4 3.1-.4 1.3 0 2.5.1 3.7.3 1.1.2 2.1.6 3 1.2.9.6 1.5 1.3 2.1 2.3.5.9.8 2.1.9 3.5h-3.8c-.1-.8-.3-1.4-.6-1.9s-.8-.9-1.3-1.2c-.5-.3-1.1-.5-1.7-.7-.6-.1-1.2-.2-1.9-.2-.6 0-1.2 0-1.7.1-.6.1-1.1.2-1.6.5-.5.2-.9.5-1.2.9-.3.4-.5.9-.5 1.5 0 .7.2 1.2.7 1.6.5.4 1.1.8 1.8 1.1.7.3 1.5.5 2.4.7l2.7.6c1 .2 1.9.5 2.8.8.9.3 1.7.7 2.4 1.2s1.3 1.1 1.7 1.9c.4.8.7 1.7.7 2.8 0 1.4-.3 2.6-.9 3.5-.6.9-1.4 1.7-2.3 2.3-.9.6-2 1-3.2 1.2-1.2.2-2.4.3-3.5.3-1.3 0-2.5-.1-3.7-.4-1.2-.3-2.2-.7-3.1-1.3-.9-.6-1.6-1.4-2.2-2.4-.5-1-.8-2.2-.9-3.7h3.8c0 1.1.2 1.8.6 2.4zm29.5-18.1v3.4h-4.6v14.4c0 .5 0 .8.1 1.1.1.3.2.5.4.6.2.2.5.2.9.3.4 0 .9.1 1.5.1h1.8v3.4h-2.9c-1 0-1.8-.1-2.5-.2s-1.3-.4-1.7-.7c-.4-.4-.8-.9-1-1.5-.2-.7-.3-1.5-.3-2.6v-14.8h-4v-3.4h4v-7h3.8v7h4.5zm4.5-4.2v-4.7h3.8v4.7zm3.8 4.2v23.3h-3.8V162Zm15.9 0v3.4h-4.6v14.4c0 .5 0 .8.1 1.1.1.3.2.5.4.6.2.2.5.2.9.3.4 0 .9.1 1.5.1h1.8v3.4h-2.9c-1 0-1.8-.1-2.5-.2s-1.3-.4-1.7-.7c-.4-.4-.8-.9-1-1.5-.2-.7-.3-1.5-.3-2.6v-14.8h-4v-3.4h4v-7h3.8v7h4.5zm19.9 23.3v-3.7h-.1c-.8 1.4-1.8 2.5-3.1 3.2-1.3.7-2.7 1-4.5 1-1.5 0-2.8-.2-3.8-.6-1-.4-1.8-1-2.5-1.7s-1.1-1.6-1.3-2.7c-.3-1-.4-2.2-.4-3.4v-15.3h3.8v15.8c0 1.4.4 2.6 1.3 3.4.8.8 2 1.3 3.5 1.3 1.2 0 2.2-.2 3-.5.9-.4 1.6-.9 2.1-1.5.6-.7 1-1.4 1.3-2.3.3-.9.4-1.9.4-2.9v-13.1h3.8v23zm19.3-23.3v3.4h-4.6v14.4c0 .5 0 .8.1 1.1.1.3.2.5.4.6.2.2.5.2.9.3.4 0 .9.1 1.5.1h1.8v3.4h-2.9c-1 0-1.8-.1-2.5-.2s-1.3-.4-1.7-.7c-.4-.4-.8-.9-1-1.5-.2-.7-.3-1.5-.3-2.6v-14.8h-4v-3.4h4v-7h3.8v7h4.5zm20.7 21.8c-1.7 1.3-3.9 2-6.6 2-1.9 0-3.5-.3-4.8-.9-1.4-.6-2.5-1.4-3.4-2.5-.9-1.1-1.6-2.4-2.1-3.9s-.7-3.1-.8-4.9c0-1.8.3-3.4.8-4.9.5-1.5 1.3-2.7 2.3-3.8 1-1.1 2.1-1.9 3.5-2.5 1.3-.6 2.8-.9 4.4-.9 2.1 0 3.8.4 5.1 1.3 1.4.9 2.5 1.9 3.3 3.3.8 1.3 1.4 2.8 1.7 4.3.3 1.6.4 3 .4 4.5h-17.4c0 1 .1 2 .4 2.9.3.9.7 1.7 1.3 2.4.6.7 1.4 1.3 2.3 1.7.9.4 2 .6 3.3.6 1.6 0 2.9-.4 4-1.1 1-.8 1.7-1.9 2-3.4h3.8c-.7 2.5-1.8 4.5-3.5 5.8zm-1-15c-.3-.8-.8-1.5-1.4-2.1-.6-.6-1.3-1-2.1-1.4-.8-.3-1.7-.5-2.6-.5-1 0-1.9.2-2.7.5-.8.3-1.5.8-2 1.4-.6.6-1 1.3-1.3 2.1-.3.8-.5 1.6-.6 2.5H368c0-.8-.2-1.7-.6-2.5zm20.6 0c.5-1.5 1.2-2.8 2.2-3.9 1-1.1 2.1-2 3.6-2.6 1.4-.6 3-.9 4.9-.9 1.9 0 3.5.3 4.9.9 1.4.6 2.6 1.5 3.5 2.6 1 1.1 1.7 2.4 2.2 3.9.5 1.5.7 3.1.7 4.8 0 1.7-.2 3.3-.7 4.8-.5 1.5-1.2 2.8-2.2 3.8-1 1.1-2.1 2-3.5 2.6-1.4.6-3 .9-4.9.9-1.8 0-3.4-.3-4.9-.9-1.4-.6-2.6-1.5-3.6-2.6s-1.7-2.4-2.2-3.8c-.5-1.5-.7-3.1-.7-4.8 0-1.7.3-3.3.7-4.8zm4 8.6c.4 1.1.9 2 1.5 2.7.7.7 1.4 1.3 2.3 1.7.9.4 1.8.6 2.8.6 1 0 1.9-.2 2.8-.6.9-.4 1.7-1 2.3-1.7.7-.7 1.2-1.7 1.5-2.7.4-1.1.6-2.4.6-3.8s-.2-2.7-.6-3.8c-.4-1.1-.9-2-1.5-2.8-.7-.8-1.4-1.3-2.3-1.7-.9-.4-1.8-.6-2.8-.6-1 0-1.9.2-2.8.6-.9.4-1.7 1-2.3 1.7-.7.8-1.2 1.7-1.5 2.8-.4 1.1-.6 2.4-.6 3.8 0 1.5.2 2.7.6 3.8zm20.1-12V162h3.9v-3.5c0-1.9.5-3.3 1.6-4.3s2.7-1.5 4.8-1.5c.4 0 .8 0 1.2.1.5.1.9.2 1.2.3v3.3c-.3-.1-.7-.2-1.1-.2-.4 0-.8-.1-1.1-.1-.9 0-1.7.2-2.2.5-.5.4-.8 1.1-.8 2.1v3.3h4.5v3.4h-4.3v19.9H416v-19.9ZM96.7 194.1h2.2c.8 0 1.6.1 2.4.1.8.1 1.5.2 2.2.3.7.2 1.3.4 1.7.7 1 .6 1.9 1.5 2.7 2.6.7 1.1 1.1 2.5 1.1 4.1 0 1.7-.4 3.2-1.2 4.4-.8 1.2-2 2.2-3.6 2.8v.1c2 .4 3.5 1.3 4.5 2.7 1 1.4 1.6 3.1 1.6 5 0 1.2-.2 2.3-.6 3.4-.4 1.1-1 2.1-1.9 2.9-.8.9-1.8 1.5-3.1 2.1-1.2.5-2.6.8-4.2.8H85V194h11.7zm1.2 13.8c2.4 0 4.2-.4 5.3-1.3 1.1-.9 1.6-2.1 1.6-3.8 0-1.1-.2-2-.5-2.7-.4-.7-.9-1.2-1.5-1.5-.6-.4-1.4-.6-2.2-.7-.8-.1-1.7-.2-2.6-.2h-8.6v10.2zm2.1 14.7c1.9 0 3.4-.5 4.4-1.5 1.1-1 1.6-2.4 1.6-4.2 0-1-.2-1.9-.6-2.6-.4-.7-.9-1.2-1.6-1.6-.6-.4-1.4-.7-2.2-.9-.8-.2-1.7-.2-2.6-.2h-9.8v11.1H100Zm15.5-23.8v-4.7h3.8v4.7zm3.8 4.2v23.3h-3.8V203Zm5.4 6.8c.5-1.5 1.2-2.8 2.2-3.9 1-1.1 2.1-2 3.6-2.6 1.4-.6 3-.9 4.9-.9 1.9 0 3.5.3 4.9.9 1.4.6 2.6 1.5 3.5 2.6 1 1.1 1.7 2.4 2.2 3.9.5 1.5.7 3.1.7 4.8 0 1.7-.2 3.3-.7 4.8-.5 1.5-1.2 2.8-2.2 3.8-1 1.1-2.1 2-3.5 2.6-1.4.6-3 .9-4.9.9-1.8 0-3.4-.3-4.9-.9-1.4-.6-2.6-1.5-3.6-2.6s-1.7-2.4-2.2-3.8c-.5-1.5-.7-3.1-.7-4.8 0-1.7.2-3.3.7-4.8zm3.9 8.6c.4 1.1.9 2 1.5 2.7.7.7 1.4 1.3 2.3 1.7.9.4 1.8.6 2.8.6 1 0 1.9-.2 2.8-.6.9-.4 1.7-1 2.3-1.7.7-.7 1.2-1.7 1.5-2.7.4-1.1.6-2.4.6-3.8s-.2-2.7-.6-3.8c-.4-1.1-.9-2-1.5-2.8-.7-.8-1.4-1.3-2.3-1.7-.9-.4-1.8-.6-2.8-.6-1 0-1.9.2-2.8.6-.9.4-1.7 1-2.3 1.7-.7.8-1.2 1.7-1.5 2.8-.4 1.1-.6 2.4-.6 3.8.1 1.4.2 2.7.6 3.8zm22.7-19.6v-4.7h3.8v4.7zm3.8 4.2v23.3h-3.8V203Zm9.6 0v3.7h.1c1.6-2.8 4.1-4.2 7.6-4.2 1.5 0 2.8.2 3.8.6 1 .4 1.8 1 2.5 1.8.6.8 1.1 1.6 1.3 2.7.3 1 .4 2.2.4 3.4v15.3h-3.8v-15.8c0-1.4-.4-2.6-1.3-3.4-.8-.8-2-1.3-3.5-1.3-1.2 0-2.2.2-3 .5-.9.4-1.6.9-2.1 1.5-.6.7-1 1.4-1.3 2.3-.3.9-.4 1.9-.4 2.9v13.1h-3.8v-23.3h3.5zm19 3.4V203h3.9v-3.5c0-1.9.5-3.3 1.6-4.3s2.7-1.5 4.8-1.5c.4 0 .8 0 1.2.1.5.1.9.2 1.2.3v3.3c-.3-.1-.7-.2-1.1-.2-.4 0-.8-.1-1.1-.1-.9 0-1.7.2-2.2.5-.5.4-.8 1.1-.8 2.1v3.3h4.5v3.4h-4.5v19.9h-3.8v-19.9zm15.2 3.4c.5-1.5 1.2-2.8 2.2-3.9 1-1.1 2.1-2 3.6-2.6 1.4-.6 3-.9 4.9-.9 1.9 0 3.5.3 4.9.9 1.4.6 2.6 1.5 3.5 2.6 1 1.1 1.7 2.4 2.2 3.9.5 1.5.7 3.1.7 4.8 0 1.7-.2 3.3-.7 4.8-.5 1.5-1.2 2.8-2.2 3.8-1 1.1-2.1 2-3.5 2.6-1.4.6-3 .9-4.9.9-1.8 0-3.4-.3-4.9-.9-1.4-.6-2.6-1.5-3.6-2.6s-1.7-2.4-2.2-3.8c-.5-1.5-.7-3.1-.7-4.8 0-1.7.2-3.3.7-4.8zm3.9 8.6c.4 1.1.9 2 1.5 2.7.7.7 1.4 1.3 2.3 1.7.9.4 1.8.6 2.8.6 1 0 1.9-.2 2.8-.6.9-.4 1.7-1 2.3-1.7.7-.7 1.2-1.7 1.5-2.7.4-1.1.6-2.4.6-3.8s-.2-2.7-.6-3.8c-.4-1.1-.9-2-1.5-2.8-.7-.8-1.4-1.3-2.3-1.7-.9-.4-1.8-.6-2.8-.6-1 0-1.9.2-2.8.6-.9.4-1.7 1-2.3 1.7-.7.8-1.2 1.7-1.5 2.8-.4 1.1-.6 2.4-.6 3.8s.2 2.7.6 3.8zm25.9-15.4v4.9h.1c.9-1.9 2.1-3.3 3.4-4.2 1.3-.9 3.1-1.3 5.1-1.3v4.1c-1.5 0-2.8.2-3.9.6-1.1.4-2 1-2.6 1.8-.7.8-1.1 1.8-1.4 2.9-.3 1.2-.4 2.5-.4 4v10.3h-3.8v-23.3h3.5zm15.1 0v3.4h.1c1.7-2.6 4.2-4 7.5-4 1.4 0 2.7.3 3.9.9 1.2.6 2 1.6 2.5 3.1.8-1.3 1.8-2.2 3.1-2.9 1.3-.7 2.7-1 4.2-1 1.2 0 2.2.1 3.2.4.9.3 1.8.7 2.4 1.2.7.5 1.2 1.2 1.6 2.1.4.9.6 1.9.6 3.1v17.1h-3.8v-15.3c0-.7-.1-1.4-.2-2-.1-.6-.3-1.2-.7-1.6-.3-.5-.8-.8-1.4-1.1-.6-.3-1.3-.4-2.3-.4-1.9 0-3.4.5-4.4 1.6-1.1 1.1-1.6 2.5-1.6 4.3v14.5h-3.8v-15.3c0-.8-.1-1.4-.2-2.1-.1-.6-.4-1.2-.7-1.6-.3-.5-.8-.8-1.3-1.1-.6-.3-1.3-.4-2.1-.4-1.1 0-2.1.2-2.9.7-.8.5-1.4 1-1.9 1.6-.5.6-.9 1.3-1.1 2-.2.7-.3 1.2-.3 1.7v14.5h-3.8v-23.3h3.4zm52.6 23.7c-1 0-1.8-.3-2.3-.8-.6-.6-.9-1.5-.9-2.7-1 1.3-2.3 2.2-3.7 2.7-1.4.6-2.9.8-4.5.8-1.1 0-2-.1-3-.3-.9-.2-1.7-.6-2.5-1.1-.8-.5-1.3-1.2-1.7-2-.4-.8-.6-1.8-.6-3 0-1.3.2-2.4.7-3.2.4-.8 1-1.5 1.8-2 .7-.5 1.6-.9 2.5-1.2.9-.3 1.9-.5 2.9-.7 1-.2 2-.4 3-.5.9-.1 1.8-.3 2.5-.5s1.3-.5 1.7-.9c.4-.4.6-.9.6-1.6 0-.8-.2-1.5-.5-2s-.7-.9-1.2-1.2c-.5-.3-1.1-.5-1.7-.5-.6-.1-1.2-.1-1.8-.1-1.6 0-3 .3-4.1.9-1.1.6-1.7 1.8-1.8 3.5H278c.1-1.4.4-2.7.9-3.7s1.3-1.8 2.2-2.4c.9-.6 1.9-1.1 3.1-1.3 1.2-.3 2.4-.4 3.7-.4 1 0 2.1.1 3.1.2 1 .2 2 .5 2.8.9.8.5 1.5 1.1 2 2 .5.8.8 1.9.8 3.3v12c0 .9.1 1.6.2 2 .1.4.5.6 1.1.6.3 0 .7-.1 1.2-.2v3c-.6.2-1.5.4-2.7.4zm-5.3-11.7c-.8.2-1.6.3-2.4.4-.9.1-1.7.2-2.6.4-.9.1-1.6.4-2.3.7-.7.3-1.2.7-1.7 1.3-.4.6-.7 1.3-.7 2.3 0 .6.1 1.2.4 1.6.3.4.6.8 1 1.1.4.3.9.5 1.4.6.6.1 1.1.2 1.7.2 1.3 0 2.3-.2 3.2-.5.9-.3 1.6-.8 2.2-1.3.6-.5 1-1.1 1.3-1.7.3-.6.4-1.2.4-1.7v-3.9c-.5.1-1.1.4-1.9.5zm21.6-12v3.4h-4.6v14.4c0 .5 0 .8.1 1.1.1.3.2.5.4.6.2.2.5.2.9.3.4 0 .9.1 1.5.1h1.8v3.4h-3c-1 0-1.8-.1-2.5-.2s-1.3-.4-1.7-.7c-.4-.4-.8-.9-1-1.5-.2-.7-.3-1.5-.3-2.6v-14.8h-4v-3.4h4v-7h3.8v7h4.6zm4.5-4.2v-4.7h3.8v4.7zm3.8 4.2v23.3h-3.8V203Zm19.9 4c-1-.8-2.2-1.2-3.9-1.2-1.4 0-2.5.3-3.5.8-.9.5-1.7 1.2-2.2 2-.6.8-1 1.8-1.2 2.9-.2 1.1-.4 2.2-.4 3.4 0 1.1.1 2.1.4 3.2.3 1 .7 1.9 1.2 2.7.5.8 1.2 1.4 2.1 1.9.9.5 1.9.7 3.1.7 1.9 0 3.4-.5 4.4-1.5 1.1-1 1.7-2.4 2-4.2h3.9c-.4 2.9-1.5 5.1-3.2 6.7-1.7 1.6-4.1 2.3-7 2.3-1.8 0-3.3-.3-4.7-.9-1.4-.6-2.5-1.4-3.4-2.4-.9-1.1-1.6-2.3-2.1-3.8s-.7-3.1-.7-4.8c0-1.7.2-3.4.7-4.9.5-1.5 1.1-2.8 2.1-4 .9-1.1 2.1-2 3.4-2.7 1.4-.6 3-1 4.8-1 1.3 0 2.6.2 3.7.5 1.2.3 2.2.8 3.1 1.5.9.7 1.6 1.5 2.2 2.5.6 1 .9 2.2 1.1 3.6h-4c-.4-1.3-1-2.5-1.9-3.3zm13.1 14.1c.4.6.8 1 1.4 1.4.6.3 1.3.6 2 .7.7.2 1.5.2 2.3.2.6 0 1.2 0 1.9-.1s1.3-.3 1.8-.5c.6-.2 1-.6 1.4-1.1.4-.5.5-1.1.5-1.8 0-1-.4-1.7-1.1-2.3-.8-.5-1.7-.9-2.8-1.2-1.1-.3-2.4-.6-3.7-.9-1.3-.3-2.5-.6-3.7-1.1-1.1-.5-2.1-1.1-2.8-2-.8-.8-1.1-2-1.1-3.5 0-1.2.3-2.2.8-3 .5-.8 1.2-1.5 2-2.1.8-.5 1.8-.9 2.8-1.2 1-.3 2.1-.4 3.1-.4 1.3 0 2.5.1 3.7.3 1.2.2 2.1.6 3 1.2.9.6 1.5 1.3 2.1 2.3.5.9.8 2.1.9 3.5h-3.8c-.1-.8-.3-1.4-.6-1.9s-.8-.9-1.3-1.2c-.5-.3-1.1-.5-1.7-.7-.6-.1-1.2-.2-1.9-.2-.6 0-1.2 0-1.7.1-.6.1-1.1.2-1.6.5-.5.2-.9.5-1.2.9-.3.4-.5.9-.5 1.5 0 .7.2 1.2.7 1.6.5.4 1.1.8 1.8 1.1.7.3 1.5.5 2.4.7l2.7.6c1 .2 1.9.5 2.8.8.9.3 1.7.7 2.4 1.2s1.3 1.1 1.7 1.9c.4.8.7 1.7.7 2.8 0 1.4-.3 2.6-.9 3.5-.6.9-1.4 1.7-2.3 2.3-.9.6-2 1-3.2 1.2-1.2.2-2.4.3-3.5.3-1.3 0-2.5-.1-3.7-.4-1.2-.3-2.2-.7-3.1-1.3-.9-.6-1.6-1.4-2.2-2.4-.5-1-.8-2.2-.9-3.7h3.8c0 1.1.2 1.8.6 2.4z" id="path10"/></svg>