<?xml version="1.0" encoding="utf-8"?>
<!-- Generator: Adobe Illustrator 28.2.0, SVG Export Plug-In . SVG Version: 6.00 Build 0)  -->
<svg version="1.1" id="chosen_finb" xmlns="http://www.w3.org/2000/svg" xmlns:xlink="http://www.w3.org/1999/xlink" x="0px"
	 y="0px" viewBox="0 0 184.7 138.5" style="enable-background:new 0 0 184.7 138.5;" xml:space="preserve">
<style type="text/css">
	.st0{fill:#FFFFFF;}
	.st1{fill:#E30613;}
</style>
<path id="path4" class="st0" d="M13.2,0C5.9,0,0,5.8,0,12.9v112.7c0,7.1,5.9,12.9,13.2,12.9h157.3c7.3,0,13.2-5.8,13.2-12.9V12.9
	c0-7.1-5.9-12.9-13.2-12.9H13.2z"/>
<path id="path6" class="st1" d="M55.5,44.5c0.2-4.3,3.1-7.8,7.1-8.8L68.3,0H7.2C3.3,0,0.1,3.2,0.1,7.1v59.5L55.5,44.5z M20.9,21.7
	h7.9v-7.9h7.1v7.9h7.9v7.1h-7.9v7.9h-7.1v-7.9h-7.9L20.9,21.7z M157.3,106.5c1.1-0.4,1.9-1.1,2.4-2.1c0.4-0.7,0.7-1.6,0.7-2.5
	c0-1.9-0.7-3.2-2.1-3.9c-1.4-0.6-3.5-1-6.3-1h-6.3v10h7.1C154.8,107,156.3,106.8,157.3,106.5L157.3,106.5z M159.9,113.9
	c-1.4-0.9-3.4-1.3-6.1-1.3h-8.1v11.2h8.4c5.3,0,7.9-1.9,7.9-5.7C162,116.2,161.3,114.7,159.9,113.9L159.9,113.9z"/>
<path id="path8" class="st1" d="M177.6,0H76.2l-5.9,36.9c2.6,1.7,4.3,4.6,4.3,8v0.5l44.9,23.2c1.6-1.3,3.7-2.1,5.9-2.1
	c5.3,0,9.6,4.3,9.6,9.6s-4.3,9.6-9.6,9.6s-9.6-4.3-9.6-9.6v-0.6L71,52.3c-1.6,1.3-3.7,2.1-6,2.1c-2.6,0-4.9-1-6.7-2.7L0.1,74.9v56.4
	c0,3.9,3.2,7.1,7.1,7.1h170.4c3.9,0,7.1-3.2,7.1-7.1V7.1C184.7,3.2,181.5,0,177.6,0L177.6,0z M112.8,124.4c-1.2,1.8-3,3.3-5.3,4.3
	c-2.3,1-5,1.6-8.2,1.6c-3.8,0-6.9-0.7-9.4-2.1c-1.7-1-3.2-2.4-4.3-4.1c-1.1-1.7-1.6-3.4-1.6-5c0-0.9,0.3-1.7,1-2.4s1.5-1,2.5-1
	c0.8,0,1.5,0.3,2.1,0.8s1.1,1.3,1.5,2.3c0.5,1.2,1,2.2,1.6,3.1c0.6,0.8,1.4,1.5,2.4,2s2.4,0.8,4.1,0.8c2.3,0,4.2-0.5,5.6-1.6
	s2.2-2.4,2.2-4c0-1.3-0.4-2.3-1.2-3.1c-0.8-0.8-1.8-1.4-3-1.8s-2.9-0.9-4.9-1.3c-2.8-0.6-5.1-1.4-6.9-2.3c-1.9-0.9-3.3-2-4.4-3.5
	s-1.6-3.4-1.6-5.6c0-2.1,0.6-4,1.7-5.6c1.2-1.6,2.8-2.9,5-3.8s4.8-1.3,7.7-1.3c2.4,0,4.4,0.3,6.1,0.9s3.2,1.4,4.3,2.3
	c1.1,1,2,2,2.5,3.1s0.8,2.1,0.8,3.1c0,0.9-0.3,1.8-1,2.5s-1.5,1.1-2.5,1.1c-0.9,0-1.6-0.2-2-0.7c-0.5-0.4-1-1.2-1.5-2.2
	c-0.7-1.5-1.5-2.6-2.5-3.4s-2.6-1.2-4.7-1.2c-2,0-3.6,0.4-4.9,1.3c-1.2,0.9-1.8,1.9-1.8,3.2c0,0.8,0.2,1.4,0.6,2s1,1,1.7,1.4
	s1.5,0.7,2.2,0.9c0.7,0.2,2,0.6,3.7,1c2.2,0.5,4.1,1.1,5.9,1.7s3.3,1.4,4.5,2.2c1.2,0.9,2.2,2,2.9,3.3c0.7,1.3,1,3,1,4.9
	C114.6,120.4,114,122.5,112.8,124.4L112.8,124.4z M129.3,125.5c0,1.6-0.4,2.8-1.1,3.6c-0.7,0.8-1.7,1.2-2.9,1.2
	c-1.1,0-2.1-0.4-2.8-1.2c-0.7-0.8-1.1-2-1.1-3.5V94.8c0-1.6,0.4-2.8,1.1-3.5c0.7-0.8,1.6-1.2,2.8-1.2c1.2,0,2.1,0.4,2.9,1.2
	c0.7,0.8,1.1,2,1.1,3.6V125.5z M168.2,124.5c-1.1,1.7-2.6,3-4.5,3.8c-1.2,0.5-2.5,0.8-4,1s-3.3,0.3-5.3,0.3h-11.8
	c-1.7,0-2.9-0.4-3.6-1.1c-0.7-0.8-1.1-2-1.1-3.6V96c0-1.7,0.4-2.9,1.1-3.7c0.7-0.7,1.9-1.1,3.6-1.1h12.5c1.8,0,3.4,0.1,4.8,0.3
	c1.3,0.2,2.6,0.7,3.6,1.3c0.9,0.5,1.7,1.2,2.4,2.1c0.7,0.8,1.2,1.7,1.6,2.8c0.4,1,0.5,2.1,0.5,3.2c0,3.9-1.9,6.7-5.8,8.5
	c5.1,1.6,7.6,4.7,7.6,9.4C169.9,120.8,169.3,122.8,168.2,124.5z"/>
</svg>
