<svg xmlns="http://www.w3.org/2000/svg" width="188" height="54"><path d="M0 0h188v54H0z" fill="#fff"/><path d="M26.1 19.14a4.3 4.3 0 0 0-4-1.9h-3.62v19h3.65a4.3 4.3 0 0 0 4-1.9c.66-1 .9-1.86.9-7.6s-.24-6.66-.9-7.6zm5.7 21.22a12.53 12.53 0 0 1-9.09 3.33h-12.5V9.8h12.5a12.53 12.53 0 0 1 9.09 3.33c3.93 3.95 3.5 8.28 3.5 13.6s.43 9.66-3.5 13.6zm29.55-11.6H53.3V39.1h8.05c3.55 0 5.54-2.2 5.54-5.2s-2-5.14-5.54-5.14zm-.47-14.32H53.3v9.7h7.58c3.27 0 5.5-1.7 5.5-4.85s-2.23-4.85-5.5-4.85zm.95 29.27H48.18V9.8H61.3c6.25 0 10.2 3.57 10.2 9.28a7.67 7.67 0 0 1-4.55 7.18A8.06 8.06 0 0 1 72 34.13c0 6.23-4.2 9.57-10.18 9.57zM89 44c-5.07 0-8.7-1.2-11.94-4.47l3.4-3.38c2.46 2.47 5.16 3.24 8.62 3.24 4.4 0 7-1.9 7-5.2a4.57 4.57 0 0 0-1.33-3.52c-.85-.8-1.7-1.14-3.7-1.43l-4-.57a11.51 11.51 0 0 1-6.4-2.71 8.45 8.45 0 0 1-2.46-6.47c0-5.9 4.26-9.95 11.27-9.95 4.45 0 7.58 1.14 10.47 3.86l-3.24 3.2a9.88 9.88 0 0 0-7.33-2.6c-4 0-6.16 2.28-6.16 5.28a4 4 0 0 0 1.28 3.14A7.53 7.53 0 0 0 88.27 24l3.84.57c3.13.48 4.88 1.24 6.3 2.52a8.88 8.88 0 0 1 2.74 6.91c0 6.27-5.07 10-12.15 10zm28 0c-5.07 0-8.7-1.2-11.94-4.47l3.4-3.38c2.46 2.47 5.16 3.24 8.62 3.24 4.4 0 7-1.9 7-5.2a4.57 4.57 0 0 0-1.33-3.52c-.85-.8-1.7-1.14-3.7-1.43l-4-.57a11.52 11.52 0 0 1-6.4-2.71 8.45 8.45 0 0 1-2.46-6.47c0-5.9 4.26-9.95 11.27-9.95 4.45 0 7.58 1.14 10.47 3.86l-3.27 3.24a9.88 9.88 0 0 0-7.36-2.65c-4 0-6.16 2.28-6.16 5.28a4 4 0 0 0 1.28 3.14 7.53 7.53 0 0 0 3.79 1.58l3.84.57c3.13.48 4.88 1.24 6.3 2.52A8.88 8.88 0 0 1 129.1 34c0 6.27-5.1 10-12.1 10zm19.45-.3V9.8H158v4.62h-16.44v9.9h14.03v4.56h-14.03v10.2H158v4.6h-21.55z" fill="#231f20"/></svg>