<svg xmlns="http://www.w3.org/2000/svg" width="188" height="54"><title>bsse-logo</title><rect width="188" height="54" style="fill:#fff"/><path d="M26.1,19.14a4.3,4.3,0,0,0-4-1.9H18.48v19h3.65a4.3,4.3,0,0,0,4-1.9c.66-1,.9-1.86.9-7.61s-.24-6.66-.9-7.61Zm5.69,21.22a12.53,12.53,0,0,1-9.09,3.33H10.19V9.81h12.5a12.53,12.53,0,0,1,9.09,3.33c3.93,3.95,3.5,8.28,3.5,13.61s.43,9.66-3.5,13.61Z" style="fill:#231f20"/><path d="M61.35,28.75H53.3V39.08h8.05c3.55,0,5.54-2.19,5.54-5.19s-2-5.14-5.54-5.14Zm-.47-14.32H53.3v9.71h7.58c3.27,0,5.49-1.71,5.49-4.85s-2.23-4.85-5.49-4.85Zm.95,29.27H48.18V9.81H61.31c6.25,0,10.19,3.57,10.19,9.28a7.67,7.67,0,0,1-4.55,7.18A8.06,8.06,0,0,1,72,34.13c0,6.23-4.21,9.57-10.18,9.57Z" style="fill:#231f20"/><path d="M89,44c-5.07,0-8.71-1.19-11.94-4.47l3.41-3.38c2.46,2.47,5.16,3.24,8.62,3.24,4.4,0,7-1.9,7-5.19a4.57,4.57,0,0,0-1.33-3.52c-.85-.81-1.71-1.14-3.7-1.43l-4-.57a11.51,11.51,0,0,1-6.4-2.71,8.45,8.45,0,0,1-2.46-6.47c0-5.9,4.26-9.95,11.27-9.95,4.45,0,7.58,1.14,10.47,3.86L96.7,16.62A9.88,9.88,0,0,0,89.36,14c-4,0-6.16,2.28-6.16,5.28a4,4,0,0,0,1.28,3.14A7.53,7.53,0,0,0,88.27,24l3.84.57c3.13.48,4.88,1.24,6.3,2.52A8.88,8.88,0,0,1,101.15,34C101.15,40.27,96.08,44,89,44Z" style="fill:#231f20"/><path d="M117,44c-5.07,0-8.71-1.19-11.94-4.47l3.41-3.38c2.46,2.47,5.16,3.24,8.62,3.24,4.4,0,7-1.9,7-5.19a4.57,4.57,0,0,0-1.33-3.52c-.85-.81-1.7-1.14-3.7-1.43l-4-.57a11.52,11.52,0,0,1-6.4-2.71,8.45,8.45,0,0,1-2.46-6.47c0-5.9,4.26-9.95,11.27-9.95,4.45,0,7.58,1.14,10.47,3.86l-3.27,3.24A9.88,9.88,0,0,0,117.31,14c-4,0-6.16,2.28-6.16,5.28a4,4,0,0,0,1.28,3.14A7.53,7.53,0,0,0,116.22,24l3.84.57c3.13.48,4.88,1.24,6.3,2.52A8.88,8.88,0,0,1,129.1,34C129.1,40.27,124,44,117,44Z" style="fill:#231f20"/><polygon points="136.45 43.69 136.45 9.81 158 9.81 158 14.43 141.56 14.43 141.56 24.33 155.59 24.33 155.59 28.89 141.56 28.89 141.56 39.08 158 39.08 158 43.69 136.45 43.69 136.45 43.69" style="fill:#231f20"/></svg>