<svg xmlns="http://www.w3.org/2000/svg" width="249" height="91"><path d="M145.573 52.404c-1.08 5.355-5.217 5.628-6.037 5.628-2.336 0-3.73-1.35-3.73-3.606 0-.515.077-1.216.207-1.918l2.57-12.798h-3.024l-2.607 13.073-.034.187c-.112.6-.217 1.15-.217 1.877 0 3.512 2.306 5.87 5.745 5.87 2.514 0 4.534-.825 6.01-2.455l-.402 2.205h2.98l4.128-20.757h-3.067l-2.522 12.695m20.607-12.946c-2.336 0-4.405.955-5.708 2.63l.476-2.38h-2.98l-4.128 20.757h3.025l2.522-12.7c.644-3.26 3.146-5.623 5.953-5.623 1.205 0 2.155.475 2.9 1.45l.028.038 2.455-2.2-.025-.032c-1.134-1.31-2.614-1.942-4.52-1.942m-49.98 2.885V42.394h10.315l-13.74 15.534-.518 2.538h14.638l.52-2.686h-10.94l13.78-15.536.516-2.534h-14.05l-.512 2.633m54.91 18.072V60.466h3.022l4.124-20.756h-2.972l-4.164 20.705m40.987-20.955c-2.487 0-4.428.76-5.92 2.332l2.345-11.558h-3.024l-6.074 30.235h3.024l2.52-12.7c1.08-5.353 5.255-5.624 6.08-5.624 2.312 0 3.692 1.348 3.692 3.605 0 .512-.08 1.2-.21 1.92l-2.565 12.8h3.02l2.652-13.078c.126-.696.212-1.283.212-2.063 0-3.5-2.315-5.87-5.75-5.87m-20.04-.001c-5.484 0-9.334 3.863-10.564 10.6a17.942 17.942 0 0 0-.298 3.195c0 4.603 2.794 7.463 7.295 7.463 2.617 0 5.007-1.004 6.908-2.903l.027-.03-1.743-2.127-.032-.037-.032.035c-1.604 1.688-3.04 2.377-4.96 2.377-2.146 0-4.44-1.277-4.44-4.864 0-1.122.133-2.05.332-3.095.324-1.76 1.053-4.22 2.673-5.93 1.288-1.327 2.815-2 4.54-2 1.803 0 2.93.64 4.03 2.287l.025.04 2.22-1.875.032-.026-.024-.034c-1.515-2.13-3.363-3.077-5.988-3.077m-15.66-5.445h3.03l.753-3.78h-3.018l-.764 3.78m-29.396 0h3.03l.75-3.78h-3.015l-.765 3.78m-8.062 0h3.03l.752-3.78h-3.016l-.766 3.78m-40.4 7.937h-6.802l2.388-11.716h-57.82L30.242 60.47h23.053l1.5-7.558H41.193l.826-4.157h13.606l1.37-6.805h-13.6l.824-4.157h21.574L61.23 60.47h9.45l4.554-22.677h7.933L78.6 60.47h9.45l2.332-11.715h6.8l-2.33 11.715h9.448l6.075-30.235h-9.45l-2.4 11.715" fill="#231f20"/></svg>