<svg xmlns="http://www.w3.org/2000/svg" width="248.093" height="90.707"><title>ethz-logo</title><g fill="#231f20"><path d="M145.573 52.404c-1.08 5.355-5.217 5.628-6.037 5.628-2.336 0-3.73-1.35-3.73-3.606 0-.515.077-1.216.207-1.918l2.559-12.75.012-.048h-3.024l-2.607 13.073-.034.187c-.112.59-.217 1.15-.217 1.877 0 3.512 2.306 5.869 5.745 5.869 2.514 0 4.534-.825 6.009-2.455l-.392 2.154-.01.051h2.98l4.118-20.707.01-.05h-3.067l-2.522 12.695M166.18 39.458c-2.336 0-4.405.955-5.708 2.631l.468-2.33.008-.05h-2.98l-4.119 20.706-.009.051h3.025l2.522-12.7c.644-3.26 3.146-5.623 5.953-5.623 1.205 0 2.155.475 2.901 1.45l.028.038 2.455-2.199-.025-.032c-1.134-1.309-2.614-1.942-4.519-1.942M116.199 42.343l-.009.051h10.315L112.772 57.92l-.007.008-.518 2.538h14.638l.52-2.686h-10.941l13.774-15.526.007-.01.516-2.534h-14.05l-.512 2.633M171.11 60.415l-.011.051h3.022l4.124-20.756h-2.972l-4.164 20.705M212.096 39.46c-2.487 0-4.428.761-5.92 2.332l2.345-11.558h-3.024l-6.074 30.235h3.024l2.521-12.701c1.08-5.353 5.255-5.624 6.079-5.624 2.312 0 3.692 1.348 3.692 3.605 0 .512-.079 1.21-.211 1.92l-2.565 12.8h3.02l2.652-13.078c.126-.696.212-1.283.212-2.063 0-3.51-2.315-5.869-5.751-5.869M192.055 39.458c-5.484 0-9.334 3.863-10.564 10.6a17.942 17.942 0 0 0-.298 3.195c0 4.603 2.794 7.463 7.295 7.463 2.617 0 5.007-1.004 6.908-2.903l.027-.029-1.743-2.127-.032-.037-.032.035c-1.604 1.688-3.041 2.377-4.961 2.377-2.146 0-4.44-1.277-4.44-4.864 0-1.122.133-2.05.332-3.095.324-1.76 1.053-4.219 2.673-5.93 1.288-1.327 2.815-2 4.541-2 1.803 0 2.931.641 4.03 2.287l.025.04 2.219-1.875.032-.026-.024-.034c-1.515-2.129-3.363-3.077-5.988-3.077M176.395 34.013h3.029l.753-3.78h-3.018l-.764 3.78M146.999 34.013h3.03l.75-3.78h-3.015l-.765 3.78M138.937 34.013h3.03l.752-3.78h-3.016l-.766 3.78M98.547 41.95h-6.802l2.388-11.716H36.314l-6.072 30.235h23.053l1.51-7.558H41.193l.826-4.157h13.606l1.37-6.805h-13.61l.824-4.157h21.574L61.23 60.469h9.449l4.554-22.677h7.933L78.61 60.469h9.451l2.332-11.715h6.8l-2.331 11.715h9.448l6.075-30.235h-9.449l-2.39 11.715"/></g></svg>
