<svg xmlns="http://www.w3.org/2000/svg" xmlns:xlink="http://www.w3.org/1999/xlink" viewBox="0 0 198.016 69.63" height="93" width="265"><style>.B{fill:none}.C{stroke-width:.1}.D{stroke-miterlimit:10}.E{stroke:#000}.F{fill:#0f2197}.G{stroke-linejoin:round}.H{stroke-miterlimit:2}.I{fill:#61bfcc}.J{stroke:none}.K{filter:url(#E)}.L{fill:#000}.M{fill-opacity:.2}.N{fill:#00a89c}.O{fill-opacity:1}.P{fill-rule:nonzero}.Q{overflow:visible}.R{stroke-linecap:round}</style><defs><symbol id="A" class="Q"><path d="M21.28-49.875v1.39c-1.898.03-3.187.156-3.875.375-1.2.387-1.797 1.184-1.797 2.39 0 .617.21 1.477.64 2.578l2.406 5.563 11.78 26.234 10.72-28.406 1.063-3.172c.25-.863.375-1.562.375-2.094 0-1.445-.625-2.43-1.875-2.953-.742-.29-1.96-.46-3.656-.516v-1.39H52.5v1.28c-1.605.22-2.79.652-3.547 1.297-1.148.95-2.29 2.87-3.422 5.766L28.86.89h-1.14L9.125-40.562c-1.574-3.508-2.836-5.69-3.78-6.547-.937-.863-2.312-1.36-4.125-1.484v-1.28zm0 0" class="J"/></symbol><symbol id="B" class="Q"><path d="M2.938-19.36h18.53v4.703H2.938zm0 0" class="J"/></symbol><symbol id="C" class="Q"><path d="M12.03-6.766c.645 1.668 1.598 2.914 2.86 3.734s2.75 1.234 4.47 1.234c2.656 0 4.922-1.316 6.797-3.953 1.875-2.645 2.813-6.32 2.813-11.03 0-4.52-.977-7.895-2.922-10.125-1.95-2.238-4.215-3.36-6.797-3.36-1.812 0-3.47.563-4.97 1.688-1.5 1.117-2.25 2.21-2.25 3.28zM.328 15.203c2.313-.148 3.78-.637 4.406-1.47s.938-2.148.938-3.937v-35.344c0-1.863-.23-3.055-.687-3.578-.45-.53-1.305-.797-2.562-.797-.262 0-.512.012-.75.03-.23.023-.57.07-1.016.14v-1.203l3.5-1.14c.125-.03 2.594-.88 7.406-2.547.125 0 .21.06.266.172.063.105.094.23.094.375v4.97c1.625-1.613 3.05-2.812 4.28-3.594 2.197-1.374 4.473-2.06 6.797-2.06 3.395 0 6.313 1.445 8.75 4.328 2.438 2.875 3.656 6.82 3.656 11.828 0 4.906-1.47 9.36-4.406 13.36-2.93 4-6.61 6-11.047 6-1.375 0-2.57-.172-3.578-.516-1.562-.508-3.012-1.453-4.344-2.828v12.03c0 2.477.406 4 1.22 4.563s2.578.94 5.297 1.14v1.297H.328zm0 0" class="J"/></symbol><symbol id="D" class="Q"><path d="M17.266-34.53c3.457 0 6.488 1.2 9.094 3.594s3.906 5.79 3.906 10.172H6.89c.238 5.7 1.523 9.852 3.86 12.453 2.332 2.594 5.094 3.89 8.28 3.89 2.57 0 4.742-.672 6.516-2.016 1.77-1.352 3.398-3.27 4.89-5.75l1.297.438c-1.012 3.125-2.898 6.016-5.656 8.672C23.316-.43 19.938.89 15.938.89 11.32.89 7.754-.852 5.234-4.344c-2.512-3.488-3.766-7.5-3.766-12.03 0-4.937 1.457-9.195 4.375-12.78 2.926-3.582 6.734-5.375 11.422-5.375zm-2.14 2.688c-2.793 0-4.93 1.242-6.406 3.72-.78 1.324-1.344 2.992-1.687 5h15.53c-.273-2.445-.734-4.273-1.39-5.484-1.21-2.156-3.227-3.234-6.047-3.234zm1.656-2.687zm0 0" class="J"/></symbol><filter height="1" width="1" y="0" x="0" id="E"><feColorMatrix values="0 0 0 0 1 0 0 0 0 1 0 0 0 0 1 0 0 0 1 0" in="SourceGraphic"/></filter><mask id="AO"><path d="M0 0h496.36v130.61H0z" class="J L M K"/></mask><clipPath id="AP"><path d="M.375.57h36.38v55.066H.375zm0 0"/></clipPath><clipPath id="AQ"><path d="M0 0h37v56H0z"/></clipPath><g clip-path="url(#AQ)"><g clip-path="url(#AP)" id="AR"><path d="M25.863 55.637H.375l10.89-27.535L.375.57h25.488l10.89 27.53zm0 0" class="J N O P"/></g></g><mask id="AS"><path d="M0 0h496.36v130.61H0z" class="J L M K"/></mask><clipPath id="AT"><path d="M.703.57h36.38v55.066H.703zm0 0"/></clipPath><clipPath id="AU"><path d="M0 0h38v56H0z"/></clipPath><g clip-path="url(#AU)"><g clip-path="url(#AT)" id="AV"><path d="M26.19 55.637H.703l10.89-27.535L.703.57H26.19L37.08 28.1zm0 0" class="J N O P"/></g></g><mask id="AW"><path d="M0 0h496.36v130.61H0z" class="J L M K"/></mask><clipPath id="AX"><path d="M.03.57H36.4v55.066H.03zm0 0"/></clipPath><clipPath id="AY"><path d="M0 0h37v56H0z"/></clipPath><g clip-path="url(#AY)"><g clip-path="url(#AX)" id="AZ"><path d="M25.52 55.637H.03l10.89-27.535L.03.57h25.49L36.41 28.1zm0 0" class="J N O P"/></g></g><mask id="Aa"><path d="M0 0h496.36v130.61H0z" class="J L M K"/></mask><clipPath id="Ab"><path d="M.355.57h36.38v55.066H.355zm0 0"/></clipPath><clipPath id="Ac"><path d="M0 0h37v56H0z"/></clipPath><g clip-path="url(#Ac)"><g clip-path="url(#Ab)" id="Ad"><path d="M25.844 55.637H.355l10.89-27.535L.355.57h25.488L36.738 28.1zm0 0" class="J N O P"/></g></g><mask id="Ae"><path d="M0 0h496.36v130.61H0z" class="J L M K"/></mask><clipPath id="Af"><path d="M.684.57h36.38v55.066H.684zm0 0"/></clipPath><clipPath id="Ag"><path d="M0 0h38v56H0z"/></clipPath><g clip-path="url(#Ag)"><g clip-path="url(#Af)" id="Ah"><path d="M26.172 55.637H.684l10.89-27.535L.684.57h25.488l10.89 27.53zm0 0" class="J N O P"/></g></g><mask id="Ai"><path d="M0 0h496.36v130.61H0z" class="J L M K"/></mask><clipPath id="Aj"><path d="M.012.57h36.38v55.066H.012zm0 0"/></clipPath><clipPath id="Ak"><path d="M0 0h37v56H0z"/></clipPath><g clip-path="url(#Ak)"><g clip-path="url(#Aj)" id="Al"><path d="M25.5 55.637H.012l10.89-27.535L.012.57H25.5L36.39 28.1zm0 0" class="J N O P"/></g></g><path id="Am" d="M293.504 73.164a4.31 4.31 0 1 1-8.621 0 4.31 4.31 0 1 1 8.621 0zm0 0"/></defs><g transform="translate(-171.375 -27.23)"><use mask="url(#AO)" xlink:href="#AR" x="171" y="36"/><use mask="url(#AS)" xlink:href="#AV" x="203" y="36"/><use mask="url(#AW)" xlink:href="#AZ" x="236" y="36"/><use mask="url(#Aa)" xlink:href="#Ad" x="268" y="36"/><use mask="url(#Ae)" xlink:href="#Ah" x="300" y="36"/><use mask="url(#Ai)" xlink:href="#Al" x="333" y="36"/><g stroke-width=".5" class="D E"><path d="M282.88 53.383l.125.078c.035.023.094.055.13.074l.125.066.13.06.13.043.13.027.125.008c.035 0 .094-.004.13-.008a1.49 1.49 0 0 0 .129-.023.988.988 0 0 0 .13-.04c.03-.016.1-.04.125-.055l.13-.066.125-.074.258-.156.125-.078.13-.066c.035-.02.094-.043.13-.06a.79.79 0 0 1 .125-.043.661.661 0 0 1 .13-.03l.13-.012.13.004c.03.004.1.016.125.023a.81.81 0 0 1 .129.039c.035.012.1.035.13.05l.125.063c.035.023.094.055.13.074s.1.055.125.078l.258.156.13.07.125.06a1.71 1.71 0 0 0 .129.047c.035.012.1.023.125.03s.094.012.13.016l.13-.004c.035 0 .1-.012.125-.02l.13-.035a1.76 1.76 0 0 0 .129-.051l.13-.062.125-.074.13-.074.13-.078.125-.078.13-.07a1.31 1.31 0 0 1 .129-.062l.125-.05.13-.03c.035-.008.1-.016.125-.02h.13l.13.02a.73.73 0 0 1 .125.031c.04.012.094.035.13.05l.13.063a2.02 2.02 0 0 1 .129.066c.03.023.1.06.125.078l.258.156.125.074.13.063.125.05.13.035a1.47 1.47 0 0 0 .129.02c.035.004.1.004.125.004l.13-.016.13-.03.13-.047.125-.06.13-.07.13-.074c.03-.023.1-.06.125-.078l.13-.078c.035-.023.1-.055.13-.074l.125-.066.13-.05c.035-.016.1-.03.13-.04l.125-.023c.035-.004.094-.004.13-.004s.1.004.13.012.1.02.125.027l.13.047c.035.012.1.04.13.06s.1.047.125.066l.13.074.125.082c.04.02.094.055.13.074a1.09 1.09 0 0 0 .129.074l.13.066a.87.87 0 0 0 .125.055l.13.043.13.023.125.008c.035 0 .094-.004.13-.008l.13-.027.125-.043c.035-.012.094-.04.13-.055l.125-.07a.837.837 0 0 0 .13-.074l.13-.078-.07 23.035c0 2.285-2.812 4.133-6.28 4.133s-6.28-1.848-6.28-4.133zm0 0" fill="#eb1923" class="R"/><path d="M282.88 53.566v-8.242m12.632 8.246v-8.246" class="B"/><g class="R"><path d="M295.285 42.027l-12.03-5.223 4.016-9.246 12.03 5.227zm0 0" fill="#0070ba"/><path d="M289.293 28.438l-3.027 6.97m6.218-5.584l-3.023 6.97m6.22-5.584l-3.027 6.973m1.43-7.663l-3.027 6.97m6.222-5.584l-3.027 6.97m-3.36-9.743l-3.027 6.97" class="B"/></g></g><path d="M292.965 73.164a3.77 3.77 0 1 1-7.543 0c0-2.082 1.688-3.773 3.773-3.773s3.77 1.69 3.77 3.773" fill="#fffa91"/><path d="M292.965 73.164a3.77 3.77 0 0 1-7.543 0c0-2.082 1.688-3.773 3.773-3.773s3.77 1.69 3.77 3.773zm0 0" stroke="#009145" class="B C D"/><path d="M290.79 73.195c1.04-3.008-.715-3.008-1.598-3.008s-2.63 0-1.594 3.008c.523 1.516.715 3.004 1.594 3.004s1.074-1.488 1.598-3.004" fill="#ccebee"/><g class="B C D"><path d="M290.79 73.195c1.04-3.008-.715-3.008-1.598-3.008s-2.63 0-1.594 3.008c.523 1.516.715 3.004 1.594 3.004s1.074-1.488 1.598-3.004zm0 0" stroke="#006635"/><path d="M288.855 74.73c-.25-.293-.5-.582-.5-.918m0 .001c0-.336.25-.63.5-.922m0-.001c.25-.293.5-.582.5-.918m0 .001c0-.336-.25-.63-.5-.922m.75 3.68c-.25-.293-.5-.582-.5-.918m0 .001c0-.336.25-.63.5-.922m0-.001c.25-.3.5-.582.5-.918m0 .001c0-.336-.25-.63-.5-.922" stroke="red"/><use xlink:href="#Am" stroke="#970c38"/></g><path d="M289.426 69.203h-.46v-.996h.46zm0 0" class="C E F G H"/><path d="M289.953 68.12c0 .21-.34.387-.758.387s-.762-.176-.762-.387.34-.39.762-.39.758.176.758.39" class="I"/><g class="C E"><path d="M289.953 68.12c0 .21-.34.387-.758.387s-.762-.176-.762-.387.34-.39.762-.39.758.176.758.39zm0 0" class="B D"/><path d="M287.793 69.45l-.422.188-.406-.9.422-.187zm0 0" class="F G H"/></g><path d="M287.836 68.246c.086.195-.152.492-.535.664s-.766.148-.852-.047.152-.492.535-.66.766-.152.852.043" class="I"/><g class="C E"><path d="M287.836 68.246c.086.195-.152.492-.535.664s-.766.148-.852-.047.152-.492.535-.66.766-.152.852.043zm0 0" class="B D"/><path d="M286.402 70.34l-.31.344-.738-.664.31-.344zm0 0" class="F G H"/></g><path d="M285.953 69.223c.16.145.063.512-.22.824s-.637.45-.797.305-.062-.512.22-.824.637-.445.797-.305" class="I"/><g class="C E"><path d="M285.953 69.223c.16.145.063.512-.22.824s-.637.45-.797.305-.062-.512.22-.824.637-.445.797-.305zm0 0" class="B D"/><path d="M285.496 71.72l-.14.44-.95-.31.145-.437zm0 0" class="F G H"/></g><path d="M284.633 70.883c.203.066.262.44.133.84s-.398.668-.602.605-.266-.445-.137-.844.398-.668.605-.602" class="I"/><g class="C E"><path d="M284.633 70.883c.203.066.262.44.133.84s-.398.668-.602.605-.266-.445-.137-.844.398-.668.605-.602zm0 0" class="B D"/><path d="M285.23 73.348l.047.46-.988.102-.05-.457zm0 0" class="F G H"/></g><path d="M284.098 72.938c.215-.023.422.297.465.71s-.094.773-.305.797-.422-.297-.465-.715.094-.773.305-.793" class="I"/><g class="C E"><path d="M284.098 72.938c.215-.023.422.297.465.71s-.094.773-.305.797-.422-.297-.465-.715.094-.773.305-.793zm0 0" class="B D"/><path d="M285.648 74.945l.23.398-.863.496-.23-.398zm0 0" class="F G H"/></g><path d="M284.445 75.027c.188-.105.508.102.72.465s.227.742.043.852-.508-.102-.72-.465-.227-.742-.043-.852" class="I"/><g class="C E"><path d="M284.445 75.027c.188-.105.508.102.72.465s.227.742.043.852-.508-.102-.72-.465-.227-.742-.043-.852zm0 0" class="B D"/><path d="M286.68 76.234l.37.27-.586.805-.37-.27zm0 0" class="F G H"/></g><path d="M285.613 76.797c.13-.172.504-.113.844.133s.512.586.387.762-.504.113-.844-.133-.512-.6-.387-.762" class="I"/><g class="C E"><path d="M285.613 76.797c.13-.172.504-.113.844.133s.512.586.387.762-.504.113-.844-.133-.512-.6-.387-.762zm0 0" class="B D"/><path d="M288.145 76.992l.45.094-.207.973-.45-.094zm0 0" class="F G H"/></g><path d="M287.402 77.938c.043-.207.414-.31.824-.22s.707.324.66.535-.4.31-.82.223-.707-.328-.664-.54" class="I"/><g class="C E"><path d="M287.402 77.938c.043-.207.414-.31.824-.22s.707.324.66.535-.4.31-.82.223-.707-.328-.664-.54zm0 0" class="B D"/><path d="M289.793 77.086l.45-.094.207.973-.45.094zm0 0" class="F G H"/></g><path d="M289.5 78.254c-.043-.21.25-.45.66-.535s.78.012.824.22-.25.45-.66.54-.78-.012-.824-.223" class="I"/><g class="C E"><path d="M289.5 78.254c-.043-.21.25-.45.66-.535s.78.012.824.22-.25.45-.66.54-.78-.012-.824-.223zm0 0" class="B D"/><path d="M291.336 76.504l.37-.27.586.805-.37.27zm0 0" class="F G H"/></g><path d="M291.543 77.69c-.125-.176.047-.516.387-.762s.72-.305.844-.133-.047.516-.387.762-.72.305-.844.133" class="I"/><g class="C E"><path d="M291.543 77.69c-.125-.176.047-.516.387-.762s.72-.305.844-.133-.047.516-.387.762-.72.305-.844.133zm0 0" class="B D"/><path d="M292.508 75.344l.234-.398.86.496-.23.402zm0 0" class="F G H"/></g><path d="M293.184 76.344c-.187-.11-.168-.488.043-.852s.53-.57.715-.465.164.488-.043.852-.53.57-.715.465" class="I"/><g class="C E"><path d="M293.184 76.344c-.187-.11-.168-.488.043-.852s.53-.57.715-.465.164.488-.043.852-.53.57-.715.465zm0 0" class="B D"/><path d="M293.11 73.81l.047-.46.992.105-.047.457zm0 0" class="F G H"/></g><path d="M294.13 74.445c-.21-.023-.352-.38-.305-.797s.254-.734.465-.715.352.383.305.797-.25.738-.465.715" class="I"/><g class="C E"><path d="M294.13 74.445c-.21-.023-.352-.38-.305-.797s.254-.734.465-.715.352.383.305.797-.25.738-.465.715zm0 0" class="B D"/><path d="M293.03 72.156l-.14-.437.945-.31.145.44zm0 0" class="F G H"/></g><path d="M294.227 72.328c-.207.066-.477-.203-.605-.602s-.07-.777.133-.844.477.203.605.602.07.777-.133.844" class="I"/><g class="C E"><path d="M294.227 72.328c-.207.066-.477-.203-.605-.602s-.07-.777.133-.844.477.203.605.602.07.777-.133.844zm0 0" class="B D"/><path d="M292.293 70.684l-.31-.344.738-.664.31.344zm0 0" class="F G H"/></g><path d="M293.45 70.352c-.16.145-.516.008-.797-.305s-.38-.68-.22-.824.516-.004.797.305.38.684.22.824" class="I"/><g class="C E"><path d="M293.45 70.352c-.16.145-.516.008-.797-.305s-.38-.68-.22-.824.516-.004.797.305.38.684.22.824zm0 0" class="B D"/><path d="M291.016 69.637l-.422-.187.406-.9.422.19zm0 0" class="F G H"/></g><path d="M291.938 68.863c-.086.2-.47.22-.852.047s-.62-.47-.535-.664.47-.215.852-.047.625.47.535.664" class="I"/><path d="M291.938 68.863c-.086.2-.47.22-.852.047s-.62-.47-.535-.664.47-.215.852-.047.625.47.535.664zm0 0" class="B C D E"/><path d="M293.066 60.47a3.774 3.774 0 1 1-7.544-.002 3.774 3.774 0 0 1 7.544.002" fill="#8cf5e6"/><path d="M293.066 60.47a3.774 3.774 0 1 1-7.544-.002 3.774 3.774 0 0 1 7.544.002zm0 0" stroke="#009145" class="B C D"/><path d="M290.887 60.5c1.04-3.004-.715-3.004-1.594-3.004s-2.633 0-1.594 3.004c.52 1.516.71 3.008 1.594 3.008s1.07-1.492 1.594-3.008" fill="#ccebee"/><g class="B C D"><path d="M290.887 60.5c1.04-3.004-.715-3.004-1.594-3.004s-2.633 0-1.594 3.004c.52 1.516.71 3.008 1.594 3.008s1.07-1.492 1.594-3.008zm0 0" stroke="#006635"/><path d="M288.953 62.04c-.25-.293-.496-.586-.496-.922m0-.001c0-.336.25-.625.496-.918m0 .001c.25-.293.5-.586.5-.922m0-.001c0-.336-.25-.625-.5-.918m.75 3.68c-.25-.293-.5-.586-.5-.922m0-.001c0-.336.25-.625.5-.918m0 .001c.25-.293.5-.586.5-.922m0-.001c0-.336-.25-.625-.5-.918" stroke="red"/><use xlink:href="#Am" x=".098" y="-12.694" stroke="#970c38"/></g><path d="M289.523 56.508h-.46v-.996h.46zm0 0" class="C E F G H"/><path d="M290.05 55.426c0 .215-.34.387-.758.387s-.758-.172-.758-.387.34-.387.758-.387.758.172.758.387" class="I"/><g class="C E"><path d="M290.05 55.426c0 .215-.34.387-.758.387s-.758-.172-.758-.387.34-.387.758-.387.758.172.758.387zm0 0" class="B D"/><path d="M287.89 56.754l-.422.19-.402-.9.422-.187zm0 0" class="F G H"/></g><path d="M287.934 55.555c.086.195-.152.492-.535.66s-.766.152-.852-.043.152-.496.535-.664.766-.152.852.047" class="I"/><g class="C E"><path d="M287.934 55.555c.086.195-.152.492-.535.66s-.766.152-.852-.043.152-.496.535-.664.766-.152.852.047zm0 0" class="B D"/><path d="M286.504 57.648l-.31.34-.742-.664.31-.344zm0 0" class="F G H"/></g><path d="M286.05 56.53c.16.14.063.512-.22.824s-.637.445-.797.305-.06-.516.223-.824.637-.45.793-.305" class="I"/><g class="C E"><path d="M286.05 56.53c.16.14.062.512-.22.824s-.637.445-.797.305-.06-.516.223-.824.637-.45.793-.305zm0 0" class="B D"/><path d="M285.594 59.023l-.14.44-.945-.31.14-.437zm0 0" class="F G H"/></g><path d="M284.73 58.188c.203.066.266.445.133.844s-.398.668-.602.602-.266-.44-.137-.844.402-.668.605-.602" class="I"/><g class="C E"><path d="M284.73 58.188c.203.066.266.445.133.844s-.398.668-.602.602-.266-.44-.137-.844.402-.668.605-.602zm0 0" class="B D"/><path d="M285.328 60.652l.047.46-.988.102-.047-.457zm0 0" class="F G H"/></g><path d="M284.195 60.242c.215-.023.422.297.47.715s-.094.773-.31.793-.422-.297-.465-.715.094-.773.305-.793" class="I"/><g class="C E"><path d="M284.195 60.242c.215-.023.422.297.47.715s-.094.773-.31.793-.422-.297-.465-.715.094-.773.305-.793zm0 0" class="B D"/><path d="M285.746 62.25l.23.398-.863.5-.23-.402zm0 0" class="F G H"/></g><path d="M284.543 62.332c.188-.105.508.102.72.465s.227.746.043.852-.508-.102-.72-.465-.227-.742-.043-.852" class="I"/><g class="C E"><path d="M284.543 62.332c.188-.105.508.102.72.465s.227.746.043.852-.508-.102-.72-.465-.227-.742-.043-.852zm0 0" class="B D"/><path d="M286.777 63.54l.37.27-.582.805-.375-.27zm0 0" class="F G H"/></g><path d="M285.715 64.102c.125-.172.5-.113.84.133s.512.6.387.762-.504.113-.844-.133-.512-.586-.383-.762" class="I"/><g class="C E"><path d="M285.715 64.102c.125-.172.5-.113.84.133s.512.6.387.762-.504.113-.844-.133-.512-.586-.383-.762zm0 0" class="B D"/><path d="M288.242 64.297l.453.098-.207.973-.453-.098zm0 0" class="F G H"/></g><path d="M287.5 65.246c.047-.21.414-.31.824-.223s.707.328.66.535-.4.31-.82.223-.707-.328-.664-.535" class="I"/><g class="C E"><path d="M287.5 65.246c.047-.21.414-.31.824-.223s.707.328.66.535-.4.31-.82.223-.707-.328-.664-.535zm0 0" class="B D"/><path d="M289.89 64.395l.45-.098.207.973-.45.098zm0 0" class="F G H"/></g><path d="M289.598 65.56c-.043-.207.25-.45.66-.535s.78.012.824.223-.25.45-.66.535-.777-.012-.824-.223" class="I"/><g class="C E"><path d="M289.598 65.56c-.043-.207.25-.45.66-.535s.78.012.824.223-.25.45-.66.535-.777-.012-.824-.223zm0 0" class="B D"/><path d="M291.434 63.81l.375-.27.582.805-.37.27zm0 0" class="F G H"/></g><path d="M291.64 64.996c-.125-.176.05-.516.387-.762s.72-.305.844-.133-.047.516-.387.762-.715.305-.844.133" class="I"/><g class="C E"><path d="M291.64 64.996c-.125-.176.05-.516.387-.762s.72-.305.844-.133-.047.516-.387.762-.715.305-.844.133zm0 0" class="B D"/><path d="M292.61 62.648l.23-.398.86.496-.23.402zm0 0" class="F G H"/></g><path d="M293.28 63.648c-.187-.105-.168-.488.043-.852s.53-.57.715-.465.168.488-.043.852-.53.57-.715.465" class="I"/><g class="C E"><path d="M293.28 63.648c-.187-.105-.168-.488.043-.852s.53-.57.715-.465.168.488-.043.852-.53.57-.715.465zm0 0" class="B D"/><path d="M293.207 61.113l.05-.46.988.105-.047.457zm0 0" class="F G H"/></g><path d="M294.23 61.75c-.215-.02-.352-.375-.31-.793s.254-.738.465-.715.352.38.31.797-.254.734-.465.71" class="I"/><g class="C E"><path d="M294.23 61.75c-.215-.02-.352-.375-.31-.793s.254-.738.465-.715.352.38.31.797-.254.734-.465.71zm0 0" class="B D"/><path d="M293.133 59.465l-.145-.437.95-.31.14.438zm0 0" class="F G H"/></g><path d="M294.324 59.633c-.203.066-.477-.203-.605-.602s-.066-.777.137-.844.473.203.602.602.07.777-.133.844" class="I"/><g class="C E"><path d="M294.324 59.633c-.203.066-.477-.203-.605-.602s-.066-.777.137-.844.473.203.602.602.07.777-.133.844zm0 0" class="B D"/><path d="M292.39 57.988l-.31-.344.738-.664.313.344zm0 0" class="F G H"/></g><path d="M293.547 57.66c-.156.14-.516.004-.793-.305s-.38-.684-.223-.824.516-.008.797.305.38.68.22.824" class="I"/><g class="C E"><path d="M293.547 57.66c-.156.14-.516.004-.793-.305s-.38-.684-.223-.824.516-.008.797.305.38.68.22.824zm0 0" class="B D"/><path d="M291.113 56.945l-.422-.187.406-.9.422.188zm0 0" class="F G H"/></g><path d="M292.04 56.172c-.1.195-.47.215-.852.043s-.625-.465-.54-.66.47-.22.852-.047.625.47.54.664" class="I"/><path d="M292.04 56.172c-.1.195-.47.215-.852.043s-.625-.465-.54-.66.47-.22.852-.047.625.47.54.664zm0 0" class="B C D E"/><use y="80.438" x="170.33" xlink:href="#A"/><use y="80.438" x="217.854" xlink:href="#B"/><use y="80.438" x="242.958" xlink:href="#C"/><use y="80.438" x="280.651" xlink:href="#L"/><use y="80.438" x="299.498" xlink:href="#C"/><use y="80.438" x="337.191" xlink:href="#D"/></g></svg>