<?xml version="1.0" encoding="utf-8"?>
<!-- Generator: Adobe Illustrator 16.0.4, SVG Export Plug-In . SVG Version: 6.00 Build 0)  -->
<!DOCTYPE svg PUBLIC "-//W3C//DTD SVG 1.1//EN" "http://www.w3.org/Graphics/SVG/1.1/DTD/svg11.dtd">
<svg version="1.1" id="Layer_1" xmlns="http://www.w3.org/2000/svg" xmlns:xlink="http://www.w3.org/1999/xlink" x="0px" y="0px"
	 width="213.667px" height="82.94px" viewBox="0 0 213.667 82.94" enable-background="new 0 0 213.667 82.94" xml:space="preserve">
<g opacity="0.6">
	<circle fill="#6DF7AB" stroke="#009245" stroke-width="0.5" stroke-miterlimit="10" cx="52.34" cy="17.88" r="10.963"/>
	<path fill="#CEEBEF" stroke="#006837" stroke-width="0.5" stroke-miterlimit="10" d="M56.975,17.973
		c3.015-8.734-2.075-8.734-4.635-8.734c-2.56,0-7.65,0-4.635,8.734c1.521,4.406,2.076,8.733,4.635,8.733
		C54.9,26.707,55.455,22.379,56.975,17.973z"/>
	<g>
		<path fill="none" stroke="#FF0000" stroke-width="0.5" stroke-miterlimit="10" d="M51.359,22.437
			c-0.726-0.851-1.452-1.696-1.452-2.672"/>
		<path fill="none" stroke="#FF0000" stroke-width="0.5" stroke-miterlimit="10" d="M49.907,19.765c0-0.976,0.726-1.822,1.452-2.672
			"/>
		<path fill="none" stroke="#FF0000" stroke-width="0.5" stroke-miterlimit="10" d="M51.359,17.093
			c0.726-0.851,1.452-1.697,1.452-2.673"/>
		<path fill="none" stroke="#FF0000" stroke-width="0.5" stroke-miterlimit="10" d="M52.811,14.42c0-0.976-0.726-1.821-1.452-2.672"
			/>
	</g>
	<g>
		<path fill="none" stroke="#FF0000" stroke-width="0.5" stroke-miterlimit="10" d="M53.536,22.437
			c-0.726-0.851-1.452-1.696-1.452-2.672"/>
		<path fill="none" stroke="#FF0000" stroke-width="0.5" stroke-miterlimit="10" d="M52.084,19.765c0-0.976,0.726-1.822,1.452-2.672
			"/>
		<path fill="none" stroke="#FF0000" stroke-width="0.5" stroke-miterlimit="10" d="M53.536,17.093
			c0.726-0.851,1.452-1.697,1.452-2.673"/>
		<path fill="none" stroke="#FF0000" stroke-width="0.5" stroke-miterlimit="10" d="M54.988,14.42c0-0.976-0.726-1.821-1.452-2.672"
			/>
	</g>
	<circle fill="none" stroke="#990E39" stroke-width="0.5" stroke-miterlimit="10" cx="52.34" cy="17.88" r="12.522"/>
	<g>
		
			<rect x="51.67" y="3.476" fill="#112299" stroke="#000000" stroke-width="0.5" stroke-linejoin="round" stroke-miterlimit="2" width="1.34" height="2.893"/>
		
			<ellipse fill="#63C1CE" stroke="#000000" stroke-width="0.5" stroke-miterlimit="10" cx="52.34" cy="3.226" rx="2.206" ry="1.127"/>
	</g>
	<g>
		
			<rect x="46.399" y="4.596" transform="matrix(0.9136 -0.4067 0.4067 0.9136 1.6108 19.6642)" fill="#112299" stroke="#000000" stroke-width="0.5" stroke-linejoin="round" stroke-miterlimit="2" width="1.34" height="2.893"/>
		
			<ellipse transform="matrix(0.9135 -0.4068 0.4068 0.9135 2.1826 19.2533)" fill="#63C1CE" stroke="#000000" stroke-width="0.5" stroke-miterlimit="10" cx="46.379" cy="4.493" rx="2.206" ry="1.128"/>
	</g>
	<g>
		
			<rect x="42.04" y="7.763" transform="matrix(0.6692 -0.7431 0.7431 0.6692 7.2861 34.785)" fill="#112299" stroke="#000000" stroke-width="0.5" stroke-linejoin="round" stroke-miterlimit="2" width="1.34" height="2.892"/>
		
			<ellipse transform="matrix(0.6691 -0.7432 0.7432 0.6691 7.7158 33.4772)" fill="#63C1CE" stroke="#000000" stroke-width="0.5" stroke-miterlimit="10" cx="41.449" cy="8.075" rx="2.206" ry="1.127"/>
	</g>
	<g>
		
			<rect x="39.345" y="12.43" transform="matrix(0.309 -0.9511 0.9511 0.309 14.4536 47.6453)" fill="#112299" stroke="#000000" stroke-width="0.5" stroke-linejoin="round" stroke-miterlimit="2" width="1.34" height="2.892"/>
		
			<ellipse transform="matrix(0.309 -0.951 0.951 0.309 13.8355 45.7476)" fill="#63C1CE" stroke="#000000" stroke-width="0.5" stroke-miterlimit="10" cx="38.402" cy="13.352" rx="2.206" ry="1.128"/>
	</g>
	<g>
		
			<rect x="38.782" y="17.789" transform="matrix(-0.1042 -0.9946 0.9946 -0.1042 24.4326 60.4764)" fill="#112299" stroke="#000000" stroke-width="0.5" stroke-linejoin="round" stroke-miterlimit="2" width="1.34" height="2.892"/>
		
			<ellipse transform="matrix(-0.1046 -0.9945 0.9945 -0.1046 22.408 59.0012)" fill="#63C1CE" stroke="#000000" stroke-width="0.5" stroke-miterlimit="10" cx="37.765" cy="19.413" rx="2.206" ry="1.128"/>
	</g>
	<g>
		
			<rect x="40.447" y="22.914" transform="matrix(-0.5 -0.866 0.866 -0.5 40.5801 72.1481)" fill="#112299" stroke="#000000" stroke-width="0.5" stroke-linejoin="round" stroke-miterlimit="2" width="1.341" height="2.892"/>
		
			<ellipse transform="matrix(-0.5001 -0.866 0.866 -0.5001 37.6444 72.149)" fill="#63C1CE" stroke="#000000" stroke-width="0.5" stroke-miterlimit="10" cx="39.648" cy="25.208" rx="2.206" ry="1.127"/>
	</g>
	<g>
		
			<rect x="44.053" y="26.918" transform="matrix(-0.8088 -0.588 0.588 -0.8088 64.2163 77.6049)" fill="#112299" stroke="#000000" stroke-width="0.5" stroke-linejoin="round" stroke-miterlimit="2" width="1.34" height="2.892"/>
		
			<ellipse transform="matrix(-0.8091 -0.5877 0.5877 -0.8091 61.6294 79.4939)" fill="#63C1CE" stroke="#000000" stroke-width="0.5" stroke-miterlimit="10" cx="43.726" cy="29.737" rx="2.206" ry="1.128"/>
	</g>
	<g>
		
			<rect x="48.975" y="29.11" transform="matrix(-0.9782 -0.2077 0.2077 -0.9782 91.8629 70.7557)" fill="#112299" stroke="#000000" stroke-width="0.5" stroke-linejoin="round" stroke-miterlimit="2" width="1.34" height="2.892"/>
		
			<ellipse transform="matrix(-0.9782 -0.2076 0.2076 -0.9782 90.8215 73.9636)" fill="#63C1CE" stroke="#000000" stroke-width="0.5" stroke-miterlimit="10" cx="49.292" cy="32.215" rx="2.206" ry="1.127"/>
	</g>
	<g>
		
			<rect x="54.364" y="29.11" transform="matrix(-0.9782 0.2077 -0.2077 -0.9782 115.2144 49.0132)" fill="#112299" stroke="#000000" stroke-width="0.5" stroke-linejoin="round" stroke-miterlimit="2" width="1.34" height="2.892"/>
		
			<ellipse transform="matrix(-0.9781 0.2081 -0.2081 -0.9781 116.2641 52.2004)" fill="#63C1CE" stroke="#000000" stroke-width="0.5" stroke-miterlimit="10" cx="55.386" cy="32.215" rx="2.206" ry="1.127"/>
	</g>
	<g>
		
			<rect x="59.286" y="26.918" transform="matrix(-0.8093 0.5874 -0.5874 -0.8093 125.14 16.1017)" fill="#112299" stroke="#000000" stroke-width="0.5" stroke-linejoin="round" stroke-miterlimit="2" width="1.34" height="2.892"/>
		
			<ellipse transform="matrix(-0.8089 0.5879 -0.5879 -0.8089 127.7436 17.9565)" fill="#63C1CE" stroke="#000000" stroke-width="0.5" stroke-miterlimit="10" cx="60.954" cy="29.737" rx="2.206" ry="1.128"/>
	</g>
	<g>
		
			<rect x="62.892" y="22.914" transform="matrix(-0.4997 0.8662 -0.8662 -0.4997 116.427 -18.5215)" fill="#112299" stroke="#000000" stroke-width="0.5" stroke-linejoin="round" stroke-miterlimit="2" width="1.341" height="2.893"/>
		
			<ellipse transform="matrix(-0.5001 0.866 -0.866 -0.5001 119.3815 -18.5017)" fill="#63C1CE" stroke="#000000" stroke-width="0.5" stroke-miterlimit="10" cx="65.031" cy="25.208" rx="2.206" ry="1.128"/>
	</g>
	<g>
		
			<rect x="64.557" y="17.789" transform="matrix(-0.1046 0.9945 -0.9945 -0.1046 91.1766 -43.6231)" fill="#112299" stroke="#000000" stroke-width="0.5" stroke-linejoin="round" stroke-miterlimit="2" width="1.34" height="2.892"/>
		
			<ellipse transform="matrix(-0.1045 0.9945 -0.9945 -0.1045 93.2119 -45.1065)" fill="#63C1CE" stroke="#000000" stroke-width="0.5" stroke-miterlimit="10" cx="66.914" cy="19.413" rx="2.206" ry="1.127"/>
	</g>
	<g>
		
			<rect x="63.994" y="12.43" transform="matrix(0.3093 0.951 -0.951 0.3093 57.8574 -51.9088)" fill="#112299" stroke="#000000" stroke-width="0.5" stroke-linejoin="round" stroke-miterlimit="2" width="1.34" height="2.892"/>
		
			<ellipse transform="matrix(0.309 0.951 -0.951 0.309 58.493 -53.8072)" fill="#63C1CE" stroke="#000000" stroke-width="0.5" stroke-miterlimit="10" cx="66.277" cy="13.352" rx="2.206" ry="1.128"/>
	</g>
	<g>
		
			<rect x="61.3" y="7.763" transform="matrix(0.6695 0.7428 -0.7428 0.6695 27.32 -42.987)" fill="#112299" stroke="#000000" stroke-width="0.5" stroke-linejoin="round" stroke-miterlimit="2" width="1.34" height="2.893"/>
		
			<ellipse transform="matrix(0.6691 0.7432 -0.7432 0.6691 26.9265 -44.321)" fill="#63C1CE" stroke="#000000" stroke-width="0.5" stroke-miterlimit="10" cx="63.23" cy="8.075" rx="2.206" ry="1.127"/>
	</g>
	<g>
		
			<rect x="56.94" y="4.596" transform="matrix(0.9136 0.4067 -0.4067 0.9136 7.4366 -22.9067)" fill="#112299" stroke="#000000" stroke-width="0.5" stroke-linejoin="round" stroke-miterlimit="2" width="1.34" height="2.893"/>
		
			<ellipse transform="matrix(0.9135 0.4068 -0.4068 0.9135 6.8707 -23.3301)" fill="#63C1CE" stroke="#000000" stroke-width="0.5" stroke-miterlimit="10" cx="58.3" cy="4.493" rx="2.206" ry="1.128"/>
	</g>
</g>
<g opacity="0.6">
	<circle fill="#FF8F8F" stroke="#009245" stroke-width="0.5" stroke-miterlimit="10" cx="195.83" cy="66.552" r="10.962"/>
	<path fill="#CEEBEF" stroke="#006837" stroke-width="0.5" stroke-miterlimit="10" d="M200.465,66.645
		c3.015-8.734-2.075-8.734-4.635-8.734s-7.65,0-4.635,8.734c1.521,4.406,2.075,8.733,4.635,8.733S198.944,71.051,200.465,66.645z"/>
	<g>
		<path fill="none" stroke="#FF0000" stroke-width="0.5" stroke-miterlimit="10" d="M194.849,71.108
			c-0.726-0.851-1.452-1.697-1.452-2.672"/>
		<path fill="none" stroke="#FF0000" stroke-width="0.5" stroke-miterlimit="10" d="M193.397,68.437
			c0-0.976,0.726-1.822,1.452-2.673"/>
		<path fill="none" stroke="#FF0000" stroke-width="0.5" stroke-miterlimit="10" d="M194.849,65.764
			c0.726-0.851,1.452-1.696,1.452-2.672"/>
		<path fill="none" stroke="#FF0000" stroke-width="0.5" stroke-miterlimit="10" d="M196.3,63.092c0-0.976-0.726-1.821-1.452-2.672"
			/>
	</g>
	<g>
		<path fill="none" stroke="#FF0000" stroke-width="0.5" stroke-miterlimit="10" d="M197.026,71.108
			c-0.726-0.851-1.452-1.697-1.452-2.672"/>
		<path fill="none" stroke="#FF0000" stroke-width="0.5" stroke-miterlimit="10" d="M195.574,68.437
			c0-0.976,0.726-1.822,1.452-2.673"/>
		<path fill="none" stroke="#FF0000" stroke-width="0.5" stroke-miterlimit="10" d="M197.026,65.764
			c0.726-0.851,1.452-1.696,1.452-2.672"/>
		<path fill="none" stroke="#FF0000" stroke-width="0.5" stroke-miterlimit="10" d="M198.478,63.092
			c0-0.976-0.726-1.821-1.452-2.672"/>
	</g>
	<circle fill="none" stroke="#990E39" stroke-width="0.5" stroke-miterlimit="10" cx="195.83" cy="66.552" r="12.522"/>
	<g>
		
			<rect x="195.16" y="52.147" fill="#112299" stroke="#000000" stroke-width="0.5" stroke-linejoin="round" stroke-miterlimit="2" width="1.34" height="2.892"/>
		
			<ellipse fill="#63C1CE" stroke="#000000" stroke-width="0.5" stroke-miterlimit="10" cx="195.83" cy="51.896" rx="2.206" ry="1.128"/>
	</g>
	<g>
		
			<rect x="189.889" y="53.267" transform="matrix(0.9133 -0.4073 0.4073 0.9133 -5.7626 82.356)" fill="#112299" stroke="#000000" stroke-width="0.5" stroke-linejoin="round" stroke-miterlimit="2" width="1.34" height="2.893"/>
		
			<ellipse transform="matrix(0.9135 -0.4068 0.4068 0.9135 -5.2056 81.8442)" fill="#63C1CE" stroke="#000000" stroke-width="0.5" stroke-miterlimit="10" cx="189.869" cy="53.164" rx="2.206" ry="1.127"/>
	</g>
	<g>
		
			<rect x="185.53" y="56.435" transform="matrix(0.669 -0.7433 0.7433 0.669 18.6162 157.5618)" fill="#112299" stroke="#000000" stroke-width="0.5" stroke-linejoin="round" stroke-miterlimit="2" width="1.34" height="2.892"/>
		
			<ellipse transform="matrix(0.6691 -0.7432 0.7432 0.6691 19.0229 156.2159)" fill="#63C1CE" stroke="#000000" stroke-width="0.5" stroke-miterlimit="10" cx="184.939" cy="56.746" rx="2.206" ry="1.128"/>
	</g>
	<g>
		
			<rect x="182.835" y="61.101" transform="matrix(0.309 -0.9511 0.9511 0.309 67.3152 217.7448)" fill="#112299" stroke="#000000" stroke-width="0.5" stroke-linejoin="round" stroke-miterlimit="2" width="1.34" height="2.893"/>
		
			<ellipse transform="matrix(0.309 -0.951 0.951 0.309 66.6915 215.8428)" fill="#63C1CE" stroke="#000000" stroke-width="0.5" stroke-miterlimit="10" cx="181.892" cy="62.023" rx="2.206" ry="1.128"/>
	</g>
	<g>
		
			<rect x="182.272" y="66.46" transform="matrix(-0.1046 -0.9945 0.9945 -0.1046 134.5348 256.9453)" fill="#112299" stroke="#000000" stroke-width="0.5" stroke-linejoin="round" stroke-miterlimit="2" width="1.34" height="2.892"/>
		
			<ellipse transform="matrix(-0.1046 -0.9945 0.9945 -0.1046 132.5014 255.4647)" fill="#63C1CE" stroke="#000000" stroke-width="0.5" stroke-miterlimit="10" cx="181.255" cy="68.083" rx="2.206" ry="1.128"/>
	</g>
	<g>
		
			<rect x="183.937" y="71.585" transform="matrix(-0.4997 -0.8662 0.8662 -0.4997 213.6061 269.4293)" fill="#112299" stroke="#000000" stroke-width="0.5" stroke-linejoin="round" stroke-miterlimit="2" width="1.341" height="2.892"/>
		
			<ellipse transform="matrix(-0.5 -0.866 0.866 -0.5 210.7194 269.4223)" fill="#63C1CE" stroke="#000000" stroke-width="0.5" stroke-miterlimit="10" cx="183.138" cy="73.879" rx="2.206" ry="1.128"/>
	</g>
	<g>
		
			<rect x="187.542" y="75.589" transform="matrix(-0.809 -0.5879 0.5879 -0.809 295.1815 249.9974)" fill="#112299" stroke="#000000" stroke-width="0.5" stroke-linejoin="round" stroke-miterlimit="2" width="1.341" height="2.892"/>
		
			<ellipse transform="matrix(-0.8092 -0.5876 0.5876 -0.8092 292.6355 251.8556)" fill="#63C1CE" stroke="#000000" stroke-width="0.5" stroke-miterlimit="10" cx="187.215" cy="78.408" rx="2.206" ry="1.128"/>
	</g>
	<g>
		
			<rect x="192.465" y="77.781" transform="matrix(-0.9782 -0.2077 0.2077 -0.9782 365.6072 196.8349)" fill="#112299" stroke="#000000" stroke-width="0.5" stroke-linejoin="round" stroke-miterlimit="2" width="1.34" height="2.892"/>
		
			<ellipse transform="matrix(-0.9782 -0.2076 0.2076 -0.9782 364.5686 200.0398)" fill="#63C1CE" stroke="#000000" stroke-width="0.5" stroke-miterlimit="10" cx="192.783" cy="80.887" rx="2.206" ry="1.127"/>
	</g>
	<g>
		
			<rect x="197.853" y="77.781" transform="matrix(-0.9782 0.2077 -0.2077 -0.9782 409.1718 115.502)" fill="#112299" stroke="#000000" stroke-width="0.5" stroke-linejoin="round" stroke-miterlimit="2" width="1.34" height="2.892"/>
		
			<ellipse transform="matrix(-0.9781 0.2081 -0.2081 -0.9781 410.2301 118.6245)" fill="#63C1CE" stroke="#000000" stroke-width="0.5" stroke-miterlimit="10" cx="198.876" cy="80.887" rx="2.206" ry="1.127"/>
	</g>
	<g>
		
			<rect x="202.776" y="75.589" transform="matrix(-0.8088 0.588 -0.588 -0.8088 413.3 19.7095)" fill="#112299" stroke="#000000" stroke-width="0.5" stroke-linejoin="round" stroke-miterlimit="2" width="1.34" height="2.892"/>
		
			<ellipse transform="matrix(-0.8089 0.5879 -0.5879 -0.8089 415.9205 21.6406)" fill="#63C1CE" stroke="#000000" stroke-width="0.5" stroke-miterlimit="10" cx="204.444" cy="78.408" rx="2.206" ry="1.128"/>
	</g>
	<g>
		
			<rect x="206.382" y="71.585" transform="matrix(-0.4997 0.8662 -0.8662 -0.4997 373.783 -69.815)" fill="#112299" stroke="#000000" stroke-width="0.5" stroke-linejoin="round" stroke-miterlimit="2" width="1.341" height="2.892"/>
		
			<ellipse transform="matrix(-0.4999 0.8661 -0.8661 -0.4999 376.7448 -69.7873)" fill="#63C1CE" stroke="#000000" stroke-width="0.5" stroke-miterlimit="10" cx="208.521" cy="73.879" rx="2.206" ry="1.127"/>
	</g>
	<g>
		
			<rect x="208.047" y="66.461" transform="matrix(-0.1046 0.9945 -0.9945 -0.1046 298.0737 -132.5669)" fill="#112299" stroke="#000000" stroke-width="0.5" stroke-linejoin="round" stroke-miterlimit="2" width="1.34" height="2.892"/>
		
			<ellipse transform="matrix(-0.1045 0.9945 -0.9945 -0.1045 300.0977 -134.0561)" fill="#63C1CE" stroke="#000000" stroke-width="0.5" stroke-miterlimit="10" cx="210.404" cy="68.083" rx="2.206" ry="1.128"/>
	</g>
	<g>
		
			<rect x="207.484" y="61.102" transform="matrix(0.3093 0.951 -0.951 0.3093 203.2452 -154.7451)" fill="#112299" stroke="#000000" stroke-width="0.5" stroke-linejoin="round" stroke-miterlimit="2" width="1.34" height="2.892"/>
		
			<ellipse transform="matrix(0.309 0.951 -0.951 0.309 203.927 -156.6435)" fill="#63C1CE" stroke="#000000" stroke-width="0.5" stroke-miterlimit="10" cx="209.768" cy="62.023" rx="2.206" ry="1.128"/>
	</g>
	<g>
		
			<rect x="204.79" y="56.435" transform="matrix(0.6692 0.7431 -0.7431 0.6692 110.9851 -133.5308)" fill="#112299" stroke="#000000" stroke-width="0.5" stroke-linejoin="round" stroke-miterlimit="2" width="1.34" height="2.892"/>
		
			<ellipse transform="matrix(0.6692 0.7431 -0.7431 0.6692 110.5411 -134.8345)" fill="#63C1CE" stroke="#000000" stroke-width="0.5" stroke-miterlimit="10" cx="206.72" cy="56.746" rx="2.206" ry="1.128"/>
	</g>
	<g>
		
			<rect x="200.43" y="53.267" transform="matrix(0.9136 0.4065 -0.4065 0.9136 39.6124 -77.0307)" fill="#112299" stroke="#000000" stroke-width="0.5" stroke-linejoin="round" stroke-miterlimit="2" width="1.34" height="2.893"/>
		
			<ellipse transform="matrix(0.9136 0.4066 -0.4066 0.9136 39.0513 -77.4568)" fill="#63C1CE" stroke="#000000" stroke-width="0.5" stroke-miterlimit="10" cx="201.79" cy="53.164" rx="2.206" ry="1.127"/>
	</g>
</g>
<g>
	<path fill="#ED1C24" stroke="#000000" stroke-width="0.5" stroke-linecap="round" stroke-miterlimit="10" d="M107.207,39.239
		c0,0,0.088,0.055,0.122,0.075c0.034,0.021,0.087,0.053,0.122,0.071c0.034,0.019,0.087,0.048,0.121,0.064
		c0.034,0.016,0.088,0.04,0.122,0.054c0.034,0.013,0.088,0.031,0.122,0.041s0.088,0.021,0.122,0.026
		c0.034,0.005,0.087,0.009,0.122,0.01c0.034,0,0.088-0.003,0.122-0.007s0.088-0.015,0.122-0.024
		c0.034-0.008,0.088-0.025,0.123-0.038c0.033-0.013,0.087-0.036,0.121-0.052c0.034-0.016,0.088-0.044,0.122-0.062
		c0.034-0.019,0.088-0.051,0.122-0.07c0.034-0.021,0.088-0.054,0.122-0.075c0.034-0.021,0.088-0.055,0.122-0.075
		c0.034-0.021,0.088-0.053,0.122-0.073c0.034-0.019,0.088-0.048,0.122-0.065c0.034-0.017,0.088-0.042,0.122-0.056
		c0.034-0.014,0.088-0.033,0.122-0.042s0.088-0.023,0.122-0.028s0.088-0.011,0.122-0.012s0.087,0.001,0.122,0.004
		c0.034,0.004,0.087,0.013,0.122,0.021c0.034,0.008,0.088,0.024,0.122,0.037c0.034,0.012,0.088,0.035,0.123,0.05
		c0.033,0.016,0.088,0.043,0.122,0.061c0.034,0.019,0.088,0.05,0.122,0.07c0.034,0.02,0.088,0.053,0.122,0.074
		s0.088,0.055,0.122,0.075s0.088,0.053,0.122,0.073c0.034,0.019,0.088,0.049,0.123,0.067c0.034,0.017,0.087,0.042,0.121,0.057
		c0.034,0.014,0.088,0.035,0.122,0.045c0.034,0.01,0.088,0.024,0.122,0.03s0.088,0.013,0.122,0.015c0.034,0.001,0.088,0,0.122-0.002
		s0.088-0.012,0.122-0.019c0.034-0.007,0.088-0.022,0.122-0.034c0.034-0.012,0.087-0.034,0.121-0.048
		c0.035-0.015,0.088-0.042,0.123-0.06c0.033-0.018,0.088-0.049,0.122-0.069c0.034-0.02,0.088-0.053,0.122-0.074
		c0.034-0.021,0.087-0.055,0.122-0.075c0.034-0.021,0.088-0.054,0.122-0.073s0.088-0.05,0.122-0.068
		c0.034-0.017,0.088-0.044,0.122-0.059c0.033-0.015,0.087-0.036,0.122-0.047c0.034-0.011,0.088-0.026,0.122-0.032
		c0.034-0.007,0.088-0.015,0.122-0.017s0.088-0.002,0.122,0s0.088,0.01,0.122,0.016c0.034,0.007,0.087,0.021,0.122,0.033
		c0.034,0.011,0.088,0.032,0.122,0.046c0.034,0.015,0.088,0.041,0.122,0.059c0.034,0.018,0.088,0.048,0.122,0.067
		s0.088,0.053,0.122,0.073c0.034,0.021,0.088,0.055,0.122,0.075c0.034,0.021,0.088,0.055,0.122,0.074
		c0.034,0.02,0.088,0.051,0.122,0.069c0.034,0.018,0.087,0.044,0.121,0.06c0.035,0.015,0.088,0.037,0.122,0.049
		c0.034,0.011,0.088,0.027,0.122,0.035c0.034,0.007,0.088,0.016,0.122,0.019c0.034,0.003,0.088,0.004,0.122,0.003
		c0.034-0.002,0.088-0.008,0.122-0.014c0.034-0.006,0.088-0.02,0.122-0.03c0.034-0.011,0.088-0.031,0.123-0.045
		c0.033-0.014,0.087-0.04,0.121-0.057c0.035-0.017,0.088-0.047,0.122-0.066c0.034-0.02,0.088-0.052,0.122-0.073
		s0.088-0.055,0.122-0.075c0.034-0.021,0.088-0.055,0.122-0.074c0.034-0.021,0.087-0.052,0.122-0.07
		c0.034-0.019,0.088-0.046,0.122-0.062c0.034-0.016,0.088-0.039,0.122-0.051c0.034-0.012,0.088-0.029,0.123-0.037
		c0.033-0.008,0.087-0.018,0.121-0.021c0.034-0.004,0.088-0.006,0.122-0.005s0.088,0.006,0.122,0.011
		c0.034,0.006,0.088,0.018,0.122,0.028s0.087,0.029,0.121,0.043c0.035,0.013,0.088,0.039,0.123,0.055
		c0.033,0.017,0.088,0.046,0.122,0.065c0.034,0.02,0.088,0.052,0.122,0.072s0.088,0.054,0.122,0.075
		c0.034,0.021,0.088,0.054,0.122,0.074c0.034,0.021,0.088,0.053,0.122,0.071c0.034,0.019,0.088,0.047,0.122,0.063
		c0.034,0.016,0.088,0.04,0.121,0.052c0.035,0.012,0.088,0.03,0.122,0.039c0.034,0.009,0.088,0.02,0.122,0.024
		c0.034,0.004,0.088,0.007,0.122,0.007c0.034,0,0.088-0.005,0.122-0.009c0.034-0.005,0.088-0.017,0.122-0.025
		c0.034-0.009,0.088-0.027,0.122-0.041s0.088-0.038,0.122-0.054c0.034-0.016,0.088-0.045,0.122-0.064
		c0.034-0.019,0.088-0.051,0.122-0.071c0.034-0.021,0.122-0.075,0.122-0.075l-0.066,22c0,2.18-2.687,3.948-6,3.948s-6-1.768-6-3.948
		V39.239z"/>
	
		<line fill="none" stroke="#000000" stroke-width="0.5" stroke-miterlimit="10" x1="107.207" y1="39.416" x2="107.207" y2="31.542"/>
	
		<line fill="none" stroke="#000000" stroke-width="0.5" stroke-miterlimit="10" x1="119.273" y1="39.418" x2="119.273" y2="31.542"/>
</g>
<g>
	
		<rect x="108.964" y="16.673" transform="matrix(0.9172 0.3983 -0.3983 0.9172 18.0942 -44.1205)" fill="#0071BC" stroke="#000000" stroke-width="0.5" stroke-linecap="round" stroke-miterlimit="10" width="12.528" height="9.625"/>
	
		<line fill="none" stroke="#000000" stroke-width="0.5" stroke-linecap="round" stroke-miterlimit="10" x1="113.333" y1="15.416" x2="110.443" y2="22.072"/>
	
		<line fill="none" stroke="#000000" stroke-width="0.5" stroke-linecap="round" stroke-miterlimit="10" x1="116.384" y1="16.74" x2="113.493" y2="23.396"/>
	
		<line fill="none" stroke="#000000" stroke-width="0.5" stroke-linecap="round" stroke-miterlimit="10" x1="119.434" y1="18.065" x2="116.544" y2="24.722"/>
	
		<line fill="none" stroke="#000000" stroke-width="0.5" stroke-linecap="round" stroke-miterlimit="10" x1="117.907" y1="17.402" x2="115.017" y2="24.059"/>
	
		<line fill="none" stroke="#000000" stroke-width="0.5" stroke-linecap="round" stroke-miterlimit="10" x1="120.958" y1="18.727" x2="118.067" y2="25.383"/>
	
		<line fill="none" stroke="#000000" stroke-width="0.5" stroke-linecap="round" stroke-miterlimit="10" x1="114.86" y1="16.078" x2="111.969" y2="22.735"/>
</g>
<g>
	<circle fill="#FFFC92" stroke="#009245" stroke-width="0.1" stroke-miterlimit="10" cx="113.24" cy="58.131" r="3.603"/>
	<path fill="#CEEBEF" stroke="#006837" stroke-width="0.1" stroke-miterlimit="10" d="M114.763,58.162
		c0.991-2.871-0.682-2.871-1.524-2.871c-0.841,0-2.514,0-1.523,2.871c0.5,1.448,0.682,2.871,1.523,2.871
		C114.081,61.032,114.263,59.61,114.763,58.162z"/>
	<g>
		<path fill="none" stroke="#FF0000" stroke-width="0.1" stroke-miterlimit="10" d="M112.917,59.629
			c-0.239-0.28-0.477-0.558-0.477-0.878"/>
		<path fill="none" stroke="#FF0000" stroke-width="0.1" stroke-miterlimit="10" d="M112.44,58.75c0-0.32,0.238-0.599,0.477-0.878"
			/>
		<path fill="none" stroke="#FF0000" stroke-width="0.1" stroke-miterlimit="10" d="M112.917,57.873
			c0.239-0.28,0.477-0.558,0.477-0.878"/>
		<path fill="none" stroke="#FF0000" stroke-width="0.1" stroke-miterlimit="10" d="M113.394,56.994c0-0.32-0.238-0.599-0.477-0.878
			"/>
	</g>
	<g>
		<path fill="none" stroke="#FF0000" stroke-width="0.1" stroke-miterlimit="10" d="M113.633,59.629
			c-0.239-0.28-0.477-0.558-0.477-0.878"/>
		<path fill="none" stroke="#FF0000" stroke-width="0.1" stroke-miterlimit="10" d="M113.156,58.75c0-0.32,0.238-0.599,0.477-0.878"
			/>
		<path fill="none" stroke="#FF0000" stroke-width="0.1" stroke-miterlimit="10" d="M113.633,57.872
			c0.238-0.279,0.477-0.558,0.477-0.878"/>
		<path fill="none" stroke="#FF0000" stroke-width="0.1" stroke-miterlimit="10" d="M114.11,56.994c0-0.32-0.239-0.599-0.477-0.878"
			/>
	</g>
	<circle fill="none" stroke="#990E39" stroke-width="0.1" stroke-miterlimit="10" cx="113.24" cy="58.131" r="4.116"/>
	<g>
		
			<rect x="113.019" y="53.397" fill="#112299" stroke="#000000" stroke-width="0.1" stroke-linejoin="round" stroke-miterlimit="2" width="0.44" height="0.951"/>
		
			<ellipse fill="#63C1CE" stroke="#000000" stroke-width="0.1" stroke-miterlimit="10" cx="113.239" cy="53.314" rx="0.725" ry="0.371"/>
	</g>
	<g>
		
			<rect x="111.287" y="53.765" transform="matrix(0.9137 -0.4064 0.4064 0.9137 -12.4199 50.004)" fill="#112299" stroke="#000000" stroke-width="0.1" stroke-linejoin="round" stroke-miterlimit="2" width="0.441" height="0.951"/>
		
			<ellipse transform="matrix(0.9135 -0.4068 0.4068 0.9135 -12.2338 49.9105)" fill="#63C1CE" stroke="#000000" stroke-width="0.1" stroke-miterlimit="10" cx="111.28" cy="53.731" rx="0.725" ry="0.371"/>
	</g>
	<g>
		
			<rect x="109.854" y="54.806" transform="matrix(0.669 -0.7432 0.7432 0.669 -4.6555 100.1081)" fill="#112299" stroke="#000000" stroke-width="0.1" stroke-linejoin="round" stroke-miterlimit="2" width="0.441" height="0.95"/>
		
			<ellipse transform="matrix(0.6689 -0.7433 0.7433 0.6689 -4.5094 99.6918)" fill="#63C1CE" stroke="#000000" stroke-width="0.1" stroke-miterlimit="10" cx="109.66" cy="54.908" rx="0.725" ry="0.37"/>
	</g>
	<g>
		
			<rect x="108.968" y="56.34" transform="matrix(0.3082 -0.9513 0.9513 0.3082 21.484 143.175)" fill="#112299" stroke="#000000" stroke-width="0.1" stroke-linejoin="round" stroke-miterlimit="2" width="0.44" height="0.951"/>
		
			<ellipse transform="matrix(0.309 -0.951 0.951 0.309 21.2076 142.4765)" fill="#63C1CE" stroke="#000000" stroke-width="0.1" stroke-miterlimit="10" cx="108.658" cy="56.643" rx="0.725" ry="0.371"/>
	</g>
	<g>
		
			<rect x="108.783" y="58.101" transform="matrix(-0.1041 -0.9946 0.9946 -0.1041 62.0935 173.0858)" fill="#112299" stroke="#000000" stroke-width="0.1" stroke-linejoin="round" stroke-miterlimit="2" width="0.441" height="0.95"/>
		
			<ellipse transform="matrix(-0.1047 -0.9945 0.9945 -0.1047 61.4951 172.6288)" fill="#63C1CE" stroke="#000000" stroke-width="0.1" stroke-miterlimit="10" cx="108.449" cy="58.635" rx="0.725" ry="0.37"/>
	</g>
	<g>
		
			<rect x="109.331" y="59.785" transform="matrix(-0.5001 -0.866 0.866 -0.5001 112.1496 185.2646)" fill="#112299" stroke="#000000" stroke-width="0.1" stroke-linejoin="round" stroke-miterlimit="2" width="0.44" height="0.951"/>
		
			<ellipse transform="matrix(-0.5002 -0.8659 0.8659 -0.5002 111.1955 185.2646)" fill="#63C1CE" stroke="#000000" stroke-width="0.1" stroke-miterlimit="10" cx="109.068" cy="60.54" rx="0.725" ry="0.371"/>
	</g>
	<g>
		
			<rect x="110.515" y="61.102" transform="matrix(-0.8087 -0.5882 0.5882 -0.8087 164.0646 176.5128)" fill="#112299" stroke="#000000" stroke-width="0.1" stroke-linejoin="round" stroke-miterlimit="2" width="0.441" height="0.951"/>
		
			<ellipse transform="matrix(-0.809 -0.5878 0.5878 -0.809 163.2668 177.1082)" fill="#63C1CE" stroke="#000000" stroke-width="0.1" stroke-miterlimit="10" cx="110.408" cy="62.028" rx="0.725" ry="0.371"/>
	</g>
	<g>
		
			<rect x="112.134" y="61.822" transform="matrix(-0.978 -0.2085 0.2085 -0.978 209.252 146.6482)" fill="#112299" stroke="#000000" stroke-width="0.1" stroke-linejoin="round" stroke-miterlimit="2" width="0.44" height="0.95"/>
		
			<ellipse transform="matrix(-0.9782 -0.2078 0.2078 -0.9782 208.9709 147.6332)" fill="#63C1CE" stroke="#000000" stroke-width="0.1" stroke-miterlimit="10" cx="112.238" cy="62.843" rx="0.725" ry="0.371"/>
	</g>
	<g>
		
			<rect x="113.904" y="61.822" transform="matrix(-0.9781 0.2082 -0.2082 -0.9781 238.7206 99.4638)" fill="#112299" stroke="#000000" stroke-width="0.1" stroke-linejoin="round" stroke-miterlimit="2" width="0.441" height="0.951"/>
		
			<ellipse transform="matrix(-0.9781 0.2081 -0.2081 -0.9781 239.0577 100.5387)" fill="#63C1CE" stroke="#000000" stroke-width="0.1" stroke-miterlimit="10" cx="114.241" cy="62.843" rx="0.725" ry="0.37"/>
	</g>
	<g>
		
			<rect x="115.523" y="61.102" transform="matrix(-0.8087 0.5882 -0.5882 -0.8087 245.565 43.29)" fill="#112299" stroke="#000000" stroke-width="0.1" stroke-linejoin="round" stroke-miterlimit="2" width="0.441" height="0.951"/>
		
			<ellipse transform="matrix(-0.809 0.5878 -0.5878 -0.809 246.4324 43.9815)" fill="#63C1CE" stroke="#000000" stroke-width="0.1" stroke-miterlimit="10" cx="116.071" cy="62.028" rx="0.725" ry="0.37"/>
	</g>
	<g>
		
			<rect x="116.708" y="59.786" transform="matrix(-0.5001 0.866 -0.866 -0.5001 227.5856 -10.8616)" fill="#112299" stroke="#000000" stroke-width="0.1" stroke-linejoin="round" stroke-miterlimit="2" width="0.44" height="0.951"/>
		
			<ellipse transform="matrix(-0.5002 0.8659 -0.8659 -0.5002 228.5585 -10.8506)" fill="#63C1CE" stroke="#000000" stroke-width="0.1" stroke-miterlimit="10" cx="117.411" cy="60.54" rx="0.725" ry="0.371"/>
	</g>
	<g>
		
			<rect x="117.255" y="58.101" transform="matrix(-0.1041 0.9946 -0.9946 -0.1041 187.9638 -52.162)" fill="#112299" stroke="#000000" stroke-width="0.1" stroke-linejoin="round" stroke-miterlimit="2" width="0.441" height="0.951"/>
		
			<ellipse transform="matrix(-0.1044 0.9945 -0.9945 -0.1044 188.6672 -52.628)" fill="#63C1CE" stroke="#000000" stroke-width="0.1" stroke-miterlimit="10" cx="118.03" cy="58.635" rx="0.725" ry="0.371"/>
	</g>
	<g>
		
			<rect x="117.07" y="56.34" transform="matrix(0.3092 0.951 -0.951 0.3092 135.0503 -72.2955)" fill="#112299" stroke="#000000" stroke-width="0.1" stroke-linejoin="round" stroke-miterlimit="2" width="0.441" height="0.951"/>
		
			<ellipse transform="matrix(0.309 0.951 -0.951 0.309 135.2781 -72.9151)" fill="#63C1CE" stroke="#000000" stroke-width="0.1" stroke-miterlimit="10" cx="117.82" cy="56.643" rx="0.725" ry="0.37"/>
	</g>
	<g>
		
			<rect x="116.184" y="54.806" transform="matrix(0.6684 0.7438 -0.7438 0.6684 79.716 -68.2499)" fill="#112299" stroke="#000000" stroke-width="0.1" stroke-linejoin="round" stroke-miterlimit="2" width="0.44" height="0.95"/>
		
			<ellipse transform="matrix(0.6691 0.7432 -0.7432 0.6691 79.4624 -68.6479)" fill="#63C1CE" stroke="#000000" stroke-width="0.1" stroke-miterlimit="10" cx="116.819" cy="54.908" rx="0.725" ry="0.371"/>
	</g>
	<g>
		
			<rect x="114.751" y="53.765" transform="matrix(0.9135 0.4069 -0.4069 0.9135 32.0142 -42.0849)" fill="#112299" stroke="#000000" stroke-width="0.1" stroke-linejoin="round" stroke-miterlimit="2" width="0.44" height="0.951"/>
		
			<ellipse transform="matrix(0.9135 0.4068 -0.4068 0.9135 31.8166 -42.2126)" fill="#63C1CE" stroke="#000000" stroke-width="0.1" stroke-miterlimit="10" cx="115.198" cy="53.731" rx="0.725" ry="0.37"/>
	</g>
</g>
<g>
	<circle fill="#8DF7E8" stroke="#009245" stroke-width="0.1" stroke-miterlimit="10" cx="113.333" cy="46.008" r="3.603"/>
	<path fill="#CEEBEF" stroke="#006837" stroke-width="0.1" stroke-miterlimit="10" d="M114.857,46.038
		c0.991-2.871-0.682-2.871-1.523-2.871c-0.842,0-2.514,0-1.523,2.871c0.5,1.448,0.682,2.871,1.523,2.871
		C114.175,48.909,114.357,47.486,114.857,46.038z"/>
	<g>
		<path fill="none" stroke="#FF0000" stroke-width="0.1" stroke-miterlimit="10" d="M113.011,47.505
			c-0.239-0.28-0.477-0.558-0.477-0.878"/>
		<path fill="none" stroke="#FF0000" stroke-width="0.1" stroke-miterlimit="10" d="M112.534,46.627c0-0.32,0.238-0.599,0.477-0.878
			"/>
		<path fill="none" stroke="#FF0000" stroke-width="0.1" stroke-miterlimit="10" d="M113.011,45.749
			c0.238-0.28,0.477-0.558,0.477-0.878"/>
		<path fill="none" stroke="#FF0000" stroke-width="0.1" stroke-miterlimit="10" d="M113.488,44.871
			c0-0.321-0.239-0.599-0.477-0.878"/>
	</g>
	<g>
		<path fill="none" stroke="#FF0000" stroke-width="0.1" stroke-miterlimit="10" d="M113.727,47.505
			c-0.239-0.28-0.478-0.558-0.478-0.878"/>
		<path fill="none" stroke="#FF0000" stroke-width="0.1" stroke-miterlimit="10" d="M113.25,46.627c0-0.32,0.239-0.599,0.478-0.878"
			/>
		<path fill="none" stroke="#FF0000" stroke-width="0.1" stroke-miterlimit="10" d="M113.727,45.749
			c0.238-0.28,0.477-0.558,0.477-0.878"/>
		<path fill="none" stroke="#FF0000" stroke-width="0.1" stroke-miterlimit="10" d="M114.204,44.871
			c0-0.321-0.239-0.599-0.477-0.878"/>
	</g>
	<circle fill="none" stroke="#990E39" stroke-width="0.1" stroke-miterlimit="10" cx="113.333" cy="46.008" r="4.116"/>
	<g>
		
			<rect x="113.113" y="41.273" fill="#112299" stroke="#000000" stroke-width="0.1" stroke-linejoin="round" stroke-miterlimit="2" width="0.44" height="0.951"/>
		
			<ellipse fill="#63C1CE" stroke="#000000" stroke-width="0.1" stroke-miterlimit="10" cx="113.333" cy="41.19" rx="0.725" ry="0.371"/>
	</g>
	<g>
		
			<rect x="111.381" y="41.641" transform="matrix(0.9135 -0.4069 0.4069 0.9135 -7.481 49.0493)" fill="#112299" stroke="#000000" stroke-width="0.1" stroke-linejoin="round" stroke-miterlimit="2" width="0.44" height="0.95"/>
		
			<ellipse transform="matrix(0.9137 -0.4065 0.4065 0.9137 -7.2964 48.8641)" fill="#63C1CE" stroke="#000000" stroke-width="0.1" stroke-miterlimit="10" cx="111.374" cy="41.607" rx="0.725" ry="0.371"/>
	</g>
	<g>
		
			<rect x="109.948" y="42.682" transform="matrix(0.6696 -0.7427 0.7427 0.6696 4.347 96.0869)" fill="#112299" stroke="#000000" stroke-width="0.1" stroke-linejoin="round" stroke-miterlimit="2" width="0.44" height="0.95"/>
		
			<ellipse transform="matrix(0.6691 -0.7432 0.7432 0.6691 4.5217 95.724)" fill="#63C1CE" stroke="#000000" stroke-width="0.1" stroke-miterlimit="10" cx="109.754" cy="42.784" rx="0.725" ry="0.371"/>
	</g>
	<g>
		
			<rect x="109.062" y="44.216" transform="matrix(0.3089 -0.9511 0.9511 0.3089 33.0187 134.8234)" fill="#112299" stroke="#000000" stroke-width="0.1" stroke-linejoin="round" stroke-miterlimit="2" width="0.441" height="0.95"/>
		
			<ellipse transform="matrix(0.3091 -0.951 0.951 0.3091 32.7937 134.1812)" fill="#63C1CE" stroke="#000000" stroke-width="0.1" stroke-miterlimit="10" cx="108.752" cy="44.519" rx="0.725" ry="0.371"/>
	</g>
	<g>
		
			<rect x="108.877" y="45.977" transform="matrix(-0.1042 -0.9946 0.9946 -0.1042 74.2685 159.7976)" fill="#112299" stroke="#000000" stroke-width="0.1" stroke-linejoin="round" stroke-miterlimit="2" width="0.44" height="0.95"/>
		
			<ellipse transform="matrix(-0.1047 -0.9945 0.9945 -0.1047 73.656 159.3282)" fill="#63C1CE" stroke="#000000" stroke-width="0.1" stroke-miterlimit="10" cx="108.543" cy="46.511" rx="0.725" ry="0.371"/>
	</g>
	<g>
		
			<rect x="109.425" y="47.662" transform="matrix(-0.5001 -0.866 0.866 -0.5001 122.7893 167.1599)" fill="#112299" stroke="#000000" stroke-width="0.1" stroke-linejoin="round" stroke-miterlimit="2" width="0.44" height="0.95"/>
		
			<ellipse transform="matrix(-0.5 -0.866 0.866 -0.5 121.8152 167.1608)" fill="#63C1CE" stroke="#000000" stroke-width="0.1" stroke-miterlimit="10" cx="109.162" cy="48.416" rx="0.725" ry="0.371"/>
	</g>
	<g>
		
			<rect x="110.61" y="48.978" transform="matrix(-0.8092 -0.5875 0.5875 -0.8092 171.4605 154.5857)" fill="#112299" stroke="#000000" stroke-width="0.1" stroke-linejoin="round" stroke-miterlimit="2" width="0.44" height="0.951"/>
		
			<ellipse transform="matrix(-0.8092 -0.5876 0.5876 -0.8092 170.5925 155.2153)" fill="#63C1CE" stroke="#000000" stroke-width="0.1" stroke-miterlimit="10" cx="110.502" cy="49.905" rx="0.725" ry="0.371"/>
	</g>
	<g>
		
			<rect x="112.227" y="49.699" transform="matrix(-0.9781 -0.2082 0.2082 -0.9781 211.982 122.6642)" fill="#112299" stroke="#000000" stroke-width="0.1" stroke-linejoin="round" stroke-miterlimit="2" width="0.441" height="0.95"/>
		
			<ellipse transform="matrix(-0.9782 -0.2074 0.2074 -0.9782 211.7002 123.637)" fill="#63C1CE" stroke="#000000" stroke-width="0.1" stroke-miterlimit="10" cx="112.332" cy="50.719" rx="0.725" ry="0.371"/>
	</g>
	<g>
		
			<rect x="113.999" y="49.699" transform="matrix(-0.978 0.2085 -0.2085 -0.978 236.3882 75.4342)" fill="#112299" stroke="#000000" stroke-width="0.1" stroke-linejoin="round" stroke-miterlimit="2" width="0.44" height="0.95"/>
		
			<ellipse transform="matrix(-0.9781 0.2081 -0.2081 -0.9781 236.7215 76.5374)" fill="#63C1CE" stroke="#000000" stroke-width="0.1" stroke-miterlimit="10" cx="114.335" cy="50.719" rx="0.725" ry="0.371"/>
	</g>
	<g>
		
			<rect x="115.617" y="48.978" transform="matrix(-0.8092 0.5875 -0.5875 -0.8092 238.6284 21.4162)" fill="#112299" stroke="#000000" stroke-width="0.1" stroke-linejoin="round" stroke-miterlimit="2" width="0.44" height="0.951"/>
		
			<ellipse transform="matrix(-0.809 0.5878 -0.5878 -0.809 239.4765 21.9947)" fill="#63C1CE" stroke="#000000" stroke-width="0.1" stroke-miterlimit="10" cx="116.165" cy="49.905" rx="0.725" ry="0.371"/>
	</g>
	<g>
		
			<rect x="116.802" y="47.662" transform="matrix(-0.5001 0.866 -0.866 -0.5001 217.228 -29.1298)" fill="#112299" stroke="#000000" stroke-width="0.1" stroke-linejoin="round" stroke-miterlimit="2" width="0.44" height="0.95"/>
		
			<ellipse transform="matrix(-0.4998 0.8662 -0.8662 -0.4998 218.1655 -29.1659)" fill="#63C1CE" stroke="#000000" stroke-width="0.1" stroke-miterlimit="10" cx="117.505" cy="48.416" rx="0.725" ry="0.371"/>
	</g>
	<g>
		
			<rect x="117.349" y="45.978" transform="matrix(-0.1042 0.9946 -0.9946 -0.1042 176.0227 -65.6347)" fill="#112299" stroke="#000000" stroke-width="0.1" stroke-linejoin="round" stroke-miterlimit="2" width="0.44" height="0.951"/>
		
			<ellipse transform="matrix(-0.1044 0.9945 -0.9945 -0.1044 176.7135 -66.1115)" fill="#63C1CE" stroke="#000000" stroke-width="0.1" stroke-miterlimit="10" cx="118.124" cy="46.511" rx="0.725" ry="0.371"/>
	</g>
	<g>
		
			<rect x="117.164" y="44.216" transform="matrix(0.3092 0.951 -0.951 0.3092 123.586 -80.7596)" fill="#112299" stroke="#000000" stroke-width="0.1" stroke-linejoin="round" stroke-miterlimit="2" width="0.441" height="0.951"/>
		
			<ellipse transform="matrix(0.3091 0.951 -0.951 0.3091 123.7999 -81.3823)" fill="#63C1CE" stroke="#000000" stroke-width="0.1" stroke-miterlimit="10" cx="117.915" cy="44.519" rx="0.725" ry="0.371"/>
	</g>
	<g>
		
			<rect x="116.279" y="42.682" transform="matrix(0.6696 0.7427 -0.7427 0.6696 70.5488 -72.2684)" fill="#112299" stroke="#000000" stroke-width="0.1" stroke-linejoin="round" stroke-miterlimit="2" width="0.44" height="0.951"/>
		
			<ellipse transform="matrix(0.6693 0.743 -0.743 0.6693 70.4546 -72.7179)" fill="#63C1CE" stroke="#000000" stroke-width="0.1" stroke-miterlimit="10" cx="116.913" cy="42.784" rx="0.725" ry="0.37"/>
	</g>
	<g>
		
			<rect x="114.846" y="41.641" transform="matrix(0.9139 0.4059 -0.4059 0.9139 27.0033 -43.0829)" fill="#112299" stroke="#000000" stroke-width="0.1" stroke-linejoin="round" stroke-miterlimit="2" width="0.44" height="0.951"/>
		
			<ellipse transform="matrix(0.9137 0.4065 -0.4065 0.9137 26.8671 -43.272)" fill="#63C1CE" stroke="#000000" stroke-width="0.1" stroke-miterlimit="10" cx="115.293" cy="41.607" rx="0.725" ry="0.371"/>
	</g>
</g>
<g>
	<path d="M2.227,16.775h16.77v2.883l-4.184,0.422l-0.773,1.02L27.574,57.38l13.008-36.281l-0.703-1.02l-4.465-0.422v-2.883h14.344
		v2.883l-4.465,0.844l-16.559,44.93h-4.992l-16.91-44.93l-4.605-0.844V16.775z"/>
	<path d="M45.152,45.357h16.207v4.816H45.152V45.357z"/>
	<path d="M66.387,80.759v-2.566l3.902-0.387l1.125-1.125V34.916h-5.027v-2.25l8.367-2.566h2.707v3.938
		c1.969-1.477,3.814-2.566,5.537-3.27s3.416-1.055,5.08-1.055c4.031,0,7.342,1.57,9.932,4.711c2.589,3.141,3.885,7.195,3.885,12.164
		c0,5.648-1.617,10.178-4.852,13.588s-7.523,5.115-12.867,5.115c-0.914,0-1.922-0.053-3.023-0.158
		c-1.102-0.105-2.32-0.264-3.656-0.475l-0.035,12.023l1.23,1.125l4.605,0.387v2.566H66.387z M77.461,60.896
		c1.172,0.399,2.268,0.691,3.287,0.879c1.02,0.188,1.974,0.281,2.865,0.281c3.562,0,6.445-1.33,8.648-3.99
		c2.203-2.66,3.305-6.182,3.305-10.564c0-4.055-0.955-7.277-2.865-9.668c-1.911-2.391-4.459-3.586-7.646-3.586
		c-1.148,0-2.333,0.199-3.551,0.598c-1.219,0.399-2.566,1.02-4.043,1.863V60.896z"/>
	<path d="M126.047,80.759v-2.566l3.902-0.387l1.125-1.125V34.916h-5.027v-2.25l8.367-2.566h2.707v3.938
		c1.969-1.477,3.814-2.566,5.537-3.27s3.416-1.055,5.08-1.055c4.031,0,7.342,1.57,9.932,4.711c2.589,3.141,3.885,7.195,3.885,12.164
		c0,5.648-1.617,10.178-4.852,13.588s-7.523,5.115-12.867,5.115c-0.914,0-1.922-0.053-3.023-0.158
		c-1.102-0.105-2.32-0.264-3.656-0.475l-0.035,12.023l1.23,1.125l4.605,0.387v2.566H126.047z M137.121,60.896
		c1.172,0.399,2.268,0.691,3.287,0.879c1.02,0.188,1.974,0.281,2.865,0.281c3.562,0,6.445-1.33,8.648-3.99
		c2.203-2.66,3.305-6.182,3.305-10.564c0-4.055-0.955-7.277-2.865-9.668c-1.911-2.391-4.459-3.586-7.646-3.586
		c-1.148,0-2.333,0.199-3.551,0.598c-1.219,0.399-2.566,1.02-4.043,1.863V60.896z"/>
	<path d="M196.359,57.451v3.973c-2.136,1.406-4.354,2.473-6.653,3.199s-4.611,1.09-6.934,1.09c-4.764,0-8.629-1.635-11.598-4.904
		c-2.968-3.27-4.452-7.529-4.452-12.779c0-5.391,1.555-9.791,4.664-13.201c3.109-3.41,7.104-5.115,11.985-5.115
		c3.989,0,7.151,1.271,9.486,3.814c2.334,2.543,3.502,6.006,3.502,10.389c0,0.586-0.006,1.032-0.018,1.336
		c-0.012,0.305-0.041,0.598-0.088,0.879H172.91v0.809c0,4.523,1.091,8.104,3.274,10.74s5.128,3.955,8.837,3.955
		c1.713,0,3.492-0.339,5.334-1.02C192.198,59.935,194.199,58.88,196.359,57.451z M189.891,43.107v-1.121
		c0-2.896-0.639-5.115-1.916-6.656c-1.278-1.541-3.135-2.312-5.572-2.312c-2.391,0-4.459,0.952-6.205,2.855
		c-1.746,1.904-2.725,4.315-2.936,7.234H189.891z"/>
</g>
<g>
</g>
<g>
</g>
<g>
</g>
<g>
</g>
<g>
</g>
</svg>
