<svg xmlns="http://www.w3.org/2000/svg" width="193.167" height="68.667"><path fill="#00A99D" d="M26.392 62.394H2.048l10.401-26.296L2.048 9.801h24.344l10.4 26.297z" opacity=".1"/><path fill="#00A99D" d="M57.266 62.394H32.923l10.401-26.296L32.923 9.801h24.343l10.401 26.297z" opacity=".1"/><path fill="#00A99D" d="M88.142 62.394H63.797l10.402-26.296L63.797 9.801h24.345l10.4 26.297z" opacity=".1"/><path fill="#00A99D" d="M119.016 62.394H94.672l10.401-26.296L94.672 9.801h24.344l10.401 26.297z" opacity=".1"/><path fill="#00A99D" d="M149.891 62.394h-24.344l10.401-26.296-10.401-26.297h24.344l10.401 26.297z" opacity=".1"/><path fill="#00A99D" d="M180.765 62.394h-24.343l10.401-26.296-10.401-26.297h24.343l10.402 26.297z" opacity=".1"/><g stroke="#000" stroke-miterlimit="10" stroke-width=".5"><path fill="#ED1C24" stroke-linecap="round" d="M108.541 25.859a8.52 8.52 0 0 0 .244.146 2.356 2.356 0 0 0 .243.118 1.062 1.062 0 0 0 .366.077 1.051 1.051 0 0 0 .367-.069 2.448 2.448 0 0 0 .243-.114l.122-.07.122-.075.122-.075.122-.073.122-.065a1.175 1.175 0 0 1 .488-.138c.034-.001.087.001.122.004a1.133 1.133 0 0 1 .244.058c.034.012.088.035.123.05l.122.061a7.603 7.603 0 0 1 .244.144l.122.075.122.073.123.067.121.057a1.355 1.355 0 0 0 .244.075c.034.006.088.013.122.015a1.03 1.03 0 0 0 .366-.055c.034-.012.087-.034.121-.048a2.316 2.316 0 0 0 .245-.129l.122-.074c.034-.021.087-.055.122-.075.034-.021.088-.054.122-.073l.122-.068c.034-.017.088-.044.122-.059a1.28 1.28 0 0 1 .244-.079 1.022 1.022 0 0 1 .244-.017c.034.002.088.01.122.016a1.167 1.167 0 0 1 .244.079 2.267 2.267 0 0 1 .244.126c.034.019.088.053.122.073l.122.075c.034.021.088.055.122.074a3.762 3.762 0 0 0 .243.129c.035.015.088.037.122.049.034.011.088.027.122.035.034.007.088.016.122.019.034.003.088.004.122.003.034-.002.088-.008.122-.014a1.355 1.355 0 0 0 .245-.075c.033-.014.087-.04.121-.057.035-.017.088-.047.122-.066l.122-.073.122-.075c.034-.021.088-.055.122-.074a2.128 2.128 0 0 1 .244-.132 1.336 1.336 0 0 1 .245-.088.987.987 0 0 1 .365-.015c.034.006.088.018.122.028s.087.029.121.043c.035.013.088.039.123.055l.122.065.122.072.122.075a7.938 7.938 0 0 0 .244.145 2.358 2.358 0 0 0 .243.115 1.051 1.051 0 0 0 .366.07c.034 0 .088-.005.122-.009a1.166 1.166 0 0 0 .244-.066l.122-.054c.034-.016.088-.045.122-.064l.122-.071.122-.075-.066 22c0 2.18-2.687 3.948-6 3.948s-6-1.768-6-3.948V25.859z"/><path fill="none" d="M108.541 26.036v-7.873M120.607 26.038v-7.875"/></g><g stroke="#000" stroke-linecap="round" stroke-miterlimit="10" stroke-width=".5"><path fill="#0071BC" stroke-width=".499975" d="M112.729 1.193l11.49 4.99-3.833 8.828-11.49-4.99z"/><path fill="none" d="M114.667 2.036l-2.891 6.656M117.717 3.36l-2.89 6.657M120.768 4.686l-2.89 6.656M119.241 4.022l-2.89 6.657M122.292 5.347l-2.891 6.656M116.193 2.698l-2.89 6.657"/></g><g stroke-width=".1"><circle cx="114.573" cy="44.751" r="3.603" fill="#FFFC92" stroke="#009245" stroke-miterlimit="10"/><path fill="#CEEBEF" stroke="#006837" stroke-miterlimit="10" d="M116.097 44.782c.991-2.871-.682-2.871-1.524-2.871-.841 0-2.514 0-1.523 2.871.5 1.448.682 2.871 1.523 2.871.842-.001 1.024-1.423 1.524-2.871z"/><g fill="none" stroke="red" stroke-miterlimit="10"><path d="M114.25 46.249c-.239-.28-.477-.558-.477-.878M113.773 45.371c0-.32.238-.599.477-.878M114.25 44.493c.239-.28.477-.558.477-.878M114.728 43.614c0-.32-.238-.599-.477-.878"/></g><g fill="none" stroke="red" stroke-miterlimit="10"><path d="M114.966 46.249c-.239-.28-.477-.558-.477-.878M114.489 45.371c0-.32.238-.599.477-.878M114.966 44.492c.238-.279.477-.558.477-.878M115.443 43.614c0-.32-.239-.599-.477-.878"/></g><circle cx="114.573" cy="44.751" r="4.116" fill="none" stroke="#990E39" stroke-miterlimit="10"/><g stroke="#000"><path fill="#129" stroke-linejoin="round" stroke-miterlimit="2" d="M114.353 40.017h.44v.951h-.44z"/><ellipse cx="114.573" cy="39.935" fill="#63C1CE" stroke-miterlimit="10" rx=".725" ry=".371"/></g><g stroke="#000"><path fill="#129" stroke-linejoin="round" stroke-miterlimit="2" d="M112.447 40.522l.403-.18.386.87-.403.179z"/><ellipse cx="112.614" cy="40.351" fill="#63C1CE" stroke-miterlimit="10" rx=".725" ry=".371" transform="rotate(-24.006 112.6 40.354)"/></g><g stroke="#000"><path fill="#129" stroke-linejoin="round" stroke-miterlimit="2" stroke-width=".099995" d="M110.902 41.75l.295-.327.706.635-.295.328z"/><ellipse cx="110.993" cy="41.528" fill="#63C1CE" stroke-miterlimit="10" rx=".725" ry=".37" transform="rotate(-48.016 110.997 41.53)"/></g><g stroke="#000"><path fill="#129" stroke-linejoin="round" stroke-miterlimit="2" stroke-width=".099998" d="M109.998 43.498l.135-.419.905.293-.135.419z"/><ellipse cx="109.992" cy="43.263" fill="#63C1CE" stroke-miterlimit="10" rx=".725" ry=".371" transform="rotate(-72 109.99 43.27)"/></g><g stroke="#000"><path fill="#129" stroke-linejoin="round" stroke-miterlimit="2" stroke-width=".10000300000000001" d="M109.89 45.462l-.046-.438.944-.1.046.44z"/><ellipse cx="109.782" cy="45.255" fill="#63C1CE" stroke-miterlimit="10" rx=".725" ry=".37" transform="rotate(-96.01 109.785 45.254)"/></g><g stroke="#000"><path fill="#129" stroke-linejoin="round" stroke-miterlimit="2" stroke-width=".10000300000000001" d="M110.58 47.306l-.22-.38.824-.476.22.38z"/><ellipse cx="110.401" cy="47.16" fill="#63C1CE" stroke-miterlimit="10" rx=".725" ry=".371" transform="rotate(-120.013 110.399 47.163)"/></g><g stroke="#000"><path fill="#129" stroke-linejoin="round" stroke-miterlimit="2" stroke-width=".099999" d="M111.965 48.715l-.357-.26.56-.769.356.26z"/><ellipse cx="111.741" cy="48.648" fill="#63C1CE" stroke-miterlimit="10" rx=".725" ry=".371" transform="rotate(-143.998 111.741 48.65)"/></g><g stroke="#000"><path fill="#129" stroke-linejoin="round" stroke-miterlimit="2" stroke-width=".099998" d="M113.808 49.426l-.43-.091.198-.93.43.092z"/><ellipse cx="113.572" cy="49.463" fill="#63C1CE" stroke-miterlimit="10" rx=".725" ry=".371" transform="scale(-1) rotate(11.993 470.85 -1081.166)"/></g><g stroke="#000"><path fill="#129" stroke-linejoin="round" stroke-miterlimit="2" stroke-width=".100001" d="M115.772 49.331l-.431.092-.198-.93.431-.092z"/><ellipse cx="115.574" cy="49.463" fill="#63C1CE" stroke-miterlimit="10" rx=".725" ry=".37" transform="rotate(167.987 115.575 49.464)"/></g><g stroke="#000"><path fill="#129" stroke-linejoin="round" stroke-miterlimit="2" stroke-width=".099999" d="M117.535 48.447l-.357.26-.56-.77.357-.259z"/><ellipse cx="117.404" cy="48.648" fill="#63C1CE" stroke-miterlimit="10" rx=".725" ry=".37" transform="rotate(143.998 117.404 48.648)"/></g><g stroke="#000"><path fill="#129" stroke-linejoin="round" stroke-miterlimit="2" stroke-width=".10000300000000001" d="M118.78 46.929l-.22.38-.824-.475.22-.38z"/><ellipse cx="118.744" cy="47.16" fill="#63C1CE" stroke-miterlimit="10" rx=".725" ry=".371" transform="rotate(120.013 118.744 47.156)"/></g><g stroke="#000"><path fill="#129" stroke-linejoin="round" stroke-miterlimit="2" stroke-width=".10000300000000001" d="M119.304 45.031l-.045.439-.946-.1.046-.438z"/><ellipse cx="119.363" cy="45.255" fill="#63C1CE" stroke-miterlimit="10" rx=".725" ry=".371" transform="scale(-1) rotate(-84.007 -50.256 132.554)"/></g><g stroke="#000"><path fill="#129" stroke-linejoin="round" stroke-miterlimit="2" d="M119.003 43.08l.136.419-.904.294-.137-.42z"/><ellipse cx="119.154" cy="43.263" fill="#63C1CE" stroke-miterlimit="10" rx=".725" ry=".37" transform="rotate(72 119.157 43.257)"/></g><g stroke="#000"><path fill="#129" stroke-linejoin="round" stroke-miterlimit="2" d="M117.942 41.421l.294.328-.706.635-.295-.328z"/><ellipse cx="118.153" cy="41.528" fill="#63C1CE" stroke-miterlimit="10" rx=".725" ry=".371" transform="rotate(48.002 118.15 41.53)"/></g><g stroke="#000"><path fill="#129" stroke-linejoin="round" stroke-miterlimit="2" stroke-width=".100002" d="M116.297 40.342l.402.179-.387.868-.402-.179z"/><ellipse cx="116.532" cy="40.351" fill="#63C1CE" stroke-miterlimit="10" rx=".725" ry=".37" transform="rotate(24.006 116.522 40.34)"/></g></g><g stroke-width=".1"><circle cx="114.667" cy="32.628" r="3.603" fill="#8DF7E8" stroke="#009245" stroke-miterlimit="10"/><path fill="#CEEBEF" stroke="#006837" stroke-miterlimit="10" d="M116.19 32.658c.991-2.871-.682-2.871-1.523-2.871-.842 0-2.514 0-1.523 2.871.5 1.448.682 2.871 1.523 2.871.841 0 1.023-1.423 1.523-2.871z"/><g fill="none" stroke="red" stroke-miterlimit="10"><path d="M114.345 34.125c-.239-.28-.477-.558-.477-.878M113.868 33.247c0-.32.238-.599.477-.878M114.345 32.369c.238-.28.477-.558.477-.878M114.822 31.491c0-.321-.239-.599-.477-.878"/></g><g fill="none" stroke="red" stroke-miterlimit="10"><path d="M115.061 34.125c-.239-.28-.478-.558-.478-.878M114.583 33.247c0-.32.239-.599.478-.878M115.061 32.369c.238-.28.477-.558.477-.878M115.538 31.491c0-.321-.239-.599-.477-.878"/></g><circle cx="114.667" cy="32.628" r="4.116" fill="none" stroke="#990E39" stroke-miterlimit="10"/><g stroke="#000"><path fill="#129" stroke-linejoin="round" stroke-miterlimit="2" d="M114.447 27.893h.44v.951h-.44z"/><ellipse cx="114.667" cy="27.811" fill="#63C1CE" stroke-miterlimit="10" rx=".725" ry=".371"/></g><g stroke="#000"><path fill="#129" stroke-linejoin="round" stroke-miterlimit="2" stroke-width=".100002" d="M112.542 28.387l.402-.179.386.868-.402.18z"/><ellipse cx="112.708" cy="28.227" fill="#63C1CE" stroke-miterlimit="10" rx=".725" ry=".371" transform="rotate(-23.984 112.703 28.226)"/></g><g stroke="#000"><path fill="#129" stroke-linejoin="round" stroke-miterlimit="2" stroke-width=".099998" d="M111.003 29.63l.294-.327.706.636-.295.326z"/><ellipse cx="111.087" cy="29.405" fill="#63C1CE" stroke-miterlimit="10" rx=".725" ry=".371" transform="rotate(-48.002 111.085 29.402)"/></g><g stroke="#000"><path fill="#129" stroke-linejoin="round" stroke-miterlimit="2" stroke-width=".100001" d="M110.095 31.373l.136-.42.904.294-.136.42z"/><ellipse cx="110.086" cy="31.139" fill="#63C1CE" stroke-miterlimit="10" rx=".725" ry=".371" transform="rotate(-71.994 110.085 31.141)"/></g><g stroke="#000"><path fill="#129" stroke-linejoin="round" stroke-miterlimit="2" stroke-width=".10000400000000001" d="M109.986 33.337l-.046-.438.945-.099.046.438z"/><ellipse cx="109.876" cy="33.131" fill="#63C1CE" stroke-miterlimit="10" rx=".725" ry=".371" transform="rotate(-96.01 109.879 33.13)"/></g><g stroke="#000"><path fill="#129" stroke-linejoin="round" stroke-miterlimit="2" stroke-width=".10000300000000001" d="M110.675 35.183l-.22-.381.822-.475.22.38z"/><ellipse cx="110.495" cy="35.036" fill="#63C1CE" stroke-miterlimit="10" rx=".725" ry=".371" transform="rotate(-120 110.497 35.037)"/></g><g stroke="#000"><path fill="#129" stroke-linejoin="round" stroke-miterlimit="2" stroke-width=".099998" d="M112.064 36.59l-.356-.259.558-.77.356.259z"/><ellipse cx="111.836" cy="36.525" fill="#63C1CE" stroke-miterlimit="10" rx=".725" ry=".371" transform="scale(-1) rotate(35.985 112.459 -344.33)"/></g><g stroke="#000"><path fill="#129" stroke-linejoin="round" stroke-miterlimit="2" stroke-width=".100001" d="M113.894 37.308l-.432-.091.198-.93.431.092z"/><ellipse cx="113.666" cy="37.339" fill="#63C1CE" stroke-miterlimit="10" rx=".725" ry=".371" transform="scale(-1) rotate(11.971 356.169 -1084.178)"/></g><g stroke="#000"><path fill="#129" stroke-linejoin="round" stroke-miterlimit="2" stroke-width=".099998" d="M115.87 37.217l-.43.092-.199-.93.43-.091z"/><ellipse cx="115.669" cy="37.339" fill="#63C1CE" stroke-miterlimit="10" rx=".725" ry=".371" transform="rotate(167.987 115.669 37.34)"/></g><g stroke="#000"><path fill="#129" stroke-linejoin="round" stroke-miterlimit="2" stroke-width=".099998" d="M117.63 36.328l-.356.258-.558-.77.356-.258z"/><ellipse cx="117.498" cy="36.525" fill="#63C1CE" stroke-miterlimit="10" rx=".725" ry=".371" transform="rotate(143.998 117.499 36.524)"/></g><g stroke="#000"><path fill="#129" stroke-linejoin="round" stroke-miterlimit="2" stroke-width=".10000300000000001" d="M118.874 34.806l-.22.381-.823-.475.22-.381z"/><ellipse cx="118.838" cy="35.036" fill="#63C1CE" stroke-miterlimit="10" rx=".725" ry=".371" transform="scale(-1) rotate(-60.015 -60.661 205.761)"/></g><g stroke="#000"><path fill="#129" stroke-linejoin="round" stroke-miterlimit="2" stroke-width=".10000400000000001" d="M119.4 32.91l-.046.438-.946-.1.045-.437z"/><ellipse cx="119.458" cy="33.131" fill="#63C1CE" stroke-miterlimit="10" rx=".725" ry=".371" transform="scale(-1) rotate(-84.007 -36.793 132.659)"/></g><g stroke="#000"><path fill="#129" stroke-linejoin="round" stroke-miterlimit="2" d="M119.098 30.956l.136.42-.904.293-.137-.419z"/><ellipse cx="119.248" cy="31.139" fill="#63C1CE" stroke-miterlimit="10" rx=".725" ry=".371" transform="rotate(71.994 119.249 31.137)"/></g><g stroke="#000"><path fill="#129" stroke-linejoin="round" stroke-miterlimit="2" stroke-width=".099998" d="M118.042 29.291l.295.327-.707.637-.294-.327z"/><ellipse cx="118.247" cy="29.405" fill="#63C1CE" stroke-miterlimit="10" rx=".725" ry=".37" transform="rotate(47.987 118.249 29.407)"/></g><g stroke="#000"><path fill="#129" stroke-linejoin="round" stroke-miterlimit="2" stroke-width=".099998" d="M116.392 28.209l.402.178-.386.87-.402-.18z"/><ellipse cx="116.626" cy="28.227" fill="#63C1CE" stroke-miterlimit="10" rx=".725" ry=".371" transform="rotate(23.984 116.621 28.226)"/></g></g><text font-family="'Times-Roman'" font-size="72" transform="translate(1.05 51.7)">V-p pe</text></svg>