<?xml version="1.0" encoding="utf-8"?>
<!-- Generator: Adobe Illustrator 16.0.4, SVG Export Plug-In . SVG Version: 6.00 Build 0)  -->
<!DOCTYPE svg PUBLIC "-//W3C//DTD SVG 1.1//EN" "http://www.w3.org/Graphics/SVG/1.1/DTD/svg11.dtd">
<svg version="1.1" id="Layer_1" xmlns="http://www.w3.org/2000/svg" xmlns:xlink="http://www.w3.org/1999/xlink" x="0px" y="0px"
	 width="193.167px" height="68.667px" viewBox="0 0 193.167 68.667" enable-background="new 0 0 193.167 68.667"
	 xml:space="preserve">
<polygon opacity="0.1" fill="#00A99D" points="26.392,62.394 2.048,62.394 12.449,36.098 2.048,9.801 26.392,9.801 36.792,36.098 
	"/>
<polygon opacity="0.1" fill="#00A99D" points="57.266,62.394 32.923,62.394 43.324,36.098 32.923,9.801 57.266,9.801 67.667,36.098 
	"/>
<polygon opacity="0.1" fill="#00A99D" points="88.142,62.394 63.797,62.394 74.199,36.098 63.797,9.801 88.142,9.801 98.542,36.098 
	"/>
<polygon opacity="0.1" fill="#00A99D" points="119.016,62.394 94.672,62.394 105.073,36.098 94.672,9.801 119.016,9.801 
	129.417,36.098 "/>
<polygon opacity="0.1" fill="#00A99D" points="149.891,62.394 125.547,62.394 135.948,36.098 125.547,9.801 149.891,9.801 
	160.292,36.098 "/>
<polygon opacity="0.1" fill="#00A99D" points="180.765,62.394 156.422,62.394 166.823,36.098 156.422,9.801 180.765,9.801 
	191.167,36.098 "/>
<g>
	<path fill="#ED1C24" stroke="#000000" stroke-width="0.5" stroke-linecap="round" stroke-miterlimit="10" d="M108.541,25.859
		c0,0,0.088,0.055,0.122,0.075c0.034,0.021,0.087,0.053,0.122,0.071c0.034,0.019,0.087,0.048,0.121,0.064
		c0.034,0.016,0.088,0.04,0.122,0.054c0.034,0.013,0.088,0.031,0.122,0.041s0.088,0.021,0.122,0.026
		c0.034,0.005,0.087,0.009,0.122,0.01c0.034,0,0.088-0.003,0.122-0.007s0.088-0.015,0.122-0.024
		c0.034-0.008,0.088-0.025,0.123-0.038c0.033-0.013,0.087-0.036,0.121-0.052c0.034-0.016,0.088-0.044,0.122-0.062
		c0.034-0.019,0.088-0.051,0.122-0.07c0.034-0.021,0.088-0.054,0.122-0.075c0.034-0.021,0.088-0.055,0.122-0.075
		c0.034-0.021,0.088-0.053,0.122-0.073c0.034-0.019,0.088-0.048,0.122-0.065c0.034-0.017,0.088-0.042,0.122-0.056
		c0.034-0.014,0.088-0.033,0.122-0.042s0.088-0.023,0.122-0.028s0.088-0.011,0.122-0.012s0.087,0.001,0.122,0.004
		c0.034,0.004,0.087,0.013,0.122,0.021c0.034,0.008,0.088,0.024,0.122,0.037c0.034,0.012,0.088,0.035,0.123,0.05
		c0.033,0.016,0.088,0.043,0.122,0.061c0.034,0.019,0.088,0.05,0.122,0.07c0.034,0.02,0.088,0.053,0.122,0.074
		s0.088,0.055,0.122,0.075s0.088,0.053,0.122,0.073c0.034,0.019,0.088,0.049,0.123,0.067c0.034,0.017,0.087,0.042,0.121,0.057
		c0.034,0.014,0.088,0.035,0.122,0.045c0.034,0.01,0.088,0.024,0.122,0.03s0.088,0.013,0.122,0.015c0.034,0.001,0.088,0,0.122-0.002
		s0.088-0.012,0.122-0.019c0.034-0.007,0.088-0.022,0.122-0.034c0.034-0.012,0.087-0.034,0.121-0.048
		c0.035-0.015,0.088-0.042,0.123-0.06c0.033-0.018,0.088-0.049,0.122-0.069c0.034-0.02,0.088-0.053,0.122-0.074
		c0.034-0.021,0.087-0.055,0.122-0.075c0.034-0.021,0.088-0.054,0.122-0.073s0.088-0.05,0.122-0.068
		c0.034-0.017,0.088-0.044,0.122-0.059c0.033-0.015,0.087-0.036,0.122-0.047c0.034-0.011,0.088-0.026,0.122-0.032
		c0.034-0.007,0.088-0.015,0.122-0.017s0.088-0.002,0.122,0s0.088,0.01,0.122,0.016c0.034,0.007,0.087,0.021,0.122,0.033
		c0.034,0.011,0.088,0.032,0.122,0.046c0.034,0.015,0.088,0.041,0.122,0.059c0.034,0.018,0.088,0.048,0.122,0.067
		s0.088,0.053,0.122,0.073c0.034,0.021,0.088,0.055,0.122,0.075c0.034,0.021,0.088,0.055,0.122,0.074
		c0.034,0.02,0.088,0.051,0.122,0.069c0.034,0.018,0.087,0.044,0.121,0.06c0.035,0.015,0.088,0.037,0.122,0.049
		c0.034,0.011,0.088,0.027,0.122,0.035c0.034,0.007,0.088,0.016,0.122,0.019c0.034,0.003,0.088,0.004,0.122,0.003
		c0.034-0.002,0.088-0.008,0.122-0.014c0.034-0.006,0.088-0.02,0.122-0.03c0.034-0.011,0.088-0.031,0.123-0.045
		c0.033-0.014,0.087-0.04,0.121-0.057c0.035-0.017,0.088-0.047,0.122-0.066c0.034-0.02,0.088-0.052,0.122-0.073
		s0.088-0.055,0.122-0.075c0.034-0.021,0.088-0.055,0.122-0.074c0.034-0.021,0.087-0.052,0.122-0.07
		c0.034-0.019,0.088-0.046,0.122-0.062c0.034-0.016,0.088-0.039,0.122-0.051c0.034-0.012,0.088-0.029,0.123-0.037
		c0.033-0.008,0.087-0.018,0.121-0.021c0.034-0.004,0.088-0.006,0.122-0.005s0.088,0.006,0.122,0.011
		c0.034,0.006,0.088,0.018,0.122,0.028s0.087,0.029,0.121,0.043c0.035,0.013,0.088,0.039,0.123,0.055
		c0.033,0.017,0.088,0.046,0.122,0.065c0.034,0.02,0.088,0.052,0.122,0.072s0.088,0.054,0.122,0.075
		c0.034,0.021,0.088,0.054,0.122,0.074c0.034,0.021,0.088,0.053,0.122,0.071c0.034,0.019,0.088,0.047,0.122,0.063
		c0.034,0.016,0.088,0.04,0.121,0.052c0.035,0.012,0.088,0.03,0.122,0.039c0.034,0.009,0.088,0.02,0.122,0.024
		c0.034,0.004,0.088,0.007,0.122,0.007c0.034,0,0.088-0.005,0.122-0.009c0.034-0.005,0.088-0.017,0.122-0.025
		c0.034-0.009,0.088-0.027,0.122-0.041s0.088-0.038,0.122-0.054c0.034-0.016,0.088-0.045,0.122-0.064
		c0.034-0.019,0.088-0.051,0.122-0.071c0.034-0.021,0.122-0.075,0.122-0.075l-0.066,22c0,2.18-2.687,3.948-6,3.948s-6-1.768-6-3.948
		V25.859z"/>
	
		<line fill="none" stroke="#000000" stroke-width="0.5" stroke-miterlimit="10" x1="108.541" y1="26.036" x2="108.541" y2="18.163"/>
	
		<line fill="none" stroke="#000000" stroke-width="0.5" stroke-miterlimit="10" x1="120.607" y1="26.038" x2="120.607" y2="18.163"/>
</g>
<g>
	
		<rect x="110.298" y="3.293" transform="matrix(0.9172 0.3983 -0.3983 0.9172 12.875 -45.7589)" fill="#0071BC" stroke="#000000" stroke-width="0.5" stroke-linecap="round" stroke-miterlimit="10" width="12.528" height="9.625"/>
	
		<line fill="none" stroke="#000000" stroke-width="0.5" stroke-linecap="round" stroke-miterlimit="10" x1="114.667" y1="2.036" x2="111.776" y2="8.692"/>
	
		<line fill="none" stroke="#000000" stroke-width="0.5" stroke-linecap="round" stroke-miterlimit="10" x1="117.717" y1="3.36" x2="114.827" y2="10.017"/>
	
		<line fill="none" stroke="#000000" stroke-width="0.5" stroke-linecap="round" stroke-miterlimit="10" x1="120.768" y1="4.686" x2="117.878" y2="11.342"/>
	
		<line fill="none" stroke="#000000" stroke-width="0.5" stroke-linecap="round" stroke-miterlimit="10" x1="119.241" y1="4.022" x2="116.351" y2="10.679"/>
	
		<line fill="none" stroke="#000000" stroke-width="0.5" stroke-linecap="round" stroke-miterlimit="10" x1="122.292" y1="5.347" x2="119.401" y2="12.003"/>
	
		<line fill="none" stroke="#000000" stroke-width="0.5" stroke-linecap="round" stroke-miterlimit="10" x1="116.193" y1="2.698" x2="113.303" y2="9.355"/>
</g>
<g>
	<circle fill="#FFFC92" stroke="#009245" stroke-width="0.1" stroke-miterlimit="10" cx="114.573" cy="44.751" r="3.603"/>
	<path fill="#CEEBEF" stroke="#006837" stroke-width="0.1" stroke-miterlimit="10" d="M116.097,44.782
		c0.991-2.871-0.682-2.871-1.524-2.871c-0.841,0-2.514,0-1.523,2.871c0.5,1.448,0.682,2.871,1.523,2.871
		C115.415,47.652,115.597,46.23,116.097,44.782z"/>
	<g>
		<path fill="none" stroke="#FF0000" stroke-width="0.1" stroke-miterlimit="10" d="M114.25,46.249
			c-0.239-0.28-0.477-0.558-0.477-0.878"/>
		<path fill="none" stroke="#FF0000" stroke-width="0.1" stroke-miterlimit="10" d="M113.773,45.371c0-0.32,0.238-0.599,0.477-0.878
			"/>
		<path fill="none" stroke="#FF0000" stroke-width="0.1" stroke-miterlimit="10" d="M114.25,44.493
			c0.239-0.28,0.477-0.558,0.477-0.878"/>
		<path fill="none" stroke="#FF0000" stroke-width="0.1" stroke-miterlimit="10" d="M114.728,43.614c0-0.32-0.238-0.599-0.477-0.878
			"/>
	</g>
	<g>
		<path fill="none" stroke="#FF0000" stroke-width="0.1" stroke-miterlimit="10" d="M114.966,46.249
			c-0.239-0.28-0.477-0.558-0.477-0.878"/>
		<path fill="none" stroke="#FF0000" stroke-width="0.1" stroke-miterlimit="10" d="M114.489,45.371c0-0.32,0.238-0.599,0.477-0.878
			"/>
		<path fill="none" stroke="#FF0000" stroke-width="0.1" stroke-miterlimit="10" d="M114.966,44.492
			c0.238-0.279,0.477-0.558,0.477-0.878"/>
		<path fill="none" stroke="#FF0000" stroke-width="0.1" stroke-miterlimit="10" d="M115.443,43.614c0-0.32-0.239-0.599-0.477-0.878
			"/>
	</g>
	<circle fill="none" stroke="#990E39" stroke-width="0.1" stroke-miterlimit="10" cx="114.573" cy="44.751" r="4.116"/>
	<g>
		
			<rect x="114.353" y="40.017" fill="#112299" stroke="#000000" stroke-width="0.1" stroke-linejoin="round" stroke-miterlimit="2" width="0.44" height="0.951"/>
		
			<ellipse fill="#63C1CE" stroke="#000000" stroke-width="0.1" stroke-miterlimit="10" cx="114.573" cy="39.935" rx="0.725" ry="0.371"/>
	</g>
	<g>
		
			<rect x="112.62" y="40.385" transform="matrix(0.9137 -0.4064 0.4064 0.9137 -6.8665 49.391)" fill="#112299" stroke="#000000" stroke-width="0.1" stroke-linejoin="round" stroke-miterlimit="2" width="0.441" height="0.951"/>
		
			<ellipse transform="matrix(0.9135 -0.4068 0.4068 0.9135 -6.6761 49.2961)" fill="#63C1CE" stroke="#000000" stroke-width="0.1" stroke-miterlimit="10" cx="112.614" cy="40.351" rx="0.725" ry="0.371"/>
	</g>
	<g>
		
			<rect x="111.187" y="41.426" transform="matrix(0.669 -0.7432 0.7432 0.669 5.7303 96.6708)" fill="#112299" stroke="#000000" stroke-width="0.1" stroke-linejoin="round" stroke-miterlimit="2" width="0.441" height="0.95"/>
		
			<ellipse transform="matrix(0.6689 -0.7433 0.7433 0.6689 5.8777 96.2533)" fill="#63C1CE" stroke="#000000" stroke-width="0.1" stroke-miterlimit="10" cx="110.993" cy="41.528" rx="0.725" ry="0.37"/>
	</g>
	<g>
		
			<rect x="110.302" y="42.96" transform="matrix(0.3082 -0.9513 0.9513 0.3082 35.1349 135.1878)" fill="#112299" stroke="#000000" stroke-width="0.1" stroke-linejoin="round" stroke-miterlimit="2" width="0.44" height="0.951"/>
		
			<ellipse transform="matrix(0.309 -0.951 0.951 0.309 34.8539 134.4998)" fill="#63C1CE" stroke="#000000" stroke-width="0.1" stroke-miterlimit="10" cx="109.992" cy="43.263" rx="0.725" ry="0.371"/>
	</g>
	<g>
		
			<rect x="110.116" y="44.721" transform="matrix(-0.1041 -0.9946 0.9946 -0.1041 76.873 159.6392)" fill="#112299" stroke="#000000" stroke-width="0.1" stroke-linejoin="round" stroke-miterlimit="2" width="0.441" height="0.95"/>
		
			<ellipse transform="matrix(-0.1047 -0.9945 0.9945 -0.1047 76.2746 159.1737)" fill="#63C1CE" stroke="#000000" stroke-width="0.1" stroke-miterlimit="10" cx="109.782" cy="45.255" rx="0.725" ry="0.37"/>
	</g>
	<g>
		
			<rect x="110.664" y="46.405" transform="matrix(-0.5001 -0.866 0.866 -0.5001 125.7367 166.3486)" fill="#112299" stroke="#000000" stroke-width="0.1" stroke-linejoin="round" stroke-miterlimit="2" width="0.44" height="0.951"/>
		
			<ellipse transform="matrix(-0.5002 -0.8659 0.8659 -0.5002 124.782 166.3474)" fill="#63C1CE" stroke="#000000" stroke-width="0.1" stroke-miterlimit="10" cx="110.401" cy="47.16" rx="0.725" ry="0.371"/>
	</g>
	<g>
		
			<rect x="111.849" y="47.722" transform="matrix(-0.8087 -0.5882 0.5882 -0.8087 174.347 153.0972)" fill="#112299" stroke="#000000" stroke-width="0.1" stroke-linejoin="round" stroke-miterlimit="2" width="0.441" height="0.951"/>
		
			<ellipse transform="matrix(-0.809 -0.5878 0.5878 -0.809 173.544 153.6878)" fill="#63C1CE" stroke="#000000" stroke-width="0.1" stroke-miterlimit="10" cx="111.741" cy="48.648" rx="0.725" ry="0.371"/>
	</g>
	<g>
		
			<rect x="113.467" y="48.442" transform="matrix(-0.978 -0.2085 0.2085 -0.978 214.6789 120.4604)" fill="#112299" stroke="#000000" stroke-width="0.1" stroke-linejoin="round" stroke-miterlimit="2" width="0.44" height="0.95"/>
		
			<ellipse transform="matrix(-0.9782 -0.2078 0.2078 -0.9782 214.3886 121.4424)" fill="#63C1CE" stroke="#000000" stroke-width="0.1" stroke-miterlimit="10" cx="113.572" cy="49.463" rx="0.725" ry="0.371"/>
	</g>
	<g>
		
			<rect x="115.238" y="48.442" transform="matrix(-0.9781 0.2082 -0.2082 -0.9781 238.5721 72.7197)" fill="#112299" stroke="#000000" stroke-width="0.1" stroke-linejoin="round" stroke-miterlimit="2" width="0.441" height="0.951"/>
		
			<ellipse transform="matrix(-0.9781 0.2081 -0.2081 -0.9781 238.9115 73.7944)" fill="#63C1CE" stroke="#000000" stroke-width="0.1" stroke-miterlimit="10" cx="115.574" cy="49.463" rx="0.725" ry="0.37"/>
	</g>
	<g>
		
			<rect x="116.856" y="47.722" transform="matrix(-0.8087 0.5882 -0.5882 -0.8087 240.1063 18.3055)" fill="#112299" stroke="#000000" stroke-width="0.1" stroke-linejoin="round" stroke-miterlimit="2" width="0.441" height="0.951"/>
		
			<ellipse transform="matrix(-0.809 0.5878 -0.5878 -0.809 240.9798 18.9935)" fill="#63C1CE" stroke="#000000" stroke-width="0.1" stroke-miterlimit="10" cx="117.404" cy="48.648" rx="0.725" ry="0.37"/>
	</g>
	<g>
		
			<rect x="118.041" y="46.406" transform="matrix(-0.5001 0.866 -0.866 -0.5001 217.9992 -32.0872)" fill="#112299" stroke="#000000" stroke-width="0.1" stroke-linejoin="round" stroke-miterlimit="2" width="0.44" height="0.951"/>
		
			<ellipse transform="matrix(-0.5002 0.8659 -0.8659 -0.5002 218.9729 -32.0773)" fill="#63C1CE" stroke="#000000" stroke-width="0.1" stroke-miterlimit="10" cx="118.744" cy="47.16" rx="0.725" ry="0.371"/>
	</g>
	<g>
		
			<rect x="118.588" y="44.721" transform="matrix(-0.1041 0.9946 -0.9946 -0.1041 176.129 -68.2611)" fill="#112299" stroke="#000000" stroke-width="0.1" stroke-linejoin="round" stroke-miterlimit="2" width="0.441" height="0.951"/>
		
			<ellipse transform="matrix(-0.1044 0.9945 -0.9945 -0.1044 176.8331 -68.731)" fill="#63C1CE" stroke="#000000" stroke-width="0.1" stroke-miterlimit="10" cx="119.363" cy="45.255" rx="0.725" ry="0.371"/>
	</g>
	<g>
		
			<rect x="118.404" y="42.96" transform="matrix(0.3092 0.951 -0.951 0.3092 123.2473 -82.8059)" fill="#112299" stroke="#000000" stroke-width="0.1" stroke-linejoin="round" stroke-miterlimit="2" width="0.441" height="0.951"/>
		
			<ellipse transform="matrix(0.309 0.951 -0.951 0.309 123.4746 -83.4282)" fill="#63C1CE" stroke="#000000" stroke-width="0.1" stroke-miterlimit="10" cx="119.154" cy="43.263" rx="0.725" ry="0.37"/>
	</g>
	<g>
		
			<rect x="117.518" y="41.427" transform="matrix(0.6684 0.7438 -0.7438 0.6684 70.2064 -73.6784)" fill="#112299" stroke="#000000" stroke-width="0.1" stroke-linejoin="round" stroke-miterlimit="2" width="0.44" height="0.95"/>
		
			<ellipse transform="matrix(0.6691 0.7432 -0.7432 0.6691 69.96 -74.0664)" fill="#63C1CE" stroke="#000000" stroke-width="0.1" stroke-miterlimit="10" cx="118.153" cy="41.528" rx="0.725" ry="0.371"/>
	</g>
	<g>
		
			<rect x="116.085" y="40.385" transform="matrix(0.9135 0.4069 -0.4069 0.9135 26.6858 -43.785)" fill="#112299" stroke="#000000" stroke-width="0.1" stroke-linejoin="round" stroke-miterlimit="2" width="0.44" height="0.951"/>
		
			<ellipse transform="matrix(0.9135 0.4068 -0.4068 0.9135 26.4894 -43.9119)" fill="#63C1CE" stroke="#000000" stroke-width="0.1" stroke-miterlimit="10" cx="116.532" cy="40.351" rx="0.725" ry="0.37"/>
	</g>
</g>
<g>
	<circle fill="#8DF7E8" stroke="#009245" stroke-width="0.1" stroke-miterlimit="10" cx="114.667" cy="32.628" r="3.603"/>
	<path fill="#CEEBEF" stroke="#006837" stroke-width="0.1" stroke-miterlimit="10" d="M116.19,32.658
		c0.991-2.871-0.682-2.871-1.523-2.871c-0.842,0-2.514,0-1.523,2.871c0.5,1.448,0.682,2.871,1.523,2.871
		C115.508,35.529,115.69,34.106,116.19,32.658z"/>
	<g>
		<path fill="none" stroke="#FF0000" stroke-width="0.1" stroke-miterlimit="10" d="M114.345,34.125
			c-0.239-0.28-0.477-0.558-0.477-0.878"/>
		<path fill="none" stroke="#FF0000" stroke-width="0.1" stroke-miterlimit="10" d="M113.868,33.247c0-0.32,0.238-0.599,0.477-0.878
			"/>
		<path fill="none" stroke="#FF0000" stroke-width="0.1" stroke-miterlimit="10" d="M114.345,32.369
			c0.238-0.28,0.477-0.558,0.477-0.878"/>
		<path fill="none" stroke="#FF0000" stroke-width="0.1" stroke-miterlimit="10" d="M114.822,31.491
			c0-0.321-0.239-0.599-0.477-0.878"/>
	</g>
	<g>
		<path fill="none" stroke="#FF0000" stroke-width="0.1" stroke-miterlimit="10" d="M115.061,34.125
			c-0.239-0.28-0.478-0.558-0.478-0.878"/>
		<path fill="none" stroke="#FF0000" stroke-width="0.1" stroke-miterlimit="10" d="M114.583,33.247c0-0.32,0.239-0.599,0.478-0.878
			"/>
		<path fill="none" stroke="#FF0000" stroke-width="0.1" stroke-miterlimit="10" d="M115.061,32.369
			c0.238-0.28,0.477-0.558,0.477-0.878"/>
		<path fill="none" stroke="#FF0000" stroke-width="0.1" stroke-miterlimit="10" d="M115.538,31.491
			c0-0.321-0.239-0.599-0.477-0.878"/>
	</g>
	<circle fill="none" stroke="#990E39" stroke-width="0.1" stroke-miterlimit="10" cx="114.667" cy="32.628" r="4.116"/>
	<g>
		
			<rect x="114.447" y="27.893" fill="#112299" stroke="#000000" stroke-width="0.1" stroke-linejoin="round" stroke-miterlimit="2" width="0.44" height="0.951"/>
		
			<ellipse fill="#63C1CE" stroke="#000000" stroke-width="0.1" stroke-miterlimit="10" cx="114.667" cy="27.811" rx="0.725" ry="0.371"/>
	</g>
	<g>
		
			<rect x="112.714" y="28.261" transform="matrix(0.9135 -0.4069 0.4069 0.9135 -1.9219 48.4343)" fill="#112299" stroke="#000000" stroke-width="0.1" stroke-linejoin="round" stroke-miterlimit="2" width="0.44" height="0.95"/>
		
			<ellipse transform="matrix(0.9137 -0.4065 0.4065 0.9137 -1.7426 48.2509)" fill="#63C1CE" stroke="#000000" stroke-width="0.1" stroke-miterlimit="10" cx="112.708" cy="28.227" rx="0.725" ry="0.371"/>
	</g>
	<g>
		
			<rect x="111.281" y="29.303" transform="matrix(0.6696 -0.7427 0.7427 0.6696 14.7255 92.6564)" fill="#112299" stroke="#000000" stroke-width="0.1" stroke-linejoin="round" stroke-miterlimit="2" width="0.44" height="0.95"/>
		
			<ellipse transform="matrix(0.6691 -0.7432 0.7432 0.6691 14.9065 92.2875)" fill="#63C1CE" stroke="#000000" stroke-width="0.1" stroke-miterlimit="10" cx="111.087" cy="29.405" rx="0.725" ry="0.371"/>
	</g>
	<g>
		
			<rect x="110.396" y="30.836" transform="matrix(0.3089 -0.9511 0.9511 0.3089 46.6658 126.845)" fill="#112299" stroke="#000000" stroke-width="0.1" stroke-linejoin="round" stroke-miterlimit="2" width="0.441" height="0.95"/>
		
			<ellipse transform="matrix(0.3091 -0.951 0.951 0.3091 46.4394 126.2059)" fill="#63C1CE" stroke="#000000" stroke-width="0.1" stroke-miterlimit="10" cx="110.086" cy="31.139" rx="0.725" ry="0.371"/>
	</g>
	<g>
		
			<rect x="110.211" y="32.598" transform="matrix(-0.1042 -0.9946 0.9946 -0.1042 89.048 146.3494)" fill="#112299" stroke="#000000" stroke-width="0.1" stroke-linejoin="round" stroke-miterlimit="2" width="0.44" height="0.95"/>
		
			<ellipse transform="matrix(-0.1047 -0.9945 0.9945 -0.1047 88.4355 145.8731)" fill="#63C1CE" stroke="#000000" stroke-width="0.1" stroke-miterlimit="10" cx="109.876" cy="33.131" rx="0.725" ry="0.371"/>
	</g>
	<g>
		
			<rect x="110.758" y="34.282" transform="matrix(-0.5001 -0.866 0.866 -0.5001 136.3764 148.2438)" fill="#112299" stroke="#000000" stroke-width="0.1" stroke-linejoin="round" stroke-miterlimit="2" width="0.44" height="0.95"/>
		
			<ellipse transform="matrix(-0.5 -0.866 0.866 -0.5 135.4027 148.2456)" fill="#63C1CE" stroke="#000000" stroke-width="0.1" stroke-miterlimit="10" cx="110.495" cy="35.036" rx="0.725" ry="0.371"/>
	</g>
	<g>
		
			<rect x="111.943" y="35.598" transform="matrix(-0.8092 -0.5875 0.5875 -0.8092 181.734 131.162)" fill="#112299" stroke="#000000" stroke-width="0.1" stroke-linejoin="round" stroke-miterlimit="2" width="0.44" height="0.951"/>
		
			<ellipse transform="matrix(-0.8092 -0.5876 0.5876 -0.8092 180.8669 131.7925)" fill="#63C1CE" stroke="#000000" stroke-width="0.1" stroke-miterlimit="10" cx="111.836" cy="36.525" rx="0.725" ry="0.371"/>
	</g>
	<g>
		
			<rect x="113.561" y="36.319" transform="matrix(-0.9781 -0.2082 0.2082 -0.9781 217.406 96.4754)" fill="#112299" stroke="#000000" stroke-width="0.1" stroke-linejoin="round" stroke-miterlimit="2" width="0.441" height="0.95"/>
		
			<ellipse transform="matrix(-0.9782 -0.2074 0.2074 -0.9782 217.1136 97.4449)" fill="#63C1CE" stroke="#000000" stroke-width="0.1" stroke-miterlimit="10" cx="113.666" cy="37.339" rx="0.725" ry="0.371"/>
	</g>
	<g>
		
			<rect x="115.332" y="36.319" transform="matrix(-0.978 0.2085 -0.2085 -0.978 236.2366 48.6904)" fill="#112299" stroke="#000000" stroke-width="0.1" stroke-linejoin="round" stroke-miterlimit="2" width="0.44" height="0.95"/>
		
			<ellipse transform="matrix(-0.9781 0.2081 -0.2081 -0.9781 236.5752 49.793)" fill="#63C1CE" stroke="#000000" stroke-width="0.1" stroke-miterlimit="10" cx="115.669" cy="37.339" rx="0.725" ry="0.371"/>
	</g>
	<g>
		
			<rect x="116.95" y="35.598" transform="matrix(-0.8092 0.5875 -0.5875 -0.8092 233.1801 -3.5744)" fill="#112299" stroke="#000000" stroke-width="0.1" stroke-linejoin="round" stroke-miterlimit="2" width="0.44" height="0.951"/>
		
			<ellipse transform="matrix(-0.809 0.5878 -0.5878 -0.809 234.0239 -2.9933)" fill="#63C1CE" stroke="#000000" stroke-width="0.1" stroke-miterlimit="10" cx="117.498" cy="36.525" rx="0.725" ry="0.371"/>
	</g>
	<g>
		
			<rect x="118.136" y="34.282" transform="matrix(-0.5001 0.866 -0.866 -0.5001 207.6416 -50.3554)" fill="#112299" stroke="#000000" stroke-width="0.1" stroke-linejoin="round" stroke-miterlimit="2" width="0.44" height="0.95"/>
		
			<ellipse transform="matrix(-0.4998 0.8662 -0.8662 -0.4998 208.5762 -50.3876)" fill="#63C1CE" stroke="#000000" stroke-width="0.1" stroke-miterlimit="10" cx="118.838" cy="35.036" rx="0.725" ry="0.371"/>
	</g>
	<g>
		
			<rect x="118.683" y="32.598" transform="matrix(-0.1042 0.9946 -0.9946 -0.1042 164.1881 -81.7353)" fill="#112299" stroke="#000000" stroke-width="0.1" stroke-linejoin="round" stroke-miterlimit="2" width="0.44" height="0.951"/>
		
			<ellipse transform="matrix(-0.1044 0.9945 -0.9945 -0.1044 164.8794 -82.2145)" fill="#63C1CE" stroke="#000000" stroke-width="0.1" stroke-miterlimit="10" cx="119.458" cy="33.131" rx="0.725" ry="0.371"/>
	</g>
	<g>
		
			<rect x="118.498" y="30.836" transform="matrix(0.3092 0.951 -0.951 0.3092 111.7831 -91.2701)" fill="#112299" stroke="#000000" stroke-width="0.1" stroke-linejoin="round" stroke-miterlimit="2" width="0.441" height="0.951"/>
		
			<ellipse transform="matrix(0.3091 0.951 -0.951 0.3091 111.9967 -91.894)" fill="#63C1CE" stroke="#000000" stroke-width="0.1" stroke-miterlimit="10" cx="119.248" cy="31.139" rx="0.725" ry="0.371"/>
	</g>
	<g>
		
			<rect x="117.612" y="29.302" transform="matrix(0.6696 0.7427 -0.7427 0.6696 61.0516 -77.6799)" fill="#112299" stroke="#000000" stroke-width="0.1" stroke-linejoin="round" stroke-miterlimit="2" width="0.44" height="0.951"/>
		
			<ellipse transform="matrix(0.6693 0.743 -0.743 0.6693 60.9543 -78.1337)" fill="#63C1CE" stroke="#000000" stroke-width="0.1" stroke-miterlimit="10" cx="118.247" cy="29.405" rx="0.725" ry="0.37"/>
	</g>
	<g>
		
			<rect x="116.179" y="28.261" transform="matrix(0.9139 0.4059 -0.4059 0.9139 21.6868 -44.7762)" fill="#112299" stroke="#000000" stroke-width="0.1" stroke-linejoin="round" stroke-miterlimit="2" width="0.44" height="0.951"/>
		
			<ellipse transform="matrix(0.9137 0.4065 -0.4065 0.9137 21.5435 -44.9693)" fill="#63C1CE" stroke="#000000" stroke-width="0.1" stroke-miterlimit="10" cx="116.626" cy="28.227" rx="0.725" ry="0.371"/>
	</g>
</g>
<text transform="matrix(1 0 0 1 1.0503 51.6997)" font-family="'Times-Roman'" font-size="72">V-p pe</text>
</svg>
