<svg xmlns="http://www.w3.org/2000/svg" width="194" height="69"><style><![CDATA[.B{fill:#129}.C{stroke-linejoin:round}.D{stroke-miterlimit:2}.E{fill:#63C1CE}.F{stroke-width:.1}.G{fill:none}.H{stroke-miterlimit:10}]]></style><path d="M26.392 62.394H2.048l10.4-26.296L2.048 9.8h24.344l10.4 26.297zm30.874 0H32.923l10.4-26.296L32.923 9.8h24.343l10.4 26.297zm30.876 0H63.797L74.2 36.098 63.797 9.8h24.345l10.4 26.297zm30.874 0H94.672l10.4-26.296L94.672 9.8h24.344l10.4 26.297zm30.884 0h-24.344l10.4-26.296-10.4-26.297H149.9l10.4 26.297zm30.875 0h-24.343l10.4-26.296-10.4-26.297h24.343l10.402 26.297z" opacity=".1" fill="#00A99D"/><g stroke-width=".5" stroke="#000" class="H"><path d="M108.54 25.86a8.52 8.52 0 0 0 .244.146 2.356 2.356 0 0 0 .243.118 1.062 1.062 0 0 0 .366.077 1.051 1.051 0 0 0 .367-.069 2.448 2.448 0 0 0 .243-.114l.122-.07.244-.15.122-.073.122-.065a1.175 1.175 0 0 1 .488-.138c.034-.001.087.001.122.004a1.133 1.133 0 0 1 .244.058l.123.05.122.06a7.603 7.603 0 0 1 .244.144l.122.075.122.073.123.067.12.057a1.355 1.355 0 0 0 .244.075 1.27 1.27 0 0 0 .122.015 1.03 1.03 0 0 0 .366-.055l.12-.048a2.316 2.316 0 0 0 .245-.129l.122-.074.122-.075.122-.073.122-.068.122-.06a1.28 1.28 0 0 1 .244-.079 1.022 1.022 0 0 1 .244-.017c.034.002.088.01.122.016a1.167 1.167 0 0 1 .244.079 2.267 2.267 0 0 1 .244.126l.122.073.122.075.122.074a3.762 3.762 0 0 0 .243.129l.122.05.122.035.122.02a1.24 1.24 0 0 0 .122.003c.034-.002.088-.008.122-.014a1.355 1.355 0 0 0 .245-.075l.12-.057.122-.066.122-.073.122-.075.122-.074a2.128 2.128 0 0 1 .244-.132 1.336 1.336 0 0 1 .245-.088.987.987 0 0 1 .365-.015 1.34 1.34 0 0 1 .122.028 1.46 1.46 0 0 1 .121.043c.035.013.088.04.123.055l.122.065.122.072.122.075a7.938 7.938 0 0 0 .244.145 2.358 2.358 0 0 0 .243.115 1.051 1.051 0 0 0 .366.07 1.25 1.25 0 0 0 .122-.009 1.166 1.166 0 0 0 .244-.066l.122-.054.122-.064.122-.07.122-.075-.066 22c0 2.18-2.687 3.948-6 3.948s-6-1.768-6-3.948V25.86z" fill="#ED1C24"/><path d="M108.54 26.036v-7.873m12.066 7.875v-7.875" class="G"/><path d="M112.73 1.193l11.5 5-3.833 8.828-11.5-5z" fill="#0071BC" stroke-width=".5"/><path d="M114.667 2.036l-2.89 6.656m5.94-5.332l-2.9 6.657m5.94-5.33l-2.9 6.656m1.363-7.32l-2.9 6.657m5.94-5.332l-2.89 6.656m-3.208-9.305l-2.9 6.657" stroke-linecap="round" class="G"/></g><g class="F"><circle cx="114.573" cy="44.751" r="3.603" fill="#FFFC92" stroke="#009245"/><g class="H"><path d="M116.097 44.782c.99-2.87-.682-2.87-1.524-2.87s-2.514 0-1.523 2.87c.5 1.448.682 2.87 1.523 2.87s1.024-1.423 1.524-2.87z" fill="#CEEBEF" stroke="#006837"/><path d="M114.25 46.25c-.24-.28-.477-.558-.477-.878m0 0c0-.32.238-.6.477-.878m0 0c.24-.28.477-.558.477-.878m.001-.001c0-.32-.238-.6-.477-.878m.715 3.513c-.24-.28-.477-.558-.477-.878m0 0c0-.32.238-.6.477-.878m0-.001c.238-.28.477-.558.477-.878m0 0c0-.32-.24-.6-.477-.878" stroke="red" class="G"/></g><circle cx="114.573" cy="44.751" r="4.116" stroke="#990E39" class="G"/><g stroke="#000"><path d="M114.353 40.017h.44v.95h-.44z" class="B C D"/><ellipse cx="114.573" cy="39.935" rx=".725" ry=".371" class="E"/><path d="M112.447 40.522l.403-.18.386.87-.403.18z" class="B C D"/><ellipse cx="112.614" cy="40.351" rx=".725" ry=".371" transform="matrix(.913503 -.406832 .406832 .913503 -6.677733 49.299824)" class="E"/><path d="M110.902 41.75l.295-.327.706.635-.295.328z" class="B C D F"/><ellipse cx="110.993" cy="41.528" rx=".725" ry=".37" transform="matrix(.668923 -.743332 .743332 .668923 5.877985 96.25721)" class="E"/><path d="M109.998 43.498l.135-.42.905.293-.135.42z" class="B C D F"/><ellipse cx="109.992" cy="43.263" rx=".725" ry=".371" transform="matrix(.309017 -.951057 .951057 .309017 34.849003 134.505539)" class="E"/><path d="M109.9 45.462l-.046-.438.944-.1.046.44z" class="B C D F"/><ellipse cx="109.782" cy="45.255" rx=".725" ry=".37" transform="matrix(-.104702 -.994504 .994504 -.104702 76.274452 159.173767)" class="E"/><path d="M110.58 47.306l-.22-.38.824-.476.22.38z" class="B C D F"/><ellipse cx="110.401" cy="47.16" rx=".725" ry=".371" transform="matrix(-.500197 -.865912 .865912 -.500197 124.781189 166.349579)" class="E"/><path d="M111.965 48.715l-.357-.26.56-.77.356.26z" class="B C D F"/><ellipse cx="111.741" cy="48.648" rx=".725" ry=".371" transform="matrix(-.808996 -.587813 .587813 -.808996 173.541946 153.690552)" class="E"/><path d="M113.808 49.426l-.43-.09.198-.93.43.092z" class="B C D F"/><ellipse cx="113.572" cy="49.463" rx=".725" ry=".371" transform="matrix(-.978173 -.207792 .207792 -.978173 214.3806 121.437569)" class="E"/><path d="M115.772 49.33l-.43.092-.198-.93.43-.092z" class="B C D F"/><ellipse cx="115.574" cy="49.463" rx=".725" ry=".37" transform="matrix(-.9781 .208134 -.208134 -.9781 238.914063 73.789719)" class="E"/><path d="M117.535 48.447l-.357.26-.56-.77.357-.26z" class="B C D F"/><ellipse cx="117.404" cy="48.648" rx=".725" ry=".37" transform="matrix(-.808996 .587813 -.587813 -.808996 240.97937 18.992407)" class="E"/><path d="M118.78 46.93l-.22.38-.824-.475.22-.38z" class="B C D F"/><ellipse cx="118.744" cy="47.16" rx=".725" ry=".371" transform="matrix(-.500197 .865912 -.865912 -.500197 218.972275 -32.078587)" class="E"/><path d="M119.304 45.03l-.045.44-.946-.1.046-.438z" class="B C D F"/><ellipse cx="119.363" cy="45.255" rx=".725" ry=".371" transform="matrix(-.104407 .994535 -.994535 -.104407 176.83847 -68.733116)" class="E"/><path d="M119.003 43.08l.136.42-.904.294-.137-.42z" class="B C D"/><ellipse cx="119.154" cy="43.263" rx=".725" ry=".37" transform="matrix(.309017 .951057 -.951057 .309017 123.475311 -83.435188)" class="E"/><path d="M117.942 41.42l.294.328-.706.635-.295-.328z" class="B C D"/><ellipse cx="118.153" cy="41.528" rx=".725" ry=".371" transform="matrix(.669105 .743168 -.743168 .669105 69.959053 -74.06324)" class="E"/><path d="M116.297 40.342l.402.18-.387.868-.402-.18z" class="B C D F"/><ellipse cx="116.532" cy="40.351" rx=".725" ry=".37" transform="matrix(.913503 .406832 -.406832 .913503 26.490437 -43.915623)" class="E"/></g><circle cx="114.667" cy="32.628" r="3.603" fill="#8DF7E8" stroke="#009245"/><g class="H"><path d="M116.2 32.658c.99-2.87-.682-2.87-1.523-2.87s-2.514 0-1.523 2.87c.5 1.448.682 2.87 1.523 2.87s1.023-1.423 1.523-2.87z" fill="#CEEBEF" stroke="#006837"/><path d="M114.345 34.125c-.24-.28-.477-.558-.477-.878m0 0c0-.32.238-.6.477-.878m0 0c.238-.28.477-.558.477-.878m0 0c0-.32-.24-.6-.477-.878m.715 3.512c-.24-.28-.478-.558-.478-.878m0 0c0-.32.24-.6.478-.878m0 0c.238-.28.477-.558.477-.878m0 0c0-.32-.24-.6-.477-.878" stroke="red" class="G"/></g><circle cx="114.667" cy="32.628" r="4.116" stroke="#990E39" class="G"/><g stroke="#000"><path d="M114.447 27.893h.44v.95h-.44z" class="B C D"/><ellipse cx="114.667" cy="27.811" rx=".725" ry=".371" class="E"/><path d="M112.542 28.387l.402-.18.386.868-.402.18z" class="B C D F"/><ellipse cx="112.708" cy="28.227" rx=".725" ry=".371" transform="matrix(.913659 -.406482 .406482 .913659 -1.742458 48.248749)" class="E"/><path d="M111.003 29.63l.294-.327.706.636-.295.326z" class="B C D F"/><ellipse cx="111.087" cy="29.405" rx=".725" ry=".371" transform="matrix(.669105 -.743168 .743168 .669105 14.906876 92.283821)" class="E"/><path d="M110.095 31.373l.136-.42.904.294-.136.42z" class="B C D F"/><ellipse cx="110.086" cy="31.139" rx=".725" ry=".371" transform="matrix(.309117 -.951024 .951024 .309117 46.44006 126.208298)" class="E"/><path d="M109.986 33.337l-.046-.438.945-.1.046.438z" class="B C D F"/><ellipse cx="109.876" cy="33.131" rx=".725" ry=".371" transform="matrix(-.104702 -.994504 .994504 -.104702 88.435654 145.87384)" class="E"/><path d="M110.675 35.183l-.22-.38.822-.475.22.38z" class="B C D F"/><ellipse cx="110.495" cy="35.036" rx=".725" ry=".371" transform="matrix(-.5 -.866025 .866025 -.5 135.402573 148.248703)" class="E"/><path d="M112.064 36.6l-.356-.26.558-.77.356.26z" class="B C D F"/><ellipse cx="111.836" cy="36.525" rx=".725" ry=".371" transform="matrix(-.809171 -.587573 .587573 -.809171 180.858704 131.786118)" class="E"/><path d="M113.894 37.308l-.432-.09.198-.93.43.092z" class="B C D F"/><ellipse cx="113.666" cy="37.339" rx=".725" ry=".371" transform="matrix(-.978253 -.207417 .207417 -.978253 217.130768 97.453285)" class="E"/><path d="M115.87 37.217l-.43.092-.2-.93.43-.09z" class="B C D F"/><ellipse cx="115.669" cy="37.339" rx=".725" ry=".371" transform="matrix(-.9781 .208134 -.208134 -.9781 236.576599 49.787663)" class="E"/><path d="M117.63 36.328l-.356.258-.558-.77.356-.258z" class="B C D F"/><ellipse cx="117.498" cy="36.525" rx=".725" ry=".371" transform="matrix(-.808996 .587813 -.587813 -.808996 234.024582 -2.995711)" class="E"/><path d="M118.874 34.806l-.22.38-.823-.475.22-.38z" class="B C D F"/><ellipse cx="118.838" cy="35.036" rx=".725" ry=".371" transform="matrix(-.499773 .866156 -.866156 -.499773 208.56543 -50.38525)" class="E"/><path d="M119.4 32.9l-.046.438-.946-.1.045-.437z" class="B C D F"/><ellipse cx="119.458" cy="33.131" rx=".725" ry=".371" transform="matrix(-.104407 .994535 -.994535 -.104407 164.885529 -82.216568)" class="E"/><path d="M119.098 30.956l.136.42-.904.293-.137-.42z" class="B C D"/><ellipse cx="119.248" cy="31.139" rx=".725" ry=".371" transform="matrix(.309117 .951024 -.951024 .309117 111.999199 -91.896645)" class="E"/><path d="M118.042 29.29l.295.327-.707.637-.294-.327z" class="B C D F"/><ellipse cx="118.247" cy="29.405" rx=".725" ry=".37" transform="matrix(.669299 .742993 -.742993 .669299 60.954231 -78.133263)" class="E"/><path d="M116.392 28.21l.402.178-.386.87-.402-.18z" class="B C D F"/><ellipse cx="116.626" cy="28.227" rx=".725" ry=".371" transform="matrix(.913659 .406482 -.406482 .913659 21.542521 -44.96722)" class="E"/></g></g><text transform="translate(1.05 51.7)" font-family="'Times-Roman'" font-size="72">V-p pe</text></svg>