<?xml version="1.0" encoding="utf-8"?>
<!-- Generator: Adobe Illustrator 19.1.0, SVG Export Plug-In . SVG Version: 6.00 Build 0)  -->
<svg version="1.1" id="Layer_1" xmlns="http://www.w3.org/2000/svg" xmlns:xlink="http://www.w3.org/1999/xlink" x="0px" y="0px"
	 viewBox="0 0 891.6 793.7" style="enable-background:new 0 0 891.6 793.7;" xml:space="preserve">
<style type="text/css">
	.st0{fill:none;stroke:#000000;stroke-width:2;stroke-linecap:round;stroke-miterlimit:1;}
	.st1{fill:none;stroke:#8E867F;stroke-width:2;}
	.st2{fill:none;stroke:#8E867F;stroke-width:2;stroke-dasharray:8,3;}
	.st3{fill:none;stroke:#211B1C;stroke-width:2;}
	.st4{fill-rule:evenodd;clip-rule:evenodd;fill:#211B1C;}
	.st5{fill:none;stroke:#211B1C;}
	.st6{fill:none;stroke:#000000;stroke-width:2;}
	.st7{fill:none;stroke:#8E867F;stroke-width:2;stroke-dasharray:6,2;}
	.st8{fill:#211B1C;}
	.st9{fill:#DDBD6E;}
	.st10{fill:none;stroke:#DDBD6E;stroke-width:2;}
	.st11{opacity:0.4423;fill:#1F5469;}
	.st12{fill:none;stroke:#246D53;stroke-width:2;}
	.st13{fill:#070606;}
	.st14{font-family:'Times-Roman';}
	.st15{font-size:18px;}
	.st16{font-size:14px;}
	.st17{fill:#DDBD6E;stroke:#951401;}
	.st18{fill:none;stroke:#000000;stroke-width:2;stroke-linecap:round;stroke-linejoin:round;}
	.st19{fill-rule:evenodd;clip-rule:evenodd;stroke:#000000;}
	.st20{fill:none;stroke:#000000;}
	.st21{stroke:#000000;stroke-width:1.6;stroke-linecap:round;stroke-linejoin:round;}
	.st22{fill-rule:evenodd;clip-rule:evenodd;}
	.st23{fill:none;stroke:#000000;stroke-width:0.8;}
	.st24{fill:none;stroke:#000000;stroke-width:2;stroke-linejoin:round;}
	.st25{fill:#951401;}
	.st26{font-family:'Times-Bold';}
	.st27{letter-spacing:105;}
	.st28{opacity:0.4431;fill:#1F5469;}
	.st29{fill:none;stroke:#8E867F;stroke-width:2;stroke-dasharray:8,2;}
	.st30{fill-rule:evenodd;clip-rule:evenodd;fill:#8E867F;}
	.st31{fill:none;stroke:#8E867F;}
	.st32{fill:none;stroke:#211B1C;stroke-width:2;stroke-linecap:round;stroke-linejoin:round;}
	.st33{font-family:'Times-Italic';}
	.st34{fill:none;stroke:#211B1C;stroke-width:1.6;}
	.st35{fill:none;stroke:#951401;stroke-width:2;}
	.st36{fill:none;}
	.st37{font-family:'ArialMT';}
	.st38{font-size:16px;}
	.st39{font-family:'Arial-BoldMT';}
	.st40{fill:#DDBD6E;stroke:#951401;stroke-width:2;}
	.st41{fill:none;stroke:#000000;stroke-width:1.6;stroke-linecap:round;}
	.st42{fill:none;stroke:#000000;stroke-width:1.6;}
</style>
<path class="st0" d="M263.8,430.8c135.3,0,135.3,48,135.3,48"/>
<g>
	<g>
		<line class="st1" x1="322" y1="208.8" x2="318" y2="208.8"/>
		<line class="st2" x1="316" y1="208.8" x2="91" y2="208.8"/>
		<line class="st1" x1="90" y1="208.8" x2="86" y2="208.8"/>
	</g>
</g>
<path class="st3" d="M399,487.2v-84.4V487.2z"/>
<polygon class="st4" points="399.3,491.3 396.1,485.8 402.5,485.8 "/>
<polygon class="st5" points="399.3,490.8 396.1,485.3 402.5,485.3 "/>
<path class="st6" d="M534.3,272.3c-135.3,0-135.3,48-135.3,48"/>
<g>
	<g>
		<line class="st1" x1="87" y1="430.8" x2="91" y2="430.8"/>
		<line class="st7" x1="93" y1="430.8" x2="108" y2="430.8"/>
		<line class="st1" x1="109" y1="430.8" x2="113" y2="430.8"/>
	</g>
</g>
<g>
	<g>
		<path class="st3" d="M399,333.3v-81.5V333.3z"/>
		<g>
			<polygon class="st8" points="403.4,331.8 399,339.6 394.5,331.8 			"/>
		</g>
	</g>
</g>
<path class="st3" d="M399,186.5V95.4V186.5z"/>
<polygon class="st4" points="399.3,191.3 396.1,185.8 402.5,185.8 "/>
<polygon class="st5" points="399.3,190.8 396.1,185.3 402.5,185.3 "/>
<rect x="324" y="68.8" class="st9" width="151" height="27"/>
<rect x="324" y="68.8" class="st10" width="151" height="27"/>
<rect x="324" y="10.8" class="st11" width="151" height="58"/>
<rect x="324" y="10.8" class="st12" width="151" height="58"/>
<text transform="matrix(1 0 0 1 345.9026 32.8335)" class="st13 st14 st15">Raw reads</text>
<text transform="matrix(1 0 0 1 345.9026 55.3335)"><tspan x="0" y="0" class="st13 st14 st15">Qual</tspan><tspan x="35" y="0" class="st13 st14 st15">i</tspan><tspan x="40" y="0" class="st13 st14 st15">ty scores</tspan></text>
<text transform="matrix(1 0 0 1 347.0047 87.2539)" class="st13 st14 st16">FASTQ</text>
<g>
	<rect x="324" y="224.8" class="st9" width="151" height="27"/>
	<rect x="324" y="224.8" class="st10" width="151" height="27"/>
	<rect x="324" y="192.8" class="st3" width="151" height="32"/>
	<text transform="matrix(1 0 0 1 350.3131 212.3352)"><tspan x="0" y="0" class="st13 st14 st15">Fil</tspan><tspan x="20" y="0" class="st13 st14 st15">t</tspan><tspan x="25" y="0" class="st13 st14 st15">ered </tspan><tspan x="60.5" y="0" class="st13 st14 st15">r</tspan><tspan x="66.5" y="0" class="st13 st14 st15">eads</tspan></text>
	<text transform="matrix(1 0 0 1 347.0047 243.3354)" class="st13 st14 st16">FASTQ</text>
</g>
<text transform="matrix(1 0 0 1 408.264 141.7201)"><tspan x="0" y="0" class="st13 st14 st15">Qual</tspan><tspan x="35" y="0" class="st13 st14 st15">i</tspan><tspan x="40" y="0" class="st13 st14 st15">ty assurance</tspan><tspan x="0" y="21.6" class="st13 st14 st15">PRINSEQ </tspan></text>
<text transform="matrix(1 0 0 1 280.6952 291.9108)"><tspan x="0" y="0" class="st13 st14 st15">Read alignment</tspan><tspan x="0" y="21.6" class="st13 st14 st15">MAFFT </tspan></text>
<text transform="matrix(1 0 0 1 408.39 443.6816)" class="st13 st14 st15">Profile </text>
<text transform="matrix(1 0 0 1 408.39 466.1816)" class="st13 st14 st15">HMM</text>
<text transform="matrix(1 0 0 1 339.9949 628.0166)"><tspan x="0" y="0" class="st13 st14 st15">Loc</tspan><tspan x="28" y="0" class="st13 st14 st15">a</tspan><tspan x="36" y="0" class="st13 st14 st15">l Haplotype</tspan><tspan x="8.8" y="21.6" class="st13 st14 st15">reconstruction</tspan><tspan x="25" y="43.2" class="st13 st14 st15">ShoRAH </tspan></text>
<text transform="matrix(1 0 0 1 230.8133 628.2148)"><tspan x="0" y="0" class="st13 st14 st15">SNV</tspan><tspan x="-6.5" y="21.6" class="st13 st14 st15">calling</tspan><tspan x="-10.7" y="43.2" class="st13 st14 st15">LoFreq </tspan></text>
<text transform="matrix(1 0 0 1 500.5208 628.2148)"><tspan x="0" y="0" class="st13 st14 st15">Global Haplotype</tspan><tspan x="12.8" y="21.6" class="st13 st14 st15">reconstruction</tspan><tspan x="-25" y="43.2" class="st13 st14 st15">SAVAGE, HaploClique </tspan></text>
<rect x="349.5" y="728.3" class="st17" width="99" height="26"/>
<text transform="matrix(1 0 0 1 360.8431 746.917)" class="st13 st14 st16">BAM</text>
<rect x="199.5" y="728.3" class="st17" width="98" height="26"/>
<text transform="matrix(1 0 0 1 210.9217 746.8008)" class="st13 st14 st16">VCF</text>
<rect x="515.5" y="728.3" class="st17" width="98" height="26"/>
<text transform="matrix(1 0 0 1 526.7249 746.8418)" class="st13 st14 st16">FASTA</text>
<path class="st18" d="M565,721.5v-44.4V721.5z"/>
<polygon class="st19" points="565,724.8 561.8,719.3 568.2,719.3 "/>
<polygon class="st20" points="565,724.8 561.8,719.3 568.2,719.3 "/>
<path class="st21" d="M453.1,722l107.2-45.3L453.1,722z"/>
<polygon class="st22" points="449.7,723.4 453.6,718.3 456.1,724.2 "/>
<polygon class="st23" points="449.7,723.4 453.6,718.3 456.1,724.2 "/>
<g>
	<g>
		<path class="st24" d="M249,719.8v-42.6V719.8z"/>
		<g>
			<polygon points="253.4,718.8 249,726.6 244.5,718.8 			"/>
		</g>
	</g>
</g>
<g>
	<rect x="324" y="374.8" class="st9" width="151" height="27"/>
	<rect x="324" y="375.8" class="st10" width="151" height="27"/>
	<rect x="324" y="340.8" class="st3" width="151" height="33"/>
	<text transform="matrix(1 0 0 1 345.8411 361.5032)" class="st13 st14 st15">Aligned reads</text>
	<text transform="matrix(1 0 0 1 346.9627 392.989)" class="st13 st14 st16">BAM</text>
	<text transform="matrix(1 0 0 1 446.1624 399.1985)" class="st25 st26 st16">con.</text>
</g>
<text transform="matrix(1 0 0 1 269.6453 750.1436)"><tspan x="0" y="0" class="st25 st26 st16">con</tspan><tspan x="21" y="0" class="st25 st26 st16 st27">.</tspan></text>
<text transform="matrix(1 0 0 1 585.6448 750.1436)" class="st25 st26 st16">con.</text>
<g>
	<g>
		<path class="st24" d="M400,719.8v-42.7V719.8z"/>
		<g>
			<polygon points="404.4,718.8 400,726.6 395.5,718.8 			"/>
		</g>
	</g>
</g>
<g>
	<rect x="112" y="446.8" class="st9" width="152" height="26"/>
	<rect x="112" y="446.8" class="st10" width="152" height="26"/>
	<text transform="matrix(1 0 0 1 149.845 436.2422)" class="st13 st14 st15">Reference</text>
	<text transform="matrix(1 0 0 1 150.1746 466.0933)" class="st13 st14 st16">FASTA</text>
	<rect x="112" y="413.8" class="st28" width="152" height="33"/>
	<rect x="112" y="413.8" class="st12" width="152" height="33"/>
</g>
<g>
	<g>
		<line class="st1" x1="315" y1="505.8" x2="311" y2="505.8"/>
		<line class="st29" x1="309" y1="505.8" x2="91" y2="505.8"/>
		<line class="st1" x1="90" y1="505.8" x2="86" y2="505.8"/>
	</g>
</g>
<polygon class="st30" points="319.5,505.5 314,508.7 314,502.3 "/>
<polygon class="st31" points="319,505.5 313.5,508.7 313.5,502.3 "/>
<g>
	<g>
		<line class="st1" x1="87" y1="208.8" x2="87" y2="212.8"/>
		<line class="st2" x1="87" y1="214.8" x2="87" y2="499.8"/>
		<line class="st1" x1="87" y1="501.8" x2="87" y2="505.8"/>
	</g>
</g>
<g>
	<g>
		<line class="st18" x1="394.2" y1="677.2" x2="276.9" y2="721.6"/>
		<g>
			<polygon points="276.5,716.5 270.2,724.2 280,725.8 			"/>
		</g>
	</g>
</g>
<g>
	<rect x="534" y="287.8" class="st9" width="152" height="27"/>
	<rect x="534" y="288.8" class="st10" width="152" height="27"/>
	<rect x="534" y="255.8" class="st3" width="152" height="33"/>
	<text transform="matrix(1 0 0 1 556.5618 278.1147)" class="st13 st14 st15">Consensus</text>
	<text transform="matrix(1 0 0 1 557.6829 307.3687)" class="st13 st14 st16">FASTA</text>
</g>
<line class="st32" x1="475" y1="208.8" x2="609" y2="208.8"/>
<line class="st3" x1="609" y1="251.8" x2="609" y2="208.8"/>
<polygon class="st4" points="609.1,255.3 605.9,249.8 612.3,249.8 "/>
<polygon class="st5" points="609.1,254.8 605.9,249.3 612.3,249.3 "/>
<text transform="matrix(1 0 0 1 617.9896 224.9448)"><tspan x="0" y="0" class="st13 st33 st15">De novo</tspan><tspan x="60.5" y="0" class="st13 st14 st15"> </tspan></text>
<text transform="matrix(1 0 0 1 617.9896 247.4448)" class="st13 st14 st15">assembly</text>
<g>
	<g>
		<line class="st34" x1="476" y1="501.3" x2="633.5" y2="432.4"/>
		<g>
			<polygon class="st8" points="634,436.5 638.7,430.1 630.8,429.2 			"/>
		</g>
	</g>
</g>
<g>
	<text transform="matrix(1 0 0 1 655.847 438.0195)" class="st13 st14 st15">Consensus</text>
	<rect x="642" y="448.8" class="st9" width="152" height="26"/>
	<rect x="642" y="448.8" class="st35" width="152" height="26"/>
	<text transform="matrix(1 0 0 1 665.3626 467.9688)" class="st13 st14 st16">FASTA</text>
	<rect x="642" y="415.8" class="st3" width="152" height="33"/>
</g>
<g>
	<text transform="matrix(1 0 0 1 656.0931 593.8721)" class="st13 st14 st15">MAFs</text>
	<rect x="642" y="603.8" class="st9" width="152" height="27"/>
	<rect x="642" y="603.8" class="st35" width="152" height="27"/>
	<text transform="matrix(1 0 0 1 665.3626 623.7686)" class="st13 st14 st16">TSV</text>
	<rect x="642" y="571.8" class="st3" width="152" height="32"/>
</g>
<g>
	<rect x="693" y="659.8" class="st28" width="57" height="15"/>
	<rect x="693" y="659.8" class="st12" width="57" height="15"/>
</g>
<rect x="693" y="685.8" class="st35" width="57" height="15"/>
<rect x="693" y="709.8" class="st9" width="57" height="16"/>
<rect x="761.7" y="658.2" class="st36" width="123.9" height="147.2"/>
<text transform="matrix(1 0 0 1 761.7419 669.684)"><tspan x="0" y="0" class="st37 st38">Input</tspan><tspan x="0" y="27" class="st37 st38">Output</tspan><tspan x="0" y="54" class="st37 st38">File format</tspan><tspan x="0" y="79" class="st39 st38">Implementation:</tspan><tspan x="0" y="96" class="st37 st38">Snakemake + </tspan><tspan x="0" y="113" class="st37 st38">Conda</tspan></text>
<line class="st32" x1="87" y1="517.8" x2="324" y2="517.8"/>
<g>
	<g>
		<line class="st3" x1="87" y1="568.8" x2="87" y2="516.8"/>
		<g>
			<polygon class="st8" points="90.9,567.8 86.9,574.7 82.9,567.8 			"/>
		</g>
	</g>
</g>
<text transform="matrix(1 0 0 1 91.7839 539.1297)"><tspan x="0" y="0" class="st13 st14 st15">Detect cross-</tspan><tspan x="0" y="21.6" class="st13 st14 st15">contamination </tspan></text>
<rect x="11" y="609.8" class="st40" width="152" height="27"/>
<text transform="matrix(1 0 0 1 33.0671 596.7184)" class="st13 st14 st15">Aligned reads</text>
<text transform="matrix(1 0 0 1 34.1887 628.444)" class="st13 st14 st16">BAM</text>
<text transform="matrix(1 0 0 1 133.3884 631.653)" class="st25 st26 st16">ref.</text>
<rect x="11" y="608.9" class="st36" width="151.8" height="26.5"/>
<rect x="11" y="575.8" class="st3" width="152" height="32"/>
<g>
	<g>
		<line class="st6" x1="399" y1="553.8" x2="399" y2="604.8"/>
		<g>
			<polygon points="395.3,603.8 399.3,610.7 403.3,603.8 			"/>
		</g>
	</g>
</g>
<g>
	<g>
		<line class="st41" x1="559.9" y1="605.7" x2="449.7" y2="553.9"/>
		<g>
			<polygon points="560.5,601.6 565,608.1 557.1,608.8 			"/>
		</g>
	</g>
</g>
<g>
	<g>
		<line class="st41" x1="254.5" y1="605.7" x2="364.6" y2="553.9"/>
		<g>
			<polygon points="257.3,608.8 249.3,608.1 253.9,601.6 			"/>
		</g>
	</g>
</g>
<g>
	<rect x="324" y="525.8" class="st9" width="151" height="27"/>
	<text transform="matrix(1 0 0 1 345.8411 513.7188)" class="st13 st14 st15">Aligned reads</text>
	<rect x="324" y="525.8" class="st10" width="151" height="27"/>
	<text transform="matrix(1 0 0 1 346.9627 545.4443)" class="st13 st14 st16">BAM</text>
	<text transform="matrix(1 0 0 1 446.1624 548.6533)" class="st25 st26 st16">ref.</text>
	<rect x="324" y="492.8" class="st3" width="151" height="33"/>
</g>
<text transform="matrix(1 0 0 1 419.8129 750.1442)" class="st25 st26 st16">con.</text>
<g>
	<text transform="matrix(1 0 0 1 655.847 516.2975)" class="st13 st14 st15">MSA</text>
	<rect x="642" y="526.8" class="st9" width="152" height="26"/>
	<text transform="matrix(1 0 0 1 665.3626 546.2467)" class="st13 st14 st16">FASTA</text>
	<rect x="642" y="526.8" class="st35" width="152" height="26"/>
	<rect x="642" y="493.8" class="st3" width="152" height="33"/>
</g>
<g>
	<g>
		<line class="st42" x1="476" y1="509.6" x2="634.3" y2="508.8"/>
		<g>
			<polygon points="633.2,512.8 640.1,508.8 633.1,504.8 			"/>
		</g>
	</g>
</g>
<g>
	<g>
		<line class="st34" x1="633.5" y1="585.7" x2="476" y2="516.8"/>
		<g>
			<polygon class="st8" points="634,581.5 638.7,588 630.8,588.8 			"/>
		</g>
	</g>
</g>
</svg>
