<svg xmlns="http://www.w3.org/2000/svg" viewBox="0 0 891.6 793.7"><style><![CDATA[.A{stroke:#8e867f}.A,.B,.C{fill:none;stroke-width:2}.B{stroke-dasharray:8,3;stroke:#8e867f}.C{stroke:#211b1c}.D{fill-rule:evenodd;clip-rule:evenodd;fill:#211b1c}.E,.F{fill:none;stroke:#211b1c}.F{stroke:#000;stroke-width:2}.G{fill:#211b1c}.H{fill:#ddbd6e}.I,.J{fill:none;stroke:#ddbd6e;stroke-width:2}.J{stroke:#246d53}.K{fill:#070606}.L{font-family:'Times-Roman'}.M{font-size:18px}.N{font-size:14px}.O{fill:#ddbd6e;stroke:#951401}.P{stroke-linecap:round}.P,.Q{fill:none;stroke:#000;stroke-width:2;stroke-linejoin:round}.R{fill:#951401}.S{font-family:'Times-Bold'}.T{opacity:.4431;fill:#1f5469}.U,.V{fill:none;stroke:#211b1c}.U{stroke-linecap:round;stroke-linejoin:round;stroke-width:2}.V{stroke-width:1.6}.W{stroke:#951401;stroke-width:2}.W,.X{fill:none}.Y{font-family:'ArialMT'}.Z{font-size:16px}.a{fill:none;stroke:#000;stroke-width:1.6;stroke-linecap:round}]]></style><path d="M263.8 430.8c135.3 0 135.3 48 135.3 48" fill="none" stroke="#000" stroke-linecap="round" stroke-miterlimit="1" stroke-width="2"/><path d="M322 208.8h-4" class="A"/><path d="M316 208.8H91" class="B"/><path d="M90 208.8h-4" class="A"/><path d="M399 487.2v-84.4 84.4z" class="C"/><path d="M399.3 491.3l-3.2-5.5h6.4z" class="D"/><path d="M399.3 490.8l-3.2-5.5h6.4z" class="E"/><path d="M534.3 272.3c-135.3 0-135.3 48-135.3 48" class="F"/><path d="M87 430.8h4" class="A"/><path d="M93 430.8h15" fill="none" stroke="#8e867f" stroke-dasharray="6 2" stroke-width="2"/><path d="M109 430.8h4" class="A"/><path d="M399 333.3v-81.5 81.5z" class="C"/><path d="M403.4 331.8l-4.4 7.8-4.5-7.8z" class="G"/><path d="M399 186.5V95.4v91.1z" class="C"/><path d="M399.3 191.3l-3.2-5.5h6.4z" class="D"/><path d="M399.3 190.8l-3.2-5.5h6.4z" class="E"/><path d="M324 68.8h151v27H324z" class="H"/><path d="M324 68.8h151v27H324z" class="I"/><path d="M324 10.8h151v58H324z" fill="#1f5469" opacity=".442"/><path d="M324 10.8h151v58H324z" class="J"/><text class="K L M" transform="translate(345.903 32.834)">Raw reads</text><text transform="translate(345.903 55.334)"><tspan class="K L M" x="0" y="0">Qual</tspan><tspan x="35" class="K L M" y="0">i</tspan><tspan x="40" class="K L M" y="0">ty scores</tspan></text><text class="K L N" transform="translate(347.005 87.254)">FASTQ</text><path d="M324 224.8h151v27H324z" class="H"/><path d="M324 224.8h151v27H324z" class="I"/><path d="M324 192.8h151v32H324z" class="C"/><text transform="translate(350.313 212.335)"><tspan class="K L M" x="0" y="0">Fil</tspan><tspan x="20" class="K L M" y="0">t</tspan><tspan x="25" class="K L M" y="0">ered </tspan><tspan x="60.5" class="K L M" y="0">r</tspan><tspan x="66.5" class="K L M" y="0">eads</tspan></text><text class="K L N" transform="translate(347.005 243.335)">FASTQ</text><text transform="translate(408.264 141.72)"><tspan class="K L M" x="0" y="0">Qual</tspan><tspan x="35" class="K L M" y="0">i</tspan><tspan x="40" class="K L M" y="0">ty assurance</tspan><tspan y="21.6" class="K L M" x="0">PRINSEQ</tspan></text><text transform="translate(280.695 291.91)"><tspan class="K L M" x="0" y="0">Read alignment</tspan><tspan y="21.6" class="K L M" x="0">MAFFT</tspan></text><text class="K L M" transform="translate(408.39 443.682)">Profile</text><text class="K L M" transform="translate(408.39 466.182)">HMM</text><text transform="translate(339.995 628.017)"><tspan class="K L M" x="0" y="0">Loc</tspan><tspan x="28" class="K L M" y="0">a</tspan><tspan x="36" class="K L M" y="0">l Haplotype</tspan><tspan x="8.8" y="21.6" class="K L M">reconstruction</tspan><tspan x="25" y="43.2" class="K L M">ShoRAH</tspan></text><text transform="translate(230.813 628.215)"><tspan class="K L M" x="0" y="0">SNV</tspan><tspan x="-6.5" y="21.6" class="K L M">calling</tspan><tspan x="-10.7" y="43.2" class="K L M">LoFreq</tspan></text><text transform="translate(500.52 628.215)"><tspan class="K L M" x="0" y="0">Global Haplotype</tspan><tspan x="12.8" y="21.6" class="K L M">reconstruction</tspan><tspan x="-25" y="43.2" class="K L M">SAVAGE, HaploClique</tspan></text><path d="M349.5 728.3h99v26h-99z" class="O"/><text class="K L N" transform="translate(360.843 746.917)">BAM</text><path d="M199.5 728.3h98v26h-98z" class="O"/><text class="K L N" transform="translate(210.922 746.8)">VCF</text><path d="M515.5 728.3h98v26h-98z" class="O"/><text class="K L N" transform="translate(526.725 746.842)">FASTA</text><path d="M565 721.5v-44.4 44.4z" class="P"/><g stroke="#000"><path d="M565 724.8l-3.2-5.5h6.4z" fill-rule="evenodd"/><path d="M565 724.8l-3.2-5.5h6.4z" fill="none"/><path d="M453.1 722l107.2-45.3L453.1 722z" stroke-linejoin="round" stroke-width="1.6"/></g><path d="M449.7 723.4l3.9-5.1 2.5 5.9z" fill-rule="evenodd"/><path d="M449.7 723.4l3.9-5.1 2.5 5.9z" fill="none" stroke="#000" stroke-width=".8"/><path d="M249 719.8v-42.6 42.6z" class="Q"/><path d="M253.4 718.8l-4.4 7.8-4.5-7.8z"/><path d="M324 374.8h151v27H324z" class="H"/><path d="M324 375.8h151v27H324z" class="I"/><path d="M324 340.8h151v33H324z" class="C"/><text class="K L M" transform="translate(345.841 361.503)">Aligned reads</text><text class="K L N" transform="translate(346.963 392.989)">BAM</text><text class="R S N" transform="translate(446.162 399.199)">con.</text><text transform="translate(269.645 750.144)"><tspan class="R S N" x="0" y="0">con</tspan><tspan class="R S N" x="21" letter-spacing="105" y="0">.</tspan></text><text class="R S N" transform="translate(585.645 750.144)">con.</text><path d="M400 719.8v-42.7 42.7z" class="Q"/><path d="M404.4 718.8l-4.4 7.8-4.5-7.8z"/><path d="M112 446.8h152v26H112z" class="H"/><path d="M112 446.8h152v26H112z" class="I"/><text class="K L M" transform="translate(149.845 436.242)">Reference</text><text class="K L N" transform="translate(150.175 466.093)">FASTA</text><path d="M112 413.8h152v33H112z" class="T"/><path d="M112 413.8h152v33H112z" class="J"/><path d="M315 505.8h-4" class="A"/><path d="M309 505.8H91" fill="none" stroke="#8e867f" stroke-dasharray="8 2" stroke-width="2"/><path d="M90 505.8h-4" class="A"/><path d="M319.5 505.5l-5.5 3.2v-6.4z" fill="#8e867f" fill-rule="evenodd"/><path d="M319 505.5l-5.5 3.2v-6.4z" fill="none" stroke="#8e867f"/><path d="M87 208.8v4" class="A"/><path d="M87 214.8v285" class="B"/><path d="M87 501.8v4" class="A"/><path d="M394.2 677.2l-117.3 44.4" class="P"/><path d="M276.5 716.5l-6.3 7.7 9.8 1.6z"/><path d="M534 287.8h152v27H534z" class="H"/><path d="M534 288.8h152v27H534z" class="I"/><path d="M534 255.8h152v33H534z" class="C"/><text class="K L M" transform="translate(556.562 278.115)">Consensus</text><text class="K L N" transform="translate(557.683 307.369)">FASTA</text><path d="M475 208.8h134" class="U"/><path d="M609 251.8v-43" class="C"/><path d="M609.1 255.3l-3.2-5.5h6.4z" class="D"/><path d="M609.1 254.8l-3.2-5.5h6.4z" class="E"/><text transform="translate(617.99 224.945)"><tspan class="K M" font-family="Times-Italic" x="0" y="0">De novo</tspan></text><text class="K L M" transform="translate(617.99 247.445)">assembly</text><path d="M476 501.3l157.5-68.9" class="V"/><path d="M634 436.5l4.7-6.4-7.9-.9z" class="G"/><text class="K L M" transform="translate(655.847 438.02)">Consensus</text><path d="M642 448.8h152v26H642z" class="H"/><path d="M642 448.8h152v26H642z" class="W"/><text class="K L N" transform="translate(665.363 467.969)">FASTA</text><path d="M642 415.8h152v33H642z" class="C"/><text class="K L M" transform="translate(656.093 593.872)">MAFs</text><path d="M642 603.8h152v27H642z" class="H"/><path d="M642 603.8h152v27H642z" class="W"/><text class="K L N" transform="translate(665.363 623.769)">TSV</text><path d="M642 571.8h152v32H642z" class="C"/><path d="M693 659.8h57v15h-57z" class="T"/><path d="M693 659.8h57v15h-57z" class="J"/><path d="M693 685.8h57v15h-57z" class="W"/><path d="M693 709.8h57v16h-57z" class="H"/><text transform="translate(761.742 669.684)"><tspan class="Y Z" x="0" y="0">Input</tspan><tspan y="27" class="Y Z" x="0">Output</tspan><tspan y="54" class="Y Z" x="0">File format</tspan><tspan class="Z" y="79" font-family="Arial-BoldMT" x="0">Implementation:</tspan><tspan y="96" class="Y Z" x="0">Snakemake + </tspan><tspan y="113" class="Y Z" x="0">Conda</tspan></text><path d="M87 517.8h237" class="U"/><path d="M87 568.8v-52" class="C"/><path d="M90.9 567.8l-4 6.9-4-6.9z" class="G"/><text transform="translate(91.784 539.13)"><tspan class="K L M" x="0" y="0">Detect cross-</tspan><tspan y="21.6" class="K L M" x="0">contamination</tspan></text><path d="M11 609.8h152v27H11z" fill="#ddbd6e" stroke="#951401" stroke-width="2"/><text class="K L M" transform="translate(33.067 596.718)">Aligned reads</text><text class="K L N" transform="translate(34.189 628.444)">BAM</text><text class="R S N" transform="translate(133.388 631.653)">ref.</text><path d="M11 575.8h152v32H11z" class="C"/><path d="M399 553.8v51" class="F"/><path d="M395.3 603.8l4 6.9 4-6.9z"/><path d="M559.9 605.7l-110.2-51.8" class="a"/><path d="M560.5 601.6l4.5 6.5-7.9.7z"/><path d="M254.5 605.7l110.1-51.8" class="a"/><path d="M257.3 608.8l-8-.7 4.6-6.5z"/><path d="M324 525.8h151v27H324z" class="H"/><text class="K L M" transform="translate(345.841 513.719)">Aligned reads</text><path d="M324 525.8h151v27H324z" class="I"/><text class="K L N" transform="translate(346.963 545.444)">BAM</text><text class="R S N" transform="translate(446.162 548.653)">ref.</text><path d="M324 492.8h151v33H324z" class="C"/><text class="R S N" transform="translate(419.813 750.144)">con.</text><text class="K L M" transform="translate(655.847 516.298)">MSA</text><path d="M642 526.8h152v26H642z" class="H"/><text class="K L N" transform="translate(665.363 546.247)">FASTA</text><path d="M642 526.8h152v26H642z" class="W"/><path d="M642 493.8h152v33H642z" class="C"/><path d="M476 509.6l158.3-.8" fill="none" stroke="#000" stroke-width="1.6"/><path d="M633.2 512.8l6.9-4-7-4z"/><path d="M633.5 585.7L476 516.8" class="V"/><path d="M634 581.5l4.7 6.5-7.9.8z" class="G"/></svg>