<svg xmlns="http://www.w3.org/2000/svg" id="Layer_1" viewBox="0 0 891.6 793.7"><style>.st1{stroke:#8e867f}.st1,.st2,.st3{fill:none;stroke-width:2}.st2{stroke-dasharray:8,3;stroke:#8e867f}.st3{stroke:#211b1c}.st4{fill-rule:evenodd;clip-rule:evenodd;fill:#211b1c}.st5,.st6{fill:none;stroke:#211b1c}.st6{stroke:#000;stroke-width:2}.st8{fill:#211b1c}.st9{fill:#ddbd6e}.st10,.st12{fill:none;stroke:#ddbd6e;stroke-width:2}.st12{stroke:#246d53}.st13{fill:#070606}.st14{font-family:&apos;Times-Roman&apos;}.st15{font-size:18px}.st16{font-size:14px}.st17{fill:#ddbd6e;stroke:#951401}.st18{stroke-linecap:round}.st18,.st24{fill:none;stroke:#000;stroke-width:2;stroke-linejoin:round}.st25{fill:#951401}.st26{font-family:&apos;Times-Bold&apos;}.st28{opacity:.4431;fill:#1f5469}.st32,.st34{fill:none;stroke:#211b1c}.st32{stroke-linecap:round;stroke-linejoin:round;stroke-width:2}.st34{stroke-width:1.6}.st35{stroke:#951401;stroke-width:2}.st35,.st36{fill:none}.st37{font-family:&apos;ArialMT&apos;}.st38{font-size:16px}.st41{fill:none;stroke:#000;stroke-width:1.6;stroke-linecap:round}</style><path fill="none" stroke="#000" stroke-linecap="round" stroke-miterlimit="1" stroke-width="2" d="M263.8 430.8c135.3 0 135.3 48 135.3 48"/><path d="M322 208.8h-4" class="st1"/><path d="M316 208.8H91" class="st2"/><path d="M90 208.8h-4" class="st1"/><path d="M399 487.2v-84.4 84.4z" class="st3"/><path d="M399.3 491.3l-3.2-5.5h6.4z" class="st4"/><path d="M399.3 490.8l-3.2-5.5h6.4z" class="st5"/><path d="M534.3 272.3c-135.3 0-135.3 48-135.3 48" class="st6"/><path d="M87 430.8h4" class="st1"/><path fill="none" stroke="#8e867f" stroke-dasharray="6 2" stroke-width="2" d="M93 430.8h15"/><path d="M109 430.8h4" class="st1"/><path d="M399 333.3v-81.5 81.5z" class="st3"/><path d="M403.4 331.8l-4.4 7.8-4.5-7.8z" class="st8"/><path d="M399 186.5V95.4v91.1z" class="st3"/><path d="M399.3 191.3l-3.2-5.5h6.4z" class="st4"/><path d="M399.3 190.8l-3.2-5.5h6.4z" class="st5"/><path d="M324 68.8h151v27H324z" class="st9"/><path d="M324 68.8h151v27H324z" class="st10"/><path fill="#1f5469" d="M324 10.8h151v58H324z" opacity=".442"/><path d="M324 10.8h151v58H324z" class="st12"/><text class="st13 st14 st15" transform="translate(345.903 32.834)">Raw reads</text><text transform="translate(345.903 55.334)"><tspan x="0" y="0" class="st13 st14 st15">Qual</tspan><tspan x="35" y="0" class="st13 st14 st15">i</tspan><tspan x="40" y="0" class="st13 st14 st15">ty scores</tspan></text><text class="st13 st14 st16" transform="translate(347.005 87.254)">FASTQ</text><path d="M324 224.8h151v27H324z" class="st9"/><path d="M324 224.8h151v27H324z" class="st10"/><path d="M324 192.8h151v32H324z" class="st3"/><text transform="translate(350.313 212.335)"><tspan x="0" y="0" class="st13 st14 st15">Fil</tspan><tspan x="20" y="0" class="st13 st14 st15">t</tspan><tspan x="25" y="0" class="st13 st14 st15">ered </tspan><tspan x="60.5" y="0" class="st13 st14 st15">r</tspan><tspan x="66.5" y="0" class="st13 st14 st15">eads</tspan></text><text class="st13 st14 st16" transform="translate(347.005 243.335)">FASTQ</text><text transform="translate(408.264 141.72)"><tspan x="0" y="0" class="st13 st14 st15">Qual</tspan><tspan x="35" y="0" class="st13 st14 st15">i</tspan><tspan x="40" y="0" class="st13 st14 st15">ty assurance</tspan><tspan x="0" y="21.6" class="st13 st14 st15">PRINSEQ</tspan></text><text transform="translate(280.695 291.91)"><tspan x="0" y="0" class="st13 st14 st15">Read alignment</tspan><tspan x="0" y="21.6" class="st13 st14 st15">MAFFT</tspan></text><text class="st13 st14 st15" transform="translate(408.39 443.682)">Profile</text><text class="st13 st14 st15" transform="translate(408.39 466.182)">HMM</text><text transform="translate(339.995 628.017)"><tspan x="0" y="0" class="st13 st14 st15">Loc</tspan><tspan x="28" y="0" class="st13 st14 st15">a</tspan><tspan x="36" y="0" class="st13 st14 st15">l Haplotype</tspan><tspan x="8.8" y="21.6" class="st13 st14 st15">reconstruction</tspan><tspan x="25" y="43.2" class="st13 st14 st15">ShoRAH</tspan></text><text transform="translate(230.813 628.215)"><tspan x="0" y="0" class="st13 st14 st15">SNV</tspan><tspan x="-6.5" y="21.6" class="st13 st14 st15">calling</tspan><tspan x="-10.7" y="43.2" class="st13 st14 st15">LoFreq</tspan></text><text transform="translate(500.52 628.215)"><tspan x="0" y="0" class="st13 st14 st15">Global Haplotype</tspan><tspan x="12.8" y="21.6" class="st13 st14 st15">reconstruction</tspan><tspan x="-25" y="43.2" class="st13 st14 st15">SAVAGE, HaploClique</tspan></text><path d="M349.5 728.3h99v26h-99z" class="st17"/><text class="st13 st14 st16" transform="translate(360.843 746.917)">BAM</text><path d="M199.5 728.3h98v26h-98z" class="st17"/><text class="st13 st14 st16" transform="translate(210.922 746.8)">VCF</text><path d="M515.5 728.3h98v26h-98z" class="st17"/><text class="st13 st14 st16" transform="translate(526.725 746.842)">FASTA</text><path d="M565 721.5v-44.4 44.4z" class="st18"/><path fill-rule="evenodd" stroke="#000" d="M565 724.8l-3.2-5.5h6.4z" clip-rule="evenodd"/><path fill="none" stroke="#000" d="M565 724.8l-3.2-5.5h6.4z"/><path stroke="#000" stroke-linecap="round" stroke-linejoin="round" stroke-width="1.6" d="M453.1 722l107.2-45.3L453.1 722z"/><path fill-rule="evenodd" d="M449.7 723.4l3.9-5.1 2.5 5.9z" clip-rule="evenodd"/><path fill="none" stroke="#000" stroke-width=".8" d="M449.7 723.4l3.9-5.1 2.5 5.9z"/><path d="M249 719.8v-42.6 42.6z" class="st24"/><path d="M253.4 718.8l-4.4 7.8-4.5-7.8z"/><path d="M324 374.8h151v27H324z" class="st9"/><path d="M324 375.8h151v27H324z" class="st10"/><path d="M324 340.8h151v33H324z" class="st3"/><text class="st13 st14 st15" transform="translate(345.841 361.503)">Aligned reads</text><text class="st13 st14 st16" transform="translate(346.963 392.989)">BAM</text><text class="st25 st26 st16" transform="translate(446.162 399.199)">con.</text><text transform="translate(269.645 750.144)"><tspan x="0" y="0" class="st25 st26 st16">con</tspan><tspan class="st25 st26 st16" x="21" y="0" letter-spacing="105">.</tspan></text><text class="st25 st26 st16" transform="translate(585.645 750.144)">con.</text><path d="M400 719.8v-42.7 42.7z" class="st24"/><path d="M404.4 718.8l-4.4 7.8-4.5-7.8z"/><path d="M112 446.8h152v26H112z" class="st9"/><path d="M112 446.8h152v26H112z" class="st10"/><text class="st13 st14 st15" transform="translate(149.845 436.242)">Reference</text><text class="st13 st14 st16" transform="translate(150.175 466.093)">FASTA</text><path d="M112 413.8h152v33H112z" class="st28"/><path d="M112 413.8h152v33H112z" class="st12"/><path d="M315 505.8h-4" class="st1"/><path fill="none" stroke="#8e867f" stroke-dasharray="8 2" stroke-width="2" d="M309 505.8H91"/><path d="M90 505.8h-4" class="st1"/><path fill="#8e867f" fill-rule="evenodd" d="M319.5 505.5l-5.5 3.2v-6.4z" clip-rule="evenodd"/><path fill="none" stroke="#8e867f" d="M319 505.5l-5.5 3.2v-6.4z"/><path d="M87 208.8v4" class="st1"/><path d="M87 214.8v285" class="st2"/><path d="M87 501.8v4" class="st1"/><path d="M394.2 677.2l-117.3 44.4" class="st18"/><path d="M276.5 716.5l-6.3 7.7 9.8 1.6z"/><path d="M534 287.8h152v27H534z" class="st9"/><path d="M534 288.8h152v27H534z" class="st10"/><path d="M534 255.8h152v33H534z" class="st3"/><text class="st13 st14 st15" transform="translate(556.562 278.115)">Consensus</text><text class="st13 st14 st16" transform="translate(557.683 307.369)">FASTA</text><path d="M475 208.8h134" class="st32"/><path d="M609 251.8v-43" class="st3"/><path d="M609.1 255.3l-3.2-5.5h6.4z" class="st4"/><path d="M609.1 254.8l-3.2-5.5h6.4z" class="st5"/><text transform="translate(617.99 224.945)"><tspan class="st13 st15" x="0" y="0" font-family="Times-Italic">De novo</tspan><tspan x="60.5" y="0" class="st13 st14 st15"></tspan></text><text class="st13 st14 st15" transform="translate(617.99 247.445)">assembly</text><g><path d="M476 501.3l157.5-68.9" class="st34"/><path d="M634 436.5l4.7-6.4-7.9-.9z" class="st8"/></g><g><text class="st13 st14 st15" transform="translate(655.847 438.02)">Consensus</text><path d="M642 448.8h152v26H642z" class="st9"/><path d="M642 448.8h152v26H642z" class="st35"/><text class="st13 st14 st16" transform="translate(665.363 467.969)">FASTA</text><path d="M642 415.8h152v33H642z" class="st3"/></g><g><text class="st13 st14 st15" transform="translate(656.093 593.872)">MAFs</text><path d="M642 603.8h152v27H642z" class="st9"/><path d="M642 603.8h152v27H642z" class="st35"/><text class="st13 st14 st16" transform="translate(665.363 623.769)">TSV</text><path d="M642 571.8h152v32H642z" class="st3"/></g><g><path d="M693 659.8h57v15h-57z" class="st28"/><path d="M693 659.8h57v15h-57z" class="st12"/></g><path d="M693 685.8h57v15h-57z" class="st35"/><path d="M693 709.8h57v16h-57z" class="st9"/><path d="M761.7 658.2h123.9v147.2H761.7z" class="st36"/><text transform="translate(761.742 669.684)"><tspan x="0" y="0" class="st37 st38">Input</tspan><tspan x="0" y="27" class="st37 st38">Output</tspan><tspan x="0" y="54" class="st37 st38">File format</tspan><tspan class="st38" x="0" y="79" font-family="Arial-BoldMT">Implementation:</tspan><tspan x="0" y="96" class="st37 st38">Snakemake + </tspan><tspan x="0" y="113" class="st37 st38">Conda</tspan></text><path d="M87 517.8h237" class="st32"/><g><path d="M87 568.8v-52" class="st3"/><path d="M90.9 567.8l-4 6.9-4-6.9z" class="st8"/></g><text transform="translate(91.784 539.13)"><tspan x="0" y="0" class="st13 st14 st15">Detect cross-</tspan><tspan x="0" y="21.6" class="st13 st14 st15">contamination</tspan></text><path fill="#ddbd6e" stroke="#951401" stroke-width="2" d="M11 609.8h152v27H11z"/><text class="st13 st14 st15" transform="translate(33.067 596.718)">Aligned reads</text><text class="st13 st14 st16" transform="translate(34.189 628.444)">BAM</text><text class="st25 st26 st16" transform="translate(133.388 631.653)">ref.</text><path d="M11 608.9h151.8v26.5H11z" class="st36"/><path d="M11 575.8h152v32H11z" class="st3"/><g><path d="M399 553.8v51" class="st6"/><path d="M395.3 603.8l4 6.9 4-6.9z"/></g><g><path d="M559.9 605.7l-110.2-51.8" class="st41"/><path d="M560.5 601.6l4.5 6.5-7.9.7z"/></g><g><path d="M254.5 605.7l110.1-51.8" class="st41"/><path d="M257.3 608.8l-8-.7 4.6-6.5z"/></g><g><path d="M324 525.8h151v27H324z" class="st9"/><text class="st13 st14 st15" transform="translate(345.841 513.719)">Aligned reads</text><path d="M324 525.8h151v27H324z" class="st10"/><text class="st13 st14 st16" transform="translate(346.963 545.444)">BAM</text><text class="st25 st26 st16" transform="translate(446.162 548.653)">ref.</text><path d="M324 492.8h151v33H324z" class="st3"/></g><text class="st25 st26 st16" transform="translate(419.813 750.144)">con.</text><g><text class="st13 st14 st15" transform="translate(655.847 516.298)">MSA</text><path d="M642 526.8h152v26H642z" class="st9"/><text class="st13 st14 st16" transform="translate(665.363 546.247)">FASTA</text><path d="M642 526.8h152v26H642z" class="st35"/><path d="M642 493.8h152v33H642z" class="st3"/></g><g><path fill="none" stroke="#000" stroke-width="1.6" d="M476 509.6l158.3-.8"/><path d="M633.2 512.8l6.9-4-7-4z"/></g><g><path d="M633.5 585.7L476 516.8" class="st34"/><path d="M634 581.5l4.7 6.5-7.9.8z" class="st8"/></g></svg>