<svg xmlns="http://www.w3.org/2000/svg" xmlns:xlink="http://www.w3.org/1999/xlink" width="437" height="200"><style><![CDATA[.b{fill:none}.c{stroke-width:.195}.d{stroke-width:.5}.e{stroke:#00aaa0}.f{fill:#00aaa0}.g{stroke:#000}.h{stroke:#f47e20}.i{fill:#f47e20}.j{stroke:#2e358e}.k{stroke-width:.1}.l{fill:#2e358e}.m{stroke:#3579b0}.n{fill:#3579b0}.o{stroke-miterlimit:10}.p{fill:#129}.q{stroke-linejoin:round}.r{stroke-miterlimit:2}.s{fill:#63c1ce}.t{opacity:.784}.u{stroke-width:.25}.v{fill:#ed2b7b}.w{stroke:#ed2b7b}.x{stroke:red}.y{opacity:.2}.z{fill:#00a99d}.AA{fill:#a0a0a0}.AB{stroke-width:.8}.AC{font-family:Helvetica}.AD{font-size:10px}.AE{fill-rule:evenodd}.AF{stroke:#646464}]]></style><defs><clipPath ><path d="M0 150h327.533V0H0z"/></clipPath><clipPath id="B"><path d="M33.796 133.37h64.31v-17.293h-64.31z"/></clipPath><clipPath id="C"><path d="M34.33 73.376h68.415V63.23H34.33z"/></clipPath><clipPath id="D"><path d="M70.285 133.3h70v-70h-70z"/></clipPath><clipPath id="E"><path d="M0 150h327.533V0H0z"/></clipPath><clipPath id="F"><path d="M37.607 83.74h3.845v-3.846h-3.845z"/></clipPath><clipPath id="G"><path d="M27.5 111.2h3.846v-3.846H27.5z"/></clipPath><clipPath id="H"><path d="M40.476 91.725h3.845V87.88h-3.845z"/></clipPath><clipPath id="I"><path d="M32.637 77.444h3.845v-3.846h-3.845z"/></clipPath><clipPath id="J"><path d="M44.505 46.86h3.845v-3.846h-3.845z"/></clipPath><clipPath id="K"><path d="M25.633 66.952h3.845v-3.846h-3.845z"/></clipPath><clipPath id="L"><path d="M39.607 123.486h3.845v-3.846h-3.845z"/></clipPath><clipPath id="M"><path d="M24.594 29.86h3.845v-3.845h-3.845z"/></clipPath><clipPath id="N"><path d="M42.358 63.744h3.845v-3.846h-3.845z"/></clipPath><clipPath id="O"><path d="M36.5 102.86h3.846v-3.845H36.5z"/></clipPath><clipPath id="P"><path d="M41.007 71.992h3.846v-3.845h-3.846z"/></clipPath><clipPath id="Q"><path d="M30.27 121.97h3.845v-3.845H30.27z"/></clipPath><clipPath id="R"><path d="M45.3 86.434h3.846V82.6H45.3z"/></clipPath><clipPath id="S"><path d="M25.757 78.282h3.846v-3.846h-3.846z"/></clipPath><clipPath id="T"><path d="M50.96 116.446h3.845V112.6H50.96z"/></clipPath><clipPath id="U"><path d="M34.13 114.94h3.845v-3.845H34.13z"/></clipPath><clipPath id="V"><path d="M29.286 102.288h3.845v-3.845h-3.845z"/></clipPath><clipPath id="W"><path d="M22.256 117.635H26.1V113.8h-3.845z"/></clipPath><clipPath id="X"><path d="M26.392 54.952h3.845v-3.846h-3.845z"/></clipPath><clipPath id="Y"><path d="M25.104 38.72h3.846v-3.845h-3.846z"/></clipPath><clipPath id="Z"><path d="M45.908 32.305h3.846V28.46h-3.846z"/></clipPath><clipPath id="a"><path d="M28.852 89.642h3.846v-3.845h-3.846z"/></clipPath><clipPath id="b"><path d="M41.24 109.912h3.845v-3.845H41.24z"/></clipPath><clipPath id="c"><path d="M45.72 56.522h3.846v-3.845H45.72z"/></clipPath><clipPath id="d"><path d="M46.386 77.647h3.846v-3.845h-3.846z"/></clipPath><clipPath id="e"><path d="M33.71 95.234h3.845v-3.846H33.7z"/></clipPath><clipPath id="f"><path d="M43.504 117.035h3.845v-3.846h-3.845z"/></clipPath><clipPath id="g"><path d="M43.39 100.363h3.845v-3.845h-3.846z"/></clipPath><clipPath id="h"><path d="M140.762 83.116h16.584V58.013h-16.584z"/></clipPath><clipPath id="i"><path d="M155.5 83.116h16.584V58.013H155.5z"/></clipPath><clipPath id="j"><path d="M170.236 83.116h16.584V58.013h-16.584z"/></clipPath><clipPath id="k"><path d="M184.973 83.116h16.584V58.013h-16.584z"/></clipPath><clipPath id="l"><path d="M199.7 83.116h16.584V58.013H199.7z"/></clipPath><clipPath id="m"><path d="M214.447 83.116h16.584V58.013h-16.584z"/></clipPath><clipPath id="n"><path d="M0 150h327.533V0H0z"/></clipPath><clipPath id="o"><path d="M0 150h327.533V0H0z"/></clipPath><clipPath id="p"><path d="M0 150h327.533V0H0z"/></clipPath><clipPath id="q"><path d="M0 150h327.533V0H0z"/></clipPath><clipPath id="r"><path d="M0 150h327.533V0H0z"/></clipPath><path id="s" d="M39.53 83.74a1.923 1.923 0 1 0 0-3.846 1.923 1.923 0 0 0 0 3.846"/><path id="t" d="M39.53 83.74a1.923 1.923 0 1 0 0-3.846 1.923 1.923 0 0 0 0 3.846z"/><path id="u" d="M38.438 81.3c-.1.306-.066.696.03.718.16.037.344-.192.448-.33.043-.055.104-.114.253-.276.246-.27.247-.256.36-.226.186.05-.073 1.095.3 1.2.187.053.54-.552.668-.65.174-.135.478-.415.44-.022"/><path id="v" d="M36.665 82.33a.513.513 0 1 0-.001-1.027.513.513 0 0 0 0 1.027"/><path id="w" d="M36.665 82.33a.513.513 0 1 0-.001-1.027.513.513 0 0 0 0 1.027z"/><path id="x" d="M39.08 84.682a.513.513 0 1 0-.97-.337.513.513 0 0 0 .97.337"/><path id="y" d="M39.08 84.682a.513.513 0 1 0-.97-.337.513.513 0 0 0 .97.337z"/><path id="z" d="M37.414 79.818a.513.513 0 1 1-.56.86.513.513 0 0 1 .56-.86"/><path id="AA" d="M37.414 79.818a.513.513 0 1 1-.56.86.513.513 0 0 1 .56-.86z"/><path id="AB" d="M42.393 82.33a.513.513 0 1 1 .001-1.027.513.513 0 0 1 0 1.027"/><path id="AC" d="M42.393 82.33a.513.513 0 1 1 .001-1.027.513.513 0 0 1 0 1.027z"/><path id="AD" d="M39.977 84.682a.513.513 0 1 1 .97-.337.513.513 0 0 1-.97.337"/><path id="AE" d="M39.977 84.682a.513.513 0 1 1 .97-.337.513.513 0 0 1-.97.337z"/><path id="AF" d="M41.643 79.818a.513.513 0 1 0 .561.86.513.513 0 0 0-.56-.86"/><path id="AG" d="M41.643 79.818a.513.513 0 1 0 .561.86.513.513 0 0 0-.56-.86z"/><path id="AH" d="M28.975 112.152a.513.513 0 1 0-.97-.336.513.513 0 0 0 .97.336"/><path id="AI" d="M28.975 112.152a.513.513 0 1 0-.97-.336.513.513 0 0 0 .97.336z"/><path id="AJ" d="M29.872 112.152a.513.513 0 1 1 .97-.336.513.513 0 0 1-.97.336"/><path id="AK" d="M29.872 112.152a.513.513 0 1 1 .97-.336.513.513 0 0 1-.97.336z"/><path id="AL" d="M29.885 106.425a.514.514 0 1 0 .971.336.514.514 0 0 0-.97-.336"/><path id="AM" d="M29.885 106.425a.514.514 0 1 0 .971.336.514.514 0 0 0-.97-.336z"/><path id="AN" d="M40.297 91.804a.513.513 0 1 0-.561-.859.513.513 0 0 0 .56.86"/><path id="AO" d="M40.297 91.804a.513.513 0 1 0-.561-.859.513.513 0 0 0 .56.86z"/><path id="AP" d="M41.936 86.94a.513.513 0 1 1-.97.337.513.513 0 0 1 .97-.337"/><path id="AQ" d="M41.936 86.94a.513.513 0 1 1-.97.337.513.513 0 0 1 .97-.337z"/><path id="AR" d="M44.5 91.804a.513.513 0 1 1 .56-.859.513.513 0 0 1-.56.86"/><path id="AS" d="M44.5 91.804a.513.513 0 1 1 .56-.859.513.513 0 0 1-.56.86z"/><path id="AT" d="M42.86 86.94a.513.513 0 1 0 .97.337.513.513 0 0 0-.97-.337"/><path id="AU" d="M42.86 86.94a.513.513 0 1 0 .97.337.513.513 0 0 0-.97-.337z"/><path id="AV" d="M44.513 87.805a.513.513 0 1 0 .56.859.513.513 0 0 0-.56-.86"/><path id="AW" d="M44.513 87.805a.513.513 0 1 0 .56.859.513.513 0 0 0-.56-.86z"/><path id="AX" d="M33.468 75.014c-.1.306-.066.696.03.718.16.037.344-.192.448-.33.043-.055.104-.114.253-.276.246-.27.247-.256.36-.226.186.05-.073 1.095.3 1.2.187.052.54-.553.668-.65.174-.136.478-.416.44-.023"/><path id="AY" d="M44.325 46.938a.513.513 0 1 0-.56-.86.513.513 0 0 0 .56.86"/><path id="AZ" d="M44.325 46.938a.513.513 0 1 0-.56-.86.513.513 0 0 0 .56.86z"/><path id="Aa" d="M45.965 42.075a.513.513 0 1 1-.97.336.513.513 0 0 1 .97-.336"/><path id="Ab" d="M45.965 42.075a.513.513 0 1 1-.97.336.513.513 0 0 1 .97-.336z"/><path id="Ac" d="M49.29 45.45a.513.513 0 1 1 0-1.027.513.513 0 0 1 0 1.027"/><path id="Ad" d="M49.29 45.45a.513.513 0 1 1 0-1.027.513.513 0 0 1 0 1.027z"/><path id="Ae" d="M48.528 46.938a.513.513 0 1 1 .56-.86.513.513 0 0 1-.56.86"/><path id="Af" d="M48.528 46.938a.513.513 0 1 1 .56-.86.513.513 0 0 1-.56.86z"/><path id="Ag" d="M46.89 42.075a.513.513 0 1 0 .97.336.513.513 0 0 0-.97-.336"/><path id="Ah" d="M46.89 42.075a.513.513 0 1 0 .97.336.513.513 0 0 0-.97-.336z"/><path id="Ai" d="M24.7 65.542a.513.513 0 1 0 0-1.027.513.513 0 0 0 0 1.027"/><path id="Aj" d="M24.7 65.542a.513.513 0 1 0 0-1.027.513.513 0 0 0 0 1.027z"/><path id="Ak" d="M29.67 63.03a.513.513 0 1 0 .56.86.513.513 0 0 0-.56-.86"/><path id="Al" d="M29.67 63.03a.513.513 0 1 0 .56.86.513.513 0 0 0-.56-.86z"/><path id="Am" d="M40.438 121.057c-.1.306-.066.696.03.718.16.037.344-.192.448-.33.043-.055.104-.114.253-.276.246-.27.247-.256.36-.226.186.05-.073 1.095.29 1.2.186.053.54-.552.667-.65.174-.135.478-.415.44-.022"/><path id="An" d="M42.166 59.823a.513.513 0 1 1-.561.86.513.513 0 0 1 .56-.86"/><path id="Ao" d="M42.166 59.823a.513.513 0 1 1-.561.86.513.513 0 0 1 .56-.86z"/><path id="Ap" d="M36.33 102.938a.513.513 0 1 0-.56-.859.513.513 0 0 0 .56.86"/><path id="Aq" d="M36.33 102.938a.513.513 0 1 0-.56-.859.513.513 0 0 0 .56.86z"/><path id="Ar" d="M36.318 98.94a.513.513 0 1 1-.56.859.513.513 0 0 1 .56-.86"/><path id="As" d="M36.318 98.94a.513.513 0 1 1-.56.859.513.513 0 0 1 .56-.86z"/><path id="At" d="M40.547 98.94a.513.513 0 1 0 .561.859.513.513 0 0 0-.56-.86"/><path id="Au" d="M40.547 98.94a.513.513 0 1 0 .561.859.513.513 0 0 0-.56-.86z"/><path id="Av" d="M41.838 69.563c-.1.306-.066.696.03.718.16.037.344-.192.448-.33.043-.055.104-.114.253-.276.246-.27.247-.256.36-.226.185.05-.074 1.095.3 1.2.186.053.54-.552.667-.65.174-.135.478-.415.44-.022"/><path id="Aw" d="M191.593 75.45l.058-.035.06-.035a1.563 1.563 0 0 1 .116-.056.654.654 0 0 1 .116-.032.565.565 0 0 1 .116 0 .497.497 0 0 1 .058.01.724.724 0 0 1 .117.044.8.8 0 0 1 .058.03l.058.033.06.036.058.036a1.747 1.747 0 0 0 .174.093l.058.02a.61.61 0 0 0 .058.013.613.613 0 0 0 .117.003.586.586 0 0 0 .233-.08l.058-.034a1.787 1.787 0 0 0 .116-.07l.058-.036.06-.032.057-.026a.867.867 0 0 1 .059-.023l.058-.014a.573.573 0 0 1 .116-.006.635.635 0 0 1 .233.077l.116.068.06.036.058.035.058.033.058.028a.686.686 0 0 0 .116.038l.06.008a.561.561 0 0 0 .058 0 .418.418 0 0 0 .116-.024.577.577 0 0 0 .116-.05c.017-.008.043-.023.06-.032l.116-.07a1.787 1.787 0 0 1 .117-.069l.057-.028a.635.635 0 0 1 .175-.049.561.561 0 0 1 .116.006.563.563 0 0 1 .059.014c.016.004.042.014.058.02a1.535 1.535 0 0 1 .116.06l.058.035.06.036a1.787 1.787 0 0 0 .116.069l.058.03a.711.711 0 0 0 .117.042.54.54 0 0 0 .058.01c.016.002.042.003.058.002a.567.567 0 0 0 .116-.018.675.675 0 0 0 .058-.021c.017-.006.042-.018.06-.026l.058-.03.058-.035.058-.036.058-.035a1.747 1.747 0 0 1 .117-.064.724.724 0 0 1 .116-.043.399.399 0 0 1 .174-.011c.017.002.042.008.06.012l.058.02.058.026.058.03.058.034.058.036-.03-10.5c0-1.04-1.283-1.884-2.864-1.884s-2.864.844-2.864 1.884z"/></defs><g transform="matrix(1.33333 0 0 -1.33333 0 200)"><g clip-path="url(#B)" opacity=".8" class="b AF"><path d="M33.92 116.562l64.063 16.325"/></g><g clip-path="url(#C)" opacity=".8" class="b AF"><path d="M34.395 72.88l68.284-9.155"/></g><g clip-path="url(#D)" opacity=".15"><path d="M140.286 98.3c0-19.32-15.68-35-35-35-19.326 0-35 15.68-35 35 0 19.326 15.674 35 35 35 19.32 0 35-15.674 35-35" fill="#646464"/></g></g><path d="M96.104 63.252h42.768v1.603H96.104zm6.713-12.88h34.82v1.6h-34.82z" class="i"/><path d="M116.048 29.28h48.06v1.6h-48.06z" class="f"/><path d="M122.17 103.7h37.378v1.603h-37.38zM113.46 37h48.058v1.6H113.46z" class="i"/><path d="M134.404 99.048h37.38v1.6h-37.38z" class="v"/><path d="M98.773 82.275h42.72v1.6h-42.72zm29.695-41.482h45.453v1.6h-45.453zm-20.315 26.4h48.06v1.6h-48.06z" fill="#2b348d"/><path d="M127.34 56.2h45.63v1.6h-45.63zM113.547 93.8h48.178v1.603h-48.178zm2.743-18.008h48.182v1.6h-48.18zm-20.186-3.746h34.708v1.6H96.104z" class="f"/><path d="M101.484 43.74h37.38v1.603h-37.38z" class="v"/><path d="M120.283 59.82h39.946v1.6h-39.946z" class="n"/><path d="M124.107 33.688h42.718v1.6h-42.718zm3.674 52.415h47.42v1.602h-47.42z" class="f"/><path d="M137.263 46.728H177.6v1.603h-40.338z" class="i"/><path d="M145.515 80.14h37.378v1.6h-37.378z" class="f"/><path d="M140.077 52.547h34.708v1.602h-34.708z" class="n"/><g stroke-width="1.067" class="x"><path d="M145.713 55.655l2.67 2.67m.001-2.67l-2.67 2.67m-28.153 4.393l2.67 2.67m0-2.67l-2.67 2.67m-1.943 6.125l2.67 2.67m0-2.67l-2.67 2.67m8.64-7.514l2.67 2.67" class="b"/><path d="M126.928 66.668l-2.67 2.67" fill="red" class="AE"/><path d="M148.82 36.465l2.67 2.67" class="b"/><path d="M151.49 36.465l-2.67 2.67" fill="red" class="AE"/><path d="M153.093 75.26l2.67 2.668" class="b"/><path d="M155.763 75.26l-2.67 2.668" fill="red" class="AE"/><path d="M150.854 46.195l2.67 2.67m0-2.67l-2.67 2.67m1.27-8.607l2.67 2.67m0-2.67l-2.67 2.67m-20.784 60.248l2.67 2.67m0-2.67l-2.67 2.67m44.542-26.24l2.67 2.67m0-2.67l-2.67 2.67m-43.082-7.016l2.67 2.668" class="b"/><path d="M135.472 75.26l-2.67 2.668" fill="red" class="AE"/></g><g clip-path="url(#E)" transform="matrix(1.33333 0 0 -1.33333 0 200)"><path d="M37.436 70.746s-3.44-8.848-3.968-18.282-2.293-11.52-2.117-12.52.706-6.763.53-7.765-4.586-17.28-4.233-20.787.008-9.767-1.852-9.767c-1.176.037-1.625-.334-3.968 0-2.335.335-2.87 1.058-2.9 2.004s4.144 5.343 4.233 7.012-.53 10.77-1.06 18.533.795 9.35 1.324 11.52-.264 13.607-.794 17.78-1.136 16.467 1.323 23.54c1.183 3.223 2.145 7.098 2.38 10.77s-1.105 10.858-1.586 11.77c-.088.166-.97-6.345-2.117-10.018S12.92 75.254 12.57 73s-.06-6.314-.53-6.5c-.376-.16-.638.533-.793 2.002s-.234 1.498-.264 1.502c-.156.025-1.06-2.17-1.323-3.756s-.794-2.67-1.323-2.504.088 3.172.265 4.007.53 2.337 0 2.505-1.355-2.32-1.588-3.006-1.146-3.422-1.587-3.256.006 2.355.265 3.507 1.214 3.407 1.058 3.505-1.62-2.54-1.852-3.005-.705-1.502-1.323-1.252 1.235 3.173 1.588 4.257 1.4 2.6 1.058 2.755-2.646-2.253-3.175-2.003-.705.5-.265 1.252 4.145 3.506 5.027 4.007 3.968 6.094 3.968 7.263 2.9 11.937 4.762 15.026.353 17.948 3.704 21.037 11.992 4.508 12.698 7.012.176 6.595-.794 7.513-2.386 2.617-1.852 4.007c.353.918 1.323-.75 1.323-.75s-.265 3.505-.265 4.757 1.588 5.593 6.35 5.5 7.054-4.925 6.878-6.512-1.06-3.756-1.06-3.756.97 1.335 1.59 1.252-1.852-5.26-1.852-5.76-2.557-4.842 1.323-7.513 5.82-3.506 7.672-4.257 6.414-3.805 5.3-13.023c-.264-2.17 2.116-5.677 2.38-7.263s-.35-3.84 1.06-5.76 3.306-5.648 4.498-9.517c.617-2.003 2.645-7.012 3.174-8.014s2.9-1.753 3.704-2.254 3.175-2.254 3.175-2.254-.353-.834-.794-.75-2.91 1.752-3.174 1.252S74.296 67.99 74.737 67s-.794-1.17-1.058-.5-1.676 3.756-2.116 3.504 1.146-4.09 1.057-4.757-.352-1.503-1.057-.5-1.765 4.924-2.117 4.757.176-4.508.264-5.26-1.146-1.335-1.322 0-.618 3.756-.794 4.507-.706.752-.794-.75 0-3.34-.528-3.256c-.318.05-.66 1.913-.794 4.257-.09 1.564-.155 3.302-.53 5-.26 1.2-1.85 4.674-3.438 6.76s-3.97 4.59-4.498 7.262-3.086 7.514-3.968 9.016-1.94 8.098-2.116 9.266c0-.5-.53-4.674-1.058-7.012s-1.06-5.092 0-8.014 3.703-9.1 3.44-12.522-.53-20.702-2.116-32.557c.264-6.26 2.9-8.598 1.85-18.28S50.4 13.23 50.663 10.64s3.88-5.843 4.233-6.762-.353-1.67-.793-1.752c.555.104-1.785-.746-2.9-1.003s-2.117-.1-3.175.25-1.94 1.753-1.852 3.256-.44 3.005-.53 3.756.442 2.17.53 3.005S44.5 18.99 44.314 21.66s-1.94 6.094-1.587 10.27 1.235 3.672.793 6.26-3.086 9.015-3.174 12.27-1.764 19.45-2.9 20.285z" stroke="#231f20" stroke-width=".75" class="b o"/><g clip-path="url(#F)" class="t i"><use xlink:href="#s"/></g><g class="b"><g class="u"><use xlink:href="#t" class="h"/><use xlink:href="#u" class="g"/></g><path d="M37.56 81.816h-.394" class="d h"/></g><use xlink:href="#v" class="i"/><g class="b h"><use xlink:href="#w" class="c"/><path d="M38.9 83.67l-.13.372" class="d"/></g><use xlink:href="#x" class="i"/><g class="b h"><use xlink:href="#y" class="c"/><path d="M37.896 82.9l-.33.215" class="d"/></g><path d="M37.428 83.818a.513.513 0 1 0-.561-.86.513.513 0 0 0 .56.86" class="i"/><g class="b h"><path d="M37.428 83.818a.513.513 0 1 0-.561-.86.513.513 0 0 0 .56.86z" class="c"/><path d="M38.876 79.967l-.13-.372" class="d"/></g><path d="M39.067 78.954a.513.513 0 1 1-.97.337.513.513 0 0 1 .97-.336" class="i"/><g class="b h"><path d="M39.067 78.954a.513.513 0 1 1-.97.337.513.513 0 0 1 .97-.336z" class="c"/><path d="M37.883 80.736l-.33-.215" class="d"/></g><use xlink:href="#z" class="i"/><g class="b h"><use xlink:href="#AA" class="c"/><path d="M41.5 81.816h.393" class="d"/></g><use xlink:href="#AB" class="i"/><g class="b h"><use xlink:href="#AC" class="c"/><path d="M40.17 83.67l.13.372" class="d"/></g><use xlink:href="#AD" class="i"/><g class="b h"><use xlink:href="#AE" class="c"/><path d="M41.162 82.9l.33.215" class="d"/></g><path d="M41.63 83.818a.513.513 0 1 1 .561-.86.513.513 0 0 1-.56.86" class="i"/><g class="b h"><path d="M41.63 83.818a.513.513 0 1 1 .561-.86.513.513 0 0 1-.56.86z" class="c"/><path d="M40.182 79.967l.13-.372" class="d"/></g><path d="M40 78.954a.513.513 0 1 0 .97.337.513.513 0 0 0-.97-.336" class="i"/><g class="b h"><path d="M40 78.954a.513.513 0 1 0 .97.337.513.513 0 0 0-.97-.336z" class="c"/><path d="M41.175 80.736l.33-.215" class="d"/></g><use xlink:href="#AF" class="i"/><use xlink:href="#AG" class="b c h"/><g clip-path="url(#G)" class="t f"><path d="M29.424 111.2a1.923 1.923 0 1 0 0-3.847 1.923 1.923 0 0 0 0 3.847"/></g><g class="b"><g class="u"><path d="M29.424 111.2a1.923 1.923 0 1 0 0-3.847 1.923 1.923 0 0 0 0 3.847z" class="e"/><path d="M28.332 108.78c-.1.306-.066.696.03.718.16.037.345-.192.45-.33.043-.055.104-.114.253-.276.246-.27.247-.256.36-.226.186.05-.073 1.095.3 1.2.187.052.54-.553.668-.65.174-.136.478-.416.44-.023" class="g"/></g><path d="M27.453 109.287h-.394" class="d e"/></g><path d="M26.56 109.8a.513.513 0 1 0-.002-1.027.513.513 0 0 0 .001 1.026" class="f"/><g class="b e"><path d="M26.56 109.8a.513.513 0 1 0-.002-1.027.513.513 0 0 0 .001 1.026z" class="c"/><path d="M28.784 111.14l-.13.372" class="d"/></g><use xlink:href="#AH" class="f"/><g class="b e"><use xlink:href="#AI" class="c"/><path d="M27.79 110.37l-.33.216" class="d"/></g><path d="M27.322 111.288a.513.513 0 1 0-.56-.858.513.513 0 0 0 .56.858" class="f"/><g class="b e"><path d="M27.322 111.288a.513.513 0 1 0-.56-.858.513.513 0 0 0 .56.858z" class="c"/><path d="M28.77 107.438l-.128-.372" class="d"/></g><path d="M28.962 106.425a.514.514 0 1 1-.971.336.514.514 0 0 1 .97-.336" class="f"/><g class="b e"><path d="M28.962 106.425a.514.514 0 1 1-.971.336.514.514 0 0 1 .97-.336z" class="c"/><path d="M27.778 108.207l-.33-.215" class="d"/></g><path d="M27.3 107.29a.513.513 0 1 1-.562.859.513.513 0 0 1 .561-.859" class="f"/><g class="b e"><path d="M27.3 107.29a.513.513 0 1 1-.562.859.513.513 0 0 1 .561-.859z" class="c"/><path d="M31.394 109.287h.394" class="d"/></g><path d="M32.288 109.8a.513.513 0 1 1 0-1.027.513.513 0 0 1 0 1.026" class="f"/><g class="b e"><path d="M32.288 109.8a.513.513 0 1 1 0-1.027.513.513 0 0 1 0 1.026z" class="c"/><path d="M30.063 111.14l.13.372" class="d"/></g><use xlink:href="#AJ" class="f"/><g class="b e"><use xlink:href="#AK" class="c"/><path d="M31.056 110.37l.33.216" class="d"/></g><path d="M31.525 111.288a.513.513 0 1 1 .56-.858.513.513 0 0 1-.56.858" class="f"/><g class="b e"><path d="M31.525 111.288a.513.513 0 1 1 .56-.858.513.513 0 0 1-.56.858z" class="c"/><path d="M30.076 107.438l.13-.372" class="d"/></g><use xlink:href="#AL" class="f"/><g class="b e"><use xlink:href="#AM" class="c"/><path d="M31.07 108.207l.33-.215" class="d"/></g><path d="M31.538 107.29a.513.513 0 1 0 .56.859.513.513 0 0 0-.56-.859" class="f"/><g class="b"><path d="M31.538 107.29a.513.513 0 1 0 .56.859.513.513 0 0 0-.56-.859z" class="c e"/><path d="M41.758 91.656l-.13.372m-.863-1.14l-.33.215m2.602.554l.13.372" class="d j"/></g><g clip-path="url(#H)" class="t l"><use xlink:href="#s" x="2.87" y="7.985"/></g><g class="b"><g class="u"><use xlink:href="#t" x="2.87" y="7.985" class="j"/><path d="M41.307 89.296c-.1.306-.066.696.03.718.16.037.344-.192.448-.33.043-.055.104-.114.253-.276.246-.27.247-.256.36-.226.186.05-.073 1.095.29 1.2.186.052.54-.553.667-.65.174-.136.478-.416.44-.023" class="g"/></g><path d="M40.428 89.803h-.394" class="d j"/></g><path d="M39.534 90.315a.513.513 0 1 0 0-1.026.513.513 0 0 0 0 1.026" class="l"/><path d="M39.534 90.315a.513.513 0 1 0 0-1.026.513.513 0 0 0 0 1.026z" class="b c j"/><use xlink:href="#AH" x="12.975" y="-19.484" class="l"/><use xlink:href="#AI" x="12.975" y="-19.484" class="b c j"/><use xlink:href="#AN" class="l"/><g class="b j"><use xlink:href="#AO" class="c"/><path d="M41.745 87.954l-.13-.372" class="d"/></g><use xlink:href="#AP" class="l"/><g class="b j"><use xlink:href="#AQ" class="c"/><path d="M40.752 88.723l-.33-.215" class="d"/></g><path d="M40.284 87.805a.513.513 0 1 1-.561.859.513.513 0 0 1 .56-.86" class="l"/><g class="b j"><path d="M40.284 87.805a.513.513 0 1 1-.561.859.513.513 0 0 1 .56-.86z" class="c"/><path d="M44.368 89.803h.394" class="d"/></g><path d="M45.262 90.315a.513.513 0 1 1 .001-1.026.513.513 0 0 1 0 1.026" class="l"/><path d="M45.262 90.315a.513.513 0 1 1 .001-1.026.513.513 0 0 1 0 1.026z" class="b c j"/><use xlink:href="#AJ" x="12.975" y="-19.484" class="l"/><g class="b j"><use xlink:href="#AK" x="12.975" y="-19.484" class="c"/><path d="M44.03 90.887l.33.215" class="d"/></g><use xlink:href="#AR" class="l"/><g class="b j"><use xlink:href="#AS" class="c"/><path d="M43.05 87.954l.13-.372" class="d"/></g><use xlink:href="#AT" class="l"/><g class="b j"><use xlink:href="#AU" class="c"/><path d="M44.044 88.723l.33-.215" class="d"/></g><use xlink:href="#AV" class="l"/><g class="b"><use xlink:href="#AW" class="c j"/><path d="M35.212 73.672l.13-.372" class="d m"/></g><g clip-path="url(#I)" class="t n"><path d="M34.56 77.444a1.923 1.923 0 1 0 0-3.847 1.923 1.923 0 0 0 0 3.847"/></g><g class="b"><g class="u"><path d="M34.56 77.444a1.923 1.923 0 1 0 0-3.847 1.923 1.923 0 0 0 0 3.847z" class="m"/><use xlink:href="#AX" class="g"/></g><path d="M32.59 75.52h-.394" class="d m"/></g><path d="M31.695 76.034a.513.513 0 1 0-.001-1.027.513.513 0 0 0 0 1.026" class="n"/><g class="b m"><path d="M31.695 76.034a.513.513 0 1 0-.001-1.027.513.513 0 0 0 0 1.026z" class="c"/><path d="M33.92 77.374l-.13.372" class="d"/></g><use xlink:href="#AH" x="5.125" y="-33.766" class="n"/><g class="b m"><use xlink:href="#AI" x="5.125" y="-33.766" class="c"/><path d="M32.926 76.605l-.33.215" class="d"/></g><path d="M32.458 77.522a.513.513 0 1 0-.561-.858.513.513 0 0 0 .56.858" class="n"/><g class="b m"><path d="M32.458 77.522a.513.513 0 1 0-.561-.858.513.513 0 0 0 .56.858z" class="c"/><path d="M33.906 73.672l-.13-.372" class="d"/></g><path d="M34.097 72.66a.513.513 0 1 1-.97.336.513.513 0 0 1 .97-.337" class="n"/><g class="b m"><path d="M34.097 72.66a.513.513 0 1 1-.97.336.513.513 0 0 1 .97-.337z" class="c"/><path d="M32.913 74.44l-.33-.214" class="d"/></g><path d="M32.445 73.523a.513.513 0 1 1-.561.859.513.513 0 0 1 .56-.859" class="n"/><g class="b m"><path d="M32.445 73.523a.513.513 0 1 1-.561.859.513.513 0 0 1 .56-.859z" class="c"/><path d="M36.53 75.52h.393" class="d"/></g><path d="M37.423 76.034a.513.513 0 1 1 .001-1.027.513.513 0 0 1 0 1.026" class="n"/><g class="b m"><path d="M37.423 76.034a.513.513 0 1 1 .001-1.027.513.513 0 0 1 0 1.026z" class="c"/><path d="M35.2 77.374l.13.372" class="d"/></g><use xlink:href="#AJ" x="5.136" y="-33.766" class="n"/><g class="b m"><use xlink:href="#AK" x="5.136" y="-33.766" class="c"/><path d="M36.192 76.605l.33.215" class="d"/></g><path d="M36.66 77.522a.513.513 0 1 1 .561-.858.513.513 0 0 1-.56.858" class="n"/><path d="M36.66 77.522a.513.513 0 1 1 .561-.858.513.513 0 0 1-.56.858z" class="b c m"/><path d="M35.02 72.66a.513.513 0 1 0 .97.336.513.513 0 0 0-.97-.337" class="n"/><g class="b m"><path d="M35.02 72.66a.513.513 0 1 0 .97.336.513.513 0 0 0-.97-.337z" class="c"/><path d="M36.205 74.44l.33-.214" class="d"/></g><path d="M36.673 73.523a.513.513 0 1 0 .561.859.513.513 0 0 0-.56-.859" class="n"/><g class="b m"><path d="M36.673 73.523a.513.513 0 1 0 .561.859.513.513 0 0 0-.56-.859z" class="c"/><path d="M47.08 43.087l.13-.372" class="d"/></g><g clip-path="url(#J)" class="t n"><use xlink:href="#s" x="6.897" y="-36.88"/></g><g class="b"><g class="u"><use xlink:href="#t" x="6.897" y="-36.88" class="m"/><use xlink:href="#u" x="6.898" y="-36.87" class="g"/></g><path d="M44.456 44.936h-.394" class="d m"/></g><use xlink:href="#v" x="6.898" y="-36.88" class="n"/><g class="b m"><use xlink:href="#w" x="6.898" y="-36.88" class="c"/><path d="M45.787 46.79l-.13.372" class="d"/></g><use xlink:href="#x" x="6.898" y="-36.88" class="n"/><g class="b m"><use xlink:href="#y" x="6.898" y="-36.88" class="c"/><path d="M44.794 46.02l-.33.215" class="d"/></g><use xlink:href="#AY" class="n"/><g class="b m"><use xlink:href="#AZ" class="c"/><path d="M45.774 43.087l-.13-.372" class="d"/></g><use xlink:href="#Aa" class="n"/><g class="b m"><use xlink:href="#Ab" class="c"/><path d="M44.78 43.856l-.33-.215" class="d"/></g><use xlink:href="#z" x="6.898" y="-36.88" class="n"/><g class="b m"><use xlink:href="#AA" x="6.898" y="-36.88" class="c"/><path d="M48.397 44.936h.394" class="d"/></g><use xlink:href="#Ac" class="n"/><g class="b m"><use xlink:href="#Ad" class="c"/><path d="M47.066 46.79l.13.372" class="d"/></g><use xlink:href="#AD" x="6.898" y="-36.88" class="n"/><g class="b m"><use xlink:href="#AE" x="6.898" y="-36.88" class="c"/><path d="M48.06 46.02l.33.215" class="d"/></g><use xlink:href="#Ae" class="n"/><use xlink:href="#Af" class="b c m"/><use xlink:href="#Ag" class="n"/><g class="b m"><use xlink:href="#Ah" class="c"/><path d="M48.073 43.856l.33-.215" class="d"/></g><use xlink:href="#AF" x="6.897" y="-36.88" class="n"/><g class="b m"><use xlink:href="#AG" x="6.897" y="-36.88" class="c"/><path d="M28.208 63.18l.13-.372" class="d"/></g><g clip-path="url(#K)" class="t n"><use xlink:href="#s" x="-11.975" y="-16.788"/></g><g class="b"><g class="u"><use xlink:href="#t" x="-11.975" y="-16.788" class="m"/><use xlink:href="#u" x="-11.974" y="-16.777" class="g"/></g><path d="M25.585 65.03h-.394" class="d m"/></g><use xlink:href="#Ai" class="n"/><g class="b m"><use xlink:href="#Aj" class="c"/><path d="M26.915 66.882l-.13.372" class="d"/></g><use xlink:href="#x" x="-11.974" y="-16.787" class="n"/><g class="b m"><use xlink:href="#y" x="-11.974" y="-16.787" class="c"/><path d="M25.922 66.113l-.33.215" class="d"/></g><path d="M25.454 67.03a.513.513 0 1 0-.561-.858.513.513 0 0 0 .56.859" class="n"/><g class="b m"><path d="M25.454 67.03a.513.513 0 1 0-.561-.858.513.513 0 0 0 .56.859z" class="c"/><path d="M26.902 63.18l-.13-.372" class="d"/></g><use xlink:href="#Aa" x="-18.872" y="20.093" class="n"/><g class="b m"><use xlink:href="#Ab" x="-18.872" y="20.093" class="c"/><path d="M25.9 63.95l-.33-.216" class="d"/></g><use xlink:href="#z" x="-11.974" y="-16.788" class="n"/><g class="b m"><use xlink:href="#AA" x="-11.974" y="-16.788" class="c"/><path d="M29.525 65.03h.394" class="d"/></g><use xlink:href="#Ac" x="-18.87" y="20.092" class="n"/><g class="b m"><use xlink:href="#Ad" x="-18.87" y="20.092" class="c"/><path d="M28.195 66.882l.13.372" class="d"/></g><use xlink:href="#AD" x="-11.973" y="-16.787" class="n"/><g class="b m"><use xlink:href="#AE" x="-11.973" y="-16.787" class="c"/><path d="M29.188 66.113l.33.215" class="d"/></g><path d="M29.656 67.03a.513.513 0 1 1 .561-.858.513.513 0 0 1-.56.859" class="n"/><path d="M29.656 67.03a.513.513 0 1 1 .561-.858.513.513 0 0 1-.56.859z" class="b c m"/><use xlink:href="#Ag" x="-18.873" y="20.093" class="n"/><g class="b m"><use xlink:href="#Ah" x="-18.873" y="20.093" class="c"/><path d="M29.2 63.95l.33-.216" class="d"/></g><use xlink:href="#Ak" class="n"/><g class="b m"><use xlink:href="#Al" class="c"/><path d="M42.182 119.714l.13-.372" class="d"/></g><g clip-path="url(#L)" class="t n"><use xlink:href="#s" x="2" y="39.746"/></g><g class="b"><g class="u"><use xlink:href="#t" x="2" y="39.746" class="m"/><use xlink:href="#Am" class="g"/></g><path d="M39.56 121.563h-.394" class="d m"/></g><use xlink:href="#Ai" x="13.965" y="56.534" class="n"/><g class="b m"><use xlink:href="#Aj" x="13.965" y="56.534" class="c"/><path d="M40.9 123.416l-.13.372" class="d"/></g><use xlink:href="#x" x="2" y="39.748" class="n"/><g class="b m"><use xlink:href="#y" x="2" y="39.748" class="c"/><path d="M39.897 122.647l-.33.215" class="d"/></g><path d="M39.428 123.565a.513.513 0 1 0-.561-.859.513.513 0 0 0 .56.859" class="n"/><g class="b m"><path d="M39.428 123.565a.513.513 0 1 0-.561-.859.513.513 0 0 0 .56.859z" class="c"/><path d="M40.876 119.714l-.13-.372" class="d"/></g><use xlink:href="#Aa" x="-4.898" y="76.627" class="n"/><g class="b m"><use xlink:href="#Ab" x="-4.898" y="76.627" class="c"/><path d="M39.883 120.483l-.33-.215" class="d"/></g><path d="M39.415 119.566a.513.513 0 1 1-.561.858.513.513 0 0 1 .56-.859" class="n"/><g class="b m"><path d="M39.415 119.566a.513.513 0 1 1-.561.858.513.513 0 0 1 .56-.859z" class="c"/><path d="M43.5 121.563h.393" class="d"/></g><use xlink:href="#AB" x="2" y="39.746" class="n"/><g class="b m"><use xlink:href="#AC" x="2" y="39.746" class="c"/><path d="M42.17 123.416l.13.372" class="d"/></g><use xlink:href="#AD" x="2.001" y="39.748" class="n"/><g class="b m"><use xlink:href="#AE" x="2.001" y="39.748" class="c"/><path d="M43.162 122.647l.33.215" class="d"/></g><path d="M43.63 123.565a.513.513 0 1 1 .561-.859.513.513 0 0 1-.56.859" class="n"/><path d="M43.63 123.565a.513.513 0 1 1 .561-.859.513.513 0 0 1-.56.859z" class="b c m"/><use xlink:href="#Ag" x="-4.89" y="76.627" class="n"/><g class="b m"><use xlink:href="#Ah" x="-4.89" y="76.627" class="c"/><path d="M43.175 120.483l.33-.215" class="d"/></g><path d="M43.644 119.566a.513.513 0 1 0 .56.858.513.513 0 0 0-.56-.859" class="n"/><path d="M43.644 119.566a.513.513 0 1 0 .56.858.513.513 0 0 0-.56-.859z" class="b c m"/><g clip-path="url(#M)" class="t i"><use xlink:href="#s" x="-13.013" y="-53.88"/></g><g class="b"><g class="u"><use xlink:href="#t" x="-13.013" y="-53.88" class="h"/><path d="M25.425 27.43c-.1.307-.066.697.03.72.16.037.344-.192.448-.33.043-.055.104-.114.253-.276.246-.27.246-.256.36-.226.185.05-.074 1.095.3 1.2.186.053.54-.552.667-.65.174-.135.478-.415.44-.022" class="g"/></g><path d="M24.546 27.937h-.394" class="d h"/></g><use xlink:href="#Ai" x="-1.048" y="-37.092" class="i"/><g class="b h"><use xlink:href="#Aj" x="-1.048" y="-37.092" class="c"/><path d="M25.877 29.8l-.13.372" class="d"/></g><use xlink:href="#x" x="-13.012" y="-53.879" class="i"/><g class="b h"><use xlink:href="#y" x="-13.012" y="-53.879" class="c"/><path d="M24.884 29.02l-.33.215" class="d"/></g><path d="M24.415 29.94a.513.513 0 1 0-.56-.859.513.513 0 0 0 .56.859" class="i"/><g class="b h"><path d="M24.415 29.94a.513.513 0 1 0-.56-.859.513.513 0 0 0 .56.859z" class="c"/><path d="M25.863 26.088l-.13-.372" class="d"/></g><use xlink:href="#Aa" x="-19.91" y="-16.999" class="i"/><g class="b h"><use xlink:href="#Ab" x="-19.91" y="-16.999" class="c"/><path d="M24.87 26.857l-.33-.215" class="d"/></g><path d="M24.402 25.94a.513.513 0 1 1-.561.858.513.513 0 0 1 .56-.858" class="i"/><g class="b h"><path d="M24.402 25.94a.513.513 0 1 1-.561.858.513.513 0 0 1 .56-.858z" class="c"/><path d="M28.487 27.937h.394" class="d"/></g><use xlink:href="#AB" x="-13.013" y="-53.88" class="i"/><g class="b h"><use xlink:href="#AC" x="-13.013" y="-53.88" class="c"/><path d="M27.156 29.8l.13.372" class="d"/></g><use xlink:href="#AD" x="-13.012" y="-53.879" class="i"/><g class="b h"><use xlink:href="#AE" x="-13.012" y="-53.879" class="c"/><path d="M28.15 29.02l.33.215" class="d"/></g><path d="M28.617 29.94a.513.513 0 1 1 .561-.859.513.513 0 0 1-.56.859" class="i"/><g class="b h"><path d="M28.617 29.94a.513.513 0 1 1 .561-.859.513.513 0 0 1-.56.859z" class="c"/><path d="M27.17 26.088l.128-.372" class="d"/></g><use xlink:href="#Ag" x="-19.912" y="-16.999" class="i"/><g class="b h"><use xlink:href="#Ah" x="-19.912" y="-16.999" class="c"/><path d="M28.162 26.857l.33-.215" class="d"/></g><path d="M28.63 25.94a.513.513 0 1 0 .562.859.513.513 0 0 0-.561-.86" class="i"/><path d="M28.63 25.94a.513.513 0 1 0 .562.859.513.513 0 0 0-.561-.86z" class="b c h"/><g clip-path="url(#N)" class="t i"><use xlink:href="#s" x="4.75" y="-19.996"/></g><g class="b"><g class="u"><use xlink:href="#t" x="4.75" y="-19.996" class="h"/><use xlink:href="#AX" x="9.722" y="-13.7" class="g"/></g><path d="M42.3 61.82h-.395" class="d h"/></g><use xlink:href="#v" x="4.751" y="-19.996" class="i"/><g class="b h"><use xlink:href="#w" x="4.751" y="-19.996" class="c"/><path d="M43.64 63.674l-.13.372" class="d"/></g><use xlink:href="#AH" x="14.855" y="-47.466" class="i"/><g class="b h"><use xlink:href="#AI" x="14.855" y="-47.466" class="c"/><path d="M42.647 62.905l-.33.215" class="d"/></g><path d="M42.18 63.823a.513.513 0 1 0-.561-.86.513.513 0 0 0 .56.86" class="i"/><g class="b h"><path d="M42.18 63.823a.513.513 0 1 0-.561-.86.513.513 0 0 0 .56.86z" class="c"/><path d="M43.627 59.972l-.13-.372" class="d"/></g><path d="M43.818 58.96a.513.513 0 1 1-.97.336.513.513 0 0 1 .97-.337" class="i"/><g class="b h"><path d="M43.818 58.96a.513.513 0 1 1-.97.336.513.513 0 0 1 .97-.337z" class="c"/><path d="M42.634 60.74l-.33-.215" class="d"/></g><use xlink:href="#An" class="i"/><g class="b h"><use xlink:href="#Ao" class="c"/><path d="M46.25 61.82h.394" class="d"/></g><use xlink:href="#Ac" x="-2.146" y="16.884" class="i"/><g class="b h"><use xlink:href="#Ad" x="-2.146" y="16.884" class="c"/><path d="M44.92 63.674l.128.372" class="d"/></g><use xlink:href="#AJ" x="14.856" y="-47.466" class="i"/><g class="b h"><use xlink:href="#AK" x="14.856" y="-47.466" class="c"/><path d="M45.913 62.905l.33.215" class="d"/></g><use xlink:href="#Ae" x="-2.148" y="16.885" class="i"/><g class="b h"><use xlink:href="#Af" x="-2.148" y="16.885" class="c"/><path d="M44.933 59.972l.13-.372" class="d"/></g><path d="M44.742 58.96a.513.513 0 1 0 .97.336.513.513 0 0 0-.97-.337" class="i"/><g class="b h"><path d="M44.742 58.96a.513.513 0 1 0 .97.336.513.513 0 0 0-.97-.337z" class="c"/><path d="M45.926 60.74l.33-.215" class="d"/></g><use xlink:href="#AF" x="4.751" y="-19.995" class="i"/><use xlink:href="#AG" x="4.751" y="-19.995" class="b c h"/><g clip-path="url(#O)" class="t f"><path d="M38.433 102.86a1.923 1.923 0 1 0 0-3.847 1.923 1.923 0 0 0 0 3.846"/></g><g class="b"><g class="u"><path d="M38.433 102.86a1.923 1.923 0 1 0 0-3.847 1.923 1.923 0 0 0 0 3.846z" class="e"/><use xlink:href="#u" x="-1.096" y="19.13" class="g"/></g><path d="M36.462 100.936h-.394" class="d e"/></g><path d="M35.568 101.45a.513.513 0 1 0 0-1.028.513.513 0 0 0 0 1.027" class="f"/><g class="b e"><path d="M35.568 101.45a.513.513 0 1 0 0-1.028.513.513 0 0 0 0 1.027z" class="c"/><path d="M37.793 102.8l-.13.37" class="d"/></g><use xlink:href="#AH" x="9.009" y="-8.35" class="f"/><g class="b e"><use xlink:href="#AI" x="9.009" y="-8.35" class="c"/><path d="M36.8 102.02l-.33.215" class="d"/></g><use xlink:href="#Ap" class="f"/><g class="b e"><use xlink:href="#Aq" class="c"/><path d="M37.78 99.088l-.13-.372" class="d"/></g><path d="M37.97 98.075a.513.513 0 1 1-.969.336.513.513 0 0 1 .97-.336" class="f"/><g class="b e"><path d="M37.97 98.075a.513.513 0 1 1-.969.336.513.513 0 0 1 .97-.336z" class="c"/><path d="M36.787 99.857l-.33-.215" class="d"/></g><use xlink:href="#Ar" class="f"/><g class="b e"><use xlink:href="#As" class="c"/><path d="M40.403 100.936h.394" class="d"/></g><path d="M41.297 101.45a.513.513 0 1 1 0-1.028.513.513 0 0 1 0 1.027" class="f"/><g class="b e"><path d="M41.297 101.45a.513.513 0 1 1 0-1.028.513.513 0 0 1 0 1.027z" class="c"/><path d="M39.072 102.8l.13.37" class="d"/></g><use xlink:href="#AJ" x="9.008" y="-8.35" class="f"/><g class="b e"><use xlink:href="#AK" x="9.008" y="-8.35" class="c"/><path d="M40.065 102.02l.33.215" class="d"/></g><use xlink:href="#AR" x="-3.966" y="11.134" class="f"/><g class="b e"><use xlink:href="#AS" x="-3.966" y="11.134" class="c"/><path d="M39.086 99.088l.13-.372" class="d"/></g><use xlink:href="#Ag" x="-7.995" y="56" class="f"/><g class="b e"><use xlink:href="#Ah" x="-7.995" y="56" class="c"/><path d="M40.078 99.857l.33-.215" class="d"/></g><use xlink:href="#At" class="f"/><use xlink:href="#Au" class="b c e"/><g clip-path="url(#P)" class="t f"><use xlink:href="#s" x="3.4" y="-11.748"/></g><g class="b"><g class="u"><use xlink:href="#t" x="3.4" y="-11.748" class="e"/><use xlink:href="#Av" class="g"/></g><path d="M40.96 70.07h-.395" class="d e"/></g><use xlink:href="#Ai" x="15.365" y="5.04" class="f"/><g class="b e"><use xlink:href="#Aj" x="15.365" y="5.04" class="c"/><path d="M42.3 71.922l-.13.372" class="d"/></g><path d="M42.48 72.935a.513.513 0 1 0-.969-.337.513.513 0 0 0 .97.337" class="f"/><g class="b e"><path d="M42.48 72.935a.513.513 0 1 0-.969-.337.513.513 0 0 0 .97.337z" class="c"/><path d="M41.297 71.153l-.33.215" class="d"/></g><path d="M40.828 72.07a.513.513 0 1 0-.56-.859.513.513 0 0 0 .56.859" class="f"/><g class="b e"><path d="M40.828 72.07a.513.513 0 1 0-.56-.859.513.513 0 0 0 .56.859z" class="c"/><path d="M42.277 68.22l-.13-.372" class="d"/></g><use xlink:href="#Aa" x="-3.497" y="25.133" class="f"/><g class="b e"><use xlink:href="#Ab" x="-3.497" y="25.133" class="c"/><path d="M41.284 69l-.33-.216" class="d"/></g><path d="M40.815 68.072a.513.513 0 1 1-.56.858.513.513 0 0 1 .56-.859" class="f"/><g class="b e"><path d="M40.815 68.072a.513.513 0 1 1-.56.858.513.513 0 0 1 .56-.859z" class="c"/><path d="M44.9 70.07h.394" class="d"/></g><use xlink:href="#Ac" x="-3.496" y="25.132" class="f"/><g class="b e"><use xlink:href="#Ad" x="-3.496" y="25.132" class="c"/><path d="M43.57 71.922l.128.372" class="d"/></g><use xlink:href="#AD" x="3.401" y="-11.747" class="f"/><g class="b e"><use xlink:href="#AE" x="3.401" y="-11.747" class="c"/><path d="M44.562 71.153l.33.215" class="d"/></g><path d="M45.03 72.07a.513.513 0 1 1 .562-.859.513.513 0 0 1-.561.859" class="f"/><g class="b e"><path d="M45.03 72.07a.513.513 0 1 1 .562-.859.513.513 0 0 1-.561.859z" class="c"/><path d="M43.582 68.22l.13-.372" class="d"/></g><use xlink:href="#AL" x="13.505" y="-39.217" class="f"/><g class="b e"><use xlink:href="#AM" x="13.505" y="-39.217" class="c"/><path d="M44.575 69l.33-.216" class="d"/></g><path d="M45.044 68.072a.513.513 0 1 0 .56.858.513.513 0 0 0-.56-.859" class="f"/><path d="M45.044 68.072a.513.513 0 1 0 .56.858.513.513 0 0 0-.56-.859z" class="b c e"/><g clip-path="url(#Q)" class="t f"><use xlink:href="#s" x="-7.338" y="38.23"/></g><g class="b"><g class="u"><use xlink:href="#t" x="-7.338" y="38.23" class="e"/><path d="M31.1 119.542c-.1.306-.066.696.03.718.16.037.344-.192.448-.33.043-.055.104-.114.253-.276.246-.27.246-.256.36-.226.185.05-.074 1.095.3 1.2.186.053.54-.552.667-.65.174-.135.478-.415.44-.022" class="g"/></g><path d="M30.22 120.048h-.394" class="d e"/></g><use xlink:href="#Ai" x="4.627" y="55.018" class="f"/><g class="b e"><use xlink:href="#Aj" x="4.627" y="55.018" class="c"/><path d="M31.552 121.9l-.13.372" class="d"/></g><use xlink:href="#x" x="-7.337" y="38.232" class="f"/><g class="b e"><use xlink:href="#y" x="-7.337" y="38.232" class="c"/><path d="M30.56 121.132l-.33.215" class="d"/></g><use xlink:href="#Ap" x="-6.23" y="19.112" class="f"/><g class="b e"><use xlink:href="#Aq" x="-6.23" y="19.112" class="c"/><path d="M31.54 118.2l-.13-.373" class="d"/></g><path d="M31.73 117.187a.514.514 0 1 1-.971.336.514.514 0 0 1 .97-.336" class="f"/><g class="b e"><path d="M31.73 117.187a.514.514 0 1 1-.971.336.514.514 0 0 1 .97-.336z" class="c"/><path d="M30.546 118.97l-.33-.215" class="d"/></g><use xlink:href="#z" x="-7.337" y="38.232" class="f"/><g class="b e"><use xlink:href="#AA" x="-7.337" y="38.232" class="c"/><path d="M34.162 120.048h.394" class="d"/></g><use xlink:href="#Ac" x="-14.234" y="75.11" class="f"/><g class="b e"><use xlink:href="#Ad" x="-14.234" y="75.11" class="c"/><path d="M32.83 121.9l.13.372" class="d"/></g><use xlink:href="#AD" x="-7.337" y="38.232" class="f"/><g class="b e"><use xlink:href="#AE" x="-7.337" y="38.232" class="c"/><path d="M33.824 121.132l.33.215" class="d"/></g><use xlink:href="#AR" x="-10.207" y="30.246" class="f"/><g class="b e"><use xlink:href="#AS" x="-10.207" y="30.246" class="c"/><path d="M32.844 118.2l.13-.373" class="d"/></g><use xlink:href="#AL" x="2.768" y="10.762" class="f"/><g class="b e"><use xlink:href="#AM" x="2.768" y="10.762" class="c"/><path d="M33.837 118.97l.33-.215" class="d"/></g><use xlink:href="#Ak" x="4.636" y="55.02" class="f"/><use xlink:href="#Al" x="4.636" y="55.02" class="b c e"/><g clip-path="url(#R)" class="t f"><use xlink:href="#s" x="7.694" y="2.694"/></g><g class="b"><g class="u"><use xlink:href="#t" x="7.694" y="2.694" class="e"/><path d="M46.133 84.005c-.1.306-.067.696.03.718.16.037.344-.192.448-.33.043-.055.104-.114.253-.276.246-.27.247-.256.36-.226.186.05-.073 1.095.3 1.2.187.053.54-.552.668-.65.174-.135.478-.415.44-.022" class="g"/></g><path d="M45.253 84.51h-.394" class="d e"/></g><path d="M44.36 85.024a.513.513 0 1 0-.002-1.027.513.513 0 0 0 .001 1.027" class="f"/><g class="b e"><path d="M44.36 85.024a.513.513 0 1 0-.002-1.027.513.513 0 0 0 .001 1.027z" class="c"/><path d="M46.584 86.364l-.13.372" class="d"/></g><use xlink:href="#x" x="7.695" y="2.695" class="f"/><g class="b e"><use xlink:href="#y" x="7.695" y="2.695" class="c"/><path d="M45.59 85.595l-.33.215" class="d"/></g><use xlink:href="#Ap" x="8.792" y="-16.425" class="f"/><g class="b e"><use xlink:href="#Aq" x="8.792" y="-16.425" class="c"/><path d="M46.57 82.662l-.128-.372" class="d"/></g><use xlink:href="#Aa" x="0.797" y="39.575" class="f"/><g class="b e"><use xlink:href="#Ab" x="0.797" y="39.575" class="c"/><path d="M45.578 83.43l-.33-.214" class="d"/></g><path d="M45.1 82.514a.513.513 0 1 1-.562.859.513.513 0 0 1 .561-.86" class="f"/><g class="b e"><path d="M45.1 82.514a.513.513 0 1 1-.562.859.513.513 0 0 1 .561-.86z" class="c"/><path d="M49.194 84.51h.394" class="d"/></g><use xlink:href="#Ac" x="0.798" y="39.574" class="f"/><g class="b e"><use xlink:href="#Ad" x="0.798" y="39.574" class="c"/><path d="M47.863 86.364l.13.372" class="d"/></g><use xlink:href="#AD" x="7.695" y="2.695" class="f"/><g class="b e"><use xlink:href="#AE" x="7.695" y="2.695" class="c"/><path d="M48.856 85.595l.33.215" class="d"/></g><use xlink:href="#AR" x="4.825" y="-5.291" class="f"/><g class="b e"><use xlink:href="#AS" x="4.825" y="-5.291" class="c"/><path d="M47.876 82.662l.13-.372" class="d"/></g><use xlink:href="#Ag" x="0.795" y="39.575" class="f"/><g class="b e"><use xlink:href="#Ah" x="0.795" y="39.575" class="c"/><path d="M48.87 83.43l.33-.214" class="d"/></g><use xlink:href="#AV" x="4.825" y="-5.291" class="f"/><g class="b"><use xlink:href="#AW" x="4.825" y="-5.291" class="c e"/><path d="M27.04 78.212l-.13.372m-.863-1.14l-.33.215m2.603.554l.128.372" class="d w"/></g><g clip-path="url(#S)" class="t v"><use xlink:href="#s" x="-11.85" y="-5.458"/></g><g class="b"><g class="u"><use xlink:href="#t" x="-11.85" y="-5.458" class="w"/><use xlink:href="#Av" x="-15.25" y="6.29" class="g"/></g><path d="M25.7 76.36h-.395" class="d w"/></g><use xlink:href="#Ai" x="0.115" y="11.33" class="v"/><use xlink:href="#Aj" x="0.115" y="11.33" class="b c w"/><path d="M27.23 79.225a.513.513 0 1 0-.969-.337.513.513 0 0 0 .97.337" class="v"/><path d="M27.23 79.225a.513.513 0 1 0-.969-.337.513.513 0 0 0 .97.337z" class="b c w"/><path d="M25.578 78.36a.513.513 0 1 0-.56-.858.513.513 0 0 0 .56.859" class="v"/><g class="b w"><path d="M25.578 78.36a.513.513 0 1 0-.56-.858.513.513 0 0 0 .56.859z" class="c"/><path d="M27.027 74.5l-.13-.372" class="d"/></g><use xlink:href="#Aa" x="-18.747" y="31.423" class="v"/><g class="b w"><use xlink:href="#Ab" x="-18.747" y="31.423" class="c"/><path d="M26.034 75.28l-.33-.216" class="d"/></g><use xlink:href="#z" x="-11.849" y="-5.458" class="v"/><g class="b w"><use xlink:href="#AA" x="-11.849" y="-5.458" class="c"/><path d="M29.65 76.36h.394" class="d"/></g><use xlink:href="#Ac" x="-18.746" y="31.422" class="v"/><use xlink:href="#Ad" x="-18.746" y="31.422" class="b c w"/><use xlink:href="#AD" x="-11.849" y="-5.457" class="v"/><g class="b w"><use xlink:href="#AE" x="-11.849" y="-5.457" class="c"/><path d="M29.312 77.443l.33.215" class="d"/></g><path d="M29.78 78.36a.513.513 0 1 1 .562-.858.513.513 0 0 1-.561.859" class="v"/><g class="b w"><path d="M29.78 78.36a.513.513 0 1 1 .562-.858.513.513 0 0 1-.561.859z" class="c"/><path d="M28.332 74.5l.13-.372" class="d"/></g><use xlink:href="#AL" x="-1.745" y="-32.927" class="v"/><g class="b w"><use xlink:href="#AM" x="-1.745" y="-32.927" class="c"/><path d="M29.325 75.28l.33-.216" class="d"/></g><use xlink:href="#Ak" x="0.124" y="11.33" class="v"/><g class="b w"><use xlink:href="#Al" x="0.124" y="11.33" class="c"/><path d="M52.242 116.376l-.13.372m-.864-1.14l-.33.215m2.602.554l.13.372" class="d"/></g><g clip-path="url(#T)" class="t v"><use xlink:href="#s" x="13.352" y="32.706"/></g><g class="b"><g class="u"><use xlink:href="#t" x="13.352" y="32.706" class="w"/><use xlink:href="#Am" x="11.362" y="-7.04" class="g"/></g><path d="M50.9 114.523h-.393" class="d w"/></g><use xlink:href="#Ai" x="25.317" y="49.494" class="v"/><use xlink:href="#Aj" x="25.317" y="49.494" class="b c w"/><use xlink:href="#x" x="13.353" y="32.708" class="v"/><use xlink:href="#y" x="13.353" y="32.708" class="b c w"/><use xlink:href="#AY" x="6.455" y="69.587" class="v"/><g class="b w"><use xlink:href="#AZ" x="6.455" y="69.587" class="c"/><path d="M52.228 112.674l-.13-.372" class="d"/></g><use xlink:href="#Aa" x="6.455" y="69.587" class="v"/><g class="b w"><use xlink:href="#Ab" x="6.455" y="69.587" class="c"/><path d="M51.235 113.443l-.33-.215" class="d"/></g><use xlink:href="#An" x="8.601" y="52.702" class="v"/><g class="b w"><use xlink:href="#Ao" x="8.601" y="52.702" class="c"/><path d="M54.852 114.523h.394" class="d"/></g><use xlink:href="#AB" x="13.352" y="32.706" class="v"/><use xlink:href="#AC" x="13.352" y="32.706" class="b c w"/><use xlink:href="#AD" x="13.353" y="32.708" class="v"/><g class="b w"><use xlink:href="#AE" x="13.353" y="32.708" class="c"/><path d="M54.514 115.607l.33.215" class="d"/></g><path d="M54.982 116.525a.513.513 0 1 1 .561-.86.513.513 0 0 1-.56.86" class="v"/><g class="b w"><path d="M54.982 116.525a.513.513 0 1 1 .561-.86.513.513 0 0 1-.56.86z" class="c"/><path d="M53.534 112.674l.13-.372" class="d"/></g><use xlink:href="#Ag" x="6.453" y="69.587" class="v"/><g class="b w"><use xlink:href="#Ah" x="6.453" y="69.587" class="c"/><path d="M54.527 113.443l.33-.215" class="d"/></g><use xlink:href="#Ak" x="25.326" y="49.495" class="v"/><g class="b"><use xlink:href="#Al" x="25.326" y="49.495" class="c w"/><path d="M35.412 114.87l-.13.372m-.863-1.14l-.33.215m2.602.554l.13.372" class="d j"/></g><g clip-path="url(#U)" class="t l"><use xlink:href="#s" x="-3.478" y="31.2"/></g><g class="b"><g class="u"><use xlink:href="#t" x="-3.478" y="31.2" class="j"/><path d="M34.96 112.5c-.1.307-.066.697.03.72.16.037.344-.192.448-.33.043-.055.104-.114.253-.276.246-.27.247-.256.36-.226.185.05-.074 1.095.3 1.2.186.053.54-.552.667-.65.174-.135.478-.415.44-.022" class="g"/></g><path d="M34.08 113.017h-.394" class="d j"/></g><use xlink:href="#Ai" x="8.487" y="47.988" class="l"/><use xlink:href="#Aj" x="8.487" y="47.988" class="b c j"/><use xlink:href="#x" x="-3.477" y="31.201" class="l"/><use xlink:href="#y" x="-3.477" y="31.201" class="b c j"/><use xlink:href="#AY" x="-10.375" y="68.082" class="l"/><g class="b j"><use xlink:href="#AZ" x="-10.375" y="68.082" class="c"/><path d="M35.398 111.168l-.13-.372" class="d"/></g><use xlink:href="#Aa" x="-10.365" y="68.081" class="l"/><g class="b j"><use xlink:href="#Ab" x="-10.365" y="68.081" class="c"/><path d="M34.406 111.937l-.33-.215" class="d"/></g><use xlink:href="#Ar" x="-2.381" y="12.08" class="l"/><g class="b j"><use xlink:href="#As" x="-2.381" y="12.08" class="c"/><path d="M38.022 113.017h.394" class="d"/></g><use xlink:href="#Ac" x="-10.374" y="68.08" class="l"/><use xlink:href="#Ad" x="-10.374" y="68.08" class="b c j"/><use xlink:href="#AD" x="-3.477" y="31.201" class="l"/><g class="b j"><use xlink:href="#AE" x="-3.477" y="31.201" class="c"/><path d="M37.684 114.1l.33.215" class="d"/></g><use xlink:href="#Ae" x="-10.375" y="68.082" class="l"/><g class="b j"><use xlink:href="#Af" x="-10.375" y="68.082" class="c"/><path d="M36.704 111.168l.13-.372" class="d"/></g><use xlink:href="#Ag" x="-10.377" y="68.081" class="l"/><g class="b j"><use xlink:href="#Ah" x="-10.377" y="68.081" class="c"/><path d="M37.697 111.937l.33-.215" class="d"/></g><use xlink:href="#AV" x="-6.347" y="23.215" class="l"/><g class="b j"><use xlink:href="#AW" x="-6.347" y="23.215" class="c"/><path d="M30.568 102.218l-.13.372m-.864-1.14l-.33.214m2.603.554l.13.372" class="d"/></g><g clip-path="url(#V)" class="t l"><use xlink:href="#s" x="-8.32" y="18.548"/></g><g class="b"><g class="u"><use xlink:href="#t" x="-8.32" y="18.548" class="j"/><use xlink:href="#u" x="-8.321" y="18.56" class="g"/></g><path d="M29.238 100.365h-.394" class="d j"/></g><use xlink:href="#v" x="-8.321" y="18.548" class="l"/><use xlink:href="#w" x="-8.321" y="18.548" class="b c j"/><path d="M30.76 103.23a.513.513 0 1 0-.97-.336.513.513 0 0 0 .97.337" class="l"/><path d="M30.76 103.23a.513.513 0 1 0-.97-.336.513.513 0 0 0 .97.337z" class="b c j"/><use xlink:href="#AN" x="-11.19" y="10.563" class="l"/><g class="b j"><use xlink:href="#AO" x="-11.19" y="10.563" class="c"/><path d="M30.555 98.516l-.13-.372" class="d"/></g><use xlink:href="#Aa" x="-15.219" y="55.429" class="l"/><g class="b j"><use xlink:href="#Ab" x="-15.219" y="55.429" class="c"/><path d="M29.562 99.285l-.33-.215" class="d"/></g><path d="M29.094 98.368a.513.513 0 1 1-.561.859.513.513 0 0 1 .56-.86" class="l"/><g class="b j"><path d="M29.094 98.368a.513.513 0 1 1-.561.859.513.513 0 0 1 .56-.86z" class="c"/><path d="M33.178 100.365h.394" class="d"/></g><use xlink:href="#AB" x="-8.321" y="18.548" class="l"/><use xlink:href="#AC" x="-8.321" y="18.548" class="b c j"/><path d="M31.657 103.23a.514.514 0 1 1 .97-.335.514.514 0 0 1-.97.336" class="l"/><g class="b j"><path d="M31.657 103.23a.514.514 0 1 1 .97-.335.514.514 0 0 1-.97.336z" class="c"/><path d="M32.84 101.45l.33.214" class="d"/></g><use xlink:href="#AR" x="-11.2" y="10.563" class="l"/><g class="b j"><use xlink:href="#AS" x="-11.2" y="10.563" class="c"/><path d="M31.86 98.516l.13-.372" class="d"/></g><use xlink:href="#Ag" x="-15.22" y="55.429" class="l"/><g class="b j"><use xlink:href="#Ah" x="-15.22" y="55.429" class="c"/><path d="M32.854 99.285l.33-.215" class="d"/></g><use xlink:href="#At" x="-7.225" y="-0.572" class="l"/><use xlink:href="#Au" x="-7.225" y="-0.572" class="b c j"/><g clip-path="url(#W)" class="t i"><use xlink:href="#s" x="-15.352" y="33.895"/></g><g class="b"><g class="u"><use xlink:href="#t" x="-15.352" y="33.895" class="h"/><use xlink:href="#AX" x="-10.381" y="40.192" class="g"/></g><path d="M22.208 115.713h-.394" class="d h"/></g><path d="M21.314 116.225a.513.513 0 1 0-.001-1.026.513.513 0 0 0 0 1.026" class="i"/><g class="b h"><path d="M21.314 116.225a.513.513 0 1 0-.001-1.026.513.513 0 0 0 0 1.026z" class="c"/><path d="M23.538 117.566l-.13.372" class="d"/></g><use xlink:href="#AH" x="-5.245" y="6.426" class="i"/><g class="b h"><use xlink:href="#AI" x="-5.245" y="6.426" class="c"/><path d="M22.545 116.797l-.33.215" class="d"/></g><use xlink:href="#AN" x="-18.22" y="25.91" class="i"/><g class="b h"><use xlink:href="#AO" x="-18.22" y="25.91" class="c"/><path d="M23.525 113.864l-.13-.372" class="d"/></g><use xlink:href="#AP" x="-18.22" y="25.91" class="i"/><g class="b h"><use xlink:href="#AQ" x="-18.22" y="25.91" class="c"/><path d="M22.532 114.633l-.33-.215" class="d"/></g><path d="M22.064 113.715a.513.513 0 1 1-.561.859.513.513 0 0 1 .56-.86" class="i"/><g class="b h"><path d="M22.064 113.715a.513.513 0 1 1-.561.859.513.513 0 0 1 .56-.86z" class="c"/><path d="M26.148 115.713h.394" class="d"/></g><path d="M27.042 116.225a.513.513 0 1 1 .001-1.026.513.513 0 0 1 0 1.026" class="i"/><g class="b h"><path d="M27.042 116.225a.513.513 0 1 1 .001-1.026.513.513 0 0 1 0 1.026z" class="c"/><path d="M24.818 117.566l.13.372" class="d"/></g><use xlink:href="#AJ" x="-5.245" y="6.426" class="i"/><g class="b h"><use xlink:href="#AK" x="-5.245" y="6.426" class="c"/><path d="M25.8 116.797l.33.215" class="d"/></g><use xlink:href="#AR" x="-18.22" y="25.91" class="i"/><g class="b h"><use xlink:href="#AS" x="-18.22" y="25.91" class="c"/><path d="M24.83 113.864l.13-.372" class="d"/></g><use xlink:href="#AT" x="-18.22" y="25.91" class="i"/><g class="b h"><use xlink:href="#AU" x="-18.22" y="25.91" class="c"/><path d="M25.824 114.633l.33-.215" class="d"/></g><use xlink:href="#At" x="-14.255" y="14.775" class="i"/><g class="b"><use xlink:href="#Au" x="-14.255" y="14.775" class="c h"/><path d="M27.674 54.882l-.13.372m-.864-1.14l-.33.215m2.603.554l.13.372" class="d j"/></g><g clip-path="url(#X)" class="t l"><use xlink:href="#s" x="-11.216" y="-28.788"/></g><g class="b"><g class="u"><use xlink:href="#t" x="-11.216" y="-28.788" class="j"/><use xlink:href="#u" x="-11.215" y="-28.777" class="g"/></g><path d="M26.344 53.03h-.394" class="d j"/></g><use xlink:href="#v" x="-11.215" y="-28.788" class="l"/><use xlink:href="#w" x="-11.215" y="-28.788" class="b c j"/><use xlink:href="#x" x="-11.215" y="-28.787" class="l"/><use xlink:href="#y" x="-11.215" y="-28.787" class="b c j"/><path d="M26.213 55.03a.513.513 0 1 0-.561-.858.513.513 0 0 0 .56.859" class="l"/><g class="b j"><path d="M26.213 55.03a.513.513 0 1 0-.561-.858.513.513 0 0 0 .56.859z" class="c"/><path d="M27.66 51.18l-.13-.372" class="d"/></g><use xlink:href="#Aa" x="-18.113" y="8.093" class="l"/><g class="b j"><use xlink:href="#Ab" x="-18.113" y="8.093" class="c"/><path d="M26.668 51.95l-.33-.216" class="d"/></g><use xlink:href="#An" x="-15.966" y="-8.793" class="l"/><g class="b j"><use xlink:href="#Ao" x="-15.966" y="-8.793" class="c"/><path d="M30.284 53.03h.394" class="d"/></g><use xlink:href="#AB" x="-11.215" y="-28.788" class="l"/><use xlink:href="#AC" x="-11.215" y="-28.788" class="b c j"/><use xlink:href="#AD" x="-11.215" y="-28.787" class="l"/><g class="b j"><use xlink:href="#AE" x="-11.215" y="-28.787" class="c"/><path d="M29.947 54.113l.33.215" class="d"/></g><path d="M30.415 55.03a.513.513 0 1 1 .561-.858.513.513 0 0 1-.56.859" class="l"/><g class="b j"><path d="M30.415 55.03a.513.513 0 1 1 .561-.858.513.513 0 0 1-.56.859z" class="c"/><path d="M28.967 51.18l.13-.372" class="d"/></g><use xlink:href="#Ag" x="-18.114" y="8.093" class="l"/><g class="b j"><use xlink:href="#Ah" x="-18.114" y="8.093" class="c"/><path d="M29.96 51.95l.33-.216" class="d"/></g><use xlink:href="#AF" x="-11.215" y="-28.788" class="l"/><use xlink:href="#AG" x="-11.215" y="-28.788" class="b c j"/><g clip-path="url(#Y)" class="t i"><use xlink:href="#s" x="-12.503" y="-45.02"/></g><g class="b"><g class="u"><use xlink:href="#t" x="-12.503" y="-45.02" class="h"/><use xlink:href="#AX" x="-7.532" y="-38.722" class="g"/></g><path d="M25.056 36.8h-.394" class="d h"/></g><use xlink:href="#Ai" x="-0.538" y="-28.232" class="i"/><g class="b h"><use xlink:href="#Aj" x="-0.538" y="-28.232" class="c"/><path d="M26.387 38.65l-.13.372" class="d"/></g><use xlink:href="#AH" x="-2.397" y="-72.488" class="i"/><g class="b h"><use xlink:href="#AI" x="-2.397" y="-72.488" class="c"/><path d="M25.394 37.882l-.33.215" class="d"/></g><use xlink:href="#Ap" x="-11.405" y="-64.138" class="i"/><g class="b h"><use xlink:href="#Aq" x="-11.405" y="-64.138" class="c"/><path d="M26.374 34.95l-.13-.372" class="d"/></g><use xlink:href="#AP" x="-15.371" y="-53.003" class="i"/><g class="b h"><use xlink:href="#AQ" x="-15.371" y="-53.003" class="c"/><path d="M25.38 35.72l-.33-.215" class="d"/></g><use xlink:href="#z" x="-12.502" y="-45.018" class="i"/><g class="b h"><use xlink:href="#AA" x="-12.502" y="-45.018" class="c"/><path d="M28.997 36.8h.394" class="d"/></g><path d="M29.9 37.31a.513.513 0 1 1 .002-1.027.513.513 0 0 1-.001 1.027" class="i"/><g class="b h"><path d="M29.9 37.31a.513.513 0 1 1 .002-1.027.513.513 0 0 1-.001 1.027z" class="c"/><path d="M27.666 38.65l.13.372" class="d"/></g><use xlink:href="#AJ" x="-2.397" y="-72.488" class="i"/><g class="b h"><use xlink:href="#AK" x="-2.397" y="-72.488" class="c"/><path d="M28.66 37.882l.33.215" class="d"/></g><use xlink:href="#AR" x="-15.372" y="-53.004" class="i"/><g class="b h"><use xlink:href="#AS" x="-15.372" y="-53.004" class="c"/><path d="M27.68 34.95l.128-.372" class="d"/></g><use xlink:href="#AT" x="-15.372" y="-53.003" class="i"/><g class="b h"><use xlink:href="#AU" x="-15.372" y="-53.003" class="c"/><path d="M28.672 35.72l.33-.215" class="d"/></g><use xlink:href="#Ak" x="-0.53" y="-28.23" class="i"/><use xlink:href="#Al" x="-0.53" y="-28.23" class="b c h"/><g clip-path="url(#Z)" class="t f"><use xlink:href="#s" x="8.3" y="-51.435"/></g><g class="b"><g class="u"><use xlink:href="#t" x="8.3" y="-51.435" class="e"/><path d="M46.74 29.876c-.1.306-.067.696.03.718.158.037.343-.192.447-.33.043-.055.104-.114.253-.276.246-.27.246-.256.36-.226.185.05-.074 1.095.3 1.2.186.053.54-.552.667-.65.174-.135.478-.415.44-.022" class="g"/></g><path d="M45.86 30.382h-.394" class="d e"/></g><use xlink:href="#Ai" x="20.266" y="-34.647" class="f"/><g class="b e"><use xlink:href="#Aj" x="20.266" y="-34.647" class="c"/><path d="M47.2 32.235l-.128.372" class="d"/></g><use xlink:href="#x" x="8.302" y="-51.434" class="f"/><g class="b e"><use xlink:href="#y" x="8.302" y="-51.434" class="c"/><path d="M46.198 31.466l-.33.215" class="d"/></g><path d="M45.73 32.384a.513.513 0 1 0-.562-.86.513.513 0 0 0 .561.86" class="f"/><g class="b e"><path d="M45.73 32.384a.513.513 0 1 0-.562-.86.513.513 0 0 0 .561.86z" class="c"/><path d="M47.178 28.533l-.13-.372" class="d"/></g><use xlink:href="#AP" x="5.434" y="-59.42" class="f"/><g class="b e"><use xlink:href="#AQ" x="5.434" y="-59.42" class="c"/><path d="M46.185 29.302l-.33-.215" class="d"/></g><use xlink:href="#z" x="8.302" y="-51.434" class="f"/><g class="b e"><use xlink:href="#AA" x="8.302" y="-51.434" class="c"/><path d="M49.8 30.382h.395" class="d"/></g><use xlink:href="#Ac" x="1.405" y="-14.555" class="f"/><g class="b e"><use xlink:href="#Ad" x="1.405" y="-14.555" class="c"/><path d="M48.47 32.235l.13.372" class="d"/></g><use xlink:href="#AD" x="8.303" y="-51.434" class="f"/><g class="b e"><use xlink:href="#AE" x="8.303" y="-51.434" class="c"/><path d="M49.463 31.466l.33.215" class="d"/></g><use xlink:href="#Ae" x="1.404" y="-14.554" class="f"/><g class="b e"><use xlink:href="#Af" x="1.404" y="-14.554" class="c"/><path d="M48.483 28.533l.13-.372" class="d"/></g><use xlink:href="#AT" x="5.432" y="-59.42" class="f"/><g class="b e"><use xlink:href="#AU" x="5.432" y="-59.42" class="c"/><path d="M49.476 29.302l.33-.215" class="d"/></g><use xlink:href="#Ak" x="20.275" y="-34.646" class="f"/><use xlink:href="#Al" x="20.275" y="-34.646" class="b c e"/><g clip-path="url(#a)" class="t f"><use xlink:href="#s" x="-8.755" y="5.902"/></g><g class="b"><g class="u"><use xlink:href="#t" x="-8.755" y="5.902" class="e"/><use xlink:href="#AX" x="-3.784" y="12.199" class="g"/></g><path d="M28.805 87.72h-.394" class="d e"/></g><path d="M27.9 88.232a.513.513 0 1 0 0-1.026.513.513 0 0 0 0 1.026" class="f"/><g class="b e"><path d="M27.9 88.232a.513.513 0 1 0 0-1.026.513.513 0 0 0 0 1.026z" class="c"/><path d="M30.135 89.573l-.13.372" class="d"/></g><use xlink:href="#AH" x="1.351" y="-21.567" class="f"/><g class="b e"><use xlink:href="#AI" x="1.351" y="-21.567" class="c"/><path d="M29.142 88.803l-.33.216" class="d"/></g><use xlink:href="#AN" x="-11.623" y="-2.084" class="f"/><g class="b e"><use xlink:href="#AO" x="-11.623" y="-2.084" class="c"/><path d="M30.122 85.87l-.13-.37" class="d"/></g><use xlink:href="#AP" x="-11.623" y="-2.082" class="f"/><g class="b e"><use xlink:href="#AQ" x="-11.623" y="-2.082" class="c"/><path d="M29.13 86.64l-.33-.215" class="d"/></g><use xlink:href="#Ar" x="-7.658" y="-13.218" class="f"/><g class="b e"><use xlink:href="#As" x="-7.658" y="-13.218" class="c"/><path d="M32.745 87.72h.394" class="d"/></g><path d="M33.64 88.232a.513.513 0 1 1 0-1.026.513.513 0 0 1 0 1.026" class="f"/><g class="b e"><path d="M33.64 88.232a.513.513 0 1 1 0-1.026.513.513 0 0 1 0 1.026z" class="c"/><path d="M31.414 89.573l.13.372" class="d"/></g><use xlink:href="#AJ" x="1.351" y="-21.567" class="f"/><g class="b e"><use xlink:href="#AK" x="1.351" y="-21.567" class="c"/><path d="M32.407 88.803l.33.216" class="d"/></g><use xlink:href="#AR" x="-11.624" y="-2.084" class="f"/><g class="b e"><use xlink:href="#AS" x="-11.624" y="-2.084" class="c"/><path d="M31.428 85.87l.13-.37" class="d"/></g><path d="M31.237 84.858a.514.514 0 1 0 .97.336.514.514 0 0 0-.97-.336" class="f"/><g class="b e"><path d="M31.237 84.858a.514.514 0 1 0 .97.336.514.514 0 0 0-.97-.336z" class="c"/><path d="M32.42 86.64l.33-.215" class="d"/></g><use xlink:href="#AV" x="-11.613" y="-2.083" class="f"/><use xlink:href="#AW" x="-11.613" y="-2.083" class="b c e"/><g clip-path="url(#b)" class="t f"><use xlink:href="#s" x="3.632" y="26.172"/></g><g class="b"><g class="u"><use xlink:href="#t" x="3.632" y="26.172" class="e"/><path d="M42.07 107.483c-.1.306-.065.696.03.718.16.037.345-.192.45-.33.043-.055.104-.114.253-.276.246-.27.247-.256.36-.226.186.05-.073 1.095.3 1.2.187.053.54-.552.668-.65.174-.135.478-.415.44-.022" class="g"/></g><path d="M41.19 108h-.394" class="d e"/></g><use xlink:href="#Ai" x="15.597" y="42.96" class="f"/><g class="b e"><use xlink:href="#Aj" x="15.597" y="42.96" class="c"/><path d="M42.522 109.842l-.13.372" class="d"/></g><use xlink:href="#AH" x="13.738" y="-1.297" class="f"/><g class="b e"><use xlink:href="#AI" x="13.738" y="-1.297" class="c"/><path d="M41.53 109.073l-.33.215" class="d"/></g><use xlink:href="#Ap" x="4.73" y="7.052" class="f"/><g class="b e"><use xlink:href="#Aq" x="4.73" y="7.052" class="c"/><path d="M42.51 106.14l-.13-.37" class="d"/></g><use xlink:href="#Aa" x="-3.265" y="63.053" class="f"/><g class="b e"><use xlink:href="#Ab" x="-3.265" y="63.053" class="c"/><path d="M41.516 106.9l-.33-.215" class="d"/></g><use xlink:href="#Ar" x="4.729" y="7.052" class="f"/><g class="b e"><use xlink:href="#As" x="4.729" y="7.052" class="c"/><path d="M45.132 108h.394" class="d"/></g><use xlink:href="#Ac" x="-3.264" y="63.052" class="f"/><g class="b e"><use xlink:href="#Ad" x="-3.264" y="63.052" class="c"/><path d="M43.8 109.842l.13.372" class="d"/></g><use xlink:href="#AJ" x="13.728" y="-1.297" class="f"/><g class="b e"><use xlink:href="#AK" x="13.728" y="-1.297" class="c"/><path d="M44.794 109.073l.33.215" class="d"/></g><use xlink:href="#AR" x="0.763" y="18.186" class="f"/><g class="b e"><use xlink:href="#AS" x="0.763" y="18.186" class="c"/><path d="M43.815 106.14l.13-.37" class="d"/></g><use xlink:href="#Ag" x="-3.267" y="63.053" class="f"/><g class="b e"><use xlink:href="#Ah" x="-3.267" y="63.053" class="c"/><path d="M44.808 106.9l.33-.215" class="d"/></g><use xlink:href="#At" x="4.729" y="7.052" class="f"/><use xlink:href="#Au" x="4.729" y="7.052" class="b c e"/><g clip-path="url(#c)" class="t f"><use xlink:href="#s" x="8.114" y="-27.218"/></g><g class="b"><g class="u"><use xlink:href="#t" x="8.114" y="-27.218" class="e"/><use xlink:href="#u" x="8.115" y="-27.207" class="g"/></g><path d="M45.673 54.6h-.394" class="d e"/></g><use xlink:href="#v" x="8.115" y="-27.218" class="f"/><g class="b e"><use xlink:href="#w" x="8.115" y="-27.218" class="c"/><path d="M47.004 56.452l-.13.372" class="d"/></g><use xlink:href="#x" x="8.115" y="-27.217" class="f"/><g class="b e"><use xlink:href="#y" x="8.115" y="-27.217" class="c"/><path d="M46.01 55.683l-.33.215" class="d"/></g><use xlink:href="#Ap" x="9.212" y="-46.338" class="f"/><g class="b e"><use xlink:href="#Aq" x="9.212" y="-46.338" class="c"/><path d="M47 52.75l-.128-.37" class="d"/></g><use xlink:href="#Aa" x="1.217" y="9.663" class="f"/><g class="b e"><use xlink:href="#Ab" x="1.217" y="9.663" class="c"/><path d="M45.998 53.52l-.33-.216" class="d"/></g><path d="M45.53 52.602a.513.513 0 1 1-.562.859.513.513 0 0 1 .561-.86" class="f"/><g class="b e"><path d="M45.53 52.602a.513.513 0 1 1-.562.859.513.513 0 0 1 .561-.86z" class="c"/><path d="M49.614 54.6h.394" class="d"/></g><use xlink:href="#Ac" x="1.218" y="9.662" class="f"/><g class="b e"><use xlink:href="#Ad" x="1.218" y="9.662" class="c"/><path d="M48.283 56.452l.13.372" class="d"/></g><use xlink:href="#AD" x="8.115" y="-27.217" class="f"/><g class="b e"><use xlink:href="#AE" x="8.115" y="-27.217" class="c"/><path d="M49.276 55.683l.33.215" class="d"/></g><use xlink:href="#AR" x="5.245" y="-35.204" class="f"/><g class="b e"><use xlink:href="#AS" x="5.245" y="-35.204" class="c"/><path d="M48.297 52.75l.13-.37" class="d"/></g><use xlink:href="#Ag" x="1.215" y="9.663" class="f"/><g class="b e"><use xlink:href="#Ah" x="1.215" y="9.663" class="c"/><path d="M49.3 53.52l.33-.216" class="d"/></g><use xlink:href="#AV" x="5.245" y="-35.203" class="f"/><use xlink:href="#AW" x="5.245" y="-35.203" class="b c e"/><g clip-path="url(#d)" class="t i"><use xlink:href="#s" x="8.78" y="-6.093"/></g><g class="b"><g class="u"><use xlink:href="#t" x="8.78" y="-6.093" class="h"/><path d="M47.217 75.218c-.1.306-.066.696.03.718.16.037.344-.192.448-.33.043-.055.104-.114.253-.276.246-.27.247-.256.36-.226.185.05-.074 1.095.3 1.2.186.052.54-.553.667-.65.174-.136.478-.416.44-.023" class="g"/></g><path d="M46.338 75.725h-.394" class="d h"/></g><path d="M45.444 76.237a.513.513 0 1 0 0-1.026.513.513 0 0 0 0 1.026" class="i"/><g class="b h"><path d="M45.444 76.237a.513.513 0 1 0 0-1.026.513.513 0 0 0 0 1.026z" class="c"/><path d="M47.67 77.578l-.13.37" class="d"/></g><use xlink:href="#AH" x="18.885" y="-33.552" class="i"/><g class="b h"><use xlink:href="#AI" x="18.885" y="-33.552" class="c"/><path d="M46.676 76.81l-.33.215" class="d"/></g><use xlink:href="#Ap" x="9.877" y="-25.212" class="i"/><g class="b h"><use xlink:href="#Aq" x="9.877" y="-25.212" class="c"/><path d="M47.656 73.876l-.13-.372" class="d"/></g><use xlink:href="#AP" x="5.911" y="-14.077" class="i"/><g class="b h"><use xlink:href="#AQ" x="5.911" y="-14.077" class="c"/><path d="M46.663 74.645l-.33-.215" class="d"/></g><use xlink:href="#Ar" x="9.876" y="-25.213" class="i"/><g class="b h"><use xlink:href="#As" x="9.876" y="-25.213" class="c"/><path d="M50.28 75.725h.394" class="d"/></g><path d="M51.173 76.237a.513.513 0 1 1 0-1.026.513.513 0 0 1 0 1.026" class="i"/><g class="b h"><path d="M51.173 76.237a.513.513 0 1 1 0-1.026.513.513 0 0 1 0 1.026z" class="c"/><path d="M48.948 77.578l.13.37" class="d"/></g><use xlink:href="#AJ" x="18.885" y="-33.552" class="i"/><g class="b h"><use xlink:href="#AK" x="18.885" y="-33.552" class="c"/><path d="M49.94 76.81l.33.215" class="d"/></g><use xlink:href="#AR" x="5.9" y="-14.078" class="i"/><g class="b h"><use xlink:href="#AS" x="5.9" y="-14.078" class="c"/><path d="M48.96 73.876l.13-.372" class="d"/></g><use xlink:href="#AT" x="5.91" y="-14.077" class="i"/><g class="b h"><use xlink:href="#AU" x="5.91" y="-14.077" class="c"/><path d="M49.954 74.645l.33-.215" class="d"/></g><use xlink:href="#AV" x="5.91" y="-14.078" class="i"/><use xlink:href="#AW" x="5.91" y="-14.078" class="b c h"/><g clip-path="url(#e)" class="t i"><use xlink:href="#s" x="-3.898" y="11.494"/></g><g class="b"><g class="u"><use xlink:href="#t" x="-3.898" y="11.494" class="h"/><path d="M34.54 92.805c-.1.305-.066.695.03.717.16.038.344-.19.448-.33.043-.054.104-.113.253-.275.246-.27.247-.256.36-.226.185.05-.074 1.095.3 1.2.186.053.54-.552.667-.65.174-.135.478-.415.44-.022" class="g"/></g><path d="M33.66 93.3h-.393" class="d h"/></g><use xlink:href="#Ai" x="8.067" y="28.282" class="i"/><g class="b h"><use xlink:href="#Aj" x="8.067" y="28.282" class="c"/><path d="M34.992 95.164l-.13.372" class="d"/></g><path d="M35.183 96.177a.514.514 0 1 0-.971-.337.514.514 0 0 0 .97.336" class="i"/><g class="b h"><path d="M35.183 96.177a.514.514 0 1 0-.971-.337.514.514 0 0 0 .97.336z" class="c"/><path d="M34 94.395l-.33.215" class="d"/></g><use xlink:href="#AY" x="-10.795" y="48.375" class="i"/><g class="b h"><use xlink:href="#AZ" x="-10.795" y="48.375" class="c"/><path d="M34.978 91.462l-.13-.372" class="d"/></g><path d="M35.17 90.45a.513.513 0 1 1-.97.336.513.513 0 0 1 .97-.337" class="i"/><g class="b h"><path d="M35.17 90.45a.513.513 0 1 1-.97.336.513.513 0 0 1 .97-.337z" class="c"/><path d="M33.986 92.23l-.33-.215" class="d"/></g><use xlink:href="#An" x="-8.649" y="31.49" class="i"/><g class="b h"><use xlink:href="#Ao" x="-8.649" y="31.49" class="c"/><path d="M37.602 93.3h.394" class="d"/></g><use xlink:href="#AB" x="-3.898" y="11.494" class="i"/><g class="b h"><use xlink:href="#AC" x="-3.898" y="11.494" class="c"/><path d="M36.27 95.164l.13.372" class="d"/></g><path d="M36.08 96.177a.513.513 0 1 1 .97-.337.513.513 0 0 1-.97.336" class="i"/><g class="b h"><path d="M36.08 96.177a.513.513 0 1 1 .97-.337.513.513 0 0 1-.97.336z" class="c"/><path d="M37.264 94.395l.33.215" class="d"/></g><use xlink:href="#Ae" x="-10.795" y="48.375" class="i"/><g class="b h"><use xlink:href="#Af" x="-10.795" y="48.375" class="c"/><path d="M36.284 91.462l.13-.372" class="d"/></g><path d="M36.093 90.45a.513.513 0 1 0 .97.336.513.513 0 0 0-.97-.337" class="i"/><g class="b h"><path d="M36.093 90.45a.513.513 0 1 0 .97.336.513.513 0 0 0-.97-.337z" class="c"/><path d="M37.277 92.23l.33-.215" class="d"/></g><use xlink:href="#Ak" x="8.076" y="28.283" class="i"/><g class="b"><use xlink:href="#Al" x="8.076" y="28.283" class="c h"/><path d="M44.786 116.965l-.13.372m-.864-1.14l-.33.215m2.603.554l.128.372" class="d j"/></g><g clip-path="url(#f)" class="t l"><use xlink:href="#s" x="5.896" y="33.295"/></g><g class="b"><g class="u"><use xlink:href="#t" x="5.896" y="33.295" class="j"/><path d="M44.335 114.606c-.1.306-.066.696.03.718.16.037.344-.192.448-.33.043-.055.104-.114.253-.276.246-.27.246-.256.36-.226.186.05-.073 1.095.3 1.2.187.053.54-.552.668-.65.174-.135.478-.415.44-.022" class="g"/></g><path d="M43.456 115.112h-.394" class="d j"/></g><use xlink:href="#v" x="5.897" y="33.295" class="l"/><use xlink:href="#w" x="5.897" y="33.295" class="b c j"/><use xlink:href="#x" x="5.897" y="33.296" class="l"/><use xlink:href="#y" x="5.897" y="33.296" class="b c j"/><path d="M43.325 117.114a.513.513 0 1 0-.561-.86.513.513 0 0 0 .56.86" class="l"/><g class="b j"><path d="M43.325 117.114a.513.513 0 1 0-.561-.86.513.513 0 0 0 .56.86z" class="c"/><path d="M44.773 113.263l-.13-.372" class="d"/></g><path d="M44.964 112.25a.513.513 0 1 1-.97.337.513.513 0 0 1 .97-.336" class="l"/><g class="b j"><path d="M44.964 112.25a.513.513 0 1 1-.97.337.513.513 0 0 1 .97-.336z" class="c"/><path d="M43.78 114.032l-.33-.215" class="d"/></g><use xlink:href="#An" x="1.146" y="53.291" class="l"/><g class="b j"><use xlink:href="#Ao" x="1.146" y="53.291" class="c"/><path d="M47.396 115.112h.394" class="d"/></g><use xlink:href="#Ac" x="-0.99" y="70.175" class="l"/><use xlink:href="#Ad" x="-0.99" y="70.175" class="b c j"/><use xlink:href="#AD" x="5.897" y="33.296" class="l"/><g class="b j"><use xlink:href="#AE" x="5.897" y="33.296" class="c"/><path d="M47.06 116.196l.33.215" class="d"/></g><path d="M47.527 117.114a.513.513 0 1 1 .561-.86.513.513 0 0 1-.56.86" class="l"/><g class="b j"><path d="M47.527 117.114a.513.513 0 1 1 .561-.86.513.513 0 0 1-.56.86z" class="c"/><path d="M46.08 113.263l.13-.372" class="d"/></g><path d="M45.888 112.25a.513.513 0 1 0 .97.337.513.513 0 0 0-.97-.336" class="l"/><g class="b j"><path d="M45.888 112.25a.513.513 0 1 0 .97.337.513.513 0 0 0-.97-.336z" class="c"/><path d="M47.072 114.032l.33-.215" class="d"/></g><use xlink:href="#AF" x="5.897" y="33.296" class="l"/><use xlink:href="#AG" x="5.897" y="33.296" class="b c j"/><g clip-path="url(#g)" class="t f"><use xlink:href="#s" x="5.78" y="16.623"/></g><g class="b"><g class="u"><use xlink:href="#t" x="5.78" y="16.623" class="e"/><path d="M44.22 97.934c-.1.306-.066.696.03.718.16.037.344-.192.448-.33.043-.055.104-.114.253-.276.246-.27.246-.256.36-.226.186.05-.073 1.095.3 1.2.187.052.54-.553.668-.65.174-.136.478-.416.44-.023" class="g"/></g><path d="M43.34 98.44h-.394" class="d e"/></g><path d="M42.447 98.953a.513.513 0 1 0-.001-1.026.513.513 0 0 0 0 1.026" class="f"/><g class="b e"><path d="M42.447 98.953a.513.513 0 1 0-.001-1.026.513.513 0 0 0 0 1.026z" class="c"/><path d="M44.67 100.293l-.13.372" class="d"/></g><use xlink:href="#AH" x="15.887" y="-10.846" class="f"/><g class="b e"><use xlink:href="#AI" x="15.887" y="-10.846" class="c"/><path d="M43.678 99.525l-.33.214" class="d"/></g><use xlink:href="#AN" x="2.903" y="8.638" class="f"/><g class="b e"><use xlink:href="#AO" x="2.903" y="8.638" class="c"/><path d="M44.658 96.592l-.13-.372" class="d"/></g><use xlink:href="#AP" x="2.914" y="8.64" class="f"/><g class="b e"><use xlink:href="#AQ" x="2.914" y="8.64" class="c"/><path d="M43.665 97.36l-.33-.214" class="d"/></g><use xlink:href="#Ar" x="6.878" y="-2.497" class="f"/><g class="b e"><use xlink:href="#As" x="6.878" y="-2.497" class="c"/><path d="M47.28 98.44h.394" class="d"/></g><path d="M48.175 98.953a.513.513 0 1 1 0-1.026.513.513 0 0 1 0 1.026" class="f"/><g class="b e"><path d="M48.175 98.953a.513.513 0 1 1 0-1.026.513.513 0 0 1 0 1.026z" class="c"/><path d="M45.95 100.293l.13.372" class="d"/></g><path d="M45.76 101.306a.514.514 0 1 1 .97-.336.514.514 0 0 1-.97.336" class="f"/><g class="b e"><path d="M45.76 101.306a.514.514 0 1 1 .97-.336.514.514 0 0 1-.97.336z" class="c"/><path d="M46.943 99.525l.33.214" class="d"/></g><use xlink:href="#AR" x="2.912" y="8.638" class="f"/><g class="b e"><use xlink:href="#AS" x="2.912" y="8.638" class="c"/><path d="M45.964 96.592l.13-.372" class="d"/></g><use xlink:href="#AT" x="2.913" y="8.64" class="f"/><g class="b e"><use xlink:href="#AU" x="2.913" y="8.64" class="c"/><path d="M46.957 97.36l.33-.214" class="d"/></g><use xlink:href="#At" x="6.878" y="-2.497" class="f"/><g class="b"><use xlink:href="#Au" x="6.878" y="-2.497" class="c e"/><path d="M140.286 98.687c0-19.32-15.68-35-35-35-19.326 0-35 15.68-35 35 0 19.326 15.674 35 35 35 19.32 0 35-15.674 35-35z" class="AF"/></g><path d="M77.77 82.912h36.134V81.7H77.77z" class="n"/><path d="M109.336 96.966h28.034v-1.2h-28.034z" fill="#2e258e"/><g clip-path="url(#h)" class="y z"><path d="M152.382 58.013h-11.62l4.965 12.55-4.964 12.552h11.62l4.965-12.552z"/></g><g clip-path="url(#i)" class="y z"><path d="M167.12 58.013H155.5l4.965 12.55-4.964 12.552h11.62l4.965-12.552z"/></g><g clip-path="url(#j)" class="y z"><path d="M181.856 58.013h-11.62l4.965 12.55-4.965 12.552h11.62l4.965-12.552z"/></g><g clip-path="url(#k)" class="y z"><path d="M196.593 58.013h-11.62l4.964 12.55-4.965 12.552h11.62l4.965-12.552z"/></g><g clip-path="url(#l)" class="y z"><path d="M211.33 58.013H199.7l4.965 12.55-4.964 12.552h11.62l4.965-12.552z"/></g><g clip-path="url(#m)" class="y z"><path d="M226.067 58.013h-11.62l4.965 12.55-4.964 12.552h11.62l4.965-12.552z"/></g><use xlink:href="#Aw" fill="#ed1c24"/><g class="b d g o"><use xlink:href="#Aw"/><path d="M191.593 75.367v3.758m5.76-3.76v3.76"/></g><path d="M197.25 80.628L191.764 83l1.83 4.214 5.485-2.382z" fill="#0071bc"/><path d="M197.25 80.628L191.764 83l1.83 4.214 5.485-2.382zm-2.732 6.195l-1.38-3.177m2.836 2.544l-1.38-3.176m2.836 2.544l-1.38-3.177m.65 3.494l-1.38-3.177m2.835 2.544l-1.38-3.177m-1.53 4.442l-1.38-3.177" stroke-linecap="round" class="b d g o"/><path d="M196.192 66.434a1.72 1.72 0 1 0-3.44 0 1.72 1.72 0 0 0 3.44 0" fill="#fffc92"/><path d="M196.192 66.434a1.72 1.72 0 1 0-3.44 0 1.72 1.72 0 0 0 3.44 0z" stroke="#009245" class="b k o"/><path d="M195.2 66.42c.472 1.37-.327 1.37-.728 1.37s-1.2 0-.728-1.37c.24-.69.326-1.37.728-1.37s.488.68.727 1.37" fill="#ceebef"/><g class="k"><g class="b o"><path d="M195.2 66.42c.472 1.37-.327 1.37-.728 1.37s-1.2 0-.728-1.37c.24-.69.326-1.37.728-1.37s.488.68.727 1.37z" stroke="#006837"/><path d="M194.318 65.72c-.114.133-.228.265-.228.418m0 0c0 .153.114.286.228.42m0 0c.114.133.228.265.228.418m0 .001c0 .153-.114.286-.228.42m.342-1.676c-.114.133-.228.265-.228.418m0 0c0 .153.114.286.228.42m0 0c.114.133.228.266.228.42m-.001 0c0 .153-.114.286-.228.42" class="x"/><path d="M196.437 66.434a1.964 1.964 0 1 0-3.93 0 1.964 1.964 0 0 0 3.93 0z" stroke="#990e39"/></g><path d="M194.577 68.24h-.2v.454h.2z" class="g p q r"/></g><path d="M194.818 68.733c0-.098-.155-.177-.346-.177s-.346.08-.346.177.155.177.346.177.346-.08.346-.177" class="s"/><path d="M194.818 68.733c0-.098-.155-.177-.346-.177s-.346.08-.346.177.155.177.346.177.346-.08.346-.177z" class="b g k o"/><path d="M193.834 68.127l-.192-.086-.185.415.192.086z" class="p"/><path d="M193.834 68.127l-.192-.086-.185.415.192.086z" class="b g k q r"/><path d="M193.853 68.675c.04-.09-.07-.224-.244-.302s-.348-.07-.388.02.07.225.244.303.348.068.388-.02" class="s"/><path d="M193.853 68.675c.04-.09-.07-.224-.244-.302s-.348-.07-.388.02.07.225.244.303.348.068.388-.02z" class="b g k o"/><path d="M193.2 67.72l-.14-.155-.338.303.14.156z" class="p"/><path d="M193.2 67.72l-.14-.155-.338.303.14.156z" class="b g k q r"/><path d="M192.995 68.23c.072-.065.028-.233-.1-.376s-.29-.204-.363-.14-.028.235.1.377.3.204.363.14" class="s"/><path d="M192.995 68.23c.072-.065.028-.233-.1-.376s-.29-.204-.363-.14-.028.235.1.377.3.204.363.14z" class="b g k o"/><path d="M192.787 67.092l-.065-.2-.43.14.065.2z" class="p"/><path d="M192.787 67.092l-.065-.2-.43.14.065.2z" class="b g k q r"/><path d="M192.392 67.474c.093-.03.12-.202.06-.384s-.182-.304-.275-.274-.12.202-.06.383.18.305.274.275" class="s"/><path d="M192.392 67.474c.093-.03.12-.202.06-.384s-.182-.304-.275-.274-.12.202-.06.383.18.305.274.275z" class="b g k o"/><path d="M192.665 66.35l.022-.2-.45-.047-.022.21z" class="p"/><path d="M192.665 66.35l.022-.2-.45-.047-.022.21z" class="b g k q r"/><path d="M192.15 66.538c.096.01.19-.135.21-.326s-.043-.352-.14-.362-.193.135-.213.325.043.353.14.363" class="s"/><path d="M192.15 66.538c.096.01.19-.135.21-.326s-.043-.352-.14-.362-.193.135-.213.325.043.353.14.363z" class="b g k o"/><path d="M192.855 65.622l.105-.182-.393-.227-.105.182z" class="p"/><path d="M192.855 65.622l.105-.182-.393-.227-.105.182z" class="b g k q r"/><path d="M192.308 65.584c.085.05.23-.046.326-.21s.105-.34.02-.388-.23.045-.326.21-.104.34-.02.388" class="s"/><path d="M192.308 65.584c.085.05.23-.046.326-.21s.105-.34.02-.388-.23.045-.326.21-.104.34-.02.388z" class="b g k o"/><path d="M193.325 65.035l.17-.124-.266-.367-.17.124z" class="p"/><path d="M193.325 65.035l.17-.124-.266-.367-.17.124z" class="b g k q r"/><path d="M192.84 64.777c.058.08.23.052.384-.06s.234-.268.176-.347-.23-.052-.384.06-.233.268-.176.347" class="s"/><path d="M192.84 64.777c.058.08.23.052.384-.06s.234-.268.176-.347-.23-.052-.384.06-.233.268-.176.347z" class="b g k o"/><path d="M193.994 64.7l.206-.045-.095-.444-.205.044z" class="p"/><path d="M193.994 64.7l.206-.045-.095-.444-.205.044z" class="b g k q r"/><path d="M193.655 64.257c.02.096.188.14.375.1s.322-.15.302-.245-.188-.14-.375-.1-.322.15-.302.245" class="s"/><path d="M193.655 64.257c.02.096.188.14.375.1s.322-.15.302-.245-.188-.14-.375-.1-.322.15-.302.245z" class="b g k o"/><path d="M194.745 64.645l.206.045.094-.445-.206-.044z" class="p"/><path d="M194.745 64.645l.206.045.094-.445-.206-.044z" class="b g k q r"/><path d="M194.612 64.113c-.02.096.115.205.302.245s.355-.006.375-.1-.115-.206-.302-.246-.355.005-.375.1" class="s"/><path d="M194.612 64.113c-.02.096.115.205.302.245s.355-.006.375-.1-.115-.206-.302-.246-.355.005-.375.1z" class="b g k o"/><path d="M195.448 64.9l.17.125.267-.368-.17-.123z" class="p"/><path d="M195.448 64.9l.17.125.267-.368-.17-.123z" class="b g k q r"/><path d="M195.543 64.37c-.057.08.02.235.176.348s.327.138.384.06-.02-.235-.176-.348-.326-.138-.384-.06" class="s"/><path d="M195.543 64.37c-.057.08.02.235.176.348s.327.138.384.06-.02-.235-.176-.348-.326-.138-.384-.06z" class="b g k o"/><path d="M195.983 65.44l.105.182.393-.227-.105-.182z" class="p"/><path d="M195.983 65.44l.105.182.393-.227-.105-.182z" class="b g k q r"/><path d="M196.3 64.985c-.085.05-.076.223.02.388s.242.26.326.2.076-.22-.02-.387-.24-.26-.326-.21" class="s"/><path d="M196.3 64.985c-.085.05-.076.223.02.388s.242.26.326.2.076-.22-.02-.387-.24-.26-.326-.21z" class="b g k o"/><path d="M196.257 66.14l.022.2.45-.047-.022-.2z" class="p"/><path d="M196.257 66.14l.022.2.45-.047-.022-.2z" class="b g k q r"/><path d="M196.722 65.85c-.097.01-.16.173-.14.363s.115.336.212.325.16-.172.14-.362-.115-.336-.212-.326" class="s"/><path d="M196.722 65.85c-.097.01-.16.173-.14.363s.115.336.212.325.16-.172.14-.362-.115-.336-.212-.326z" class="b g k o"/><path d="M196.222 66.892l-.065.2.432.14.064-.2z" class="p"/><path d="M196.222 66.892l-.065.2.432.14.064-.2z" class="b g k q r"/><path d="M196.766 66.815c-.093-.03-.216.093-.275.275s-.033.353.06.383.217-.092.276-.274.032-.354-.06-.384" class="s"/><path d="M196.766 66.815c-.093-.03-.216.093-.275.275s-.033.353.06.383.217-.092.276-.274.032-.354-.06-.384z" class="b g k o"/><path d="M195.885 67.564l-.14.156.338.304.14-.156z" class="p"/><path d="M195.885 67.564l-.14.156.338.304.14-.156z" class="b g k q r"/><path d="M196.412 67.715c-.073-.066-.235-.003-.363.14s-.173.3-.1.374.235.003.363-.14.173-.3.1-.375" class="s"/><path d="M196.412 67.715c-.073-.066-.235-.003-.363.14s-.173.3-.1.374.235.003.363-.14.173-.3.1-.375z" class="b g k o"/><path d="M195.303 68.04l-.192.086.185.414.192-.086z" class="p"/><path d="M195.303 68.04l-.192.086.185.414.192-.086z" class="b g k q r"/><path d="M195.723 68.394c-.04-.1-.213-.1-.388-.02s-.284.213-.244.303.213.098.388.02.284-.213.244-.302" class="s"/><path d="M195.723 68.394c-.04-.1-.213-.1-.388-.02s-.284.213-.244.303.213.098.388.02.284-.213.244-.302z" class="b g k o"/><path d="M196.237 72.22a1.72 1.72 0 1 0-3.44 0 1.72 1.72 0 0 0 3.44 0" fill="#8df7e8"/><path d="M196.237 72.22a1.72 1.72 0 1 0-3.44 0 1.72 1.72 0 0 0 3.44 0z" stroke="#009245" class="b k o"/><path d="M195.244 72.206c.473 1.37-.326 1.37-.727 1.37s-1.2 0-.727-1.37c.238-.7.325-1.37.727-1.37s.488.68.727 1.37" fill="#ceebef"/><g class="k"><g class="b o"><path d="M195.244 72.206c.473 1.37-.326 1.37-.727 1.37s-1.2 0-.727-1.37c.238-.7.325-1.37.727-1.37s.488.68.727 1.37z" stroke="#006837"/><path d="M194.363 71.506c-.114.134-.228.266-.228.42m0 0c0 .153.114.286.228.42m0-.001c.114.135.228.267.228.42m-.001 0c0 .153-.113.286-.227.42m.342-1.677c-.114.134-.228.266-.228.42m0 0c0 .153.114.286.228.42m0-.001c.114.135.228.267.228.42m-.001 0c0 .153-.114.286-.228.42" class="x"/><path d="M196.482 72.22a1.965 1.965 0 1 0-3.931.001 1.965 1.965 0 0 0 3.93 0z" stroke="#990e39"/></g><path d="M194.622 74.027h-.2v.454h.2z" class="g p q r"/></g><path d="M194.863 74.52c0-.098-.155-.177-.346-.177s-.346.08-.346.177.155.177.346.177.346-.08.346-.177" class="s"/><path d="M194.863 74.52c0-.098-.155-.177-.346-.177s-.346.08-.346.177.155.177.346.177.346-.08.346-.177z" class="b g k o"/><path d="M193.878 73.914l-.192-.086-.185.415.192.085z" class="p"/><path d="M193.878 73.914l-.192-.086-.185.415.192.085z" class="b g k q r"/><path d="M193.898 74.462c.04-.1-.07-.224-.244-.302s-.348-.07-.388.02.07.225.244.303.348.068.388-.02" class="s"/><path d="M193.898 74.462c.04-.1-.07-.224-.244-.302s-.348-.07-.388.02.07.225.244.303.348.068.388-.02z" class="b g k o"/><path d="M193.245 73.507l-.14-.156-.337.303.14.157z" class="p"/><path d="M193.245 73.507l-.14-.156-.337.303.14.157z" class="b g k q r"/><path d="M193.04 74.016c.073-.065.028-.234-.1-.375s-.3-.205-.363-.14-.028.234.1.376.3.203.363.138" class="s"/><path d="M193.04 74.016c.073-.065.028-.234-.1-.375s-.3-.205-.363-.14-.028.234.1.376.3.203.363.138z" class="b g k o"/><path d="M192.832 72.88l-.065-.2-.43.14.064.2z" class="p"/><path d="M192.832 72.88l-.065-.2-.43.14.064.2z" class="b g k q r"/><path d="M192.437 73.26c.093-.03.12-.202.06-.384s-.182-.304-.275-.274-.12.202-.06.383.18.305.274.275" class="s"/><path d="M192.437 73.26c.093-.03.12-.202.06-.384s-.182-.304-.275-.274-.12.202-.06.383.18.305.274.275z" class="b g k o"/><path d="M192.7 72.137l.022-.2-.45-.046-.022.21z" class="p"/><path d="M192.7 72.137l.022-.2-.45-.046-.022.21z" class="b g k q r"/><path d="M192.194 72.325c.097.01.192-.136.212-.326s-.042-.352-.14-.362-.192.135-.212.325.043.353.14.363" class="s"/><path d="M192.194 72.325c.097.01.192-.136.212-.326s-.042-.352-.14-.362-.192.135-.212.325.043.353.14.363z" class="b g k o"/><path d="M192.9 71.41l.105-.182-.393-.227-.105.182z" class="p"/><path d="M192.9 71.41l.105-.182-.393-.227-.105.182z" class="b g k q r"/><path d="M192.353 71.37c.085.05.23-.046.326-.21s.105-.34.02-.388-.23.045-.326.21-.105.34-.02.388" class="s"/><path d="M192.353 71.37c.085.05.23-.046.326-.21s.105-.34.02-.388-.23.045-.326.21-.105.34-.02.388z" class="b g k o"/><path d="M193.37 70.82l.17-.124-.267-.367-.17.124z" class="p"/><path d="M193.37 70.82l.17-.124-.267-.367-.17.124z" class="b g k q r"/><path d="M192.885 70.564c.057.08.23.052.384-.06s.233-.268.176-.347-.23-.052-.384.06-.233.268-.176.347" class="s"/><path d="M192.885 70.564c.057.08.23.052.384-.06s.233-.268.176-.347-.23-.052-.384.06-.233.268-.176.347z" class="b g k o"/><path d="M194.038 70.476l.206-.044-.095-.444-.205.044z" class="p"/><path d="M194.038 70.476l.206-.044-.095-.444-.205.044z" class="b g k q r"/><path d="M193.7 70.044c.02.096.188.14.375.1s.322-.148.302-.244-.188-.14-.375-.1-.322.15-.302.245" class="s"/><path d="M193.7 70.044c.02.096.188.14.375.1s.322-.148.302-.244-.188-.14-.375-.1-.322.15-.302.245z" class="b g k o"/><path d="M194.8 70.432l.206.044.094-.444-.206-.044z" class="p"/><path d="M194.8 70.432l.206.044.094-.444-.206-.044z" class="b g k q r"/><path d="M194.656 69.9c-.02.096.115.205.302.245s.355-.006.375-.1-.115-.205-.302-.245-.355.006-.375.1" class="s"/><path d="M194.656 69.9c-.02.096.115.205.302.245s.355-.006.375-.1-.115-.205-.302-.245-.355.006-.375.1z" class="b g k o"/><path d="M195.493 70.698l.17.124.267-.368-.17-.123z" class="p"/><path d="M195.493 70.698l.17.124.267-.368-.17-.123z" class="b g k q r"/><path d="M195.588 70.157c-.057.08.02.234.176.347s.327.14.384.06-.02-.234-.176-.347-.326-.14-.384-.06" class="s"/><path d="M195.588 70.157c-.057.08.02.234.176.347s.327.14.384.06-.02-.234-.176-.347-.326-.14-.384-.06z" class="b g k o"/><path d="M196.03 71.227l.105.182.393-.227-.105-.182z" class="p"/><path d="M196.03 71.227l.105.182.393-.227-.105-.182z" class="b g k q r"/><path d="M196.335 70.772c-.085.05-.076.223.02.388s.24.26.326.2.076-.22-.02-.387-.24-.26-.326-.21" class="s"/><path d="M196.335 70.772c-.085.05-.076.223.02.388s.24.26.326.2.076-.22-.02-.387-.24-.26-.326-.21z" class="b g k o"/><path d="M196.302 71.928l.022.21.45-.047-.022-.2z" class="p"/><path d="M196.302 71.928l.022.21.45-.047-.022-.2z" class="b g k q r"/><path d="M196.767 71.636c-.097.01-.16.174-.14.364s.115.335.212.324.16-.17.14-.36-.115-.336-.212-.326" class="s"/><path d="M196.767 71.636c-.097.01-.16.174-.14.364s.115.335.212.324.16-.17.14-.36-.115-.336-.212-.326z" class="b g k o"/><path d="M196.267 72.68l-.065.2.432.14.064-.2z" class="p"/><path d="M196.267 72.68l-.065.2.432.14.064-.2z" class="b g k q r"/><path d="M196.8 72.602c-.093-.03-.216.092-.275.275s-.032.353.06.383.216-.092.275-.274.032-.354-.06-.384" class="s"/><path d="M196.8 72.602c-.093-.03-.216.092-.275.275s-.032.353.06.383.216-.092.275-.274.032-.354-.06-.384z" class="b g k o"/><path d="M195.93 73.35l-.142.156.337.304.14-.157z" class="p"/><path d="M195.93 73.35l-.142.156.337.304.14-.157z" class="b g k q r"/><path d="M196.457 73.502c-.073-.065-.235-.003-.363.14s-.173.3-.1.374.235.004.363-.138.173-.3.1-.376" class="s"/><path d="M196.457 73.502c-.073-.065-.235-.003-.363.14s-.173.3-.1.374.235.004.363-.138.173-.3.1-.376z" class="b g k o"/><path d="M195.347 73.828l-.192.085.185.415.192-.086z" class="p"/><path d="M195.347 73.828l-.192.085.185.415.192-.086z" class="b g k q r"/><path d="M195.768 74.18c-.04-.088-.214-.098-.388-.02s-.284.213-.244.302.213.1.388.02.284-.212.244-.3" class="s"/><path d="M195.768 74.18c-.04-.088-.214-.098-.388-.02s-.284.213-.244.302.213.1.388.02.284-.212.244-.3z" class="b g k o"/></g><text transform="matrix(1.33333, 0, 0, 1.33333, 187.047, 115.844)" font-family="Times" font-size="34.367"><tspan x="0 21.665 33.11 50.292 58.884 76.067" y="0">V-p pe</tspan></text><g clip-path="url(#n)" transform="matrix(1.33333 0 0 -1.33333 0 200)" class="f"><path d="M237.04 125.09h60v-1.202h-60z"/></g><text transform="matrix(1.33333, 0, 0, 1.33333, 403.605, 37.927)" class="AC AD"><tspan x="0 5.56 11.12" y="0">36%</tspan></text><g clip-path="url(#o)" transform="matrix(1.33333 0 0 -1.33333 0 200)" class="i"><path d="M237.04 102.14h60v-1.2h-60z"/></g><text transform="matrix(1.33333, 0, 0, 1.33333, 403.604, 68.525)" class="AC AD"><tspan x="0 5.56 11.12" y="0">25%</tspan></text><g clip-path="url(#p)" transform="matrix(1.33333 0 0 -1.33333 0 200)"><path d="M237.04 79.193h60v-1.2h-60z" fill="#2b348d"/></g><text transform="matrix(1.33333, 0, 0, 1.33333, 403.605, 99.122)" class="AC AD"><tspan x="0 5.56 11.12" y="0">18%</tspan></text><g clip-path="url(#q)" transform="matrix(1.33333 0 0 -1.33333 0 200)" class="n"><path d="M237.04 56.247h60v-1.202h-60z"/></g><text transform="matrix(1.33333, 0, 0, 1.33333, 403.605, 129.72)" class="AC AD"><tspan x="0 5.56 11.12" y="0">14%</tspan></text><g clip-path="url(#r)" transform="matrix(1.33333 0 0 -1.33333 0 200)"><path d="M237.04 33.298h60v-1.2h-60z" class="v"/><text transform="matrix(.99999 0 0 -1 308.265015 29.761999)" class="AC AD"><tspan x="0 5.56" y="0">7%</tspan></text><path d="M248.95 121.154h26.03v-1.2h-26.03z" class="AA"/><path d="M263.584 121.555l2.002-2.002m.001 2.002l-2.002-2.002" class="b x AB"/><path d="M237.04 117.795h26.03v-1.2h-26.03zm25.985-2.842h26.03v-1.2h-26.03zm17.984 3.45h16.03v-1.2h-16.03zm-32.06-89.042h26.03v-1.2h-26.03zm-11.91-3.36h26.03v-1.2h-26.03zm33.97.6h26.03v-1.2h-26.03zm-19.06 84.418h20.03v-1.2h-20.03zm7.015-58.71h26.03v-1.2h-26.03zm-21.925-3.95h26.03v-1.2h-26.03zm43.97 1.2h16.03v-1.2h-16.03zm-22.044-5.183h20.03v-1.2h-20.03z" class="AA"/><path d="M265.217 44.778l2.002-2.002m.001 2.002l-2.003-2.002" class="b x AB"/><path d="M271.01 75.714h26.03v-1.2h-26.03zm-16.805-3.105h26.03v-1.2h-26.03zm-17.164-4.753h26.03v-1.2h-26.03zm0 8.1h20.03v-1.2h-20.03z" class="AA"/><path d="M243.292 76.367l2.002-2.002m.001 2.002l-2.002-2.002" class="b x AB"/><path d="M268.98 69.294h16.03v-1.2h-16.03zm-28.046 45.058h16.03v-1.2h-16.03zm34.062-2.13h20.03v-1.2h-20.03z" class="AA"/><path d="M281.248 112.622l2.002-2.002m0 2.002l-2.002-2.002" class="b x AB"/><path d="M255.964 98.597h26.03v-1.2h-26.03zm-17.4-3.232h26.03v-1.2h-26.03zm34.68-.6h20.03v-1.2h-20.03z" class="AA"/><path d="M279.487 95.166l2.002-2.002m.001 2.002l-2.003-2.002" class="b x AB"/><path d="M251.95 92.154h16.03v-1.2h-16.03zm14.52-2.86h26.03v-1.2h-26.03zm-24.917 0h20.03v-1.2h-20.03z" class="AA"/><path d="M247.806 89.695l2.002-2.002m.001 2.002l-2.002-2.002" class="b x AB"/></g></svg>